<svg id="Grupa_1" data-name="Grupa 1" xmlns="http://www.w3.org/2000/svg" width="95" height="95" viewBox="0 0 95 95">
  <defs>
    <style>
      .cls-1 {
        fill: #fff;
      }

      .cls-2 {
        fill: #375ebc;
        fill-rule: evenodd;
      }
    </style>
  </defs>
  <circle id="Elipsa_18" data-name="Elipsa 18" class="cls-1" cx="47.5" cy="47.5" r="47.5"/>
  <path id="Kształt_13" data-name="Kształt 13" class="cls-2" d="M388.114,2160.62h-1.773a2.648,2.648,0,0,0-2.659,2.63v6.12a1.763,1.763,0,0,1-1.044,1.6,3.546,3.546,0,0,0-3.388-2.47h-7.091V2165h6.2a3.526,3.526,0,0,0,3.545-3.5v-21a3.526,3.526,0,0,0-3.545-3.5H360.636a3.526,3.526,0,0,0-3.545,3.5v21a3.526,3.526,0,0,0,3.545,3.5h6.2v3.5H359.75a3.546,3.546,0,0,0-3.388,2.47,1.763,1.763,0,0,1-1.044-1.6v-6.12a2.648,2.648,0,0,0-2.659-2.63h-1.773a0.875,0.875,0,1,0,0,1.75h1.773a0.888,0.888,0,0,1,.887.88v6.12a19.54,19.54,0,0,0,6.2,6.13h7.091v12.25h-6.2a2.625,2.625,0,1,0,2.659,2.63,2.59,2.59,0,0,0-.152-0.88h12.714a2.59,2.59,0,0,0-.152.88,2.659,2.659,0,1,0,2.659-2.63h-6.2V2175.5h7.091a19.557,19.557,0,0,0,6.2-6.13v-6.12a0.887,0.887,0,0,1,.886-0.88h1.773A0.875,0.875,0,1,0,388.114,2160.62Zm-27.478,30.63a0.875,0.875,0,1,1,.887-0.87A0.879,0.879,0,0,1,360.636,2191.25Zm17.728-1.75a0.875,0.875,0,1,1-.887.88A0.881,0.881,0,0,1,378.364,2189.5Zm-17.728-26.25a1.766,1.766,0,0,1-1.772-1.75v-21a1.766,1.766,0,0,1,1.772-1.75h17.728a1.766,1.766,0,0,1,1.772,1.75v21a1.766,1.766,0,0,1-1.772,1.75H360.636Zm9.75,1.75v3.5h-1.772V2165h1.772Zm0,22.75h-1.772V2175.5h1.772v12.25Zm8.864-14h-19.5a1.75,1.75,0,1,1,0-3.5h19.5A1.75,1.75,0,1,1,379.25,2173.75ZM377.477,2144a0.879,0.879,0,0,0,.887-0.87v-1.76a0.887,0.887,0,0,0-1.773,0v1.76A0.879,0.879,0,0,0,377.477,2144Zm0.887,2.62a0.887,0.887,0,0,0-1.773,0v5.25a0.887,0.887,0,0,0,1.773,0v-5.25Z" transform="translate(-322 -2120)"/>
</svg>
