<svg xmlns="http://www.w3.org/2000/svg" width="58" height="56" viewBox="0 0 58 56">
  <defs>
    <style>
      .cls-1 {
        fill: #375ebc;
        fill-rule: evenodd;
      }
    </style>
  </defs>
  <path id="Kształt_17" data-name="Kształt 17" class="cls-1" d="M1369.78,2178.29l-0.14-.05v-3.82a10.448,10.448,0,0,0-10.46-10.42,9.6,9.6,0,0,0-2.93.42,16.635,16.635,0,0,0-2.18.91,10.441,10.441,0,0,0-5.35,9.09v3.68h-31.39a3.327,3.327,0,0,0-3.33,3.32v28.21a3.327,3.327,0,0,0,3.33,3.32h9.6v5.12h-4.67V2220h34.99v-1.93h-4.72v-5.12h9.66a3.333,3.333,0,0,0,3.33-3.32v-10.79h3.15a3.318,3.318,0,0,0,3.33-3.31V2181.4A3.313,3.313,0,0,0,1369.78,2178.29Zm-19.12-3.87a8.52,8.52,0,0,1,17.04,0v3.67h-2.78v-3.67a5.74,5.74,0,0,0-11.48,0v3.67h-2.78v-3.67Zm12.32,0v3.67h-7.6v-3.67A3.8,3.8,0,0,1,1362.98,2174.42Zm-12.39,43.65h-21.72v-5.12h21.72v5.12Zm12.98-8.44a1.383,1.383,0,0,1-1.38,1.38h-44.86a1.391,1.391,0,0,1-1.39-1.38v-3.73h47.63v3.73Zm0-5.67h-47.63v-22.54a1.391,1.391,0,0,1,1.39-1.38h29.31l-0.1.28a3.318,3.318,0,0,0-.19,1.08v14.13a2.452,2.452,0,0,0,.02.27,3.657,3.657,0,0,0,.72,1.79,2.592,2.592,0,0,0,1.85,1.09c3.79,0.11,14.32.16,14.43,0.16h0.2v5.12Zm6.49-8.43a1.391,1.391,0,0,1-1.39,1.38h-18.98a1.385,1.385,0,0,1-1.39-1.38V2181.4a1.385,1.385,0,0,1,1.39-1.38h18.98a1.391,1.391,0,0,1,1.39,1.38v14.13Zm-21.12,3.15a2.592,2.592,0,0,1-1.85-1.09A2.488,2.488,0,0,0,1348.94,2198.68Zm-2.59-3.15c0,0.08.01,0.17,0.02,0.27A2.452,2.452,0,0,1,1346.35,2195.53Zm12.88-12.72a3.3,3.3,0,0,0-1.11,6.43l0.13,0.05v4.85h1.95v-4.85l0.14-.05A3.307,3.307,0,0,0,1359.23,2182.81Zm0,4.7a1.385,1.385,0,1,1,1.38-1.39A1.387,1.387,0,0,1,1359.23,2187.51Zm-40.51,13.68h1.94v-1.93h-1.94v1.93Zm4.72,0h10.21v-1.93h-10.21v1.93Z" transform="translate(-1314 -2164)"/>
</svg>
