<svg id="Grupa_3" data-name="Grupa 3" xmlns="http://www.w3.org/2000/svg" width="95" height="95" viewBox="0 0 95 95">
  <defs>
    <style>
      .cls-1 {
        fill: #fff;
      }

      .cls-2 {
        fill: #375ebc;
        fill-rule: evenodd;
      }
    </style>
  </defs>
  <circle id="Elipsa_18_kopia_2" data-name="Elipsa 18 kopia 2" class="cls-1" cx="47.5" cy="47.5" r="47.5"/>
  <path id="Kształt_16" data-name="Kształt 16" class="cls-2" d="M692.315,2182.8v3.35l-3.473-3.52a20.358,20.358,0,0,0,2.551-9.73v-0.37H699v-1.86h-7.607v-8.4a0.93,0.93,0,0,0-.921-0.94H684.02v-5.6a0.927,0.927,0,0,0-.921-0.93h-2.765V2152a13.825,13.825,0,1,0-27.648,0v2.8h-2.764a0.928,0.928,0,0,0-.922.93v28a4.641,4.641,0,0,0,4.608,4.67h15.174a31.779,31.779,0,0,0,7.433,5.49,0.943,0.943,0,0,0,.433.11,0.957,0.957,0,0,0,.434-0.11,29.414,29.414,0,0,0,10.781-9.61l3.149,3.19h-3.3v1.86h5.529a0.921,0.921,0,0,0,.922-0.93v-5.6h-1.843ZM654.529,2152a11.982,11.982,0,1,1,23.962,0v2.8h-2.765V2152a9.217,9.217,0,1,0-18.432,0v2.8h-2.765V2152Zm19.354,0v2.8H659.138V2152A7.373,7.373,0,1,1,673.883,2152Zm-23.04,14v-2.8m0,7.47v-2.8m0,7.46v-2.8m0,7.47v-2.8m0-15.87v-4.66h31.334v4.66H662.824a0.93,0.93,0,0,0-.922.94v10.63a21.385,21.385,0,0,0,5.194,13.63H653.608a2.782,2.782,0,0,1-2.765-2.8v-1.86m34.154-.49,1.532,1.55a27.13,27.13,0,0,1-9.881,9.07c-8.089-4.52-12.9-11.63-12.9-19.1v-9.7h25.8v7.47h-12.9a0.914,0.914,0,0,0-.852.57,0.948,0.948,0,0,0,.2,1.02l7.645,7.74Zm2.661-8.85h1.892v0.37a18.359,18.359,0,0,1-2.066,8.35l-1.605-1.62-1.4-1.42-5.61-5.68h8.786Z" transform="translate(-623 -2120)"/>
</svg>
