<svg id="Grupa_2" data-name="Grupa 2" xmlns="http://www.w3.org/2000/svg" width="95" height="95" viewBox="0 0 95 95">
  <defs>
    <style>
      .cls-1 {
        fill: #fff;
      }

      .cls-2 {
        fill: #375ebc;
        fill-rule: evenodd;
      }
    </style>
  </defs>
  <circle id="Elipsa_18_kopia" data-name="Elipsa 18 kopia" class="cls-1" cx="47.5" cy="47.5" r="47.5"/>
  <path id="Kształt_11" data-name="Kształt 11" class="cls-2" d="M528.34,2298.66a3.265,3.265,0,1,0,3.319,3.26A3.291,3.291,0,0,0,528.34,2298.66Zm0,4.66a1.4,1.4,0,1,1,1.422-1.4A1.415,1.415,0,0,1,528.34,2303.32Zm4.267-16.79a3.731,3.731,0,1,0-3.793-3.73A3.765,3.765,0,0,0,532.607,2286.53Zm0-5.6a1.865,1.865,0,1,1-1.9,1.87A1.887,1.887,0,0,1,532.607,2280.93Zm-22.76-17.72a0.97,0.97,0,0,0,.671-0.28l1.9-1.86a0.924,0.924,0,0,0,0-1.32,0.949,0.949,0,0,0-1.341,0l-1.9,1.86a0.922,0.922,0,0,0,0,1.32A0.97,0.97,0,0,0,509.847,2263.21Zm34.14,16.55a3.022,3.022,0,0,0-.915-2.17l-0.528-.52a4.161,4.161,0,0,0,1.442-3.14,4.234,4.234,0,0,0-4.267-4.19,4.332,4.332,0,0,0-.512.03,3.866,3.866,0,0,0,.038-0.5,4.243,4.243,0,0,0-4.268-4.2,4.362,4.362,0,0,0-.512.04,4.007,4.007,0,0,0,.038-0.5,4.237,4.237,0,0,0-4.268-4.2,4.327,4.327,0,0,0-.511.03,4.054,4.054,0,0,0,.037-0.5,4.242,4.242,0,0,0-4.267-4.2,4.308,4.308,0,0,0-3.188,1.42l-0.753-.74-3.569-3.51a3.16,3.16,0,0,0-4.417,0l-11.676,11.49a3.036,3.036,0,0,0,0,4.34l3.569,3.51,4.656,4.58a4.141,4.141,0,0,0-.252,7.13,1.414,1.414,0,0,0,.215.23l10.2,9.99v1.68h-1.9v12.13h24.657v-12.13h-1.9v-2.83a7.8,7.8,0,0,0,1.389-10.56l0.541-.53A3.045,3.045,0,0,0,543.987,2279.76Zm-1.9-5.83a2.323,2.323,0,0,1-.889,1.82l-3.33-3.27A2.374,2.374,0,0,1,542.091,2273.93Zm-4.742-4.66a2.323,2.323,0,0,1-.889,1.82l-3.329-3.28a2.393,2.393,0,0,1,1.846-.87A2.351,2.351,0,0,1,537.349,2269.27Zm-4.742-4.66a2.317,2.317,0,0,1-.888,1.81l-3.33-3.27A2.374,2.374,0,0,1,532.607,2264.61Zm-7.112-7a2.35,2.35,0,0,1,2.371,2.33,2.323,2.323,0,0,1-.889,1.82l-3.329-3.28A2.392,2.392,0,0,1,525.5,2257.61Zm-22.263,9.81a1.187,1.187,0,0,1,0-1.7l11.676-11.49a1.175,1.175,0,0,1,.4-0.26,0.758,0.758,0,0,1,.211-0.04,1.078,1.078,0,0,1,.5,0,0.758,0.758,0,0,1,.211.04,1.185,1.185,0,0,1,.4.26l2.228,2.19-13.411,13.19Zm16.98-9.68,1.117,1.1,4.741,4.66,0.544,0.54,4.2,4.13,0.543,0.53,4.2,4.13,0.543,0.54,4.742,4.66,0.891,0.88a1.2,1.2,0,0,1,0,1.71l-0.414.41h0l-11.261,11.07a1.236,1.236,0,0,1-1.736,0l-7.563-7.44H521.7a4.2,4.2,0,1,0,0-8.39H512.22l-5.42-5.34Zm-8.506,20.45,0.394-.04a0.47,0.47,0,0,1,.117-0.02H521.7a2.335,2.335,0,1,1,0,4.67h-9.484A2.329,2.329,0,0,1,511.706,2278.19Zm8.573,27.93v-8.4h7.991a5.255,5.255,0,0,1,5.286,5.2v3.2H520.279Zm20.863,0h-5.69v-3.2a7.015,7.015,0,0,0-2.336-5.2h8.026v8.4Zm0.024-22.31a5.974,5.974,0,0,1-1.543,8.03l-0.377.28v3.74H522.175v-2.54l-0.335-.28c-0.043-.03-0.088-0.07-0.171-0.13l-8.418-8.25h4.822l8.9,8.76a3.161,3.161,0,0,0,4.418,0Z" transform="translate(-477 -2235)"/>
</svg>
