<svg xmlns="http://www.w3.org/2000/svg" width="45" height="56" viewBox="0 0 45 56">
  <defs>
    <style>
      .cls-1 {
        fill: #375ebc;
        fill-rule: evenodd;
      }
    </style>
  </defs>
  <path id="Kształt_12" data-name="Kształt 12" class="cls-1" d="M1159.41,2175.06l-21.4-10.93a1.063,1.063,0,0,0-.5-0.13h-0.02a1.063,1.063,0,0,0-.5.13l-21.4,10.93a1.09,1.09,0,0,0-.59.98v20.87a15.914,15.914,0,0,0,3.5,10.31,29.4,29.4,0,0,0,7.73,6.31c5.35,3.28,10.69,6.3,10.74,6.33a1.067,1.067,0,0,0,.52.14h0.02a1.067,1.067,0,0,0,.52-0.14c0.05-.03,5.39-3.05,10.74-6.33a29.4,29.4,0,0,0,7.73-6.31,15.914,15.914,0,0,0,3.5-10.31v-20.87A1.09,1.09,0,0,0,1159.41,2175.06Zm-1.55,21.85c0,7.84-5.26,11.73-10.19,14.75-4.36,2.67-8.71,5.17-10.17,6-1.46-.83-5.81-3.33-10.17-6-4.93-3.02-10.19-6.91-10.19-14.75v-20.2l20.36-10.4,20.36,10.4v20.2Zm-25.3-25.14-12.25,6.26a1.1,1.1,0,0,0-.6.98v17.9c0,5.87,3.28,9.03,8.95,12.5a1.084,1.084,0,0,0,.55.15,1.052,1.052,0,0,0,.92-0.53,1.11,1.11,0,0,0-.37-1.5c-5.24-3.21-7.9-5.74-7.9-10.62v-17.23l11.65-5.95a1.1,1.1,0,0,0,.48-1.47A1.055,1.055,0,0,0,1132.56,2171.77Zm22.13,6.26-12.27-6.27a1.066,1.066,0,0,0-1.44.49,1.111,1.111,0,0,0,.48,1.47l11.68,5.96v17.23c0,4.88-2.66,7.41-7.9,10.62a1.11,1.11,0,0,0-.37,1.5,1.052,1.052,0,0,0,.92.53,1.084,1.084,0,0,0,.55-0.15c5.67-3.47,8.95-6.63,8.95-12.5v-17.9A1.1,1.1,0,0,0,1154.69,2178.03Zm-6.99,10.61a1.08,1.08,0,0,0-1.35-.71,1.11,1.11,0,0,0-.69,1.38,8.854,8.854,0,0,1-2.1,8.88,8.458,8.458,0,0,1-12.12,0,8.888,8.888,0,0,1,0-12.38,8.442,8.442,0,0,1,8.57-2.18,1.067,1.067,0,0,0,1.34-.72,1.11,1.11,0,0,0-.71-1.37,10.566,10.566,0,0,0-10.72,2.73,11.11,11.11,0,0,0,0,15.46,10.578,10.578,0,0,0,15.16,0A11.059,11.059,0,0,0,1147.7,2188.64Zm-2.61-4.37a1.066,1.066,0,0,0-1.52-.02v0.01a1.089,1.089,0,0,0-.01,1.54,1.039,1.039,0,0,0,.76.33,1.085,1.085,0,0,0,.76-0.32A1.108,1.108,0,0,0,1145.09,2184.27Zm-1.51,3.93a1.057,1.057,0,0,0-1.52,0l-5.56,5.68-2.4-2.45a1.057,1.057,0,0,0-1.52,0,1.118,1.118,0,0,0,0,1.54l3.16,3.23a1.063,1.063,0,0,0,1.52,0l6.32-6.45A1.13,1.13,0,0,0,1143.58,2188.2Z" transform="translate(-1115 -2164)"/>
</svg>
