<svg xmlns="http://www.w3.org/2000/svg" width="56.188" height="56.18" viewBox="0 0 56.188 56.18">
  <defs>
    <style>
      .cls-1 {
        fill: #375ebc;
        stroke: #375ebc;
        stroke-width: 0.2px;
        fill-rule: evenodd;
      }
    </style>
  </defs>
  <path id="Kształt_15" data-name="Kształt 15" class="cls-1" d="M939.668,2164a28.018,28.018,0,0,0-26.021,37.49,1.027,1.027,0,0,0,.974.69,1.107,1.107,0,0,0,.355-0.06,1.041,1.041,0,0,0,.63-1.33,25.911,25.911,0,0,1,42.486-27.32l0.161,0.15-3.128.04a1.052,1.052,0,0,0-1.032,1.05,1.039,1.039,0,0,0,1.043,1.03h0.012l5.637-.06a1.067,1.067,0,0,0,1.031-1.06l-0.069-5.64a1.044,1.044,0,0,0-1.042-1.03h-0.012a1.051,1.051,0,0,0-1.031,1.05l0.034,3.13-0.16-.15A27.761,27.761,0,0,0,939.668,2164Zm-21.5,45.4,0.068,5.65a1.046,1.046,0,0,0,1.043,1.03H919.3a1.054,1.054,0,0,0,1.032-1.06l-0.035-3.13,0.161,0.15a28,28,0,0,0,45.9-29.52,1.04,1.04,0,1,0-1.959.7,25.916,25.916,0,0,1-42.486,27.33l-0.161-.15,3.128-.03a1.045,1.045,0,0,0-.011-2.09h-0.012l-5.637.07A1.038,1.038,0,0,0,918.173,2209.4Zm10.93-26.06a0.258,0.258,0,0,1-.229.09l-2.28-.45a2.7,2.7,0,0,0-.4-0.03,2.262,2.262,0,0,0-2.074,1.36c-0.011.01-.011,0.04-0.023,0.05l-1.077,2.89a2.212,2.212,0,0,0,.974,2.7l2,1.16a0.273,0.273,0,0,1,.115.22,13.286,13.286,0,0,0,.08,2.24,0.244,0.244,0,0,1-.092.23l-1.936,1.3a2.224,2.224,0,0,0-.768,2.76l1.272,2.78a2.211,2.211,0,0,0,2.017,1.3,1.889,1.889,0,0,0,.573-0.08l2.245-.6a0.231,0.231,0,0,1,.23.08,13.833,13.833,0,0,0,1.638,1.53,0.265,0.265,0,0,1,.092.23l-0.436,2.28a2.216,2.216,0,0,0,1.41,2.5l2.887,1.08a2.324,2.324,0,0,0,.779.14,2.235,2.235,0,0,0,1.925-1.12l1.158-2a0.265,0.265,0,0,1,.229-0.12h0a13.649,13.649,0,0,0,2.119-.07,0.263,0.263,0,0,1,.23.09l1.317,1.95a2.2,2.2,0,0,0,2.75.78l2.784-1.27a2.2,2.2,0,0,0,1.215-2.59l-0.6-2.21a0.265,0.265,0,0,1,.08-0.25,12.374,12.374,0,0,0,1.513-1.61,0.218,0.218,0,0,1,.229-0.09l2.314,0.43a2.887,2.887,0,0,0,.413.04,2.239,2.239,0,0,0,2.085-1.45l1.077-2.89a2.225,2.225,0,0,0-.974-2.71l-1.982-1.14a0.275,0.275,0,0,1-.114-0.22,14.622,14.622,0,0,0-.069-2.23,0.227,0.227,0,0,1,.092-0.22l1.947-1.32a2.224,2.224,0,0,0,.768-2.76l-1.272-2.78a2.21,2.21,0,0,0-2.016-1.3,2.019,2.019,0,0,0-.585.08l-2.2.62a0.256,0.256,0,0,1-.24-0.08,13.6,13.6,0,0,0-1.6-1.51,0.216,0.216,0,0,1-.092-0.23l0.435-2.32a2.214,2.214,0,0,0-1.409-2.5l-2.887-1.08a2.325,2.325,0,0,0-.78-0.14,2.234,2.234,0,0,0-1.924,1.12l-1.146,1.97a0.248,0.248,0,0,1-.229.11h0a13.62,13.62,0,0,0-2.3.07,0.268,0.268,0,0,1-.24-0.09l-1.306-1.92a2.22,2.22,0,0,0-1.834-.98,2.368,2.368,0,0,0-.916.19l-2.785,1.28a2.2,2.2,0,0,0-1.214,2.59l0.6,2.25a0.231,0.231,0,0,1-.08.23A15.092,15.092,0,0,0,929.1,2183.34Zm1.627,1.28a10.661,10.661,0,0,1,1.295-1.39,2.309,2.309,0,0,0,.688-2.3l-0.6-2.25a0.125,0.125,0,0,1,.069-0.16l2.784-1.27a0.115,0.115,0,0,1,.057-0.01,0.131,0.131,0,0,1,.115.05l1.306,1.93a2.334,2.334,0,0,0,2.2,1,9.651,9.651,0,0,1,1.936-.06,2.293,2.293,0,0,0,2.143-1.15l1.134-1.97a0.147,0.147,0,0,1,.184-0.07l2.887,1.08a0.144,0.144,0,0,1,.092.16l-0.436,2.32a2.353,2.353,0,0,0,.837,2.25,10.433,10.433,0,0,1,1.363,1.28,2.325,2.325,0,0,0,1.719.77,2.2,2.2,0,0,0,.619-0.08l2.188-.61a0.161,0.161,0,0,1,.172.07l1.272,2.79a0.162,0.162,0,0,1-.046.17l-1.948,1.32a2.327,2.327,0,0,0-1,2.18,11.6,11.6,0,0,1,.058,1.89,2.3,2.3,0,0,0,1.145,2.13l1.983,1.15a0.139,0.139,0,0,1,.068.18l-1.077,2.89a0.158,0.158,0,0,1-.16.09l-2.315-.43a2.037,2.037,0,0,0-.424-0.05,2.3,2.3,0,0,0-1.81.88,10.866,10.866,0,0,1-1.295,1.38,2.307,2.307,0,0,0-.687,2.32l0.6,2.21a0.126,0.126,0,0,1-.069.16L945,2206.74a0.07,0.07,0,0,1-.058.02,0.12,0.12,0,0,1-.114-0.06l-1.318-1.95a2.336,2.336,0,0,0-2.188-1,10.825,10.825,0,0,1-1.8.06,2.327,2.327,0,0,0-2.12,1.16l-1.157,2a0.138,0.138,0,0,1-.184.07l-2.887-1.08a0.144,0.144,0,0,1-.092-0.16l0.436-2.28a2.33,2.33,0,0,0-.848-2.26,10.6,10.6,0,0,1-1.387-1.29,2.294,2.294,0,0,0-1.718-.76,2.038,2.038,0,0,0-.6.08l-2.246.6a0.161,0.161,0,0,1-.172-0.07l-1.272-2.79a0.154,0.154,0,0,1,.046-0.17l1.925-1.31a2.317,2.317,0,0,0,1-2.19,12.934,12.934,0,0,1-.069-1.89,2.3,2.3,0,0,0-1.145-2.11l-2.006-1.16a0.139,0.139,0,0,1-.068-0.18l1.065-2.86a0.2,0.2,0,0,1,.161-0.1h0.011l2.28,0.43a2.073,2.073,0,0,0,.436.05A2.489,2.489,0,0,0,930.73,2184.62Zm7.036,13.61a6.526,6.526,0,0,0,2.223.39,6.653,6.653,0,0,0,2.234-12.92,6.782,6.782,0,0,0-2.223-.39A6.654,6.654,0,0,0,937.766,2198.23Zm-2.074-7.79A4.554,4.554,0,0,1,940,2187.4a4.8,4.8,0,0,1,1.535.26A4.57,4.57,0,1,1,935.692,2190.44Z" transform="translate(-911.906 -2163.91)"/>
</svg>
