<?xml version="1.0" encoding="utf-8"?>
<!-- Generator: Adobe Illustrator 22.0.0, SVG Export Plug-In . SVG Version: 6.00 Build 0)  -->
<svg version="1.1" id="Warstwa_1" xmlns="http://www.w3.org/2000/svg" xmlns:xlink="http://www.w3.org/1999/xlink" x="0px" y="0px"
	 viewBox="0 0 259.3 43" style="enable-background:new 0 0 259.3 43;" xml:space="preserve" width="259.3" height="43">
<style type="text/css">
	.st0{fill:#4B5A71;}
</style>
<g>
	<path class="st0" d="M14.5,31.5C14.5,31.5,14.6,31.5,14.5,31.5C14.6,31.5,14.5,31.5,14.5,31.5C14.5,31.5,14.5,31.5,14.5,31.5z"/>
	<path class="st0" d="M14.7,31.4C14.7,31.4,14.7,31.4,14.7,31.4C14.7,31.4,14.6,31.4,14.7,31.4C14.6,31.4,14.6,31.4,14.7,31.4z"/>
	<path class="st0" d="M14.3,31.5c0.1,0,0.2,0,0.3,0C14.4,31.4,14.3,31.4,14.3,31.5z"/>
	<path class="st0" d="M13.9,31c0,0,0.1-0.1,0.1-0.1c0,0,0.1-0.1,0.1-0.1C14,30.8,14,30.9,13.9,31L13.9,31z"/>
	<path class="st0" d="M6.9,34.4C6.9,34.5,6.9,34.5,6.9,34.4c0,0,0.1,0,0.1,0C7,34.4,7,34.4,6.9,34.4z"/>
	<path class="st0" d="M6.9,34.5C6.9,34.5,6.9,34.5,6.9,34.5C6.9,34.5,6.9,34.5,6.9,34.5C6.9,34.5,6.9,34.5,6.9,34.5z"/>
	<path class="st0" d="M6.3,35l-0.2,0c0,0-0.1,0-0.1,0C6.1,35,6.2,35,6.3,35z"/>
	<path class="st0" d="M14.7,31.4C14.8,31.4,14.8,31.3,14.7,31.4C14.8,31.3,14.8,31.3,14.7,31.4z"/>
	<path class="st0" d="M129.2,23.9L129.2,23.9c0-0.1,0-0.1,0-0.2l0,0.1V23.9C129.2,23.8,129.2,23.8,129.2,23.9
		C129.2,23.8,129.1,23.8,129.2,23.9L129.2,23.9C129.1,23.9,129.1,23.9,129.2,23.9L129.2,23.9z"/>
	<path class="st0" d="M163.8,14.3C163.8,14.3,163.8,14.3,163.8,14.3c-0.1,0-0.1,0-0.1,0C163.7,14.3,163.8,14.3,163.8,14.3z"/>
	<path class="st0" d="M161.8,14.4C161.9,14.4,161.9,14.3,161.8,14.4C161.9,14.3,161.9,14.3,161.8,14.4L161.8,14.4z"/>
	<path class="st0" d="M259.3,21.2L259.3,21.2C259.3,21.3,259.2,21.3,259.3,21.2c0,0,0-0.1,0-0.1c-0.1,0-0.1,0-0.2,0
		c-0.1,0-0.1,0-0.2,0c-0.1-0.1-0.3,0-0.6,0.3s-0.7,0.6-1.2,0.9c-0.4,0.4-0.8,0.7-1.2,1c-0.2,0.2-0.5,0.4-0.8,0.5v0c0,0,0,0-0.1,0
		c-0.2,0.2-0.4,0.4-0.6,0.5c-0.2,0.1-0.4,0.3-0.7,0.5c-0.6,0.3-1.3,0.7-1.9,1.1c-0.7,0.4-1.5,0.6-2.3,0.7c-0.2-0.6-0.1-1.3,0-1.9
		c0.2-0.7,0.3-1.4,0.4-2c0.2-0.4,0.4-0.9,0.6-1.4c0.2-0.5,0.2-1,0.2-1.6c0-0.1,0-0.1-0.1-0.2l-0.1-0.2c-0.1,0-0.1,0-0.2,0
		c0,0-0.1,0-0.1,0c-0.2-0.1-0.4-0.3-0.7-0.4c-0.2-0.2-0.5-0.2-0.7-0.2c-0.1,0-0.1,0.1-0.2,0.1c0,0.1-0.1,0.1-0.2,0.2
		c-0.2,0-0.4,0.1-0.5,0.2c-0.2,0.1-0.3,0.2-0.5,0.4c-0.1-0.5-0.5-0.8-0.9-1c-0.5-0.2-1-0.4-1.5-0.4c0-0.1-0.2-0.2-0.3-0.2
		c0,0-0.1,0-0.1,0.1c-0.1,0.1-0.3,0.1-0.4,0.1c-0.2,0.1-0.4,0.2-0.6,0.3c-0.2,0.1-0.3,0.2-0.5,0.3c-0.5,0.5-1,1-1.5,1.5
		c-0.5,0.5-0.9,1.1-1.4,1.7c-0.2,0.4-0.5,0.8-0.8,1.2c-0.2,0.3-0.3,0.5-0.4,0.8c0,0-0.1,0-0.1-0.1c0-0.1-0.1-0.1-0.2,0
		c-0.1,0.1-0.2,0.2-0.1,0.2c0,0,0.1,0,0.1-0.1c0,0.1-0.1,0.1-0.1,0.1c-0.1,0-0.2,0-0.3,0.1c-0.1,0-0.1,0.1-0.1,0.1
		c0,0.1-0.1,0.1-0.1,0.2c0,0,0,0-0.1,0c0,0,0,0,0,0c-0.1,0-0.1,0-0.1,0.1c0,0.1-0.1,0.1-0.1,0.1c-0.8,0.3-1.5,0.6-2.3,0.9
		c-0.9,0.3-1.8,0.5-2.7,0.5c-0.4,0-0.8-0.1-1.2-0.2c-0.4-0.1-0.7-0.3-0.9-0.6c-0.1-0.1-0.1-0.2-0.2-0.3c-0.1-0.1-0.1-0.2-0.2-0.3
		c-0.1-0.1-0.1-0.2-0.1-0.2c0-0.1,0-0.2,0-0.3c-0.1,0-0.1-0.1-0.1-0.2c0.1-0.1,0.2-0.1,0.2-0.2c0.1-0.1,0.2-0.2,0.3-0.2
		c0-0.1,0-0.1,0.1-0.1c0.5-0.5,1.1-0.9,1.7-1.4c0.6-0.4,1.2-0.9,1.8-1.4c0.2-0.1,0.3-0.2,0.4-0.3c0.1-0.1,0.3-0.2,0.4-0.3l0.4-0.4
		c0-0.1,0-0.1,0-0.2c0-0.1,0.1-0.1,0.2-0.1c0.1,0,0.1-0.1,0.1-0.1c0.1-0.2,0.1-0.4-0.1-0.6c-0.1-0.2-0.2-0.3-0.3-0.5
		c-0.2-0.1-0.4-0.1-0.5-0.2c-0.2-0.1-0.3-0.2-0.5-0.2c-0.2,0-0.4,0.1-0.5,0.3c-0.1,0-0.1,0-0.2,0c-0.1,0-0.1,0-0.2,0.1
		c-0.4,0.2-0.8,0.4-1.1,0.7c-0.4,0.3-0.7,0.6-1,0.8l-0.7,0.5c-0.1,0.1-0.3,0.2-0.4,0.4l-0.3,0.4c-0.4,0.4-0.9,0.9-1.3,1.4
		c-0.4,0.5-0.8,0.9-1.2,1.5c0.2-1,0.5-2,0.9-3c0.4-1,0.7-2,1-3c0.1-0.2,0.3-0.5,0.4-0.7c0.1-0.3,0.2-0.5,0.4-0.7
		c0.2-0.6,0.4-1.2,0.7-1.8c0.3-0.6,0.5-1.2,0.7-1.8c0.1-0.1,0.2-0.3,0.3-0.5c0-0.2,0.1-0.3,0.3-0.4c0-0.1,0-0.3,0.1-0.4
		c0.1-0.1,0.1-0.3,0.1-0.4c0,0,0.1,0,0.1-0.1c0,0,0,0,0.1,0c0-0.3,0.1-0.7,0.3-1c0.1-0.3,0.3-0.6,0.4-0.8c0-0.1,0.1-0.1,0.1,0
		c0,0,0.1,0,0.1,0c0-0.1,0-0.2,0-0.2c0.2-0.2,0.3-0.5,0.5-0.7c0.1-0.3,0.3-0.5,0.5-0.7c0.1-0.3,0.1-0.6,0-0.9c0-0.1-0.1-0.2-0.2-0.3
		c-0.1,0-0.2-0.1-0.3-0.1c-0.1,0-0.1-0.1-0.1-0.1c0,0,0-0.1-0.1,0c-0.1,0-0.2,0-0.2,0c-0.1,0-0.2-0.1-0.2-0.1c-0.1,0-0.1,0-0.2,0
		c-0.1,0-0.1,0-0.2,0h-0.1c0,0,0,0,0,0c0,0,0,0,0,0c-0.1,0-0.2,0-0.3,0c-0.1,0-0.2,0-0.3-0.1c0,0.4-0.1,0.7-0.3,1
		c-0.1,0.3-0.3,0.6-0.5,0.9c-0.3,0.6-0.5,1.2-0.7,1.8c-0.2,0.6-0.5,1.2-0.7,1.9l-0.1,0.1c-0.4,1-0.8,2-1.2,2.9c-0.5,1-0.9,2-1.2,3
		c-0.1,0.1-0.1,0.1-0.1,0.2c0,0.1-0.1,0.2-0.1,0.3l-0.2,0.4c-0.3,0.8-0.5,1.6-0.8,2.4c0,0,0,0.1,0,0.1c0,0,0,0,0,0v0.1c0,0,0,0,0,0
		l-0.1,0c0,0,0,0,0,0c0,0,0,0,0,0.1c-0.1,0.1-0.2,0.2-0.2,0.3c-0.4,0.1-0.7,0.3-0.9,0.6c-0.2,0.3-0.5,0.5-0.9,0.6
		c-0.4,0.3-0.7,0.6-1.1,0.8c-0.4,0.2-0.7,0.5-1.1,0.8h-0.1c-0.7,0.4-1.4,0.8-2.1,1.1c-0.7,0.3-1.5,0.6-2.3,1c-0.5,0.1-1,0.3-1.5,0.5
		c-0.6,0.2-1.2,0.2-1.7,0c-0.3-0.1-0.5-0.3-0.6-0.6c-0.1-0.2-0.2-0.5-0.2-0.8c0-0.2,0-0.5,0-0.7c0-0.3,0.1-0.5,0.1-0.7
		c0.3-0.7,0.6-1.4,0.9-2c0.3-0.7,0.8-1.2,1.3-1.7c0-0.1,0-0.1,0-0.1c0,0,0-0.1,0-0.1c0.4-0.4,0.9-0.8,1.2-1.2
		c0.4-0.5,0.9-0.8,1.5-0.9c0,0.3-0.1,0.6-0.2,0.8c-0.1,0.3-0.3,0.6-0.4,0.9l-0.2,0.4c0,0.3,0.2,0.5,0.4,0.7c0.1,0.2,0.3,0.3,0.6,0.3
		c0,0.1,0.1,0.1,0.2,0.2v-0.1c0,0,0.1,0,0.1,0.1c0,0,0.1,0.1,0.1,0.1c0,0,0.1,0,0.1,0c0,0,0.1,0,0.1,0c0.1-0.2,0.2-0.5,0.3-0.7
		c0.1-0.3,0.2-0.5,0.3-0.7c-0.1-0.3,0-0.6,0.1-0.8c0-0.3-0.1-0.7-0.3-1c-0.2-0.3-0.3-0.5-0.5-0.7c-0.1,0-0.2,0-0.3-0.1
		c0-0.1-0.1-0.1-0.2-0.2c-0.1,0-0.1,0-0.2,0c-0.1,0-0.2,0-0.2,0c-0.1,0-0.3-0.1-0.4-0.2c-0.1-0.1-0.2-0.2-0.4-0.2
		c-0.2,0-0.3,0-0.5,0.1c-0.1,0.1-0.2,0.2-0.4,0.3c-0.2,0.1-0.4,0.2-0.6,0.3c-0.2,0.1-0.4,0.2-0.5,0.3c0,0,0,0-0.1,0c0,0,0,0,0,0
		c0,0-0.1,0-0.1,0.1c-0.5,0.3-1,0.7-1.4,1.2c-0.4,0.4-0.8,0.9-1.1,1.4l-0.1,0c-0.1,0.3-0.2,0.5-0.4,0.6c-0.1,0.1-0.1,0.3-0.2,0.4
		c0,0,0,0,0,0c-0.1,0.2-0.3,0.4-0.5,0.5c-0.3,0.1-0.5,0.2-0.7,0.3v-0.1c-0.1,0-0.1,0.1-0.2,0.1c-0.1,0-0.1,0.1-0.2,0.1l-0.2,0.2
		c-0.1,0.1-0.2,0.1-0.3,0.1c0,0.1,0,0.2-0.1,0.2c0,0,0,0,0,0c-0.1,0,0,0,0,0c0.1,0,0.1-0.1,0-0.1c-0.1,0.1-0.2,0.2-0.2,0.3
		c-0.1,0.1-0.2,0.2-0.4,0.2c0,0,0,0,0,0c0,0,0,0,0,0h-0.1c-0.2,0.1-0.4,0.2-0.5,0.4c-0.2,0.2-0.4,0.3-0.7,0.5
		c-0.3,0.2-0.5,0.3-0.7,0.5s-0.4,0.3-0.5,0.3c0,0,0,0,0,0s0,0-0.1,0c-0.3,0.2-0.6,0.4-0.9,0.6s-0.6,0.3-0.9,0.5
		c0-0.1,0.1-0.4,0.3-0.9c0.1-0.5,0.3-1,0.5-1.5c0.2-0.5,0.3-1.1,0.4-1.5c0.1-0.5,0.2-0.8,0.2-1c0.1-0.4,0.1-0.8,0.3-1.1
		c0.1-0.4,0.2-0.8,0.1-1.1c-0.2-0.2-0.4-0.3-0.6-0.3c-0.2,0-0.4-0.1-0.6-0.2c-0.1,0.1-0.2,0.1-0.3,0.1c-0.2-0.1-0.4-0.1-0.6,0.1
		c-0.1,0.1-0.1,0.2-0.1,0.2c-0.1,0.2-0.2,0.4-0.3,0.6c-0.1,0.1-0.2,0.3-0.3,0.4c-0.1,0.1-0.3,0.3-0.4,0.5c-0.9,1-1.9,2-2.8,3
		c-0.9,1-1.8,1.9-2.9,2.8c0-0.5,0.1-1,0.2-1.5c0.1-0.5,0.2-1,0.4-1.5c0-0.2,0.1-0.4,0.1-0.7c0-0.2,0.1-0.5,0.2-0.7
		c0.1-0.1,0.1-0.2,0.1-0.3c0-0.1,0.1-0.2,0.1-0.3c0-0.1,0.1-0.2,0.1-0.3c0.1,0,0.1-0.1,0.2-0.1c-0.1,0-0.1,0-0.1-0.1
		c0,0,0-0.1,0-0.1c0.1,0,0.2-0.1,0.3-0.1c0,0,0-0.1-0.1-0.1c0,0,0,0,0,0c0,0-0.1,0-0.1-0.1c0,0,0,0,0,0c0,0,0,0,0,0
		c0.1-0.1,0.2-0.2,0.3-0.4c-0.1,0.1-0.1,0.1-0.2,0.1c0.1-0.2,0.1-0.3,0.1-0.5c0-0.2,0-0.5,0.1-0.7c-0.1,0-0.2-0.1-0.1-0.2
		c0-0.1,0-0.1,0-0.2c-0.1-0.1-0.1-0.2-0.2-0.3c-0.1-0.1-0.2-0.1-0.3-0.2c-0.1-0.1-0.2-0.1-0.3,0c-0.1,0-0.2,0-0.3,0v0h-0.4l-0.4,0.2
		c0,0.3-0.1,0.6-0.2,0.9c-0.1,0.3-0.2,0.6-0.3,0.9c-0.1,0.4-0.2,0.8-0.4,1.3c0,0-0.1,0-0.1,0c-0.1,0-0.2,0.1-0.3,0.2c0,0,0,0,0,0.1
		c0,0-0.1,0.1-0.1,0.1c0,0.1,0,0.1,0,0s0-0.1,0,0l-2.2,1.2c-0.1,0.1-0.2,0.2-0.3,0.3c-0.1,0.1-0.2,0.1-0.4,0.2c-0.2,0-0.3,0-0.5,0.1
		c-0.1,0.1-0.2,0.1-0.4,0.1c-0.1,0.1-0.1,0-0.1-0.1v-0.4c0-0.2,0-0.3,0-0.4s0-0.2-0.1-0.2c-0.4-0.6-1.1-1-1.8-1.1
		c-0.8-0.2-1.7-0.2-2.5,0.1c0.2-0.3,0.4-0.7,0.5-1c0.2-0.3,0.3-0.7,0.5-1c0-0.2,0-0.4,0.1-0.6c0-0.2,0-0.3,0-0.5
		c0-0.1,0-0.3-0.1-0.4c-0.1-0.1-0.2-0.2-0.3-0.3c-0.1-0.1-0.2-0.2-0.2-0.3c-0.1-0.1-0.2-0.2-0.3-0.2c-0.1,0-0.1,0-0.2,0
		c-0.1,0-0.1,0-0.2,0l-0.6-0.4c-0.2,0-0.4,0-0.5,0.1c-0.1,0.1-0.3,0.1-0.5,0.1c-0.3,0.1-0.6,0.3-0.8,0.5c-0.2,0.2-0.4,0.4-0.7,0.6
		c-0.7,0.6-1.4,1.2-1.9,1.9c-0.6,0.8-1.3,1.5-2,2.2v0.2c-0.1,0-0.2,0.1-0.2,0.1c0,0,0,0.1,0,0.1c0,0,0,0.1,0,0.1
		c0.1,0,0.1,0.1,0.1,0.1l-0.2,0.1c-0.1,0-0.1,0.1-0.2,0.1c-0.1,0-0.1,0.1-0.2,0.1c-0.1,0.1-0.1,0.1-0.3,0.3
		c-0.4,0.4-0.8,0.8-1.3,1.2c-0.5,0.4-0.8,0.6-0.9,0.7c-0.2,0.2-0.5,0.3-0.7,0.5l-0.6,0.5c-0.1,0.1-0.2,0.1-0.3,0.2
		c-0.1,0.1-0.2,0.1-0.2,0.2c0,0-0.1,0.1-0.1,0.1c-0.1,0-0.1,0.1-0.2,0.1c-0.1,0-0.1,0-0.2,0.1c-0.1,0.1-0.1,0.1-0.2,0.1
		c-0.1,0-0.2,0.1-0.2,0.1c-0.1,0-0.2,0.1-0.2,0.1c-0.3,0.1-0.6,0.3-0.8,0.5c-0.2,0.2-0.5,0.3-0.8,0.3c-0.1,0-0.1,0-0.1,0.1v0
		c-0.1,0-0.2,0-0.2,0.1c-0.1,0.1-0.2,0.1-0.2,0.1c-0.3,0.1-0.5,0.1-0.8,0c-0.2-0.1-0.5-0.1-0.8-0.2c-0.2-0.4-0.3-0.9-0.2-1.3
		c0.1-0.5,0.2-1.1,0.3-1.6c0.1-0.2,0.2-0.4,0.4-0.6c0.1-0.2,0.2-0.4,0.2-0.6c0.1-0.1,0.3-0.3,0.4-0.4c0.1-0.2,0.2-0.3,0.3-0.5
		c0.1-0.2,0.2-0.3,0.3-0.4c0.1-0.1,0.2-0.2,0.2-0.3c0.1-0.1,0.1-0.2,0.1-0.4c0-0.2,0-0.4,0-0.6c-0.2-0.2-0.4-0.3-0.6-0.5
		c-0.2-0.1-0.4-0.3-0.5-0.5c-0.2,0.1-0.5,0.1-0.7,0c-0.2,0-0.5,0.1-0.7,0.2c-0.1,0-0.2,0.1-0.4,0.2c-0.1,0.1-0.3,0.1-0.4,0.1
		c-0.3,0-0.6,0-0.9,0c0.1-0.1,0.2-0.3,0.3-0.4c0.1-0.2,0.2-0.3,0.4-0.4c0.1-0.1,0.2-0.2,0.2-0.3c0-0.1,0.1-0.2,0.3-0.2
		c0.2-0.1,0.3-0.3,0.5-0.4c0.2-0.1,0.2-0.3,0.3-0.5c0.1,0,0.2-0.1,0.2-0.1c0-0.1,0.1-0.1,0.1-0.1l0.2-0.6c0-0.1-0.1-0.2-0.2-0.3
		c-0.1-0.1-0.2-0.1-0.3-0.2c-0.3-0.1-0.6-0.2-0.8-0.3c-0.2-0.1-0.5-0.1-0.7-0.1c-0.2,0.2-0.5,0.4-0.8,0.7c-0.3,0.3-0.5,0.5-0.8,0.9
		c-0.2,0.3-0.4,0.7-0.5,1.1c-0.1,0.4-0.1,0.8-0.1,1.3c-0.1,0-0.1,0.1-0.1,0.3c0,0.2,0.1,0.4,0.3,0.5c0,0,0,0,0,0
		c0,0.1-0.1,0.2-0.3,0.2c0,0,0,0,0,0c0,0.1-0.1,0.1-0.1,0.2l-0.2,0.1c0,0,0,0,0,0.1c-0.1,0.1-0.1,0.2-0.1,0.2c0,0,0,0,0,0
		c0,0,0,0,0,0c0,0.1,0,0.2-0.1,0.3c0,0-0.1,0-0.1,0c-0.1,0.1-0.2,0.2-0.4,0.5s-0.5,0.5-0.8,0.8c-0.3,0.3-0.6,0.6-0.9,0.8
		c-0.2,0.2-0.4,0.3-0.6,0.4c-0.3,0.2-0.6,0.4-0.9,0.6c-0.3,0.2-0.6,0.4-0.8,0.5c0,0,0,0-0.1,0c-0.2,0.2-0.4,0.3-0.5,0.2v0.2
		c-0.1,0-0.2,0.1-0.4,0.1c-0.1,0-0.2,0.1-0.2,0.1c-0.1,0.1-0.2,0.1-0.2,0.1c-0.1,0-0.2,0.1-0.4,0.1c0,0.1-0.1,0.2-0.2,0.2
		c-0.1,0-0.2,0-0.2,0.1c0,0.1,0,0.1,0,0.1s0,0-0.1,0.1c-0.3,0.1-0.6,0.2-0.9,0.3c-0.3,0.1-0.6,0.2-0.9,0.3c-0.3,0.1-0.6,0.2-0.8,0.3
		c-0.3,0.1-0.5,0.1-0.8,0.1c-0.1,0-0.1,0-0.1,0c0,0,0,0,0,0c-0.2-0.3-0.3-0.7-0.1-1.1c0.1-0.4,0.2-0.7,0.2-1.1
		c0-0.3,0.1-0.5,0.2-0.8c0.1-0.2,0.1-0.5,0.2-0.7c0.1-0.7,0.3-1.4,0.4-2.1c0.1-0.6,0.4-1.2,0.7-1.8c0.1-0.3,0.1-0.5,0.2-0.6
		c0-0.1,0.1-0.2,0.1-0.3c0-0.1,0.1-0.2,0.1-0.3c0-0.1,0.1-0.3,0.2-0.5c0.2-0.6,0.5-1.3,0.8-1.9c0.3-0.6,0.6-1.1,0.8-1.7
		c0.1-0.1,0.1-0.2,0.1-0.3c0-0.1,0.1-0.1,0.2-0.2c0.2,0,0.3-0.1,0.5-0.1c0.2,0,0.3,0,0.5,0c0.1-0.1,0.1-0.1,0.2,0
		c0.1,0,0.1,0.1,0.2,0.1c0,0,0.1-0.1,0.1-0.1c0,0,0.1,0,0.1-0.1c0,0,0,0,0,0c0-0.1,0-0.1,0,0s0,0-0.1,0c0,0.1-0.1,0.1-0.2,0
		c0-0.1,0.1-0.1,0.2-0.1v0c0.1-0.1,0.2-0.1,0.2,0c0.1,0,0.2,0,0.2-0.1c0.1,0,0.1,0,0.2,0c0.1,0,0.1,0,0.2,0h0c0,0,0,0,0,0s0,0,0,0
		c0,0.1,0,0.1-0.1,0.1c0,0-0.1,0-0.1,0.1c0.1,0,0.3,0,0.4,0c0.1,0,0.2,0,0.3,0c0.1-0.1,0.1-0.2,0.1-0.2c0-0.1,0-0.2,0.1-0.2
		c0,0,0,0,0.2,0c0,0,0,0,0,0c0,0,0,0,0,0c0,0.1,0,0.1,0,0.1c0,0,0.1-0.1,0.1-0.1c0,0,0.1,0,0.1,0c0,0,0,0,0,0c0,0,0,0,0,0
		c0,0,0,0,0,0.1c0,0,0,0-0.1,0c0,0-0.1,0-0.1,0c0.1,0.1,0.2,0.1,0.3,0.1c0.1-0.1,0.2-0.1,0.3-0.2v0.1c0.1-0.1,0.3-0.1,0.4-0.1
		c0.2,0,0.2,0,0.2,0.1c0.1,0.1,0.1,0.1,0.1,0.1c0-0.1,0.1-0.1,0.2-0.1c0,0,0,0,0,0s0,0,0,0c0-0.1,0-0.1,0.1,0c0,0,0,0,0.1,0v0
		c0,0,0,0,0,0c0,0,0,0,0,0v0h0h0c0,0,0,0,0,0c0,0,0,0,0,0c0,0,0,0.1,0.1,0.1l0,0c0,0,0,0,0-0.1h0.2c-0.1,0.1-0.1,0.1,0,0.1
		c0,0,0.1,0,0.1,0c0.1,0,0.1,0,0.2-0.1c0.1,0,0.1,0,0.2-0.1c0-0.1-0.1-0.1-0.1,0c-0.1,0.1-0.1,0.1-0.1,0c0.1-0.1,0.3-0.1,0.4,0
		c0,0,0,0,0,0c0-0.1,0.1-0.1,0.2-0.1h0.2c0,0-0.1,0.1-0.2,0.1c-0.1,0-0.1,0,0,0.1c0.1,0,0.1,0,0.2,0c0,0,0.1,0,0.2,0v0.1
		c0-0.1,0-0.1,0.1-0.2c0,0,0,0,0,0v0.1c0-0.1,0.1-0.1,0.1-0.2c0,0,0.1,0,0.1,0c0,0.1,0,0.1,0,0.1s0,0-0.1,0.1c0.1,0.1,0.2,0.1,0.2,0
		c0-0.1,0-0.1,0.1-0.1c-0.1,0.1,0,0.2,0.1,0.1c0.1-0.1,0.2-0.1,0.3,0.1c0-0.1,0.1-0.1,0.1-0.1c0,0,0,0,0,0.1c0,0,0,0,0,0
		c0,0,0,0,0.1,0h0l0,0l0.2-0.1c0,0.1,0.1,0.1,0.2,0.1c0,0,0,0,0.1,0c0,0,0-0.1,0.1-0.1c0.1-0.1,0.1-0.1,0.2-0.1c0,0.1,0,0.1,0,0.1
		s0,0,0,0.1c0.1,0,0.1,0,0.2,0c0.1,0,0.2,0,0.2,0.1c0.2-0.1,0.4-0.1,0.5-0.1c0.2,0,0.3,0,0.5,0c0.1,0,0.1,0,0.2,0
		c0-0.1,0.1-0.1,0.1-0.1c0.1,0,0.1,0,0.2-0.1c-0.1-0.1-0.2-0.2-0.2-0.3c0.1,0,0.2,0,0.2-0.1c0,0-0.1,0-0.1-0.1c0,0,0,0-0.1-0.1
		c0-0.1,0-0.1,0-0.1c0,0,0.1,0,0.1,0c0-0.1,0-0.1,0-0.2c0,0,0-0.1,0-0.1c-0.2-0.2-0.5-0.4-0.8-0.4c-0.3,0-0.5-0.1-0.8-0.1
		c-0.1,0-0.2-0.1-0.3-0.1c0,0,0.1,0,0.1,0.1c-0.1,0.1-0.2,0.1-0.4,0l0,0c-0.1,0-0.1,0-0.2,0c-0.1,0-0.1,0,0,0c-0.1,0-0.2,0-0.3,0
		c-0.1,0-0.2,0-0.3,0c-0.2-0.1-0.5-0.1-0.7,0c-0.2,0.1-0.5,0.1-0.7,0c-0.1,0-0.2,0-0.2,0h-1c-0.4,0-0.8,0.1-1.1,0.2
		c-0.5,0-0.9,0-1.3,0c-0.4,0-0.8,0.1-1.3,0.1c0-0.2,0.1-0.5,0.3-0.6c0.2-0.2,0.3-0.4,0.4-0.6c0.1-0.2,0.2-0.4,0.3-0.6
		c0.1-0.2,0.2-0.4,0.3-0.6c0.1-0.2,0.3-0.4,0.4-0.6c0.2-0.2,0.3-0.4,0.4-0.7c0-0.1,0-0.1,0-0.2l0.4-0.3c0.1-0.1,0.1-0.3,0-0.5
		c-0.1-0.2-0.2-0.3-0.4-0.4c-0.2-0.1-0.3-0.2-0.5-0.3c-0.2-0.1-0.3-0.1-0.5-0.2c0-0.1,0-0.1-0.1-0.1c0,0,0,0,0,0
		c-0.1,0-0.1-0.1-0.1-0.1c0,0.1-0.1,0.1-0.2,0c-0.1,0-0.1,0-0.2,0c0,0,0,0,0,0v0.2c-0.6,1-1.2,1.9-1.8,2.8c-0.6,1-1.1,2-1.6,3
		c-0.9,0.1-1.8,0.2-2.6,0.4c-0.7,0.2-1.2,0.3-1.7,0.5c-0.5,0.2-0.9,0.3-1.3,0.5c-0.5,0.2-1,0.3-1.4,0.4l-0.2-0.1
		c0,0.1,0.1,0.3,0.2,0.4c0.1,0.1,0.1,0.3,0.1,0.4c0.1,0.1,0.2,0.2,0.3,0.3c0.2,0.1,0.3,0.1,0.5,0c0,0,0.1,0,0.1,0c0,0,0,0,0.1,0.1
		c0.2,0,0.5,0,0.7-0.1c0.2-0.1,0.4-0.1,0.6-0.1c0.3-0.1,0.5-0.1,0.6-0.2c0,0,0.1,0,0.1,0h0.1c0.1,0,0.3,0,0.6-0.1
		c0.2,0,0.3-0.1,0.5-0.1c0.2-0.1,0.4-0.1,0.6-0.2c0.2,0,0.4,0,0.5-0.1c0.2-0.1,0.4-0.1,0.5-0.2c0.1,0,0.2,0,0.2,0.1s0,0,0.1-0.1
		c-0.2,0.6-0.4,1.1-0.7,1.6c-0.3,0.6-0.6,1.1-0.8,1.6l-0.2,0.3c0,0,0,0,0,0s0,0.1-0.1,0.2c-0.1,0.2-0.2,0.4-0.2,0.6c0,0-0.1,0-0.1,0
		c-0.2,0-0.5,0-0.7,0c0,0.1,0,0.2-0.1,0.2v-0.1c-0.1,0.1-0.1,0.1-0.2,0.1c-0.1,0-0.1,0-0.2,0c-0.2,0.1-0.4,0.2-0.6,0.3
		c-0.2,0-0.4,0.1-0.6,0.1c0,0-0.1,0-0.1,0c0,0-0.1,0-0.1-0.1c0,0,0,0.1-0.1,0.1c-0.3,0-0.6,0.1-0.8,0.2c-0.4,0.1-0.8,0.2-1.2,0.4
		s-0.9,0.3-1.3,0.4c-0.3,0.1-0.6,0.2-0.8,0.2c0-0.2,0-0.4-0.1-0.6c0-0.2-0.1-0.5-0.1-0.7c0-0.2-0.1-0.5-0.1-0.7
		c0-0.2-0.1-0.3-0.2-0.5c-0.1-0.2-0.3-0.5-0.5-0.6c-0.2-0.2-0.5-0.2-0.8-0.2c-0.3-0.2-0.6-0.3-1-0.2c-0.5,0.1-0.9,0.4-1,0.9
		c-0.2,0.2-0.3,0.4-0.5,0.6c-0.2,0.2-0.4,0.4-0.5,0.6c-0.1,0.1-0.2,0.1-0.4,0.2c-0.1,0.1-0.3,0.2-0.4,0.3c-0.1,0.1-0.1,0.1-0.2,0.2
		c-0.1,0-0.1,0-0.2,0.1l-0.1,0l-0.9,0.6c-0.2,0.1-0.4,0.3-0.7,0.4c-0.3,0.1-0.5,0.2-0.8,0.3l-0.6,0.2l-0.8,0.3l-0.7,0.3
		c-0.2,0.1-0.5,0.2-0.7,0.2l-0.5,0.2c-0.4,0.1-0.8,0.2-1.2,0.2c0.2-0.5,0.4-1.1,0.5-1.6c0.1-0.5,0.1-1.1,0.1-1.6
		c0-0.4,0-0.8-0.1-1.2c-0.1-0.3-0.1-0.4-0.1-0.2c-0.2-0.1-0.3-0.2-0.3-0.1l0.2,0.1l0,0.1h-0.1c-0.1,0-0.2-0.1-0.2-0.1
		c0,0,0-0.1,0-0.1c-0.2-0.1-0.3-0.2-0.5-0.4c-0.1-0.1-0.3-0.2-0.5-0.3c0,0.1,0,0.1-0.2,0.1c-0.1,0-0.1-0.1,0-0.1
		c0.1,0,0.1-0.1,0-0.1c-0.1-0.1-0.2-0.1-0.2-0.1c-0.1,0-0.3,0-0.4,0.1c0,0,0,0-0.1,0c0,0,0,0,0,0c-0.1,0-0.1,0-0.1-0.1
		c-0.1-0.1-0.1-0.1-0.2-0.1c0,0.1,0,0.1-0.1,0s-0.1-0.1-0.1,0h-0.1c0-0.1-0.1-0.1-0.1-0.2c0,0-0.1,0-0.1,0c-0.1,0-0.1,0.1-0.2,0.1
		c-0.1,0-0.2,0-0.4,0l-0.7,0.4c-0.3,0.1-0.5,0.2-0.7,0.4c-0.3,0.2-0.6,0.5-0.8,0.8c-0.3,0.3-0.6,0.6-0.8,1c-0.3,0.3-0.5,0.7-0.7,1.1
		c-0.1,0.1-0.1,0.2-0.1,0.3c0,0.1-0.1,0.1-0.1,0.1c-0.1,0.1-0.2,0.2-0.2,0.4c-0.1,0.2-0.2,0.5-0.4,0.8c-0.1,0.3-0.3,0.7-0.5,1.1
		c-0.2,0.5-0.3,1.1-0.4,1.6c-0.1,0.3-0.2,0.5-0.1,0.8c0,0.2,0.1,0.4,0.2,0.6c-0.1,0.1-0.1,0.2,0,0.3c0,0,0,0,0,0
		c0.1,0.1,0.1,0.1,0.1,0.2c0.1,0.5,0.5,0.8,0.9,1.1c0.1,0,0.2,0.1,0.3,0.1c0.1,0.1,0.2,0.1,0.3,0.2c0.1,0,0.1,0,0.2,0
		c0.1,0,0.1,0,0.2,0l0,0c0.9,0.1,1.7,0,2.6-0.2c0.1,0,0.2-0.1,0.2-0.2c0.1,0.1,0.1,0.1,0.1,0c0-0.1,0-0.1,0.1,0
		c0.1-0.2,0.3-0.3,0.5-0.3c0.2-0.1,0.4-0.2,0.5-0.4c0,0,0,0,0.1-0.1c0.1-0.1,0.1-0.1,0.2-0.1c0.1-0.2,0.3-0.4,0.4-0.6
		c0.2-0.2,0.3-0.4,0.4-0.6c0-0.1,0-0.1,0-0.2c0,0,0,0,0.1,0.1c0.1-0.1,0.1-0.2,0.2-0.3c0-0.1,0.1-0.1,0.1-0.1c0,0,0.1-0.1,0.1-0.1
		c0-0.1,0.1-0.1,0.2-0.3c0.2-0.1,0.5-0.2,0.8-0.3c0.4-0.1,0.8-0.1,1.2-0.2c0.1,0,0.2-0.1,0.4-0.2c0.1-0.1,0.2-0.1,0.3-0.2
		c0.1,0,0.3,0,0.4,0c0.1,0,0.1,0,0.2-0.1c0.2-0.1,0.4-0.2,0.5-0.2c0.1-0.1,0.3-0.1,0.5-0.2c0.1-0.1,0.3-0.1,0.4-0.2l1.5-0.7
		c0.1,0,0.1-0.1,0.1-0.1c0,0,0.1-0.1,0.1-0.1c0,0,0.1-0.1,0.1-0.1c0,0.1,0.1,0.1,0.1,0c0-0.1,0.1-0.1,0.2-0.1c0.1,0,0.2-0.1,0.3-0.2
		c0.1,0.1,0.2,0.2,0.4,0.1c0,0,0,0,0.1,0c0.2-0.2,0.4-0.3,0.5-0.5c0.2-0.1,0.3-0.2,0.5-0.3c0.2-0.1,0.4-0.3,0.6-0.5L144,21l0.6-0.5
		L145,20c0.1-0.2,0.3-0.3,0.5-0.5c0.1-0.1,0.3-0.3,0.4-0.4c0.2,0.5,0.3,1,0.4,1.5c0,0.5,0,1-0.1,1.6c-0.4,0.1-0.7,0.3-1,0.6
		c-0.3,0.2-0.6,0.4-1,0.5c-0.2,0.2-0.4,0.4-0.6,0.4c-0.2,0.1-0.5,0.2-0.6,0.4c0,0.1-0.1,0.1-0.2,0.1c-0.1,0.1-0.1,0.1-0.2,0.2
		c-0.1,0-0.2,0.1-0.2,0.3c0,0-0.1,0-0.1,0c0,0,0,0-0.1,0c0,0.1-0.1,0.1-0.1,0.2c0,0.1,0,0.1-0.1,0.1l0,0c-0.1,0.1-0.3,0.2-0.3,0.3
		c0,0.1-0.1,0.1-0.2,0.1c0,0,0,0-0.1,0c-0.1,0.3-0.4,0.6-0.7,0.8c0-0.1,0-0.2,0.1-0.2c0.1-0.1,0.1-0.1,0.1-0.2
		c-0.1,0.2-0.3,0.3-0.4,0.5c-0.2,0.1-0.3,0.3-0.3,0.5c-0.1,0-0.2,0-0.2,0.1c0,0,0,0,0,0h0c-0.1,0.1-0.1,0.1-0.3,0
		c0,0.2-0.1,0.4-0.2,0.7c-0.1,0.2-0.2,0.3-0.3,0.4c0,0,0-0.1,0-0.1c0,0,0-0.1,0-0.1c-0.2,0.2-0.3,0.5-0.2,0.8c-0.1,0-0.2,0-0.3,0.1
		c0,0.1-0.1,0.1-0.1,0.2c0,0.1,0,0.1,0,0.1s0-0.1,0.1,0c0.1,0.1,0.1,0.1,0,0.2s-0.1,0.1,0,0.2c0.1-0.1,0.1-0.1,0.2-0.1
		c0.1,0,0.1,0,0.2-0.1c0,0.1,0,0.1,0,0.2c0,0,0,0.1,0,0.1c0.1,0,0.1,0,0.1,0s0,0,0.1,0c0.2,0.3,0.5,0.6,0.9,0.8
		c0.4,0.2,0.9,0.3,1.3,0.3c0.1,0,0.1,0,0.1,0c0,0,0,0,0,0c0,0,0,0,0,0c0.1,0,0.3,0.1,0.4,0c0.1,0,0.2,0,0.3,0v0.1c0,0,0,0,0-0.1
		c0.1,0,0.2,0,0.3-0.1c0.1-0.1,0.2,0,0.3,0.1c-0.1,0-0.1,0-0.2,0c-0.1,0-0.1,0-0.1,0.1c0,0,0,0,0.1,0c0.1,0,0.1,0,0.1,0
		c0.5-0.2,1-0.4,1.4-0.8c0.4-0.3,0.8-0.7,1.1-1.1c0-0.1,0-0.1,0-0.1s0,0,0,0c0.1-0.2,0.3-0.3,0.4-0.5c0.1-0.2,0.3-0.3,0.4-0.5
		c-0.1-0.1-0.1-0.1,0-0.1c0.1,0,0.1-0.1,0-0.2c0.1,0.1,0.1,0,0.1,0s0-0.1,0.1-0.1c-0.1-0.1,0-0.1,0-0.2c0.1-0.1,0.1-0.1,0.2-0.1
		c-0.1,0-0.1-0.1,0-0.2c0,0,0,0,0.1,0c0.1-0.1,0.1-0.1,0-0.1c0.2-0.1,0.3-0.3,0.4-0.5c0.1-0.2,0.1-0.3,0.2-0.5c0,0,0,0-0.1,0
		c0,0,0-0.1,0.1-0.1c0-0.1,0.1-0.2,0.2-0.2c0-0.3,0.1-0.5,0.3-0.7c0.2-0.3,0.2-0.5,0.3-0.8c0.1-0.2,0.3-0.4,0.6-0.5
		c0.2-0.1,0.5-0.2,0.7-0.3l3.2-1.2c0.2-0.1,0.4-0.1,0.6-0.2c0.2-0.1,0.4-0.2,0.6-0.2c0.1,0,0.2-0.1,0.3-0.1c0.1-0.1,0.3,0,0.4,0
		c0-0.1,0.1-0.2,0.1-0.2c0,0,0,0,0,0c-0.1,0.4-0.3,0.9-0.4,1.3c-0.1,0.1-0.1,0.2-0.1,0.3c0,0.1,0,0.2-0.1,0.4
		c-0.1,0.5-0.3,1.1-0.4,1.7c-0.1,0.5-0.2,1.1-0.2,1.6c0,0,0,0.1,0,0.1c0,0,0,0.1,0,0.1c0,0.3,0,0.6,0.1,0.9c0.1,0.2,0.1,0.4,0.3,0.5
		c0.2,0.2,0.4,0.3,0.6,0.4c0.3,0.1,0.6,0.3,0.8,0.4c0.4,0.2,0.9,0.4,1.4,0.5c0.4,0.1,0.9,0,1.3-0.1c0.2,0,0.5-0.1,0.7-0.2
		c0.3-0.1,0.5-0.2,0.7-0.2l1-0.6h0.1c0.1-0.1,0.2-0.2,0.3-0.1c0,0-0.1,0-0.1,0.1c0,0,0,0,0,0c0.1,0,0.2,0,0.3-0.1
		c0.1-0.1,0.2-0.2,0.3-0.2c0,0,0,0,0.1,0c0.1,0,0.1,0,0.2-0.1c0,0,0-0.1,0.1-0.1c0,0,0-0.1,0.1-0.1c0.1-0.1,0.1-0.1,0.2-0.1l0,0
		c0.1,0,0.2,0,0.3-0.1c0.1-0.1,0.2-0.2,0.3-0.2l0.4-0.3c0,0,0,0,0,0.1c0,0,0,0.1,0,0.1c0,0,0.1-0.1,0.1-0.1c0,0,0.1-0.1,0.1-0.1
		c0.3-0.1,0.6-0.3,0.7-0.5c0.1-0.3,0.4-0.5,0.7-0.6c0.1-0.2,0.3-0.3,0.4-0.4c0.2-0.1,0.3-0.2,0.5-0.3c0.1-0.1,0.1-0.2,0.2-0.3
		c0-0.1,0.1-0.2,0.2-0.3c-0.1,0.1-0.1,0.2-0.2,0.3c0,0.1-0.1,0.2-0.1,0.3c-0.1,0.1-0.2,0.1-0.3,0.2c-0.1,0.1-0.2,0.1-0.3,0.2
		c0.1,0,0.2-0.1,0.3-0.1c0.1-0.1,0.2-0.2,0.3-0.4c0,0,0,0,0,0c0.1-0.1,0.1-0.2,0.3-0.3l0,0c0-0.1,0.1-0.1,0.1-0.1
		c0.2-0.3,0.4-0.5,0.5-0.6c-0.1,0-0.1,0,0,0c0,0,0.1-0.1,0.1-0.1c0,0,0,0,0,0c0,0,0,0,0,0l0,0v0c0,0,0-0.1,0-0.1
		c0,0,0.1-0.1,0.1-0.1c0-0.1,0-0.1,0.1-0.1v0.1l0.2-0.2c0.1,0,0.1-0.1,0.2-0.1c0,0,0.1,0,0.1,0h0c0.2-0.3,0.4-0.6,0.7-0.9
		c0-0.1-0.1-0.1-0.1-0.1c0-0.1,0.1-0.2,0.1-0.2c-0.1,0-0.1-0.1,0-0.1c0,0,0.1,0,0.1,0c0,0,0,0,0,0c0,0,0,0,0,0c0,0,0-0.1,0-0.1
		c0.1-0.1,0.2-0.1,0.3-0.1c0.4-0.1,0.9-0.2,1.3-0.3c0.3-0.1,0.7-0.2,1.1-0.2c-0.4,0.6-0.8,1.3-1.3,1.9c-0.5,0.7-0.8,1.6-0.9,2.5
		c-0.1,0.9,0,1.8,0.5,2.6c0.4,0.7,1.2,1.2,2.1,1.3v0c0,0,0,0,0,0c0,0,0,0,0,0c0.2,0,0.4,0.1,0.6,0.2c0.2,0,0.3,0.1,0.5,0
		c0-0.1,0-0.1-0.1-0.1c-0.1,0-0.1,0-0.1,0c0,0,0-0.1,0-0.1c0.1,0,0.3,0.1,0.4,0.1c0.1,0,0.3,0,0.4,0.1c0.1,0,0.2-0.1,0.3-0.2
		c0.1,0.1,0.3,0.1,0.4,0c0.1,0,0.2-0.1,0.3-0.2c0,0.1,0,0.1,0.1,0.1c0.1-0.1,0.2-0.2,0.3-0.3c0.1-0.1,0.2-0.2,0.3-0.1
		c0,0,0,0.1,0,0.1l0.1,0c0,0,0.1,0,0.1,0c0.1-0.2,0.3-0.3,0.4-0.3c0.3-0.2,0.7-0.4,1.2-0.8c0.1-0.1,0.2-0.1,0.3-0.2
		c0.1-0.1,0.3-0.2,0.4-0.4s0.3-0.3,0.4-0.4c0.1-0.1,0.2-0.2,0.3-0.3c0.2-0.1,0.3-0.2,0.5-0.3c0.1-0.1,0.3-0.2,0.4-0.3
		s0.2-0.3,0.4-0.4l0.5-0.5c0.2-0.1,0.3-0.2,0.4-0.3c0.1-0.2,0.2-0.3,0.4-0.4c0.1-0.1,0.2-0.2,0.3-0.3c0.1-0.1,0.1-0.2,0.2-0.2
		c0.1,0,0.1-0.1,0.1-0.2c0-0.1,0-0.1,0.1-0.2c0.1-0.2,0.3-0.4,0.4-0.5c0.1-0.1,0.3-0.2,0.4-0.4c0.2-0.2,0.3-0.3,0.4-0.4
		c0.1-0.1,0.3-0.2,0.4-0.3c0.2-0.1,0.3-0.3,0.5-0.4s0.5-0.4,0.8-0.7c0.3-0.3,0.6-0.6,1-0.9c0.4-0.3,0.7-0.5,1-0.7
		c0,0.3-0.1,0.5-0.3,0.8c-0.1,0.2-0.2,0.4-0.4,0.7c0,0,0,0.1,0,0.1c0,0,0,0.1,0,0.1l-0.3,0.5l-0.4,0.8c0,0.1,0,0.1,0,0.2
		c-0.1,0.1-0.2,0.2-0.3,0.3c-0.1,0.1-0.1,0.2-0.2,0.3c-0.1,0-0.1,0-0.1,0c0,0-0.1,0-0.1,0v0.2h-0.1c0,0.1,0,0.2,0.1,0.3
		c0.1,0.1,0.1,0.1,0,0.2c0.2,0.2,0.4,0.4,0.6,0.5c0.2,0.1,0.4,0.3,0.6,0.5c0-0.1,0-0.1,0.1-0.1v0.1h0l0.2-0.1l0.2,0.2
		c0.2-0.2,0.4-0.4,0.6-0.5c0.2-0.1,0.4-0.3,0.6-0.5c0.2-0.1,0.4-0.2,0.6-0.3c0.2-0.1,0.4-0.2,0.7-0.4c0.2-0.1,0.5-0.3,0.7-0.4
		c0.2-0.1,0.5-0.2,0.8-0.3c0.3-0.1,0.6,0,0.8,0.4c0,0.1,0,0.1,0,0.2c0,0.3,0,0.5,0,0.8c0,0.2,0,0.4-0.1,0.6c0,0,0,0,0,0c0,0,0,0,0,0
		c0,0-0.1,0.1-0.1,0.1c0,0,0,0,0,0c0,0,0,0,0,0c0,0,0,0,0,0c0,0,0,0,0,0c0,0-0.1,0.1-0.1,0.1c0,0-0.1,0.1,0,0.1
		c-0.6,0.4-1.1,0.9-1.5,1.5c-0.5,0.6-0.9,1.1-1.5,1.6c0-0.1,0-0.1-0.1-0.2c0,0.2-0.1,0.4-0.3,0.5v0.1c0,0-0.1,0-0.1,0.1
		c0,0-0.1,0-0.1,0c-0.1,0.1-0.1,0.2-0.2,0.3c-0.1,0.1-0.2,0.2-0.2,0.3l-0.7,0.8c-0.2,0.2-0.5,0.5-0.7,0.8h-0.2
		c-0.1,0.2-0.2,0.3-0.3,0.5c-0.1,0.1-0.2,0.3-0.3,0.4c0,0-0.1,0-0.1,0c-0.1,0-0.1-0.1,0-0.1c0,0,0,0,0-0.1c-0.1,0-0.1,0-0.2,0v0.3
		c-0.1-0.1-0.1-0.1-0.1,0s0,0.1-0.1,0c0,0.1,0,0.3-0.1,0.4c-0.1,0.1-0.1,0.2-0.2,0.2c0-0.1,0-0.1,0-0.1c0.1,0,0.1-0.1,0-0.2
		c-0.1,0.1-0.2,0.3-0.1,0.4c-0.1,0.1-0.3,0.2-0.3,0.4c-0.1,0.1-0.2,0.2-0.3,0.3c0,0,0,0,0,0s0,0,0,0c-0.1,0.2-0.2,0.3-0.3,0.5
		c-0.1,0.1-0.3,0.3-0.4,0.4c0-0.1-0.1-0.1-0.2-0.1c0,0,0,0.1,0,0.1c0,0,0,0.1,0,0.1c-0.1,0.1-0.2,0.2-0.2,0.3c0,0.1-0.1,0.2-0.3,0.2
		c-0.1,0.2-0.1,0.3-0.3,0.5c-0.1,0.1-0.2,0.3-0.2,0.4c0,0,0,0,0,0s0,0,0,0c-0.1,0.2-0.2,0.3-0.3,0.4c-0.1,0.1-0.2,0.3-0.3,0.5
		c0,0,0,0,0,0.1c-0.1,0.1-0.1,0.1-0.2,0.2c-0.1,0.1-0.2,0.1-0.3,0.1c0,0.1,0,0.2-0.1,0.3c-0.1,0.1-0.1,0.1-0.2,0.2
		c-0.1,0.1-0.1,0.3-0.2,0.4c0,0.2-0.1,0.3-0.3,0.4c0-0.1,0-0.1,0-0.2c0-0.1,0.1-0.2,0.1-0.2c-0.1,0.1-0.1,0.1-0.1,0.2
		c0,0.1-0.1,0.2-0.2,0.2c0-0.1,0-0.1,0-0.1s0,0,0,0c0,0.2-0.1,0.3-0.2,0.5c-0.1,0.2-0.1,0.3-0.1,0.5c-0.1,0-0.1,0-0.1-0.1
		c0,0,0-0.1-0.1,0c0.1,0.1,0,0.2,0,0.3c-0.1,0.1-0.1,0.2-0.2,0.3c0,0,0,0,0,0c-0.1,0.1-0.2,0.3-0.2,0.5c0,0-0.1,0-0.1,0
		c0,0,0,0.1,0,0.1v0.1c0,0.1,0,0.1,0,0.1c0,0,0-0.1,0-0.1c0,0,0,0,0.1,0l0.3,0.2c0.1,0,0.1-0.1,0-0.2c0-0.1,0-0.1,0-0.2
		c0,0,0.1,0,0.1,0c0,0,0.1,0,0.1,0c0,0,0,0,0,0v0.1c-0.1,0-0.1,0-0.1,0.1c0,0,0,0,0,0c0,0,0,0.1,0,0.1c0,0.1,0,0.1,0,0.2h-0.2
		c0.1,0.1,0.3,0.1,0.4,0.2c0.1,0.1,0.3,0.1,0.4,0.2c0-0.1,0-0.1,0-0.1c0,0.1,0,0.1,0.1,0.1c0.1,0,0.2,0,0.2,0c0,0,0,0.1,0,0.1
		c0,0.1,0,0.1,0,0.2c0.2,0,0.4,0.1,0.5,0.1c0.2,0,0.4,0,0.5,0c0,0,0,0.1,0,0.1v-0.1c0.1,0,0.2,0,0.3,0c0.1,0,0.3,0,0.4-0.1
		c-0.1,0-0.2,0-0.1-0.1c0.1-0.1,0.2-0.1,0.3-0.2c0.1-0.1,0.2-0.1,0.3,0c0.2-0.2,0.5-0.4,0.8-0.6c0.3-0.1,0.7-0.4,0.9-0.6
		c0,0,0,0,0,0c0,0,0.1,0,0.1,0c0.1-0.1,0.2-0.2,0.3-0.3c0.2,0,0.3-0.1,0.3-0.3c0-0.1,0-0.1,0,0s0,0,0,0c0.1-0.1,0.1-0.1,0.1-0.2
		c0-0.1,0.1-0.1,0.2-0.1c0,0,0,0,0,0v-0.2c0.1,0,0.2,0,0.2,0l-0.1,0c0-0.1-0.1-0.1-0.1-0.2c-0.1,0.2-0.2,0.3-0.4,0.4
		c-0.2,0.1-0.3,0.3-0.4,0.5c-0.2,0-0.3,0.1-0.5,0.2c-0.1,0.1-0.3,0.2-0.4,0.2c0,0,0-0.1,0-0.1c0.1,0,0-0.1,0-0.1c0,0.1,0,0.1,0,0.1
		c0,0,0,0,0-0.1c0.3-0.2,0.6-0.3,0.9-0.5c0.3-0.2,0.5-0.4,0.8-0.6v-0.2c0.1-0.1,0.2-0.2,0.3-0.3c0.1-0.1,0.1-0.2,0.1-0.3
		c0.5-0.4,1-0.9,1.4-1.4c0,0,0.1,0.1,0,0.1c0,0-0.1,0.1-0.1,0.1c-0.1,0.3-0.3,0.5-0.6,0.7c-0.2,0.2-0.4,0.4-0.6,0.7
		c0.1,0,0.2-0.1,0.3-0.1c0.1-0.1,0.2-0.1,0.2-0.2c0-0.2,0.2-0.4,0.4-0.5c0.2-0.1,0.3-0.3,0.4-0.5c0.2-0.1,0.3-0.2,0.3-0.4
		c0-0.2,0.2-0.3,0.4-0.3c0-0.1,0-0.2,0.1-0.2c0.2-0.1,0.4-0.3,0.4-0.5c0-0.1,0.1-0.1,0.2-0.2c0.1,0,0.1-0.1,0.1-0.1
		c-0.1,0.1-0.2,0.2-0.3,0.2c0.1-0.1,0.1-0.2,0.1-0.3c0-0.1,0.1-0.1,0.2-0.2c0-0.1,0.1-0.3,0.2-0.3c0,0,0,0,0,0
		c-0.1,0.1-0.1,0.2-0.1,0.3c0,0.1-0.1,0.2-0.1,0.2l0.3-0.2c0.1-0.1,0.2-0.2,0.2-0.3c0.2-0.2,0.4-0.5,0.5-0.8
		c0.1-0.3,0.3-0.6,0.5-0.8c0.1,0,0.1,0.1,0,0.2c0,0,0,0,0,0c-0.1,0.1-0.1,0.1,0,0.1c0.1-0.1,0.2-0.2,0.3-0.4c0-0.1,0.1-0.3,0.3-0.4
		c0.1-0.1,0.2-0.3,0.3-0.4c0.1-0.1,0.2-0.3,0.2-0.4H190c0.1-0.1,0.1-0.2,0.2-0.4c0-0.1,0.1-0.2,0.2-0.3v0h0c0.1-0.1,0.1-0.3,0.2-0.4
		l0.3-0.4c-0.1-0.1-0.1-0.2,0-0.3c0-0.1,0.1-0.2,0.1-0.2v-0.2c0.2-0.4,0.4-0.9,0.5-1.4c0.1-0.5,0.3-0.9,0.4-1.4c0,0,0.1,0,0.1,0.1
		c0,0,0,0,0,0c0,0.1,0,0.1,0.1,0c0.1-0.1,0.1-0.3,0.2-0.4c0.1-0.1,0.1-0.2,0.1-0.3c0-0.1,0-0.2,0-0.2c0.1,0,0.1,0,0.2,0
		c0.1,0,0.1,0,0.2,0c0.1,0,0.1-0.1,0.1-0.1c0.2,0,0.4-0.1,0.5-0.2c0.1-0.2,0.3-0.3,0.5-0.3l0,0c0,0,0,0,0.1-0.1
		c0-0.2,0.2-0.4,0.4-0.5c0,0.1,0,0.2-0.1,0.2c-0.1,0.1-0.1,0.1,0,0.2c0.1-0.1,0.2-0.1,0.2-0.3c0-0.1,0.1-0.2,0.2-0.2
		c0,0.1-0.1,0.1-0.1,0.1c-0.1,0-0.1,0.1,0,0.1c0.2,0,0.3-0.2,0.2-0.3c0.1,0,0.2,0,0.3-0.1c0-0.1,0.1-0.1,0.2-0.1c0,0,0,0,0,0
		c0,0,0,0,0,0c0,0,0,0,0,0c0,0,0,0,0,0c0.1-0.2,0.3-0.3,0.4-0.4c0.1-0.1,0.2-0.2,0.3-0.2c-0.2,1-0.3,1.9-0.2,2.9
		c0,0.3,0.1,0.5,0.1,0.7c0.1,0.4,0.4,0.7,0.8,0.7c0.2,0,0.3,0.1,0.5,0.1c0.2,0.1,0.4,0.1,0.5,0.2c0.2,0.1,0.4,0.1,0.6,0
		c0.4,0,0.7-0.2,1-0.4c0.3-0.2,0.6-0.4,0.8-0.6c0.2-0.2,0.4-0.5,0.6-0.8c0.2-0.2,0.4-0.5,0.6-0.7c0.2-0.1,0.3-0.3,0.4-0.4
		c0.1-0.1,0.2-0.3,0.3-0.5c0.3-0.1,0.5-0.3,0.6-0.6c0.2-0.1,0.4-0.3,0.5-0.5c0.1-0.2,0.3-0.4,0.4-0.6c0,0.2,0,0.4-0.1,0.6
		c-0.1,0.2-0.1,0.4-0.2,0.7c0,0.1,0,0,0,0c0-0.1,0-0.1,0,0c-0.1,0.5-0.2,1.1-0.4,1.9c-0.2,0.8-0.4,1.5-0.6,2.2
		c-0.9,0.7-1.7,1.5-2.5,2.3c-0.7,0.7-1.4,1.5-2,2.4c-0.6,0.8-1.1,1.7-1.6,2.6c-0.5,0.9-1,1.9-1.5,3.1c0,0,0,0,0-0.1c0,0,0,0,0,0
		c0,0,0,0,0-0.1c0,0,0,0,0,0c-0.5,1.1-0.9,2.2-1.1,3.4c0,0,0,0,0,0c0,0,0,0,0,0l0,0c0,0.1,0,0.2,0,0.3c0,0.1,0,0.2,0,0.3
		c0,0,0.1,0.1,0.1,0.1c0.1,0,0.1,0.1,0,0.2c-0.1,0-0.1,0-0.1-0.1c0,0,0,0,0,0c0-0.1,0-0.1-0.1-0.2v0.3c0,0.1,0,0.1,0.1,0.1
		c0,0,0,0,0,0c0.1,0,0.3,0,0.4,0c0.1,0,0.3,0.1,0.4,0.1l0.7,0.2h0.5c0.1,0,0.3,0,0.4,0c0.1,0,0.3,0,0.4,0c0.1,0,0.2,0,0.4-0.1
		c0.1-0.1,0.3-0.1,0.4-0.1c0-0.1,0.1-0.2,0.2-0.2c0.1-0.1,0.2-0.1,0.4-0.1l0.7-0.7c0.2-0.2,0.4-0.5,0.6-0.8h0.1
		c0.1-0.1,0.1-0.3,0.2-0.4c0.1-0.2,0.2-0.3,0.3-0.4c0-0.1,0-0.1,0-0.1l0.6-0.6c0-0.1-0.1-0.1-0.1,0c0,0-0.1,0-0.1,0
		c0-0.1,0-0.1,0.1-0.1c0,0,0,0,0,0c0.1,0,0.2,0,0.2-0.1c0-0.1,0-0.1,0-0.1c-0.1,0-0.1,0-0.1-0.1c0.1-0.1,0.2-0.2,0.3-0.3
		c0.1-0.1,0.1-0.2,0.1-0.4c0.1,0,0.2-0.1,0.2-0.2c0-0.1-0.1-0.1-0.1,0s0,0,0,0c0,0,0-0.1,0-0.1c0,0,0.1-0.1,0.1-0.1h0
		c0-0.1,0-0.1,0.1-0.1c-0.1-0.1,0-0.2,0.1-0.3c0,0,0,0,0,0c0.1-0.1,0.2-0.2,0.1-0.3c0.1,0,0.1-0.1,0.1-0.2c0-0.1,0.1-0.2,0.2-0.2
		c0-0.1,0-0.2,0.1-0.3c0.1-0.1,0.1-0.2,0-0.3c0,0.1,0,0.2-0.1,0.2c0,0-0.1-0.1,0-0.1c0,0,0,0,0,0c0,0,0.1-0.1,0.2-0.1
		c0-0.1,0.1-0.1,0.1-0.2c0-0.1,0-0.1,0.1-0.2h0c0,0,0,0,0-0.1c0-0.1,0.1-0.2,0.1-0.3c0-0.1,0.1-0.2,0.2-0.2v-0.1c0,0,0-0.1,0.1-0.1
		c0,0,0.1-0.1,0.1-0.1c0,0-0.1,0-0.1,0c0,0,0,0,0,0c0,0.1-0.1,0.1-0.1,0c0,0-0.1,0.1-0.1,0.2c0,0,0,0.1,0,0.1c0,0,0,0,0,0
		c-0.1,0-0.1,0,0-0.1c0-0.1,0-0.1,0.1-0.2c0.1-0.1,0.1-0.1,0.2-0.2c0.1-0.1,0.2-0.1,0.2-0.2c0,0-0.1,0-0.1,0c0,0-0.1,0-0.1,0
		c0-0.1,0.1-0.1,0.1-0.2c0.1-0.1,0.2-0.1,0.3-0.1c0,0,0-0.1,0-0.1c0,0,0-0.1,0-0.1c0,0-0.1,0-0.1,0c-0.1,0-0.1,0-0.2,0.1
		c-0.1-0.1,0-0.1,0-0.2s0.1-0.1,0-0.2c0,0,0.1,0,0.1,0c0,0,0.1,0,0.1,0c0-0.1,0-0.1,0-0.1c0,0,0-0.1,0-0.1c0.1-0.1,0.1-0.1,0.1-0.2
		c0-0.1,0-0.2,0.1-0.4h0.1c0.1-0.1,0.2-0.2,0.2-0.4c0-0.2,0-0.3,0-0.5c0.1-0.1,0.2-0.2,0.2-0.4c0-0.1,0-0.2,0.3-0.3c0,0,0,0,0,0
		s0,0,0-0.1c0.1,0,0.2-0.1,0.2-0.3c0-0.1,0.1-0.2,0.1-0.4c-0.1,0-0.2,0.1-0.2,0.2c0,0.1,0,0.1-0.1,0.2c-0.1-0.1,0-0.2,0-0.3
		c0.1-0.1,0.1-0.1,0.2-0.2c0,0,0,0,0,0.1c0,0,0,0.1,0,0.1c0-0.1,0-0.2,0-0.3c0-0.1,0.1-0.2,0.1-0.3c0,0,0,0-0.1,0c0,0,0,0,0-0.1
		c0-0.1,0-0.1,0-0.1s0.1,0,0.1,0c0-0.1,0-0.2,0.1-0.3c0.1-0.1,0.1-0.2,0-0.2l0,0h0c0-0.1,0-0.2,0.1-0.2s0.1-0.1,0.1-0.2l-0.2,0.2v0
		l0.1-0.2c0.1-0.1,0.1-0.2,0.2-0.2c0,0,0.1-0.1,0.1-0.1c0,0,0.1-0.1,0.1-0.1c0,0,0.1-0.1,0.2-0.2h0.1c0-0.2,0.2-0.4,0.3-0.5
		c0.2-0.1,0.3-0.2,0.3-0.4c0.1,0,0.2,0,0.3-0.1c0-0.1,0.1-0.1,0.1-0.2c0,0,0,0,0,0c0,0,0,0,0,0v0c0.1-0.2,0.3-0.4,0.6-0.4
		c0,0,0-0.1,0-0.1c0,0,0-0.1,0-0.1c0.1-0.1,0.3-0.2,0.3-0.3c0-0.2,0.2-0.3,0.4-0.2c0,0,0,0,0,0c0.1-0.1,0.2-0.2,0.3-0.3
		c0.2-0.1,0.4-0.2,0.5-0.3c0.2-0.1,0.4-0.2,0.6-0.2c0.1,0,0.2-0.1,0.3-0.2c0.1,0,0.1,0,0.1-0.1c0-0.1,0.1-0.1,0.1-0.1l0.2-0.2
		c0,0,0,0,0,0.1c0,0,0,0.1,0,0.1c0.1-0.1,0.2-0.2,0.3-0.3c0.1-0.1,0.2-0.2,0.3-0.2c0-0.1,0-0.2,0.1-0.2c0.1,0,0.1,0,0.1,0s0,0,0,0.1
		c0.1,0,0.2-0.1,0.3-0.2c0.1-0.1,0.2-0.2,0.3-0.2v0.1c0-0.2,0.1-0.4,0.3-0.4c0,0,0,0,0,0c-0.1,0.3-0.1,0.6-0.1,0.8
		c0,0.5,0,0.9,0.1,1.4c0.1,0.4,0.2,0.7,0.4,1c0.2,0.3,0.4,0.5,0.7,0.7c0.2,0.1,0.4,0.2,0.6,0.3c0.2,0.1,0.4,0.2,0.6,0.2
		c0.5,0.2,1.1,0.3,1.7,0.3c0.5,0,1.1,0,1.6-0.1c0,0,0.1,0,0.2,0c0.4,0,0.8-0.2,1.1-0.4c0.3-0.3,0.7-0.4,1.1-0.4
		c0.2-0.2,0.4-0.3,0.6-0.3c0.1-0.1,0.2-0.2,0.4-0.2c0,0,0-0.1,0-0.1c0.2,0,0.4,0,0.6-0.1c0.1-0.1,0.3-0.2,0.5-0.2c0,0,0.1-0.1,0-0.1
		c0,0,0-0.1,0.1-0.1c0,0,0.1,0,0.1,0h0.3c0,0,0-0.1,0-0.1c0.2-0.1,0.4-0.2,0.6-0.4c0.1-0.2,0.3-0.3,0.6-0.3c0,0,0,0,0,0l0,0
		c0,0,0,0,0,0c0.1-0.1,0.1-0.1,0.2-0.2c0.1-0.1,0.2-0.1,0.3-0.1c0.1-0.2,0.2-0.4,0.4-0.5c0.1-0.2,0.3-0.3,0.4-0.4c0.1,0,0.1,0,0.1,0
		c0,0.1,0,0.1-0.1,0.1c-0.1,0-0.1,0.1,0,0.1l0.2-0.2c0-0.1,0.1-0.1,0.2-0.1c0,0,0,0,0,0c0,0,0-0.1,0-0.1c0-0.1,0-0.1,0-0.2
		c0.1-0.1,0.2-0.2,0.3-0.3c0.1-0.1,0.2-0.2,0.3-0.2v-0.1l0,0c0,0,0-0.1,0.1-0.1c0,0,0-0.1,0-0.1c0,0,0.1,0,0.1,0c0,0,0.1,0,0.1,0
		c0,0,0-0.1,0.1-0.1c0,0.1,0,0.1-0.1,0.2c-0.2,0.6-0.3,1.1-0.6,1.7c-0.2,0.5-0.4,1.1-0.4,1.7c-0.2,0.2-0.3,0.5-0.3,0.8
		c0,0.3,0,0.6,0.2,0.9c0.3,0,0.5,0.1,0.7,0.3c0.2,0.2,0.4,0.3,0.7,0.4c0.3-0.1,0.6-0.3,0.9-0.5c0-0.3,0.1-0.5,0.2-0.7
		c0.1-0.2,0.2-0.4,0.4-0.6c0-0.1,0-0.1,0-0.2c0-0.1,0-0.1,0.1-0.2c0.1-0.1,0.1-0.1,0.2-0.2c0.2-0.3,0.4-0.6,0.6-1
		c0.2-0.3,0.4-0.6,0.6-0.8c0.1,0.3,0.2,0.5,0.4,0.8c0.2,0.2,0.4,0.4,0.6,0.6c0.6,0.4,1.2,0.7,1.8,0.9c0.4,0.1,0.8,0.2,1.2,0.3
		c0.4,0.1,0.8,0.1,1.3,0.1c0.1,0,0.3,0,0.4-0.1c0.1,0,0.2-0.1,0.3-0.1c0.2,0,0.5-0.1,0.8-0.1c0.3-0.1,0.5-0.1,0.7-0.3
		c0.1,0,0.1,0,0.2-0.1c0-0.1,0.1-0.1,0.2-0.1c0.1,0,0.2,0,0.2-0.1c0.1-0.1,0.2-0.1,0.4-0.1c0.1,0,0.1,0,0.1-0.1
		c0-0.1,0.1-0.1,0.1-0.1c0.1,0,0.2-0.1,0.3-0.1c0.1,0,0.2,0,0.2,0c0-0.1,0-0.1,0.1-0.1c0.1,0,0.1-0.1,0.2-0.1c0.1,0,0.3,0,0.4-0.1
		c0,0.1,0,0.2,0,0.2c0,0.3,0.1,0.6,0.1,0.8c0.1,0.2,0.3,0.4,0.5,0.5c0.1,0.1,0.2,0.2,0.3,0.3c0.1,0.1,0.2,0.2,0.4,0.2
		c0.3,0.2,0.6,0.3,0.9,0.3c0.3,0,0.6-0.1,0.9-0.3c0.3-0.2,0.6-0.3,0.8-0.5c0.3-0.2,0.5-0.4,0.7-0.6c0,0,0-0.1,0.1-0.1c0,0,0,0,0-0.1
		c0.4-0.4,0.8-0.9,1.3-1.4c0.2-0.1,0.3-0.3,0.5-0.4c0.2-0.2,0.3-0.4,0.4-0.6c0.3-0.4,0.7-0.8,1-1.2c0.3-0.4,0.7-0.7,1.1-1.1
		c-0.1,0.5-0.2,1-0.3,1.5c-0.1,0.5-0.1,1-0.1,1.5c0,0.4,0.1,0.8,0.2,1.2c0.1,0.3,0.3,0.6,0.6,0.8c0,0.2,0.1,0.3,0.3,0.4
		c0.1,0.1,0.3,0.1,0.4,0.2c0.1,0,0.2,0.1,0.3,0.3c0.3,0.1,0.5,0.1,0.8-0.1c0.3-0.1,0.5-0.2,0.8-0.2c0.1,0,0.2,0,0.4,0
		c0.2,0,0.3-0.1,0.5-0.1c0.3,0,0.5-0.1,0.7-0.3c0.2-0.2,0.5-0.4,0.8-0.5c0.2,0,0.4-0.1,0.5-0.2c0.1,0,0.1,0,0.1,0
		c0.2-0.1,0.3-0.2,0.4-0.3c0.1-0.1,0.2-0.2,0.3-0.3c0.1,0,0.2-0.1,0.3-0.2c0.1-0.1,0.2-0.2,0.3-0.3c0.1,0.1,0.2,0,0.2,0c0,0,0,0,0,0
		c0.1-0.1,0.1-0.1,0.2-0.2v0h0.1c0.2-0.2,0.4-0.4,0.6-0.6c0.2-0.2,0.4-0.3,0.6-0.5c0,0,0,0.1,0,0.1l0.3-0.4c0.1-0.1,0.2-0.2,0.4-0.2
		l0.6-0.6c0-0.1,0.1-0.2,0.2-0.2c0-0.1,0.1-0.2,0.2-0.3c0.1-0.1,0.2-0.2,0.2-0.3c0,0,0.1,0,0.2,0c0.1-0.1,0.1-0.2,0.1-0.3
		c0-0.1,0.1-0.2,0.1-0.3c0.1-0.1,0.1-0.1,0.2-0.2c0.1-0.1,0.1-0.1,0.2-0.2c0,0.1,0,0.1,0,0.1c0,0,0.1-0.1,0.1-0.1
		c0-0.1,0.1-0.1,0.1-0.2S259.3,21.2,259.3,21.2z M167.1,13.7C167.1,13.7,167.1,13.7,167.1,13.7c0.1,0,0.1,0,0.2,0
		C167.4,13.7,167.3,13.7,167.1,13.7L167.1,13.7c0,0.1-0.1,0-0.2,0C167,13.6,167.1,13.6,167.1,13.7z M160.8,14.4L160.8,14.4
		c0,0,0.1-0.1,0.1-0.1c0.1,0.1,0.1,0.1,0,0.1C160.9,14.4,160.8,14.5,160.8,14.4C160.8,14.5,160.8,14.5,160.8,14.4
		c0,0.1-0.1,0.1-0.1,0.1C160.7,14.4,160.7,14.4,160.8,14.4z M160.6,14.4L160.6,14.4C160.6,14.5,160.6,14.5,160.6,14.4
		C160.6,14.5,160.6,14.5,160.6,14.4C160.5,14.5,160.5,14.5,160.6,14.4C160.5,14.5,160.5,14.5,160.6,14.4
		C160.5,14.4,160.5,14.4,160.6,14.4z M132.4,25.8c-0.2,0.1-0.3,0.3-0.5,0.4c-0.1,0.1-0.2,0.3-0.3,0.4c-0.1,0.2-0.3,0.3-0.5,0.5
		c-0.3,0.2-0.7,0.4-1,0.6c-0.1,0-0.2,0.1-0.3,0.1c-0.1,0-0.2,0-0.4,0.1s-0.3,0-0.4,0s-0.2,0-0.2,0c-0.1,0-0.3-0.2-0.3-0.3
		c-0.1-0.2-0.1-0.4-0.1-0.7c0-0.3,0-0.5,0-0.8c0-0.2,0-0.5,0.1-0.7c0-0.1,0-0.3,0.1-0.4c0.1-0.1,0.1-0.3,0.2-0.5
		c0.1-0.2,0.2-0.5,0.4-0.6h0v-0.1l0,0c0,0,0,0,0,0c0,0,0,0,0,0l0-0.1v0c0,0,0-0.1,0-0.1c0,0,0,0,0,0l0,0l0,0
		c0.1-0.1,0.2-0.2,0.4-0.3c0.1-0.1,0.2-0.2,0.3-0.3c0.2,0.4,0.4,0.8,0.7,1.2c0.3,0.5,0.7,0.8,1.2,0.9c0.1,0.1,0.2,0.1,0.3,0.1l0,0
		c0.1,0,0.3,0,0.4,0L132.4,25.8z M133.8,19.9c0,0.5,0,0.9-0.1,1.4c-0.1,0.5-0.2,1-0.3,1.5c-0.1,0.5-0.2,0.9-0.3,1.1
		c-0.2,0.1-0.5,0-0.7-0.2c-0.2-0.2-0.4-0.4-0.5-0.6c-0.1-0.2-0.3-0.5-0.3-0.7c-0.1-0.2-0.1-0.4-0.2-0.6c0-0.1,0-0.1,0-0.2
		c0,0,0,0,0,0c0,0,0,0,0,0c0-0.1,0-0.1,0.1-0.2c0-0.1,0.1-0.1,0.2-0.1c0.1,0,0.1,0,0.1-0.1c0,0,0,0,0,0s0,0,0,0
		c0.1-0.2,0.3-0.4,0.4-0.5c0.2-0.2,0.4-0.4,0.5-0.6c0.2-0.2,0.4-0.4,0.5-0.5c0.1-0.1,0.3-0.2,0.4-0.3
		C133.8,19.3,133.9,19.6,133.8,19.9L133.8,19.9z M142.8,30.6c0-0.1,0.1-0.2,0.1-0.2l0,0c0.1,0,0.1,0,0.2-0.1
		C143,30.4,142.9,30.5,142.8,30.6z M144.2,26.6c-0.4,0.6-0.9,1.1-1.4,1.6c0,0,0,0.1,0,0.1c0,0.1,0,0.1,0,0.2
		c-0.3,0.1-0.6,0.3-0.9,0.4c-0.3,0.1-0.6,0.2-0.9,0.3c0,0,0-0.1,0-0.1c0,0,0-0.1-0.1-0.1c0-0.2,0.2-0.4,0.3-0.6
		c0.2-0.1,0.3-0.3,0.4-0.5c0-0.1,0.1-0.1,0.1-0.1c0.1-0.1,0.2-0.2,0.3-0.3c0,0,0,0,0,0s0,0,0-0.1c0.1,0.1,0.1,0,0.1-0.1
		c0.2-0.2,0.5-0.5,0.7-0.7c0.2-0.2,0.4-0.5,0.7-0.6c0,0,0,0,0-0.1c0,0,0,0,0-0.1c0.3-0.2,0.6-0.4,0.9-0.7l0,0
		c0.3-0.2,0.5-0.5,0.8-0.7l0,0C145,25.3,144.6,26,144.2,26.6z M147.1,25.7c0,0.1,0,0.1-0.1,0.1C147,25.8,147.1,25.7,147.1,25.7
		C147.1,25.7,147.1,25.7,147.1,25.7z M163.8,25.8c-0.1,0.1-0.2,0.1-0.2,0.2c-0.1-0.1,0-0.2,0.1-0.2l0,0c0.1-0.1,0.2-0.1,0.3-0.2
		C163.9,25.6,163.9,25.7,163.8,25.8z M164.2,24.8L164.2,24.8c0,0,0.1-0.1,0.1-0.1C164.3,24.7,164.3,24.8,164.2,24.8
		C164.2,24.9,164.1,24.9,164.2,24.8C164.1,24.9,164.2,24.8,164.2,24.8z M164.3,25.5c-0.1,0-0.1,0-0.1,0
		C164.1,25.4,164.1,25.4,164.3,25.5L164.3,25.5c0-0.1,0-0.1,0-0.1C164.3,25.4,164.3,25.4,164.3,25.5
		C164.3,25.5,164.3,25.5,164.3,25.5z M164.3,25.3c-0.1,0.1-0.1,0.1-0.2,0C164.2,25.3,164.2,25.3,164.3,25.3L164.3,25.3
		c0-0.1,0.1-0.1,0.1-0.2C164.4,25.2,164.4,25.2,164.3,25.3z M164.4,25.1L164.4,25.1L164.4,25.1c0-0.2,0-0.2,0-0.2
		C164.5,25,164.4,25.1,164.4,25.1z M164.6,24.9C164.6,24.9,164.6,24.8,164.6,24.9C164.6,24.9,164.6,24.9,164.6,24.9z M166.6,23.2
		C166.7,23.2,166.7,23.2,166.6,23.2C166.7,23.1,166.7,23.1,166.6,23.2L166.6,23.2z M166.9,22.9c-0.1,0-0.2,0.1-0.2,0.2
		c0,0-0.1,0-0.1,0l0,0.2h0l-0.1,0.1c0-0.1,0-0.3,0.1-0.4V23C166.7,22.9,166.8,22.9,166.9,22.9c0-0.1,0.1-0.2,0.1-0.3l0.1,0v0
		c0,0-0.1,0.1-0.1,0.1v0v0L166.9,22.9z M167,22.8C167,22.8,167,22.8,167,22.8C167,22.8,167,22.8,167,22.8
		C167,22.8,167,22.8,167,22.8z M167,22.8L167,22.8l0.1-0.1C167.1,22.7,167.1,22.8,167,22.8z M168.6,18.3c0.1-0.1,0.2-0.2,0.3-0.3
		C168.8,18.1,168.7,18.2,168.6,18.3L168.6,18.3c-0.1,0.1-0.2,0.2-0.4,0.3C168.3,18.5,168.4,18.3,168.6,18.3z M178.2,40.1v-0.2
		c0-0.1,0-0.1,0.1-0.1C178.3,39.9,178.3,39.9,178.2,40.1l0.1-0.1C178.3,40.1,178.3,40.1,178.2,40.1z M178.2,38.6
		c0-0.1,0-0.1,0.1-0.2l0,0c0-0.1,0-0.1,0.1-0.2C178.4,38.3,178.3,38.5,178.2,38.6z M178.4,38c-0.1-0.1-0.1-0.2,0-0.2
		C178.5,37.8,178.5,37.8,178.4,38C178.5,38,178.5,38,178.4,38z M184.2,38.2C184.2,38.2,184.2,38.2,184.2,38.2
		C184.2,38.2,184.2,38.2,184.2,38.2z M183.7,38.7c0,0.1-0.1,0.2-0.2,0.2C183.5,38.8,183.6,38.7,183.7,38.7z M180.5,35L180.5,35
		c0.1-0.1,0.2-0.2,0.2-0.4c0.1,0.1,0,0.3-0.1,0.4c-0.1,0.1-0.2,0.2-0.3,0.4C180.3,35.2,180.4,35.1,180.5,35z M181.7,39.8
		c-0.1,0-0.1,0.1,0,0.1c-0.1,0-0.2,0-0.2,0.1c0,0,0,0,0,0c0,0,0,0,0,0l0,0c0,0-0.1,0-0.1,0c0,0-0.1,0-0.1-0.1c0.1,0,0.2,0,0.2-0.1
		c0.1-0.1,0.2-0.1,0.2-0.1C181.8,39.7,181.8,39.7,181.7,39.8L181.7,39.8z M182,38.3c-0.2,0.1-0.3,0.1-0.4,0.2c0-0.1,0.1-0.3,0.3-0.3
		l0,0c0.2,0,0.3-0.1,0.4-0.2C182.2,38.1,182.1,38.2,182,38.3z M183.2,38.3C183.2,38.3,183.2,38.4,183.2,38.3
		C183.1,38.3,183.2,38.3,183.2,38.3L183.2,38.3C183.3,38.3,183.3,38.3,183.2,38.3z M183.4,38.2c0-0.1,0.1-0.1,0.1-0.2
		C183.5,38.1,183.4,38.2,183.4,38.2z M186.3,35.4c0,0.2-0.1,0.3-0.3,0.3c0,0,0,0-0.1,0C186,35.5,186.1,35.4,186.3,35.4
		c0-0.1,0-0.2,0.1-0.3l0,0c0.1-0.1,0.2-0.1,0.2-0.2C186.6,35.1,186.5,35.3,186.3,35.4z M187,35L187,35c-0.1,0.1-0.2,0.2-0.3,0.2
		C186.7,35.1,186.8,35,187,35c0-0.1,0.1-0.2,0.1-0.2C187.1,34.9,187,35,187,35z M187.1,34.4c-0.1,0.1-0.2,0.3-0.3,0.4v0
		c0-0.2,0.1-0.3,0.2-0.4c0.1-0.1,0.2-0.3,0.3-0.4C187.2,34.1,187.2,34.3,187.1,34.4z M188.1,33.4c0,0.1-0.1,0.1-0.1,0.1
		C187.9,33.5,187.9,33.4,188.1,33.4c0-0.1,0-0.1,0-0.2C188.1,33.3,188.1,33.3,188.1,33.4z M188.4,29.6
		C188.3,29.6,188.3,29.6,188.4,29.6c-0.1,0.1-0.2,0.1-0.2,0.1c0,0.3-0.2,0.6-0.3,0.9c-0.2,0.2-0.3,0.5-0.4,0.8
		c-0.3,0.3-0.5,0.6-0.7,1c0,0,0,0,0,0c0,0,0,0,0,0c0,0,0,0.1,0,0.1c0,0,0-0.1,0.1-0.1c-0.1,0.3-0.3,0.7-0.5,0.9
		c-0.2,0.2-0.4,0.5-0.6,0.8c-0.1,0-0.2,0.1-0.2,0.2c0,0.1-0.1,0.2-0.2,0.2c0,0.1-0.1,0.3-0.2,0.4c-0.1,0.1-0.1,0.2-0.2,0.3
		c-0.1,0-0.2,0.1-0.3,0.3c-0.1,0.1-0.2,0.3-0.3,0.4c-0.3,0.3-0.6,0.5-0.9,0.8c-0.3,0.3-0.6,0.5-0.9,0.8c-0.1,0-0.1,0.1-0.1,0.1
		c-0.1,0-0.1,0.1-0.2,0.1c0,0.1-0.1,0.1-0.1,0.2c-0.1,0.1-0.1,0.1-0.2,0.2c-0.2,0-0.4,0.1-0.5,0.2c-0.2,0.1-0.3,0.2-0.5,0.3
		c0.1,0.1,0.1,0.1,0,0.1c0,0-0.1,0.1-0.1,0.1c-0.1,0-0.1,0-0.2,0c-0.1,0-0.1,0-0.2,0c-0.1-0.3,0-0.5,0.1-0.8
		c0.1-0.3,0.2-0.5,0.4-0.7l0,0.1c0.1-0.1,0.1-0.2,0.1-0.3c0-0.1,0-0.3,0.1-0.4c0,0,0.1,0.1,0.1,0.1c0,0,0,0,0,0c0,0,0,0.1,0,0.1
		c0-0.1,0.1-0.3,0.1-0.4c0-0.1,0.1-0.2,0.1-0.3h0.1v0c0.1,0,0.1,0,0-0.1c0,0,0-0.1,0-0.1c0,0,0,0,0,0.1c0.1-0.1,0.1-0.3,0.1-0.4
		c0-0.1,0.1-0.2,0.2-0.3c0,0.1,0,0.1-0.1,0.2l0,0c0,0.1-0.1,0.2,0,0.2c0.1-0.1,0.1-0.3,0.1-0.4c0-0.1,0.1-0.3,0.2-0.3
		c0-0.2,0.1-0.3,0.2-0.5c0.1-0.1,0.2-0.2,0.2-0.4c0.2-0.1,0.3-0.2,0.2-0.2c0,0,0,0,0.1,0c0-0.2,0.2-0.5,0.4-0.6c0-0.1,0-0.3,0.1-0.4
		c0.1-0.1,0.2-0.2,0.4-0.4c0,0.1,0,0.2,0,0.3c0-0.1,0-0.2,0.1-0.3c0,0,0,0,0,0.1c0.1-0.1,0.1-0.2,0.2-0.3c0.1-0.1,0.2-0.2,0.3-0.1
		c0-0.1,0-0.2,0.1-0.3c0.1-0.1,0.1-0.1,0.1-0.2c0,0.1,0,0.1,0,0s0-0.1,0.1,0c0.3-0.3,0.6-0.7,1-1.1c0.4-0.4,0.7-0.8,1.1-1.1
		c0.1-0.1,0.1-0.1,0.2-0.2c0-0.1,0.1-0.1,0.1-0.2c0-0.1,0.1-0.1,0.2,0c0-0.2,0.1-0.3,0.3-0.4c0.1-0.1,0.3-0.2,0.3-0.3c0,0,0,0,0,0
		c0.2-0.3,0.4-0.5,0.6-0.7c0.2-0.2,0.4-0.5,0.6-0.7l0.1,0.2L188.4,29.6z M189.6,31.4c0-0.1,0-0.1,0-0.1s0-0.1,0-0.2
		c0.1,0,0.1,0,0.2,0C189.8,31.3,189.7,31.4,189.6,31.4z M195.2,23.6C195.2,23.6,195.2,23.6,195.2,23.6c-0.2,0.1-0.4,0.2-0.5,0.2
		c0.1-0.1,0.2-0.3,0.3-0.3l0,0c0.1-0.1,0.2-0.1,0.3-0.2c0,0-0.1-0.1-0.1,0c0,0,0,0,0,0c-0.1,0.1-0.1,0.1-0.2,0.2h-0.1v-0.1
		c0.1,0,0.2-0.1,0.3-0.2c0.1-0.1,0.1-0.1,0.2-0.1c0.1,0.1,0.1,0.1,0,0.1s0,0,0,0.1C195.4,23.4,195.3,23.5,195.2,23.6z M195.5,23.2
		c0,0,0,0.1,0,0.1h0C195.4,23.3,195.4,23.3,195.5,23.2c0,0,0-0.1,0-0.1C195.5,23.1,195.5,23.2,195.5,23.2
		C195.5,23.2,195.5,23.2,195.5,23.2z M195.8,23.1c0,0,0.1-0.1,0.1-0.1l0,0c0,0,0,0,0.2,0C196,23,195.9,23.1,195.8,23.1z M193.8,42
		L193.8,42L193.8,42L193.8,42L193.8,42z M201.5,31.7c-0.1,0.2-0.2,0.5-0.3,0.7c-0.1,0.2-0.1,0.3-0.1,0.5c0,0.1-0.1,0.3-0.2,0.3
		c0,0.3-0.1,0.6-0.2,0.8c-0.1,0.2-0.2,0.5-0.3,0.7c-0.1,0.1-0.1,0.2-0.1,0.3c0,0.1,0,0.2-0.1,0.3l-0.4,0.8c-0.1,0.1-0.1,0.3-0.2,0.4
		c-0.1,0.1-0.2,0.3-0.2,0.4v0.1c-0.1,0.1-0.1,0.2-0.2,0.3c0,0.1-0.1,0.2-0.2,0.2c-0.1,0.4-0.3,0.8-0.6,1.2c-0.3,0.4-0.5,0.8-0.7,1.2
		c-0.1,0-0.1,0-0.2,0.1c-0.1,0-0.1,0.1-0.1,0.1v0.2c-0.1,0-0.2,0-0.2,0.1c0,0,0,0,0,0c0,0.1-0.1,0.2-0.2,0.2c0,0-0.1,0-0.1,0
		c-0.1,0-0.1,0-0.2,0c-0.1,0.1-0.1,0.2-0.1,0.2c-0.1,0.1-0.1,0.1-0.2,0.1c-0.1,0-0.1,0.1-0.2,0.1c-0.1,0-0.1,0.1-0.2,0.2
		c0,0.1-0.1,0.1-0.2,0.1c-0.1,0-0.1-0.1-0.2-0.1c0,0,0-0.1-0.1-0.1c-0.1-0.2,0-0.3,0-0.5c0.1-0.2,0.1-0.3,0.1-0.5l0,0h0.1
		c0-0.1,0-0.2,0-0.3c0-0.1,0.1-0.2,0.1-0.3c0.1,0,0.1,0,0.1,0s0,0,0.1,0c0.1-0.3,0.2-0.7,0.3-1c0.1-0.3,0.2-0.6,0.3-0.9
		c0.1,0,0.1,0,0,0s0,0,0,0c0.1-0.2,0.2-0.4,0.3-0.5c0.1-0.2,0.2-0.4,0.2-0.5v0.1c0.1-0.1,0.2-0.2,0.2-0.3c0.1-0.1,0.1-0.2,0.1-0.3
		h0.1c0-0.2,0.1-0.4,0.2-0.6c0.1-0.2,0.1-0.4,0.2-0.5c0.1,0,0.1,0,0,0s0,0,0,0c0,0,0-0.1,0-0.1c0,0,0-0.1,0.1-0.1c0,0,0,0,0,0
		c0.1-0.2,0.2-0.4,0.3-0.6c0.1-0.2,0.2-0.4,0.3-0.6c0,0,0,0,0,0s0,0,0,0c0.1-0.1,0.2-0.3,0.3-0.5c0.1-0.2,0.2-0.3,0.4-0.5
		c0,0.1,0,0.1,0,0.1c0,0,0,0,0,0c0,0,0,0,0,0c0.1,0,0.1-0.1,0.1-0.2c0-0.1,0.1-0.1,0.1-0.2c0-0.1,0.1-0.1,0.2-0.1l1-1.2
		c0.1-0.1,0.1-0.1,0.1,0c0,0.1,0.1,0.1,0.1,0.1c0,0,0,0,0,0c0.1,0,0.2-0.1,0.3-0.2l0,0c0-0.1,0.1-0.2,0.2-0.2
		C201.7,31.3,201.6,31.5,201.5,31.7z M214.2,20.6l0.1,0l0.1,0.6l-0.2,0l-0.1,0.1H214c0,0,0-0.1,0.1-0.1c0-0.1,0.1-0.1,0.1-0.1v0v0
		l0.1-0.2c0,0,0-0.1,0-0.1c0,0,0,0,0,0c0,0,0,0,0,0C214.2,20.8,214.2,20.7,214.2,20.6L214.2,20.6L214.2,20.6z M241,23.9
		C241,23.9,241,23.9,241,23.9L241,23.9L241,23.9z M246.7,20.6c-0.1,0-0.2,0.1-0.2,0.2c-0.1,0.1-0.1,0.2-0.2,0.2
		c-0.7,0.9-1.4,1.7-2.1,2.5s-1.4,1.6-2.2,2.3c-0.2,0.2-0.4,0.3-0.6,0.4c-0.2,0.1-0.5,0.3-0.7,0.4c0-0.3,0.1-0.5,0.2-0.8
		c0.1-0.2,0.2-0.5,0.3-0.7c0,0,0,0,0,0s0-0.1,0.1,0c0-0.2,0.1-0.3,0.2-0.5c0.1-0.1,0.1-0.2,0.2-0.4c0.2-0.4,0.5-0.9,0.7-1.3
		c0.3-0.4,0.5-0.9,0.9-1.3l0.6-0.6c0.1-0.1,0.1-0.2,0.2-0.3c0-0.1,0.1-0.2,0.2-0.2c0.1-0.1,0.1-0.1,0.2-0.1c0.1,0,0.2-0.1,0.2-0.2
		l0.6-0.7c0.4-0.2,0.6-0.2,0.8,0.1c0.2,0.3,0.3,0.6,0.3,0.9C246.4,20.4,246.6,20.4,246.7,20.6L246.7,20.6z"/>
	<path class="st0" d="M161.8,14.4L161.8,14.4C161.8,14.4,161.8,14.4,161.8,14.4z"/>
	<path class="st0" d="M164.5,25.6c0.1-0.1,0.2-0.1,0.3-0.2l0,0c0.1-0.1,0.2-0.1,0.3-0.2v0c-0.1,0.1-0.2,0.1-0.3,0.2
		C164.7,25.4,164.6,25.5,164.5,25.6z"/>
	<path class="st0" d="M26.8,4.3c0-0.1-0.1-0.3-0.2-0.4c-0.1-0.1-0.1-0.2-0.2-0.3c-0.1-0.2-0.2-0.4-0.3-0.5c-0.1-0.2-0.2-0.3-0.3-0.4
		c-0.5-0.6-1.2-1.1-2-1.3C22.9,1,22,0.9,21,0.9c-0.5,0-1,0.1-1.4,0.1c-0.5,0.1-0.9,0.1-1.4,0.2c-0.5,0.1-0.9,0.2-1.3,0.3
		c-0.4,0.1-0.8,0.2-1.2,0.3C15.6,1.9,15.4,2,15.3,2c-0.2,0-0.3,0.1-0.5,0.2c-0.2,0.1-0.4,0.2-0.6,0.3c-0.2,0.1-0.4,0.2-0.6,0.3
		c-0.8,0.4-1.6,0.7-2.3,1.1c-0.8,0.4-1.5,0.8-2.2,1.3C9,5.3,9,5.4,8.9,5.5c0,0.1-0.1,0.1-0.2,0.1c0,0-0.1,0.1-0.1,0.1
		c0,0-0.1,0.1-0.1,0.1c-0.1,0-0.1,0-0.1,0s0,0-0.1,0C8.3,6,8.2,6.3,8.2,6.5c0,0.2,0,0.4,0,0.6c0,0.2,0.1,0.4,0.2,0.6
		c0.1,0.2,0.1,0.4,0.1,0.6c0.2,0.1,0.3,0.2,0.4,0.4C9,8.9,9.1,9,9.2,9c0,0,0-0.1,0.1-0.1c0,0,0,0,0,0c0.1,0,0.1,0,0.2,0
		c0,0.1,0,0.1-0.1,0.1S9.3,9,9.4,9C9.5,9,9.7,8.9,9.8,8.8c0.1-0.1,0.3-0.2,0.4-0.4c0,0,0,0,0,0s0,0,0.1,0V8.4c0.1,0.1,0.1,0.1,0.1,0
		c0-0.1,0.1-0.2,0.1-0.2c0,0.1,0,0.1,0,0.1s0.1,0,0.1,0.1V7.8c0,0-0.1,0.1-0.1,0.1c0,0-0.1,0-0.1,0.1c0-0.1,0-0.2,0.1-0.2
		c0.1,0,0.1-0.1,0.1-0.2c-0.1,0.1-0.1,0.1-0.1,0c0-0.1,0-0.1-0.1-0.1c0,0.1,0,0.1,0,0.1c0-0.1,0-0.1,0-0.2c0-0.1,0-0.1,0-0.2
		c0,0,0,0,0,0c0,0,0.1,0,0.1,0c0-0.1,0-0.1-0.1-0.1h-0.1c0.3-0.7,0.7-1.4,1.4-1.8c0.6-0.4,1.3-0.8,1.9-1.1c0.7-0.3,1.4-0.5,2.1-0.8
		c0.7-0.3,1.5-0.5,2.2-0.7l1.2-0.2c1-0.2,2.1-0.2,3.1,0c1,0.2,2,0.6,2.8,1.2c0,0.1,0.1,0.2,0.2,0.3c0.1,0.1,0.1,0.3,0.1,0.4
		c0,0.4,0,0.7-0.1,1.1c-0.1,0.4-0.2,0.7-0.4,1c-0.2,0.3-0.3,0.6-0.5,0.9c-0.2,0.3-0.3,0.5-0.5,0.7v0.2c-1,1.5-2.3,2.9-3.7,4v0.1
		c-0.4,0.3-0.8,0.6-1.2,0.9c-0.4,0.3-0.8,0.6-1.3,0.9c0,0.1,0,0.1-0.1,0.2c-1.1,0.7-2.2,1.3-3.3,1.8c-0.1,0.1-0.3,0.2-0.5,0.3
		c-0.2,0.1-0.4,0.1-0.6,0.2c0.2-0.4,0.4-0.8,0.6-1.1c0.2-0.4,0.3-0.8,0.5-1.2c0-0.1,0.1-0.2,0.1-0.2c0-0.1,0.1-0.1,0.1-0.2
		c0.2-0.6,0.4-1.2,0.7-1.8c0.3-0.6,0.5-1.2,0.7-1.9H16c0.2-0.7,0.5-1.4,0.9-2C17.3,7.7,17.6,7,18,6.4c0-0.2,0.1-0.4,0.2-0.5
		c0.1-0.2,0.1-0.4,0.2-0.5c0.1-0.2,0.1-0.3,0.1-0.5c0-0.2-0.1-0.3-0.2-0.4c-0.1-0.1-0.2-0.1-0.3-0.2c-0.2-0.1-0.3-0.1-0.5-0.1
		c-0.2-0.1-0.4-0.1-0.6,0c-0.2,0.1-0.4,0-0.6,0c0,0-0.1,0.1-0.1,0.1c-0.1,0-0.1,0.1-0.1,0.1c-0.1,0.2-0.1,0.5-0.2,0.7
		c-0.1,0.2-0.2,0.5-0.4,0.7c-0.2,0.6-0.5,1.1-0.7,1.7c-0.3,0.6-0.5,1.1-0.8,1.6c-0.3,0.6-0.5,1.2-0.8,1.8c-0.3,0.6-0.6,1.1-0.8,1.6
		c-0.3,0.8-0.7,1.5-1,2.2s-0.7,1.4-1,2.1c-0.2,0-0.3,0.1-0.5,0.1c-0.1,0.1-0.3,0.1-0.5,0.1c-0.1,0.1-0.1,0.2,0,0.3
		c-0.1,0-0.2,0-0.2,0.1c0.1,0.1,0.2,0.2,0.2,0.3c0.1,0.1,0.1,0.3,0.1,0.4c0.1,0,0.1,0,0.1,0.1c0,0,0.1,0.1,0.1,0.1
		c-0.9,1.9-1.7,3.8-2.5,5.8c-0.8,2-1.4,4.1-2,6.2c-0.1,0.2-0.2,0.5-0.2,0.7c-0.1,0.2-0.1,0.4-0.2,0.7c-0.1,0.3-0.1,0.5-0.2,0.8
		c0,0.3-0.1,0.5-0.2,0.7c-0.1,0-0.3,0-0.5,0s-0.5-0.1-0.7-0.1c-0.2,0-0.5-0.1-0.7-0.2c-0.2-0.1-0.3-0.2-0.4-0.3
		c-0.1-0.2,0-0.3,0.2-0.4c0,0,0,0,0,0c0.2-0.1,0.3-0.1,0.5-0.2c0-0.2,0.2-0.3,0.4-0.3c0,0,0,0,0,0c0.2,0.1,0.4,0,0.5-0.1
		c-0.2-0.1-0.4-0.1-0.5-0.1c-0.2,0-0.4-0.1-0.4-0.3c0,0.1,0,0.2-0.1,0.2c0,0,0-0.1,0-0.1c0,0,0,0,0,0c-0.3,0-0.6,0-0.8,0
		c-0.3,0-0.5,0.2-0.7,0.3c-0.1,0-0.1,0,0,0.1c-0.1,0-0.2,0-0.2,0c0,0-0.1,0.1-0.1,0.1c-0.1,0-0.2,0-0.3,0.1c0,0.1,0,0.2-0.1,0.3
		c-0.1,0.1-0.1,0.1-0.2,0.2c0.1,0,0.1,0,0.1,0c0,0,0,0.1,0.1,0.1c0,0-0.1,0.1-0.1,0.1c0,0,0,0.1-0.1,0.1c0,0.1,0,0.1,0.1,0.2
		c0,0,0,0.1,0.1,0.1c0,0,0,0,0,0c0-0.1,0-0.2,0-0.2L0.4,33c0,0.1,0.1,0.2,0.1,0.3c0,0.1,0,0.2,0,0.3c0.1,0,0.1,0,0.1,0
		c0,0,0.1,0.1,0.1,0.1c-0.1,0,0,0.1,0,0.2l-0.2,0c0.1,0.1,0.1,0.2,0.2,0.3L1,34.4c0-0.1,0-0.1-0.1-0.2l0.3,0c0,0.1,0.1,0.1,0.2,0.2
		c0.1,0.1,0.2,0.2,0.3,0.3c0.4,0.1,0.9,0.2,1.4,0.3c0.5,0.1,1,0.1,1.5,0.1c0.1,0,0.1,0.1,0.2,0C4.8,35,4.9,35,5,35
		c0.3,0,0.6,0,0.9,0.1l-2.2-0.5L6.1,35c0.1-0.1,0.2-0.1,0.3-0.1c0.1,0,0.3,0,0.3-0.2c-0.1,0-0.1,0-0.2,0c-0.1,0-0.1,0-0.2-0.1
		c0.1-0.1,0.2-0.1,0.3-0.1c0,0,0.1,0,0.1,0c0,0,0,0,0,0c0.3-0.2,0.7-0.3,1.1-0.4c0.4-0.1,0.8-0.2,1.2-0.3c-0.7,0.2-1.4,0.3-2.2,0.4
		s-1.5,0.1-2.1,0.2c0-0.1,0.1-0.2,0.2-0.2c0.1,0,0.1,0,0,0s0,0,0,0c0.3-0.1,0.5-0.1,0.8-0.1C6,34.1,6.3,34,6.5,34
		c0.3-0.1,0.6-0.2,1-0.2c0.3-0.1,0.6-0.2,0.9-0.3c0.2,0,0.3,0,0.4-0.1c0.1-0.1,0.2-0.1,0.4-0.1C9.5,33.1,9.7,33,9.9,33
		c0.2-0.1,0.4-0.1,0.7-0.2l2.8-1c0.1,0,0.2-0.1,0.3-0.2c0.1-0.1,0.2-0.1,0.2,0c0.1-0.1,0.1-0.1,0-0.1s0,0,0,0
		c0.5-0.2,0.9-0.4,1.3-0.6c0.4-0.2,0.9-0.4,1.4-0.7c0,0,0-0.1,0-0.1c0,0,0,0,0,0c0.1,0,0.2-0.1,0.3-0.1c0.1-0.1,0.2-0.1,0.3-0.1
		c0.1,0,0.1-0.1,0-0.1s0,0,0-0.1s0.1,0,0,0s0,0.1,0,0.1l0.3-0.2c0.1,0.1,0,0.2-0.2,0.2c-0.2,0-0.2,0.1-0.2,0.2
		c-0.5,0.2-1,0.4-1.5,0.6c-0.4,0.2-0.7,0.4-1.1,0.6c0.1,0,0.1,0,0.2,0c0.6-0.3,1.1-0.6,1.8-0.9c0.6-0.3,1.1-0.6,1.6-1
		c-0.1,0-0.2,0.1-0.3,0.2c-0.1,0.1-0.2,0.1-0.3,0.1c0.1-0.1,0.3-0.2,0.5-0.3c0.2-0.1,0.4-0.2,0.6-0.3l0.8-0.3c0,0,0-0.1,0-0.1
		c0.1,0.1,0.1,0.1,0.1,0c0,0,0.1-0.1,0.1-0.1v-0.2c0.3-0.2,0.5-0.3,0.7-0.4c0.2-0.1,0.4-0.3,0.6-0.4c0,0,0.1,0,0.1,0
		c0.1-0.1,0.1-0.1,0.2-0.2c0.1-0.1,0.2-0.1,0.2-0.1c0.1,0,0.2,0,0.3,0c0,0.2-0.2,0.3-0.3,0.4c-0.1,0.1-0.3,0.2-0.4,0.3
		c0,0,0.1,0,0.1-0.1c0.1-0.1,0.1-0.1,0.2-0.1c-0.1,0.1-0.2,0.2-0.3,0.3c-0.1,0.1-0.2,0.2-0.3,0.3c-0.4,0.2-0.7,0.5-1,0.7
		c-0.3,0.3-0.7,0.5-1,0.6c-0.4,0.4-1,0.8-1.5,1.1c-0.6,0.3-1.1,0.5-1.7,0.8c0.2-0.1,0.4-0.1,0.5-0.2c0.2-0.1,0.4-0.2,0.6-0.2
		c0,0.1-0.1,0.1-0.2,0.1c-0.1,0-0.2,0-0.3,0.1c0.3,0,0.6-0.1,0.9-0.3c0.3-0.1,0.5-0.3,0.8-0.4c0.3-0.2,0.6-0.4,0.9-0.5
		c0.3-0.1,0.5-0.3,0.7-0.6c0.1,0,0.2,0,0.2,0c0,0,0.1-0.1,0.1-0.1c0.1-0.2,0.2-0.3,0.4-0.4c0.1,0,0.3-0.1,0.3-0.3
		c0.2,0,0.3-0.1,0.5-0.3c0.1-0.1,0.2-0.2,0.4-0.3c-0.1,0.2-0.3,0.3-0.4,0.4C21,28.9,20.9,29,20.7,29c0,0.1,0,0.1,0.1,0.1
		c0,0,0.1,0,0.1,0c-0.4,0.4-0.9,0.8-1.5,1c-0.6,0.2-1.1,0.6-1.5,1c-0.3,0.1-0.6,0.2-0.8,0.4c-0.3,0.2-0.6,0.3-0.9,0.4
		c-0.3,0.2-0.5,0.3-0.8,0.4c-0.3,0.1-0.5,0.2-0.8,0.4c0-0.1,0-0.1,0,0c0,0-0.1,0-0.1,0l-1,0.4c0.9-0.3,1.8-0.7,2.6-1.1l0.7-0.3
		c0.1-0.1,0.2-0.1,0.3-0.2c0.1-0.1,0.2-0.2,0.3-0.2c0.2-0.1,0.4-0.2,0.6-0.3c0.2-0.1,0.4-0.2,0.6-0.3c-0.6,0.4-1.1,0.7-1.7,1.1
		c-0.6,0.4-1.2,0.7-1.9,0.9c-0.1,0-0.1,0,0,0.1s0,0.1,0,0.1c-0.3,0.1-0.5,0.1-0.7,0.3c-0.2,0.1-0.5,0.2-0.7,0.2c0,0.1,0,0.1,0,0.1
		c-0.9,0.3-1.8,0.7-2.7,1S9,35.1,8.1,35.4c0.6-0.1,1.2-0.3,1.8-0.5c0.5-0.2,1-0.4,1.6-0.5c-0.1,0.1-0.3,0.2-0.4,0.2
		c-0.2,0-0.3,0.1-0.4,0.2c0.4-0.1,0.8-0.3,1.2-0.4c0.4-0.1,0.8-0.3,1.2-0.4V34c0.2-0.1,0.4-0.2,0.6-0.2c0.2,0,0.4-0.1,0.5-0.3
		c0.3-0.1,0.6-0.2,0.9-0.4c0.3-0.1,0.6-0.3,0.8-0.5c0.7-0.3,1.4-0.6,2.1-0.9c0.1-0.1,0.3-0.3,0.4-0.4c0.2-0.1,0.3-0.2,0.5-0.3
		l0.5-0.2c0.1,0,0.1-0.1,0.2-0.2c0.1-0.1,0.2-0.1,0.3-0.1c0-0.1,0.1-0.1,0.1-0.1c0.1,0,0.1,0,0.2-0.1c0.1-0.1,0.2-0.2,0.2-0.2
		c0.1-0.1,0.2-0.2,0.3-0.2c0,0,0,0.1-0.1,0.1c0,0.1-0.1,0.1,0,0.2c-0.1,0.1-0.2,0.1-0.2,0.2c-0.3,0.1-0.5,0.2-0.7,0.4
		c-0.2,0.2-0.4,0.3-0.6,0.4c-0.3,0.1-0.6,0.3-0.8,0.5c-0.3,0.2-0.6,0.3-0.9,0.4c0,0.1-0.1,0.1-0.1,0.2c-0.1,0-0.1,0.1-0.1,0.1
		c-1.1,0.5-2.2,1-3.3,1.5c-1.2,0.5-2.4,0.9-3.6,1.2c-0.1,0-0.1,0.1-0.2,0.1c-0.1,0-0.1,0-0.2,0.1c0.6,0,1.2-0.2,1.7-0.4
		c0.5-0.2,1-0.4,1.6-0.5l1.8-0.5l0.9-0.4c0.3-0.1,0.6-0.2,0.9-0.3c0.3-0.1,0.6-0.3,0.9-0.4c0.1-0.1,0.3-0.1,0.4-0.2l0.4-0.3
		c0.1-0.1,0.3-0.2,0.4-0.3c0.1-0.1,0.3-0.1,0.4-0.2c0.3-0.1,0.5-0.3,0.7-0.5c0.2-0.2,0.5-0.3,0.8-0.4l0.8-0.6h0.2
		c0.2-0.2,0.5-0.4,0.7-0.6c0.3-0.2,0.5-0.4,0.8-0.6c0.1-0.1,0.3-0.3,0.4-0.5c0.1-0.2,0.3-0.3,0.5-0.5c0.1-0.1,0.2-0.2,0.3-0.3
		c0.1-0.1,0.2-0.1,0.2-0.2c0.2-0.1,0.3-0.3,0.5-0.5c0.1-0.2,0.2-0.4,0.4-0.5c0.1-0.2,0.2-0.4,0.3-0.6c0.3-0.5,0.5-1,0.5-1.6
		c0-0.6-0.1-1.1-0.3-1.6c-0.1-0.1-0.2-0.3-0.3-0.5c0-0.2-0.1-0.4-0.3-0.6c0.1-0.1,0-0.2,0-0.3c-0.1-0.1-0.1-0.2-0.2-0.3
		c-0.1,0-0.1,0-0.1,0c0,0,0,0-0.1,0c0-0.2-0.1-0.5-0.3-0.7c-0.2-0.2-0.3-0.4-0.3-0.6c-0.3-0.3-0.6-0.6-0.9-0.9
		c-0.4-0.3-0.8-0.6-1.2-0.9h-0.1c0-0.1,0-0.1-0.1-0.1c0,0-0.1,0-0.1-0.1c0,0,0,0,0,0c-1-0.4-2-0.7-3-0.9c-0.1-0.1-0.3-0.2-0.5-0.2
		c-0.2,0-0.4-0.1-0.5-0.2c0.5-0.3,1.1-0.6,1.6-1s1.1-0.7,1.6-1.1c0.4-0.1,0.7-0.2,1-0.5c0.2-0.3,0.5-0.5,0.9-0.7
		c0.4-0.5,0.8-0.9,1.3-1.3c0.5-0.4,0.9-0.9,1.2-1.5c0.6-0.6,1-1.3,1.3-2c0.4-0.9,0.5-1.8,0.4-2.7C27.3,5.3,27.1,4.8,26.8,4.3z
		 M0.9,33.9C0.9,33.9,0.9,33.9,0.9,33.9c0,0,0.1,0,0.1,0c0,0,0,0,0.1,0c0,0,0,0,0,0L0.9,33.9z M1.6,34.1C1.6,34.1,1.7,34.1,1.6,34.1
		L1.6,34.1z M19,30c0,0-0.1,0.1-0.2,0.1c-0.2,0.1-0.4,0.2-0.6,0.3c-0.2,0.1-0.4,0.2-0.5,0.4c-0.1,0-0.2,0-0.3,0h0
		c-0.1,0-0.1,0.1-0.2,0.1c0.3-0.2,0.6-0.3,0.9-0.5s0.6-0.3,0.8-0.5C19.1,29.9,19.1,30,19,30z M19.1,28.4c0,0-0.1,0-0.1,0.1
		c0,0,0-0.1-0.1-0.1c0,0,0,0,0-0.1C18.9,28.4,18.9,28.4,19.1,28.4C19,28.3,19,28.3,19.1,28.4C19.1,28.3,19.1,28.3,19.1,28.4
		C19.1,28.3,19.1,28.4,19.1,28.4z M22.7,29.4L22.7,29.4c-0.1,0.1-0.2,0.2-0.3,0.3c0.1-0.2,0.3-0.4,0.5-0.6
		C22.8,29.2,22.7,29.3,22.7,29.4z M24.4,20.5c0.1,0.1,0.1,0.2,0.1,0.4c-0.1,0-0.2-0.1-0.2-0.2l0,0c0-0.1-0.1-0.2-0.1-0.3
		C24.3,20.4,24.4,20.4,24.4,20.5z M23.3,19c0.3,0.2,0.5,0.5,0.8,0.7h0.1c0,0,0,0.1,0,0.1c0,0,0,0.1,0,0.1c-0.1,0-0.1,0-0.1,0
		c0,0,0-0.1,0-0.1c-0.1,0-0.1,0,0,0c-0.2-0.1-0.4-0.3-0.6-0.4c-0.2-0.2-0.3-0.3-0.5-0.5c0-0.1,0-0.1,0,0s0,0,0.1,0
		c-0.1-0.1-0.2-0.1-0.4-0.2v0c-0.1-0.1-0.2-0.2-0.3-0.3C22.7,18.6,23,18.8,23.3,19z M19,19c0.4,0.2,0.8,0.3,1.3,0.4
		c0.2,0.1,0.4,0.1,0.5,0.3c0.1,0.1,0.3,0.2,0.4,0.3c0.1,0,0.1,0,0.1,0s0,0,0.1,0c0.2,0.1,0.4,0.2,0.7,0.3c0.2,0.1,0.5,0.2,0.7,0.4
		c0.3,0.2,0.5,0.4,0.6,0.6c0.2,0.3,0.3,0.6,0.3,0.9c0,0.5-0.1,1-0.3,1.4c-0.2,0.4-0.4,0.8-0.7,1.2c0,0.1-0.1,0.1,0,0.2
		c-0.3,0.4-0.7,0.8-1.1,1.3c-0.4,0.4-0.8,0.8-1.3,1.1c0,0.1-0.1,0.2-0.2,0.2c-0.1,0-0.1,0.1-0.2,0.2c-0.1,0-0.1,0-0.1,0
		c0,0-0.1,0-0.1,0c0,0.1-0.1,0.2-0.3,0.2c-0.1,0-0.2,0-0.3,0.1c-0.1,0-0.1,0-0.1,0.1c0,0-0.1,0.1-0.1,0.1l-0.1,0.1c0,0,0,0,0,0
		c-0.1,0-0.1,0.1-0.2,0.1c-0.1,0-0.1,0.1-0.2,0.1c0,0,0,0,0,0.1s0,0.1,0,0.1l0-0.1c-0.1,0-0.1,0.1-0.2,0.1c-0.1,0-0.1,0.1-0.2,0.1
		c-0.1,0-0.2,0-0.3,0.1c-0.1,0.1-0.2,0.1-0.3,0.2c-0.1,0-0.2,0.1-0.3,0.1c-0.1,0.1-0.2,0.1-0.3,0.1c0,0-0.1,0.1-0.1,0.1
		c0,0,0,0.1-0.1,0.1c-0.3,0-0.6,0.1-0.8,0.3c-0.2,0.2-0.5,0.3-0.8,0.4l0.1,0.1c-0.1,0-0.2,0-0.3,0.1c-0.1,0.1-0.2,0.1-0.2,0
		c0,0.1,0,0.1,0,0.1s0,0,0,0c-0.1,0-0.2,0-0.3,0.1c-0.1,0.1-0.2,0.1-0.3,0c0,0.1-0.1,0.1-0.1,0.1c-0.1,0-0.2,0-0.2,0.1
		c-0.2,0.1-0.5,0.2-0.7,0.3c0,0,0,0,0-0.1c-0.1,0.1-0.1,0.2-0.2,0.1s-0.1,0-0.1,0.1c-0.4,0.1-0.8,0.2-1.2,0.4
		c-0.4,0.2-0.8,0.3-1.2,0.3c0,0.1,0.1,0.1,0.1,0s0,0,0,0c-0.7,0.3-1.4,0.5-2.1,0.6C7.7,33,7,33.1,6.4,33.3c0.1-0.1,0.1-0.2,0.2-0.3
		c0.1-0.1,0.2-0.2,0.3-0.2c0.1-0.2,0.2-0.4,0.3-0.6c0.1-0.2,0.2-0.3,0.3-0.4c0,0,0,0,0,0c0,0,0,0,0,0c0.2-0.2,0.3-0.4,0.5-0.6
		c0.2-0.2,0.3-0.5,0.4-0.7c0.1-0.2,0.2-0.4,0.3-0.7C8.8,29.5,8.9,29.3,9,29c0-0.2,0.1-0.4,0.2-0.5c0-0.2,0.1-0.5,0.2-0.7
		c0.1-0.3,0.2-0.5,0.3-0.7c0.1-0.6,0.2-1.1,0.3-1.6s0.2-1.1,0.4-1.6c0.1-0.2,0.2-0.4,0.2-0.7c0-0.2,0.1-0.4,0.1-0.6
		c0.2-0.5,0.4-1.1,0.6-1.6c0.2-0.5,0.4-1,0.6-1.4c0-0.1,0.1-0.2,0.1-0.3c0-0.1,0.1-0.1,0.3,0c0,0,0.1,0,0.1,0.1c0,0,0,0,0,0
		c0.2-0.1,0.4-0.1,0.6-0.2c0.2-0.1,0.4-0.1,0.5-0.2c0.1,0,0.1,0.1,0.1,0.1s0,0,0.1,0c0.6-0.2,1.2-0.3,1.7-0.4
		c0.6-0.1,1.2-0.1,1.7-0.1c0.3,0.1,0.6,0.2,0.9,0.2C18.3,18.8,18.7,18.9,19,19z"/>
	<path class="st0" d="M107.2,28.3L107.2,28.3c0-0.2,0-0.3,0-0.5l-0.2,0.9C107.1,28.6,107.2,28.5,107.2,28.3z"/>
	<polygon class="st0" points="165.1,25.2 165.1,25.2 165.1,25.2 	"/>
	<path class="st0" d="M71.8,14.3C71.7,14.3,71.7,14.3,71.8,14.3c-0.1,0-0.1,0-0.1,0C71.7,14.3,71.7,14.3,71.8,14.3z"/>
	<path class="st0" d="M69.8,14.4C69.8,14.4,69.9,14.3,69.8,14.4C69.9,14.3,69.9,14.3,69.8,14.4L69.8,14.4z"/>
	<path class="st0" d="M127.4,13.1c0-0.2,0-0.2,0-0.3s0,0,0,0c0,0-0.1,0-0.1,0c-0.1,0-0.2-0.1-0.2-0.2c-0.1-0.1-0.1-0.2-0.2-0.4
		c-0.1-0.3-0.5-0.4-0.8-0.3c-0.1,0-0.1,0.1-0.2,0.1c-0.2,0.2-0.4,0.3-0.7,0.2c0,0.1-0.1,0.1-0.2,0.1c-1.3,0.5-2.5,1.1-3.8,1.7
		s-2.5,1.2-3.8,1.9l-0.1,0.1c-0.6,0.3-1.2,0.6-1.7,0.8c-0.6,0.3-1.2,0.5-1.8,0.7c-0.3,0.2-0.6,0.3-0.9,0.4c-0.5,0.1-0.8,0.2-1.1,0.3
		c0-0.1,0-0.3,0.1-0.4c0.1-0.2,0.1-0.4,0.2-0.6s0.1-0.4,0.2-0.6c0-0.1,0.1-0.3,0.1-0.4c0-0.1,0-0.1,0,0c0,0,0,0,0-0.1
		c0.1-0.4,0.3-0.8,0.4-1.2c0.1-0.4,0.3-0.7,0.5-1c0-0.2,0.1-0.3,0.2-0.4c0.1-0.1,0.1-0.2,0.1-0.4c0-0.1,0-0.2,0-0.3
		c0-0.1,0-0.2,0.1-0.3c0.2-0.6,0.3-1.2,0.5-1.8c0.2-0.6,0.4-1.2,0.7-1.8c0.3-0.8,0.6-1.5,0.9-2.2c0.3-1.1,0.7-2.2,1.2-3.3
		c0.1-0.4,0.2-0.8,0.2-1.1c0.1-0.5,0-1-0.3-1.5c-0.4-0.3-0.8-0.4-1.3-0.5c-0.2-0.3-0.5-0.5-0.8-0.5c0,0-0.1,0.1-0.1,0.2
		c0,0.1,0,0.1-0.1,0.2c0.1,0.4,0.1,0.8-0.1,1.1c-0.2,0.4-0.3,0.8-0.3,1.2c-0.2,0.5-0.4,1-0.6,1.6c-0.2,0.5-0.3,1.1-0.5,1.6
		c-0.2,0.4-0.3,0.9-0.5,1.3s-0.4,0.8-0.6,1.2C112,8.5,112,8.8,111.9,9c0,0.2,0,0.4-0.1,0.7c0,0.1-0.1,0.2-0.1,0.2
		c-0.1,0.1-0.1,0.1-0.1,0.2v0.2c0,0.2-0.1,0.3-0.2,0.4c-0.1,0.1-0.2,0.3-0.2,0.5c-0.1,0.2-0.2,0.4-0.3,0.7c-0.1,0.2-0.1,0.5-0.2,0.7
		c0,0.1-0.1,0.2-0.1,0.3c0,0.1-0.1,0.2-0.1,0.3l-0.3,1c-0.1,0.2-0.2,0.3-0.2,0.5c-0.1,0.2-0.1,0.4-0.2,0.6c0,0.1-0.1,0.1-0.1,0.2
		c0,0.1-0.1,0.1-0.1,0.2c0,0.1,0,0.2,0,0.4c-0.1,0.1-0.1,0.2-0.2,0.3c-0.1,0.1-0.1,0.2-0.1,0.4c-0.1,0.3-0.1,0.5-0.1,0.6
		c-0.1,0.2-0.1,0.3-0.2,0.4c-0.1,0.4-0.3,0.9-0.5,1.4c-0.2,0.5-0.3,1-0.5,1.4c-0.2,0.2-0.4,0.4-0.5,0.5c-0.2,0.2-0.3,0.3-0.4,0.5
		l-0.1,0c-0.1,0.2-0.2,0.4-0.3,0.6c-0.1,0.2-0.2,0.5-0.2,0.7c0,0.1,0,0.1,0,0.1s0,0,0,0.1c-0.1,0-0.1,0.1-0.1,0.2c0,0.1,0,0.1,0,0.2
		c0,0.2,0,0.4,0.1,0.6c0.1,0.2,0.1,0.3,0.2,0.5c0,0.2,0,0.4-0.1,0.5c-0.1,0.2-0.1,0.5-0.2,0.7c-0.1,0.3-0.2,0.6-0.2,1
		c-0.4,0.9-0.7,1.9-0.9,2.9c-0.2,1-0.5,1.9-0.9,2.8c0,0.3,0,0.6-0.1,0.9c-0.1,0.3-0.2,0.6-0.3,0.9v0.2c-0.1,0.4-0.2,0.7-0.3,1.1
		c0,0.3-0.1,0.6-0.2,1V37c0,0.1-0.1,0.2-0.2,0.3c0.1,0.1,0.1,0.2,0.1,0.2c0,0.1,0,0.2-0.1,0.3c-0.1,0,0-0.1,0-0.2
		c0.1-0.1,0-0.2-0.1-0.2c0,0.1,0,0.2,0,0.3l0,0c0,0.1,0,0.2,0,0.2c0,0,0.1,0,0.1,0c0,0,0,0,0,0c0,0,0.1,0,0.1,0
		c-0.1,0.1-0.1,0.1-0.2,0.1c-0.1,0-0.1,0,0,0.1c0.1,0.2,0.1,0.2,0.2,0.1c0.1-0.2,0.2-0.4,0.2-0.5c0.1-0.2,0.2-0.5,0.3-0.7
		c0.1-0.2,0.2-0.3,0.4-0.4c0,0,0,0,0-0.1s0-0.1,0-0.1c0,0.2,0.2,0.3,0.3,0.3c0,0.1,0,0.1,0,0.2c0,0.2,0,0.4,0,0.6
		c0,0.2,0,0.4,0.1,0.6c0,0.2,0,0.2,0,0.2c0-0.1,0.1-0.1,0.1-0.1s0,0,0,0v-0.5c0.1-0.2,0.2-0.5,0.3-0.8c0.1-0.3,0.2-0.6,0.3-0.9
		c0-0.1,0.1-0.2,0.1-0.3c0-0.1,0-0.2,0-0.4c0.3-0.9,0.6-1.8,0.8-2.7c0.2-0.9,0.5-1.8,0.8-2.7c0-0.1,0-0.1,0,0s0,0.1,0.1,0
		c0.1-0.4,0.2-0.8,0.4-1.1c0.2-0.4,0.3-0.7,0.3-1.1c-0.1,0.2-0.1,0.4-0.2,0.6c0,0.2-0.2,0.4-0.4,0.5c0.2-0.3,0.3-0.6,0.4-1
		c0.1-0.4,0.2-0.8,0.4-1.1c0,0.2-0.1,0.3-0.2,0.5c-0.1,0.2-0.1,0.3-0.1,0.5c0-0.1,0.1-0.2,0.1-0.3c0-0.1,0-0.2,0.1-0.3
		c0,0.6-0.2,1.1-0.4,1.6c-0.2,0.5-0.4,1-0.4,1.5c-0.1,0.1-0.1,0-0.1,0c0-0.1,0-0.1-0.1-0.1c0,0.2,0,0.5-0.1,0.7
		c-0.1,0.2-0.1,0.4-0.2,0.7c-0.1,0.5-0.3,1-0.4,1.5c-0.1,0.5-0.2,1-0.4,1.5c-0.1,0.3-0.1,0.6-0.2,0.8c-0.1,0.3,0,0.5,0,0.8
		c0.1-0.2,0.2-0.5,0.3-0.8c0-0.2,0.1-0.5,0.1-0.7c0-0.1,0.1-0.3,0.2-0.4c0.1-0.1,0.2-0.3,0.2-0.4c0.1-0.2,0.1-0.4,0.2-0.6
		c0-0.2,0.1-0.4,0.1-0.6c0-0.2,0.1-0.5,0.2-0.7c0.1-0.2,0.1-0.5,0.1-0.8c0.1,0,0.1,0,0.1,0c0,0,0-0.1,0.1-0.1
		c0.1-0.3,0.2-0.6,0.2-0.9c0-0.1,0-0.1,0.1-0.2c0,0,0.1-0.1,0.1-0.2c0.1-0.1,0.1-0.3,0.1-0.4l0.4-1c0.1-0.2,0.1-0.4,0.1-0.6
		c0-0.3,0.1-0.5,0.2-0.8c0.3,0,0.7,0.1,1,0.2c0.4,0.1,0.7,0.2,1,0.3c0.2,0.1,0.4,0.1,0.5,0.1s0.4,0.1,0.6,0.1c0.3,0.1,0.6,0.2,1,0.3
		c0.2,0.1,0.3,0.1,0.4,0.2c0.2,0,0.3,0.1,0.5,0.1c0.2,0,0.6,0.1,1.3,0.1c0.2,0.1,0.3,0.2,0.5,0.2c0.2,0,0.4,0.1,0.6,0.3
		c0.2-0.1,0.4-0.1,0.6-0.1c0.1,0,0.1,0.1,0.1,0.1c0,0.1,0,0.1,0.1,0.2c0.2,0.1,0.4,0.1,0.7,0.1c0-0.1,0-0.1-0.1-0.1s-0.1,0-0.1-0.1
		c0.4-0.1,0.8-0.2,1.2,0c0.4,0.1,0.9,0.2,1.3,0.2c0.3,0,0.6,0,0.9,0c0.3,0,0.5,0,0.8,0.1c0.2-0.1,0.5-0.2,0.8-0.1
		c0.3,0,0.5,0.1,0.8,0c0.2-0.1,0.4-0.2,0.5-0.4c0.1-0.2,0.2-0.4,0.4-0.4c-0.1-0.1-0.1-0.1,0-0.1c0,0,0-0.1,0-0.1
		c-0.1-0.1-0.2-0.2-0.3-0.3c-0.1-0.1-0.2-0.2-0.3-0.2c0,0-0.1,0-0.1,0.1c0,0,0,0-0.1,0c-0.7-0.1-1.4-0.2-2-0.3
		c-0.7,0-1.4-0.1-2.1-0.2c-0.2,0-0.5-0.1-0.8-0.1c-0.2,0-0.4,0-0.6,0c-0.2-0.1-0.4-0.2-0.6-0.2c-0.1,0-0.2,0-0.4,0h-0.3
		c-0.2,0-0.3,0-0.5-0.1c-0.1,0-0.2,0-0.3,0c0,0,0,0,0,0c0,0,0,0,0,0c-0.1,0-0.2-0.1-0.3-0.1l-0.2-0.1c-0.1-0.1-0.2-0.1-0.3-0.1
		c0,0-0.1,0-0.1,0c0,0-0.1,0-0.1,0h0c0,0-0.1,0-0.1,0c0,0-0.1,0-0.1,0c-0.1-0.1-0.2-0.1-0.3-0.2c-0.1,0-0.1,0-0.1,0.1c0,0,0,0-0.1,0
		c0,0-0.1-0.1-0.1-0.1c0,0-0.1,0-0.1,0c-0.1,0-0.3-0.1-0.4-0.2c-0.1-0.1-0.3-0.1-0.4-0.2c-0.1,0-0.2,0-0.3-0.1c0,0,0,0,0.1,0
		c0,0,0.1,0,0,0c-0.1,0-0.2-0.1-0.3-0.1c-0.1,0-0.2-0.1-0.3-0.1c-0.1-0.1-0.2-0.1-0.4-0.1c-0.1,0-0.3-0.1-0.4-0.2
		c-0.1-0.1-0.2-0.1-0.3-0.2c-0.2-0.1-0.4-0.2-0.6-0.2c-0.2,0-0.4-0.1-0.5-0.2c0.2-0.5,0.3-0.9,0.5-1.4c0.1-0.5,0.3-1,0.4-1.5
		c0.1,0,0.2-0.1,0.3-0.2c0-0.1,0.1-0.1,0.2-0.2c0.3-0.1,0.6-0.3,0.8-0.5c0.3-0.2,0.6-0.3,0.9-0.4c0.2-0.1,0.5-0.3,0.7-0.4
		c0.2-0.1,0.5-0.2,0.7-0.3c0.6-0.3,1.1-0.6,1.6-0.8c0.5-0.3,1-0.5,1.5-0.7c0.2-0.1,0.4-0.2,0.6-0.3c0.2-0.1,0.4-0.2,0.6-0.2
		c0.2,0,0.4-0.1,0.6-0.2c0.2-0.1,0.4-0.2,0.6-0.3h0.2c0.5-0.2,1-0.4,1.6-0.6c0.6-0.2,1.1-0.5,1.6-0.9c0.3-0.1,0.6-0.3,0.9-0.4
		c0.3-0.2,0.6-0.3,0.9-0.4c0.1-0.1,0.3-0.2,0.4-0.2c0.1,0,0.2-0.1,0.4-0.1c0.3-0.1,0.5-0.3,0.7-0.5C127,13.5,127.2,13.3,127.4,13.1z
		 M104.3,35.3c0,0.1,0,0.1,0,0.2C104.3,35.5,104.3,35.4,104.3,35.3C104.3,35.3,104.3,35.2,104.3,35.3
		C104.4,35.2,104.4,35.3,104.3,35.3L104.3,35.3z M106.1,28.6L106.1,28.6c0-0.1,0.1-0.1,0.1-0.2l0.1-0.2c0.1,0.1,0.1,0.2-0.1,0.2
		c0,0.1,0,0.1,0,0.2c0,0,0,0.1,0,0.1C106.1,28.7,106.1,28.7,106.1,28.6C106.1,28.6,106.1,28.6,106.1,28.6z M104.8,32.9
		c0-0.1,0.1-0.2,0.1-0.3l0,0v0c0-0.1,0-0.1,0.1-0.2c0-0.1,0-0.1,0-0.2l-0.1,0.1c0.1-0.1,0.1-0.3,0.1-0.4c0-0.1,0.1-0.2,0.2-0.3
		c0.1-0.1,0-0.2,0-0.3c-0.1-0.1,0-0.1,0.1-0.1c-0.1-0.2-0.1-0.3,0-0.4c0.1,0,0.2-0.2,0.2-0.3l-0.1,0.2c0.1-0.3,0.1-0.7,0.3-1
		c0.1-0.3,0.3-0.6,0.4-0.9c0,0.2-0.1,0.3-0.1,0.5c-0.1,0.1-0.1,0.2-0.2,0.3c-0.1,0.1-0.1,0.2-0.1,0.3c0,0.2-0.1,0.3-0.1,0.5
		c0,0,0,0,0,0s0,0,0,0c0,0,0,0,0,0s0,0,0,0.1c-0.2,0.6-0.4,1.1-0.5,1.7l0,0c-0.1,0.6-0.3,1.3-0.6,1.9l0,0c0,0,0,0,0,0
		c0-0.2,0-0.4,0.1-0.6c0.1-0.1,0.1-0.3,0.2-0.5h0C104.8,33.1,104.8,33,104.8,32.9z M104.4,34.6C104.4,34.6,104.4,34.6,104.4,34.6
		c-0.1-0.1,0-0.2,0.1-0.2c0,0,0,0,0,0l0,0c0,0,0,0,0,0.1C104.5,34.6,104.5,34.6,104.4,34.6z M106.4,31.1c0,0-0.1,0.1-0.1,0.2
		C106.3,31.2,106.3,31.1,106.4,31.1C106.4,31.1,106.4,31,106.4,31.1C106.5,31,106.5,31,106.4,31.1L106.4,31.1z M107,29.1
		C107,29.1,107,29.1,107,29.1C107,29.1,107,29,107,29c0,0.1,0,0.2-0.1,0.3C106.9,29.2,106.9,29.1,107,29.1z M107.5,27.4L107.5,27.4
		c0,0.1,0,0.1-0.1,0.2C107.4,27.5,107.3,27.4,107.5,27.4c-0.1-0.1,0-0.3,0-0.5l-0.2,0.9c0.1,0,0.1,0,0,0.1s0,0.1,0,0.1
		c-0.1,0.2-0.1,0.4-0.2,0.6c0,0.1-0.1,0.3-0.1,0.4c0,0,0-0.1,0-0.1c-0.1,0.2-0.2,0.4-0.3,0.6c-0.1,0.2-0.1,0.3-0.2,0.5c0,0,0,0,0,0
		c0,0,0,0,0,0c0.1,0,0.1,0.2,0,0.2c0,0,0,0,0,0c0,0.1-0.1,0.2-0.1,0.3v-0.1c0,0,0,0.1,0,0.1v0.2l0,0.4c-0.1,0-0.1-0.1,0-0.1
		c0,0,0,0,0-0.1c-0.1,0-0.1,0.1-0.2,0.2c0,0.1-0.1,0.2-0.2,0.3c0,0.1,0,0.1,0.1,0.2c0,0,0,0.1,0,0.1c0,0,0-0.1,0-0.1
		c0-0.1,0-0.1,0.1-0.1c0,0.1,0,0.1,0,0.2c0,0,0,0.1,0,0.1c0,0,0,0-0.1,0c0,0.1-0.1,0.1-0.1,0.2c0,0.1,0,0.1,0,0.2v0.2
		c0,0.1-0.1,0.3-0.1,0.4c0,0.1-0.1,0.2-0.1,0.3v-0.1c0,0.1-0.1,0.2-0.1,0.3c0,0.1,0,0.2,0,0.3c-0.2,0.4-0.3,0.7-0.3,1.1
		c0,0.4-0.2,0.7-0.4,0.9c0,0.2,0,0.3-0.1,0.5c-0.1,0.2-0.1,0.3-0.2,0.5c-0.1-0.1-0.1-0.1-0.1-0.2c0.1,0,0.1-0.1,0.1-0.2
		c-0.1,0-0.2,0-0.1,0.1s0,0.1-0.1,0.1c0.1-0.1,0.1-0.2,0.2-0.3c0-0.1,0.1-0.2,0.1-0.3c-0.1,0-0.1,0-0.1,0c0,0,0,0.1,0,0.1
		c-0.1-0.1-0.1-0.3,0-0.4c0.1-0.1,0.1-0.3,0.1-0.4c0.1-0.2,0.1-0.3,0.2-0.5c0.1-0.3,0.1-0.5,0.2-0.7c0.1-0.5,0.2-0.9,0.3-1.3
		c0.1-0.4,0.2-0.8,0.4-1.1c0,0,0-0.1,0-0.1c0,0,0,0,0,0c0.1-0.2,0.1-0.3,0.1-0.5c0-0.2,0.1-0.4,0.2-0.6c0.1-0.2,0.2-0.4,0.3-0.7
		c0.1-0.2,0.1-0.4,0.1-0.6c0-0.2,0.1-0.4,0.2-0.7c0.1-0.3,0.2-0.6,0.1-0.9c0.1,0.2,0.1,0.2,0.2,0c0-0.1,0-0.2,0-0.3
		c0.1-0.1,0.1-0.2,0.1-0.3c0-0.1,0.1-0.2,0.1-0.3c0-0.1,0-0.3,0-0.4c0-0.1,0-0.3,0.1-0.4v0.3c0.1,0,0.1,0.1,0.1,0.2
		c0,0.1,0.1,0.2,0.2,0.2l-0.2,0.9C107.5,27.1,107.5,27.2,107.5,27.4z M110,17.8c-0.1,0.1-0.1,0.2-0.1,0.3l0,0c0,0.1,0,0.1-0.1,0.2
		C109.8,18.1,109.9,18,110,17.8z M109.4,24.2c0,0.1-0.1,0.1,0,0.2h-0.1c0-0.1,0.1-0.3,0.2-0.4C109.5,24.1,109.4,24.2,109.4,24.2z
		 M109.5,19.3c0.1-0.2,0.1-0.3,0.1-0.5c0-0.1,0.1-0.3,0.2-0.4c-0.1,0.2-0.1,0.3-0.1,0.5l0,0C109.7,19,109.6,19.2,109.5,19.3z
		 M110.5,17.9c-0.1,0.3-0.2,0.5-0.3,0.7c0,0.1,0,0.1,0,0.2c0,0,0,0,0,0.1c-0.1,0-0.2,0.1-0.2,0.2l0,0c0,0.1-0.1,0.1-0.2,0.1
		c0,0,0,0,0,0c0.2-0.4,0.3-0.7,0.5-1.1c0.1-0.4,0.3-0.7,0.5-1.1C110.6,17.3,110.6,17.6,110.5,17.9z"/>
	<polygon class="st0" points="190.4,30.2 190.4,30.2 190.4,30.2 190.4,30.2 	"/>
	<path class="st0" d="M69.8,14.4L69.8,14.4C69.8,14.4,69.8,14.4,69.8,14.4z"/>
	<path class="st0" d="M93.2,21.3C93.2,21.3,93.2,21.3,93.2,21.3c0-0.1,0-0.2,0-0.2c-0.1,0-0.1,0-0.2,0c-0.1,0-0.1,0-0.2,0
		c-0.1-0.1-0.3,0-0.6,0.3S91.4,22,91,22.3c-0.4,0.4-0.8,0.7-1.2,1c-0.2,0.2-0.5,0.4-0.8,0.5v0c0,0,0,0-0.1,0
		c-0.2,0.2-0.4,0.4-0.6,0.5c-0.2,0.1-0.4,0.3-0.7,0.5c-0.6,0.3-1.3,0.7-1.9,1.1c-0.7,0.4-1.5,0.6-2.3,0.7c-0.2-0.6-0.1-1.3,0-1.9
		c0.2-0.7,0.3-1.4,0.4-2c0.2-0.4,0.4-0.9,0.6-1.4c0.2-0.5,0.2-1,0.2-1.6c0-0.1,0-0.1-0.1-0.2l-0.1-0.2c-0.1,0-0.1,0-0.2,0
		c0,0-0.1,0-0.1,0c-0.2-0.1-0.4-0.3-0.7-0.4c-0.2-0.2-0.5-0.2-0.7-0.2c-0.1,0-0.1,0.1-0.2,0.1c0,0.1-0.1,0.1-0.2,0.2
		c-0.2,0-0.4,0.1-0.5,0.2c-0.2,0.1-0.3,0.2-0.5,0.4c-0.1-0.5-0.5-0.8-0.9-1c-0.5-0.2-1-0.4-1.5-0.4c0-0.1-0.2-0.2-0.3-0.2
		c0,0-0.1,0-0.1,0.1c-0.1,0.1-0.3,0.1-0.4,0.1c-0.2,0.1-0.4,0.2-0.6,0.3c-0.2,0.1-0.3,0.2-0.5,0.3c-0.5,0.5-1,1-1.5,1.5
		c-0.2,0.2-0.4,0.4-0.5,0.7c-0.1,0-0.1-0.1-0.2-0.1c0,0.2-0.1,0.3-0.3,0.3c0,0,0,0,0,0c0,0.1-0.1,0.1-0.1,0.2l-0.2,0.1
		c0,0,0,0,0,0.1c-0.1,0.1-0.1,0.2-0.1,0.2c0,0,0,0,0,0c0,0,0,0,0,0c0,0.1,0,0.2-0.1,0.3c0,0-0.1,0-0.1,0c-0.1,0.1-0.2,0.2-0.4,0.5
		s-0.5,0.5-0.8,0.8c-0.3,0.3-0.6,0.6-0.9,0.8c-0.2,0.2-0.4,0.3-0.6,0.4c-0.3,0.2-0.6,0.4-0.9,0.6c-0.3,0.2-0.6,0.4-0.8,0.5
		c0,0,0,0-0.1,0C69.1,26,69,26,68.8,26v0.2c-0.1,0-0.2,0.1-0.4,0.1c-0.1,0-0.2,0.1-0.2,0.1c-0.1,0.1-0.2,0.1-0.2,0.1
		c-0.1,0-0.2,0.1-0.4,0.1c0,0.1-0.1,0.2-0.2,0.2c-0.1,0-0.2,0-0.2,0.1c0,0.1,0,0.1,0,0.1s0,0-0.1,0.1c-0.3,0.1-0.6,0.2-0.9,0.3
		c-0.3,0.1-0.6,0.2-0.9,0.3c-0.3,0.1-0.6,0.2-0.8,0.3C64.3,28,64,28,63.7,28c-0.1,0-0.1,0-0.1,0c0,0,0,0,0,0
		c-0.2-0.3-0.3-0.7-0.1-1.1c0.1-0.4,0.2-0.7,0.2-1.1c0-0.3,0.1-0.5,0.2-0.8c0.1-0.2,0.1-0.5,0.2-0.7c0.1-0.7,0.3-1.4,0.4-2.1
		c0.1-0.6,0.4-1.2,0.7-1.8c0.1-0.3,0.1-0.5,0.2-0.6c0-0.1,0.1-0.2,0.1-0.3c0-0.1,0.1-0.2,0.1-0.3c0-0.1,0.1-0.3,0.2-0.5
		c0.2-0.6,0.5-1.3,0.8-1.9c0.3-0.6,0.6-1.1,0.8-1.7c0.1-0.1,0.1-0.2,0.1-0.3c0-0.1,0.1-0.1,0.2-0.2c0.2,0,0.3-0.1,0.5-0.1
		c0.2,0,0.3,0,0.5,0c0.1-0.1,0.1-0.1,0.2,0c0.1,0,0.1,0.1,0.2,0.1c0,0,0.1-0.1,0.1-0.1c0,0,0.1,0,0.1-0.1c0,0,0,0,0,0
		c0-0.1,0-0.1,0,0s0,0-0.1,0c0,0.1-0.1,0.1-0.2,0c0-0.1,0.1-0.1,0.2-0.1v0c0.1-0.1,0.2-0.1,0.2,0c0.1,0,0.2,0,0.2-0.1
		c0.1,0,0.1,0,0.2,0c0.1,0,0.1,0,0.2,0h0c0,0,0,0,0,0s0,0,0,0c0,0,0,0.1-0.1,0.1c0,0-0.1,0-0.1,0.1c0.1,0,0.3,0,0.4,0
		c0.1,0,0.2,0,0.3,0c0.1-0.1,0.1-0.2,0.1-0.2c0-0.1,0-0.2,0.1-0.2c0,0,0,0,0.2,0c0,0,0,0,0,0c0,0,0,0,0,0c0,0.1,0,0.1,0,0.1
		c0,0,0.1-0.1,0.1-0.1c0,0,0.1,0,0.1,0c0,0,0,0,0,0c0,0,0,0,0,0c0,0,0,0,0,0.1c0,0,0,0-0.1,0c0,0-0.1,0-0.1,0
		c0.1,0.1,0.2,0.1,0.3,0.1c0.1-0.1,0.2-0.1,0.3-0.2v0.1c0.1-0.1,0.3-0.1,0.4-0.1c0.2,0,0.2,0,0.2,0.1c0.1,0.1,0.1,0.1,0.1,0.1
		c0-0.1,0.1-0.1,0.2-0.1c0,0,0,0,0,0s0,0,0,0c0-0.1,0-0.1,0.1,0c0,0,0,0,0.1,0v0c0,0,0,0,0,0c0,0,0,0,0,0v0h0h0c0,0,0,0,0,0
		c0,0,0,0,0,0c0,0,0,0.1,0.1,0.1c0,0,0,0,0-0.1h0.2c-0.1,0.1-0.1,0.1,0,0.1c0,0,0.1,0,0.1,0c0.1,0,0.1,0,0.2-0.1
		c0.1,0,0.1,0,0.2-0.1c0-0.1-0.1-0.1-0.1,0c-0.1,0.1-0.1,0.1-0.1,0c0.1-0.1,0.3-0.1,0.4,0c0,0,0,0,0,0c0-0.1,0.1-0.1,0.2-0.1h0.2
		c0,0-0.1,0.1-0.2,0.1c-0.1,0-0.1,0,0,0.1c0.1,0,0.1,0,0.2,0c0,0,0.1,0,0.2,0v0.1c0-0.1,0-0.1,0.1-0.2c0,0,0,0,0,0v0.1
		c0-0.1,0.1-0.1,0.1-0.2c0,0,0.1,0,0.1,0c0,0.1,0,0.1,0,0.1s0,0-0.1,0.1c0.1,0.1,0.2,0.1,0.2,0c0-0.1,0-0.1,0.1-0.1
		c-0.1,0.1,0,0.2,0.1,0.1c0.1-0.1,0.2-0.1,0.3,0.1c0-0.1,0.1-0.1,0.1-0.1c0,0,0,0,0,0.1c0,0,0,0,0,0c0,0,0,0,0.1,0h0l0,0l0.2-0.1
		c0,0.1,0.1,0.1,0.2,0.1c0,0,0,0,0.1,0c0,0,0-0.1,0.1-0.1c0.1-0.1,0.1-0.1,0.2-0.1c0,0.1,0,0.1,0,0.1s0,0,0,0.1c0.1,0,0.1,0,0.2,0
		c0.1,0,0.2,0,0.2,0.1c0.2-0.1,0.4-0.1,0.5-0.1c0.2,0,0.3,0,0.5,0c0.1,0,0.1,0,0.2,0c0-0.1,0.1-0.1,0.1-0.1c0.1,0,0.1,0,0.2-0.1
		c-0.1-0.1-0.2-0.2-0.2-0.3c0.1,0,0.2,0,0.2-0.1c0,0-0.1,0-0.1-0.1c0,0,0,0-0.1-0.1c0-0.1,0-0.1,0-0.1c0,0,0.1,0,0.1,0
		c0-0.1,0-0.1,0-0.2c0,0,0-0.1,0-0.1c-0.2-0.2-0.5-0.4-0.8-0.4c-0.3,0-0.5-0.1-0.8-0.1c-0.1,0-0.2-0.1-0.3-0.1c0,0,0.1,0,0.1,0.1
		c-0.1,0.1-0.2,0.1-0.4,0l0,0c-0.1,0-0.1,0-0.2,0c-0.1,0-0.1,0,0,0c-0.1,0-0.2,0-0.3,0c-0.1,0-0.2,0-0.3,0c-0.2-0.1-0.5-0.1-0.7,0
		c-0.2,0.1-0.5,0.1-0.7,0c-0.1,0-0.2,0-0.2,0h-1c-0.4,0-0.8,0.1-1.1,0.2c-0.5,0-0.9,0-1.3,0c-0.4,0-0.8,0.1-1.3,0.1
		c0-0.2,0.1-0.5,0.3-0.6c0.2-0.2,0.3-0.4,0.4-0.6c0.1-0.2,0.2-0.4,0.3-0.6c0.1-0.2,0.2-0.4,0.3-0.6c0.1-0.2,0.3-0.4,0.4-0.6
		c0.2-0.2,0.3-0.4,0.4-0.7c0-0.1,0-0.1,0-0.2L71,8.9c0.1-0.1,0.1-0.3,0-0.5C71,8.3,70.8,8.2,70.7,8c-0.2-0.1-0.3-0.2-0.5-0.3
		c-0.2-0.1-0.3-0.1-0.5-0.2c0-0.1,0-0.1-0.1-0.1c0,0,0,0,0,0c-0.1,0-0.1-0.1-0.1-0.1c0,0.1-0.1,0.1-0.2,0c-0.1,0-0.1,0-0.2,0
		c0,0,0,0,0,0v0.2c-0.6,1-1.2,1.9-1.8,2.8c-0.6,1-1.1,2-1.6,3c-0.9,0.1-1.8,0.2-2.6,0.4c-0.7,0.2-1.2,0.3-1.7,0.5
		c-0.5,0.2-0.9,0.3-1.3,0.5c-0.5,0.2-1,0.3-1.4,0.4L58.5,15c0,0.1,0.1,0.3,0.2,0.4c0.1,0.1,0.1,0.3,0.1,0.4c0.1,0.1,0.2,0.2,0.3,0.3
		c0.2,0.1,0.3,0.1,0.5,0c0,0,0.1,0,0.1,0c0,0,0,0,0.1,0.1c0.2,0,0.5,0,0.7-0.1c0.2-0.1,0.4-0.1,0.6-0.1c0.3-0.1,0.5-0.1,0.6-0.2
		c0,0,0.1,0,0.1,0h0.1c0.1,0,0.3,0,0.6-0.1c0.2,0,0.3-0.1,0.5-0.1c0.2-0.1,0.4-0.1,0.6-0.2c0.2,0,0.4,0,0.5-0.1
		c0.2-0.1,0.4-0.1,0.5-0.2c0.1,0,0.2,0,0.2,0.1s0,0,0.1-0.1c-0.2,0.6-0.4,1.1-0.7,1.6c-0.3,0.6-0.6,1.1-0.8,1.6l-0.2,0.3
		c0,0,0,0,0,0s0,0.1-0.1,0.2c-0.2,0.6-0.5,1.1-0.7,1.7c-0.2,0.4-0.3,0.9-0.4,1.3c-0.2,0.1-0.3,0.2-0.5,0.4c-0.4,0.4-0.8,0.7-1.2,1
		c-0.2,0.2-0.5,0.4-0.8,0.5v0c0,0,0,0-0.1,0c-0.2,0.2-0.4,0.4-0.6,0.5c-0.2,0.1-0.4,0.3-0.7,0.5c-0.6,0.3-1.3,0.7-1.9,1.1
		c-0.7,0.4-1.5,0.6-2.3,0.7c-0.2-0.6-0.1-1.3,0-1.9c0.2-0.7,0.3-1.4,0.4-2c0.2-0.4,0.4-0.9,0.6-1.4c0.2-0.5,0.2-1,0.2-1.6
		c0-0.1,0-0.1-0.1-0.2l-0.1-0.2c-0.1,0-0.1,0-0.2,0c0,0-0.1,0-0.1,0c-0.2-0.1-0.4-0.3-0.7-0.4c-0.2-0.2-0.5-0.2-0.7-0.2
		c-0.1,0-0.1,0.1-0.2,0.1c0,0.1-0.1,0.1-0.2,0.2c-0.2,0-0.4,0.1-0.5,0.2c-0.2,0.1-0.3,0.2-0.5,0.4c-0.1-0.5-0.5-0.8-0.9-1
		c-0.5-0.2-1-0.4-1.5-0.4c0-0.1-0.2-0.2-0.3-0.2c0,0-0.1,0-0.1,0.1c-0.1,0.1-0.3,0.1-0.4,0.1c-0.2,0.1-0.4,0.2-0.6,0.3
		c-0.2,0.1-0.3,0.2-0.5,0.3c-0.5,0.5-1,1-1.5,1.5c-0.3,0.3-0.6,0.7-0.8,1c-0.1,0.1-0.2,0.1-0.3,0.2c-0.2,0.1-0.5,0.3-0.8,0.5
		L44,22.6c-0.1,0-0.2,0.1-0.3,0.2c-0.1,0.1-0.3,0.2-0.4,0.3c-0.1,0.1-0.3,0.2-0.4,0.3c-0.1,0.1-0.2,0.1-0.2,0.2
		c-0.4,0.3-0.7,0.5-0.8,0.6c-0.2,0.1-0.4,0.3-0.7,0.5l-1,0.5c0,0-0.1,0.1-0.1,0.1c0,0,0,0,0,0c0,0,0,0,0,0s-0.1,0-0.1,0.1l-0.5,0.2
		c-0.4,0.2-0.8,0.4-1.2,0.5c-0.3,0.1-0.6,0.2-0.9,0.3c-0.3,0.1-0.5,0.1-0.8,0.2c-0.9,0.3-1.9,0.2-2.8,0c-0.3-0.1-0.7-0.2-1-0.4
		c-0.3-0.2-0.5-0.4-0.8-0.6c0-0.1-0.1-0.2-0.1-0.2c-0.1-0.1-0.1-0.2,0-0.3c-0.1,0-0.1,0-0.2,0c0,0,0-0.1,0-0.1
		c0.4,0.1,0.9,0,1.3-0.2c0.4-0.2,0.8-0.4,1.2-0.5c0.2-0.2,0.5-0.4,0.7-0.6c0.3-0.2,0.5-0.4,0.7-0.6c0-0.1,0-0.2,0.1-0.2
		c0.1-0.2,0.3-0.3,0.5-0.4c0.2-0.1,0.4-0.2,0.5-0.4c0.1-0.2,0.3-0.3,0.4-0.5c0.2-0.2,0.3-0.3,0.4-0.4c0.1-0.1,0.1-0.2,0.1-0.3
		c0-0.1,0.1-0.2,0.1-0.2c0.1-0.1,0.2-0.2,0.3-0.3c0.1-0.1,0.2-0.2,0.3-0.3c0-0.1,0-0.1,0-0.2c0-0.1,0-0.1,0.1-0.2
		c0.1-0.2,0.2-0.3,0.2-0.5c0-0.2,0-0.4,0-0.6c-0.1-0.1-0.2-0.2-0.2-0.4c0-0.2-0.2-0.3-0.3-0.3c-0.1-0.2-0.3-0.4-0.5-0.5
		c-0.2-0.1-0.4-0.3-0.5-0.5c-0.1,0-0.1,0-0.2,0c-0.1,0-0.1,0-0.2,0.1c-0.1,0.1-0.2,0.1-0.3,0.1c-0.1,0-0.2,0-0.3,0.1
		c-0.2,0.1-0.4,0.1-0.6,0.3c-0.2,0.1-0.4,0.2-0.6,0.4c-0.2,0.2-0.4,0.3-0.6,0.4c-0.1,0.1-0.3,0.2-0.5,0.3c-0.2,0.1-0.3,0.2-0.5,0.3
		c-0.1,0.2-0.3,0.3-0.5,0.5c-0.1,0.1-0.3,0.2-0.5,0.4l-0.6,0.8l-0.9,1c-0.3,0.4-0.5,0.8-0.6,1.3c-0.1,0.5-0.2,0.9-0.3,1.2
		c-0.1,0.2-0.1,0.4-0.1,0.6c0,0.2,0,0.4,0.1,0.6c0.1,0.2,0.1,0.3,0.2,0.5c0.1,0.2,0.1,0.4,0.2,0.6c0.2,0.3,0.4,0.6,0.7,0.8
		c0.2,0.2,0.5,0.4,0.8,0.6c0.3,0.1,0.5,0.2,0.8,0.3c0.3,0.1,0.5,0.1,0.8,0.2c0-0.1,0.1-0.1,0.2,0c0.1,0,0.1,0.1,0.2,0.1
		c0.3,0,0.6,0,0.9,0.1l0-0.1c0.1,0,0.2,0.1,0.3,0c0.1,0,0.1,0,0.2,0c0.1-0.1,0.2-0.1,0.4-0.1c0.1,0,0.2,0,0.3,0c0.1,0,0.1,0,0,0.1
		s0,0,0,0.1c0.1-0.1,0.2-0.1,0.3-0.1c0.1,0,0.2,0,0.2-0.1c0.1,0.1,0.2,0,0.3,0c0-0.1,0.1-0.1,0.2,0c0,0,0,0,0,0
		c0.1-0.1,0.2-0.1,0.3-0.1c0.1,0,0.2,0,0.3-0.1c-0.1,0.1-0.1,0.1,0,0.1c0.1,0,0.2,0,0.3-0.1c0.1,0,0.2-0.1,0.3-0.1
		c0.1,0,0.2-0.1,0.3-0.1c0.1,0,0.2-0.1,0.2-0.1c0,0,0.1,0,0.1,0c0.5-0.2,1-0.4,1.5-0.7c0.4-0.3,0.8-0.6,1.3-0.8l0.6-0.4l0.3-0.2
		l0.7-0.5l0.2-0.2c0.1-0.1,0.2-0.2,0.3-0.3c0,0,0.1,0,0.1-0.1c-0.1,0.2-0.1,0.3-0.2,0.5c-0.1,0.2-0.2,0.5-0.3,0.8
		c-0.1,0.2-0.1,0.5-0.1,0.7c0,0.3,0.1,0.6,0.1,0.8c0.1,0.2,0.3,0.4,0.5,0.5c0.1,0.1,0.2,0.2,0.3,0.3c0.1,0.1,0.2,0.2,0.4,0.2
		c0.3,0.2,0.6,0.3,0.9,0.3c0.3,0,0.6-0.1,0.9-0.3c0.3-0.2,0.6-0.3,0.8-0.5c0.3-0.2,0.5-0.4,0.7-0.6c0,0,0-0.1,0.1-0.1c0,0,0,0,0-0.1
		c0.4-0.4,0.8-0.9,1.3-1.4c0.2-0.1,0.3-0.3,0.5-0.4c0.2-0.2,0.3-0.4,0.4-0.6c0.3-0.4,0.7-0.8,1-1.2c0.3-0.4,0.7-0.7,1.1-1.1
		c-0.1,0.5-0.2,1-0.3,1.5c-0.1,0.5-0.1,1-0.1,1.5c0,0.4,0.1,0.8,0.2,1.2c0.1,0.3,0.3,0.6,0.6,0.8c0,0.2,0.1,0.3,0.3,0.4
		c0.1,0.1,0.3,0.1,0.4,0.2c0.1,0,0.2,0.1,0.3,0.3c0.3,0.1,0.5,0.1,0.8-0.1c0.3-0.1,0.5-0.2,0.8-0.2c0.1,0,0.2,0,0.4,0
		c0.2,0,0.3-0.1,0.5-0.1c0.3,0,0.5-0.1,0.7-0.3c0.2-0.2,0.5-0.4,0.8-0.5c0.2,0,0.4-0.1,0.5-0.2c0.1,0,0.1,0,0.1,0
		c0.2-0.1,0.3-0.2,0.4-0.3c0.1-0.1,0.2-0.2,0.3-0.3c0.1,0,0.2-0.1,0.3-0.2c0.1-0.1,0.2-0.2,0.3-0.3c0.1,0.1,0.2,0,0.2,0c0,0,0,0,0,0
		c0.1-0.1,0.1-0.1,0.2-0.2v0H60c0.2-0.2,0.4-0.4,0.6-0.6c0.2-0.2,0.4-0.3,0.6-0.5c0,0,0,0.1,0,0.1l0.3-0.4c0,0,0.1-0.1,0.1-0.1
		c-0.1,0.3-0.1,0.5-0.2,0.8c-0.1,0.5-0.2,1.1-0.2,1.6c0,0,0,0.1,0,0.1c0,0,0,0.1,0,0.1c0,0.3,0,0.6,0.1,0.9c0.1,0.2,0.1,0.4,0.3,0.5
		c0.2,0.2,0.4,0.3,0.6,0.4c0.3,0.1,0.6,0.3,0.8,0.4c0.4,0.2,0.9,0.4,1.4,0.5c0.4,0.1,0.9,0,1.3-0.1c0.2,0,0.5-0.1,0.7-0.2
		c0.3-0.1,0.5-0.2,0.7-0.2l1-0.6h0.1c0.1-0.1,0.2-0.2,0.3-0.1c0,0-0.1,0-0.1,0.1c0,0,0,0,0,0c0.1,0,0.2,0,0.3-0.1
		c0.1-0.1,0.2-0.2,0.3-0.2c0,0,0,0,0.1,0c0.1,0,0.1,0,0.2-0.1c0,0,0-0.1,0.1-0.1c0,0,0-0.1,0.1-0.1c0.1-0.1,0.1-0.1,0.2-0.1l0,0
		c0.1,0,0.2,0,0.3-0.1c0.1-0.1,0.2-0.2,0.3-0.2l0.4-0.3c0,0,0,0,0,0.1c0,0,0,0.1,0,0.1c0,0,0.1-0.1,0.1-0.1c0,0,0.1-0.1,0.1-0.1
		c0.3-0.1,0.6-0.3,0.7-0.5c0.1-0.3,0.4-0.5,0.7-0.6c0.1-0.2,0.3-0.3,0.4-0.4c0.1,0,0.1-0.1,0.2-0.1c0,0.1,0,0.1-0.1,0.2c0,0,0,0,0,0
		c0,0,0,0,0,0c0,0.1-0.1,0.2-0.1,0.2c-0.1,0.1-0.1,0.1-0.2,0.2c0,0,0.1-0.1,0.2-0.1c0,0,0,0,0,0c-0.1,0.2-0.1,0.5-0.1,0.7
		c0,0.3,0.1,0.6,0.1,0.8c0.1,0.2,0.3,0.4,0.5,0.5c0.1,0.1,0.2,0.2,0.3,0.3c0.1,0.1,0.2,0.2,0.4,0.2c0.3,0.2,0.6,0.3,0.9,0.3
		c0.3,0,0.6-0.1,0.9-0.3c0.3-0.2,0.6-0.3,0.8-0.5c0.3-0.2,0.5-0.4,0.7-0.6c0,0,0-0.1,0.1-0.1c0,0,0,0,0-0.1c0.4-0.4,0.8-0.9,1.3-1.4
		c0.2-0.1,0.3-0.3,0.5-0.4c0.2-0.2,0.3-0.4,0.4-0.6c0.3-0.4,0.7-0.8,1-1.2c0.3-0.4,0.7-0.7,1.1-1.1c-0.1,0.5-0.2,1-0.3,1.5
		c-0.1,0.5-0.1,1-0.1,1.5c0,0.4,0.1,0.8,0.2,1.2c0.1,0.3,0.3,0.6,0.6,0.8c0,0.2,0.1,0.3,0.3,0.4c0.1,0.1,0.3,0.1,0.4,0.2
		c0.1,0,0.2,0.1,0.3,0.3c0.3,0.1,0.5,0.1,0.8-0.1c0.3-0.1,0.5-0.2,0.8-0.2c0.1,0,0.2,0,0.4,0c0.2,0,0.3-0.1,0.5-0.1
		c0.3,0,0.5-0.1,0.7-0.3c0.2-0.2,0.5-0.4,0.8-0.5c0.2,0,0.4-0.1,0.5-0.2c0.1,0,0.1,0,0.1,0c0.2-0.1,0.3-0.2,0.4-0.3
		c0.1-0.1,0.2-0.2,0.3-0.3c0.1,0,0.2-0.1,0.3-0.2c0.1-0.1,0.2-0.2,0.3-0.3c0.1,0.1,0.2,0,0.2,0c0,0,0,0,0,0c0.1-0.1,0.1-0.1,0.2-0.2
		v0h0.1c0.2-0.2,0.4-0.4,0.6-0.6c0.2-0.2,0.4-0.3,0.6-0.5c0,0,0,0.1,0,0.1l0.3-0.4c0.1-0.1,0.2-0.2,0.4-0.2l0.6-0.6
		c0-0.1,0.1-0.2,0.2-0.2c0-0.1,0.1-0.2,0.2-0.3c0.1-0.1,0.2-0.2,0.2-0.3c0,0,0.1,0,0.2,0c0.1-0.1,0.1-0.2,0.1-0.3
		c0-0.1,0.1-0.2,0.1-0.3c0.1-0.1,0.1-0.1,0.2-0.2c0.1-0.1,0.1-0.1,0.2-0.2c0,0.1,0,0.1,0,0.1c0,0,0.1-0.1,0.1-0.1
		C93.2,21.5,93.2,21.4,93.2,21.3C93.2,21.3,93.2,21.2,93.2,21.3L93.2,21.3z M75.1,13.7C75.1,13.7,75.1,13.7,75.1,13.7
		c0.1,0,0.1,0,0.2,0C75.3,13.7,75.3,13.7,75.1,13.7L75.1,13.7c0,0.1-0.1,0-0.2,0C75,13.6,75.1,13.6,75.1,13.7z M68.7,14.4
		c0,0,0.1-0.1,0.1-0.1c0.1,0.1,0.1,0.1,0,0.1C68.8,14.4,68.8,14.5,68.7,14.4c0,0.1,0,0.1,0,0.1c0,0-0.1,0-0.1,0
		C68.6,14.4,68.7,14.4,68.7,14.4z M68.6,14.4L68.6,14.4C68.6,14.5,68.6,14.5,68.6,14.4C68.5,14.5,68.5,14.5,68.6,14.4
		C68.5,14.5,68.5,14.5,68.6,14.4C68.5,14.5,68.5,14.5,68.6,14.4C68.4,14.4,68.5,14.4,68.6,14.4z M31.9,22.6c0.2-0.3,0.5-0.6,0.8-0.9
		c0.2-0.3,0.4-0.5,0.7-0.7c0.1-0.2,0.3-0.4,0.5-0.5c0.2-0.1,0.3-0.3,0.5-0.5c0.1-0.1,0.3-0.2,0.4-0.3c0.1-0.1,0.3-0.2,0.4-0.3
		l0.3-0.2c0.1,0,0.1-0.1,0.1-0.1c0,0,0.1-0.1,0.1-0.1c0-0.1,0.1-0.1,0.2-0.1c0.1-0.1,0.2-0.1,0.3-0.2s0.2-0.1,0.3-0.2
		c0.1-0.1,0.1-0.1,0.2-0.1l0,0c0.1,0,0.1,0,0.2,0c0.1,0.1,0,0.2,0,0.3c-0.1,0.1-0.1,0.2-0.2,0.4c-0.2,0.3-0.5,0.6-0.8,0.9
		c-0.2,0.3-0.5,0.5-0.8,0.7c-0.1,0.2-0.3,0.3-0.4,0.5c-0.2,0.1-0.3,0.3-0.5,0.4c-0.5,0.4-1,0.7-1.4,1.1c-0.4,0.3-0.9,0.6-1.4,0.8
		C31.5,23.1,31.7,22.8,31.9,22.6z M51.3,20.6c-0.1,0-0.2,0.1-0.2,0.2C51,20.9,51,20.9,50.9,21c-0.7,0.9-1.4,1.7-2.1,2.5
		s-1.4,1.6-2.2,2.3c-0.2,0.2-0.4,0.3-0.6,0.4c-0.2,0.1-0.5,0.3-0.7,0.4c0-0.3,0.1-0.5,0.2-0.8c0.1-0.2,0.2-0.5,0.3-0.7c0,0,0,0,0,0
		s0-0.1,0.1,0c0-0.2,0.1-0.3,0.2-0.5c0.1-0.1,0.1-0.2,0.2-0.4c0.2-0.4,0.5-0.9,0.7-1.3c0.3-0.4,0.5-0.9,0.9-1.3l0.6-0.6
		c0.1-0.1,0.1-0.2,0.2-0.3c0-0.1,0.1-0.2,0.2-0.2c0.1-0.1,0.1-0.1,0.2-0.1c0.1,0,0.2-0.1,0.2-0.2l0.6-0.7c0.4-0.2,0.6-0.2,0.8,0.1
		c0.2,0.3,0.3,0.6,0.3,0.9C51.1,20.4,51.2,20.4,51.3,20.6L51.3,20.6z M71.7,25.8c-0.1,0.1-0.2,0.1-0.2,0.2c-0.1-0.1,0-0.2,0.1-0.2
		c0.1-0.1,0.2-0.1,0.3-0.2C71.9,25.6,71.8,25.7,71.7,25.8z M72.1,24.8c0,0,0.1-0.1,0.1-0.1C72.3,24.7,72.3,24.8,72.1,24.8
		C72.2,24.9,72.1,24.9,72.1,24.8C72.1,24.9,72.1,24.8,72.1,24.8z M72.2,25.5c-0.1,0-0.1,0-0.1,0C72.1,25.4,72.1,25.4,72.2,25.5
		c0-0.1,0-0.1,0-0.1C72.3,25.4,72.3,25.4,72.2,25.5C72.3,25.5,72.2,25.5,72.2,25.5z M72.3,25.3c-0.1,0.1-0.1,0.1-0.2,0
		C72.1,25.3,72.2,25.3,72.3,25.3L72.3,25.3c0-0.1,0.1-0.1,0.1-0.2C72.4,25.2,72.3,25.2,72.3,25.3z M72.4,25.1L72.4,25.1L72.4,25.1
		c0-0.2,0-0.2,0-0.2C72.4,25,72.4,25.1,72.4,25.1z M72.6,24.9C72.6,24.9,72.6,24.8,72.6,24.9C72.6,24.9,72.6,24.9,72.6,24.9z
		 M80.6,20.6c-0.1,0-0.2,0.1-0.2,0.2c-0.1,0.1-0.1,0.2-0.2,0.2c-0.7,0.9-1.4,1.7-2.1,2.5s-1.4,1.6-2.2,2.3c-0.2,0.2-0.4,0.3-0.6,0.4
		c-0.2,0.1-0.5,0.3-0.7,0.4c0-0.3,0.1-0.5,0.2-0.8c0.1-0.2,0.2-0.5,0.3-0.7c0,0,0,0,0,0s0-0.1,0.1,0c0-0.2,0.1-0.3,0.2-0.5
		c0.1-0.1,0.1-0.2,0.2-0.4c0.2-0.4,0.5-0.9,0.7-1.3c0.3-0.4,0.5-0.9,0.9-1.3l0.6-0.6c0.1-0.1,0.1-0.2,0.2-0.3c0-0.1,0.1-0.2,0.2-0.2
		c0.1-0.1,0.1-0.1,0.2-0.1c0.1,0,0.2-0.1,0.2-0.2l0.6-0.7c0.4-0.2,0.6-0.2,0.8,0.1c0.2,0.3,0.3,0.6,0.3,0.9
		C80.4,20.4,80.5,20.4,80.6,20.6L80.6,20.6z"/>
	<path class="st0" d="M13.3,33.2C13.3,33.2,13.3,33.2,13.3,33.2c0,0,0.1-0.1,0.2-0.1C13.4,33.2,13.4,33.2,13.3,33.2
		C13.3,33.2,13.3,33.2,13.3,33.2z"/>
	<path class="st0" d="M13.2,33.3C13.2,33.3,13.3,33.2,13.2,33.3c-0.4,0.1-0.9,0.2-1.3,0.4s-0.9,0.3-1.4,0.4C10,34.3,9.5,34.5,9,34.6
		c-0.5,0.1-1,0.3-1.4,0.4c1-0.1,1.9-0.4,2.9-0.7C11.4,33.9,12.3,33.6,13.2,33.3z"/>
	<polygon class="st0" points="135.2,18.9 135.2,18.9 135.2,18.9 	"/>
	<polygon class="st0" points="177.9,38.9 177.9,38.9 177.9,38.9 	"/>
	<path class="st0" d="M177.8,39C177.8,39,177.8,39,177.8,39C177.8,39,177.8,38.9,177.8,39C177.9,38.9,177.8,39,177.8,39z"/>
	<path class="st0" d="M186.6,32.6C186.6,32.6,186.7,32.6,186.6,32.6C186.7,32.6,186.6,32.6,186.6,32.6L186.6,32.6z"/>
	<path class="st0" d="M174.3,28.8C174.4,28.8,174.4,28.8,174.3,28.8L174.3,28.8L174.3,28.8z"/>
</g>
</svg>
