<svg xmlns="http://www.w3.org/2000/svg" width="328" height="40.03" viewBox="0 0 328 40.03">
  <metadata><?xpacket begin="﻿" id="W5M0MpCehiHzreSzNTczkc9d"?>
<x:xmpmeta xmlns:x="adobe:ns:meta/" x:xmptk="Adobe XMP Core 5.6-c138 79.159824, 2016/09/14-01:09:01        ">
   <rdf:RDF xmlns:rdf="http://www.w3.org/1999/02/22-rdf-syntax-ns#">
      <rdf:Description rdf:about=""/>
   </rdf:RDF>
</x:xmpmeta>
                                                                                                    
                                                                                                    
                                                                                                    
                                                                                                    
                                                                                                    
                                                                                                    
                                                                                                    
                                                                                                    
                                                                                                    
                                                                                                    
                                                                                                    
                                                                                                    
                                                                                                    
                                                                                                    
                                                                                                    
                                                                                                    
                                                                                                    
                                                                                                    
                                                                                                    
                                                                                                    
                           
<?xpacket end="w"?></metadata>
<defs>
    <style>
      .cls-1 {
        fill: #4b5a71;
        fill-rule: evenodd;
      }
    </style>
  </defs>
  <path id="P_Ewa" class="cls-1" d="M645.154,3820.22c-0.105-.08-0.218-0.16-0.336-0.24a1.216,1.216,0,0,1-.289-0.23c-0.02,0-.052-0.01-0.1-0.01a3.818,3.818,0,0,0-1.393.26,10.3,10.3,0,0,0-1.348.65c-0.452.27-.9,0.54-1.358,0.82a14,14,0,0,1-1.42.75c-0.291.12-.625,0.26-1.012,0.41s-0.838.34-1.369,0.57a9.386,9.386,0,0,1-1.605.51,6.888,6.888,0,0,1-1.369.18,1.132,1.132,0,0,1-.858-0.52,1.653,1.653,0,0,1-.37-1.02,7.051,7.051,0,0,1,.256-1.76,18.038,18.038,0,0,1,.66-2.01c0.267-.68.563-1.38,0.881-2.09q0.47-1.035.888-2.01a1.041,1.041,0,0,1,.686-0.56l0.577-.2a13.764,13.764,0,0,0,1.372-.43c0.479-.17.97-0.35,1.474-0.52a13.514,13.514,0,0,1,1.578-.45,7.77,7.77,0,0,1,1.666-.18,3.4,3.4,0,0,1,.6.06,3.321,3.321,0,0,0,.55.04,1.834,1.834,0,0,0,.319-0.04c0.173-.04.346-0.08,0.52-0.13a1.953,1.953,0,0,0,.443-0.19,0.956,0.956,0,0,0-.033-0.5,0.486,0.486,0,0,0-.214-0.3,5.953,5.953,0,0,0-4.953-.19c-0.875.31-1.709,0.61-2.5,0.89l-0.117.02a0.47,0.47,0,0,1-.494-0.49l0.023-.13q0.49-1.29.963-2.46c0.315-.78.634-1.59,0.96-2.45a0.885,0.885,0,0,1,.266-0.43,1.186,1.186,0,0,1,.351-0.19c1.286-.43,2.679-0.81,4.162-1.15a21.653,21.653,0,0,1,4.782-.51,1.806,1.806,0,0,1,.955.22,0.572,0.572,0,0,0,.3.12,0.578,0.578,0,0,0,.27-0.06,1.215,1.215,0,0,1,.6-0.15,0.957,0.957,0,0,0,.133-0.01,0.9,0.9,0,0,0,.036-0.3,1,1,0,0,0-.419-0.69,5.192,5.192,0,0,0-1.1-.73,2.81,2.81,0,0,0-.449-0.11,3.366,3.366,0,0,0-.581-0.06,19.882,19.882,0,0,0-2.712.2c-0.946.14-1.868,0.3-2.739,0.49s-1.665.37-2.355,0.56-1.2.37-1.537,0.5l-3.119,1.17a30.126,30.126,0,0,1-3.192.99,1.2,1.2,0,0,0,.051.23,3.16,3.16,0,0,0,.173.46,2.149,2.149,0,0,0,.257.42,0.8,0.8,0,0,0,.252.24,1.559,1.559,0,0,0,1.106-.02,2.025,2.025,0,0,1,.669-0.16,0.484,0.484,0,0,1,.494.52l-0.012.09a14.418,14.418,0,0,1-.626,1.82c-0.269.66-.65,1.53-1.142,2.63a0.987,0.987,0,0,1-.736.67l-0.874.34,0.034,0.17a0.958,0.958,0,0,0,.129.53,2.607,2.607,0,0,0,.221.3l0.157,0.16-0.076.21c-0.234.63-.48,1.26-0.736,1.91-0.255.63-.492,1.26-0.711,1.9a15.382,15.382,0,0,0-.53,1.92,9.956,9.956,0,0,0-.2,2.02c0,0.23.016,0.52,0.05,0.89a1.636,1.636,0,0,0,.174.7,1.723,1.723,0,0,0,.552.53,4.907,4.907,0,0,0,.788.41,6.483,6.483,0,0,0,.707.25,1.66,1.66,0,0,0,.348.07,16.645,16.645,0,0,0,3.249-.3,21.887,21.887,0,0,0,2.872-.79,19.854,19.854,0,0,0,2.595-1.12c0.838-.42,1.653-0.85,2.444-1.27a5.022,5.022,0,0,0,.877-0.65,2.41,2.41,0,0,1,.849-0.51,0.593,0.593,0,0,0,.008-0.12s-0.019-.03-0.066-0.08A1.863,1.863,0,0,0,645.154,3820.22Zm25.236-8.61a0.5,0.5,0,0,0-.036-0.08,1,1,0,0,0-.364-0.08,13.448,13.448,0,0,0-2.4.2,11.725,11.725,0,0,1-2.285.22,9.99,9.99,0,0,1-1.713-.11,3.409,3.409,0,0,1-1.136-.47,3.591,3.591,0,0,1-.619-0.47l-0.279-.27c-0.044-.05-0.069-0.06-0.074-0.07a8.866,8.866,0,0,0-.918.04,1.565,1.565,0,0,0-.512.1,0.423,0.423,0,0,0-.178.23,1.151,1.151,0,0,0-.057.32,3.025,3.025,0,0,0,.318,1.21,3.968,3.968,0,0,1,.382,1.64,2.508,2.508,0,0,1-.1.71,2.118,2.118,0,0,0-.073.58c0,0.1-.029.41-0.091,0.92a15.3,15.3,0,0,1-.357,1.82,17.1,17.1,0,0,1-.75,2.26,9.01,9.01,0,0,1-1.29,2.22,3.1,3.1,0,0,1-1.04.93,0.96,0.96,0,0,1-1.269-.01,0.916,0.916,0,0,1-.352-0.78,12.8,12.8,0,0,1,.36-3,15.236,15.236,0,0,1,.966-2.8,2.952,2.952,0,0,0,.224-0.63,4.4,4.4,0,0,1,.53-1.15,17.506,17.506,0,0,0,.907-1.61,1.914,1.914,0,0,0,.2-0.75,0.626,0.626,0,0,0-.24-0.45,1.367,1.367,0,0,0-.91-0.28,1.818,1.818,0,0,0-.791.04,0.341,0.341,0,0,0-.18.21,25.178,25.178,0,0,1-2.3,4.25,42.576,42.576,0,0,1-3,3.95c-0.264.32-.48,0.55-0.648,0.72s-0.305.3-.4,0.38a1.153,1.153,0,0,1-.29.21,0.45,0.45,0,0,1-.717-0.38,2.212,2.212,0,0,1,.158-0.67c0.582-1.74,1.142-3.46,1.677-5.14s1.164-3.39,1.864-5.06c0.043-.11.1-0.26,0.164-0.46a2.484,2.484,0,0,1,.329-0.66c0.05-.08.109-0.19,0.163-0.3h0a0.442,0.442,0,0,0,.05-0.19,0.322,0.322,0,0,0-.179-0.28,1.126,1.126,0,0,0-.311-0.17h-0.01c-0.189,0-.359,0-0.5-0.01a3.663,3.663,0,0,0-.816,0,2.022,2.022,0,0,0-.388.07,1.038,1.038,0,0,0-.257.2,0.5,0.5,0,0,0-.155.19A19.3,19.3,0,0,1,650,3812c-0.31,1.01-.66,2.05-1.037,3.09q-0.561,1.53-1.118,3.09c-0.368,1.04-.682,2.08-0.935,3.1a1.883,1.883,0,0,0-.1.39,3.18,3.18,0,0,0-.031.47,1.836,1.836,0,0,0,.074.5,1.817,1.817,0,0,0,.11.32,2.91,2.91,0,0,0,.277.22,3.405,3.405,0,0,0,.649.34,4.1,4.1,0,0,1,.915.45,0.757,0.757,0,0,0,.417.08,1.594,1.594,0,0,0,.825-0.2,2.96,2.96,0,0,0,.721-0.56,8,8,0,0,0,.692-0.81,11.1,11.1,0,0,1,.763-0.87,1.3,1.3,0,0,1,.811-0.55c0.107,0,.458.04,0.458,0.63a3.7,3.7,0,0,1-.057.66,3.894,3.894,0,0,0-.047.7,1.241,1.241,0,0,0,.254.79,1.907,1.907,0,0,0,.543.5,10.13,10.13,0,0,0,1.438.66,3.927,3.927,0,0,0,1.362.27,1.8,1.8,0,0,0,.774-0.12,1.855,1.855,0,0,0,.514-0.37,13.123,13.123,0,0,0,2.825-4.19,14.533,14.533,0,0,0,1.162-4.95,6.246,6.246,0,0,0,.034-0.71v-0.7a0.684,0.684,0,0,1,.669-0.8,3.014,3.014,0,0,1,.767.15,5.286,5.286,0,0,0,1.47.13,2.847,2.847,0,0,0,.666-0.07c0.223-.04.478-0.1,0.76-0.18l1-.28c0.373-.11.843-0.23,1.407-0.37h0.007c0.111-.11.225-0.23,0.334-0.32C669.741,3812.16,670.077,3811.88,670.39,3811.61Zm-1,1.84a20.633,20.633,0,0,0-2.393,2.97,13.952,13.952,0,0,0-1.653,3.01,6.263,6.263,0,0,0-.384,1.95,2.156,2.156,0,0,0,.627,1.77l1.039,0.81c0.258,0.2.473,0.35,0.642,0.47a1.419,1.419,0,0,0,.342.18,0.476,0.476,0,0,0,.371.01,1.894,1.894,0,0,0,.27-0.09,8.217,8.217,0,0,0,.9-0.33,6.223,6.223,0,0,0,.9-0.46,10.119,10.119,0,0,0,1.016-.71q0.55-.42,1.239-1.05l1.884-1.73a1.757,1.757,0,0,1,1.08-.72,0.484,0.484,0,0,1,.494.52,5.532,5.532,0,0,1-.075.56,8.116,8.116,0,0,0-.065,1.18,8.936,8.936,0,0,0,.118,1.43,5.6,5.6,0,0,0,.445,1.42,0.747,0.747,0,0,0,.447.34,1.537,1.537,0,0,0,.953.12c0.12-.04.244-0.07,0.376-0.1a0.782,0.782,0,0,0,.388-0.12c0.017-.02.03-0.04,0.039-0.05a0.186,0.186,0,0,0-.01-0.02,4.557,4.557,0,0,1-.586-1.32,5.641,5.641,0,0,1-.186-1.45,8.548,8.548,0,0,1,.164-1.65c0.106-.52.217-1.03,0.335-1.52a11.082,11.082,0,0,1,.723-2.05c0.308-.66.648-1.31,1.011-1.94s0.761-1.25,1.171-1.83,0.813-1.14,1.21-1.68a0.323,0.323,0,0,0,.071-0.17,0.562,0.562,0,0,0-.318-0.25,2.622,2.622,0,0,0-.377-0.06,1.085,1.085,0,0,1-.738-0.28,1.461,1.461,0,0,1-.433-0.62,1.074,1.074,0,0,0-.171-0.27,3.116,3.116,0,0,0-.274-0.31,3.452,3.452,0,0,0-.921-0.69,2.32,2.32,0,0,0-1.626-.14,17.591,17.591,0,0,0-5.487,2.7c-0.232.17-.5,0.38-0.806,0.63,0,0.05.007,0.11,0.007,0.16C671.148,3812.94,669.985,3813.3,669.389,3813.45Zm3.412-.27a33.553,33.553,0,0,1,4.468-2.81,3.908,3.908,0,0,1,.76-0.29,1.853,1.853,0,0,1,.492-0.1,1.01,1.01,0,0,1,.923.42,1.138,1.138,0,0,1,.235.63,1.063,1.063,0,0,1-.28.77,6.286,6.286,0,0,0-.533.59,3.61,3.61,0,0,0-.414.64,11.373,11.373,0,0,1-1.716,2.4,30.329,30.329,0,0,1-2.175,2.13c-0.773.69-1.589,1.38-2.424,2.06s-1.658,1.4-2.464,2.15a4.52,4.52,0,0,1-1.076.77,2.1,2.1,0,0,1-.88.3,0.932,0.932,0,0,1-.953-0.52,1.864,1.864,0,0,1-.171-0.77,3.008,3.008,0,0,1,.235-1.06,9.956,9.956,0,0,1,.578-1.24c0.234-.43.517-0.89,0.839-1.37a16.894,16.894,0,0,1,1.054-1.38A20.54,20.54,0,0,1,672.8,3813.18Zm-2.784-.32c-0.061.06-.116,0.1-0.178,0.16-0.146.12-.3,0.28-0.45,0.43,0.6-.15,1.759-0.51,1.759-1.38,0-.05,0-0.11-0.007-0.16-0.127.1-.262,0.22-0.4,0.33A1.16,1.16,0,0,1,670.017,3812.86Zm0.723-.62c-0.227.19-.467,0.4-0.723,0.62A1.16,1.16,0,0,0,670.74,3812.24Zm31.835,8.33q-0.174-1.05-.5-2.37c-0.221-.89-0.454-1.79-0.7-2.69s-0.484-1.78-.716-2.61-0.421-1.54-.562-2.1a15.942,15.942,0,0,1-.43-2.36c-0.047-.59-0.07-0.98-0.07-1.18a5.238,5.238,0,0,1,.364-2.16,1.194,1.194,0,0,1,.829-0.94,1.927,1.927,0,0,1,.938.25,1.859,1.859,0,0,1,.732.71,3.718,3.718,0,0,1,.35.83c0.071,0.26.134,0.51,0.194,0.74a1.589,1.589,0,0,0,.177.45,5.731,5.731,0,0,0,.563.6,1.793,1.793,0,0,0,.779.47,0.959,0.959,0,0,0,.82.01,0.169,0.169,0,0,0,.068-0.06c-0.011-.02-0.021-0.14-0.072-0.37l-0.139-.62a8,8,0,0,0-.373-1.41,3.6,3.6,0,0,0-.8-1.28,5.054,5.054,0,0,0-2.34-1.54,9.48,9.48,0,0,0-2.647-.37,1.294,1.294,0,0,0-.852.24,2.067,2.067,0,0,0-.522.7,3.585,3.585,0,0,0-.286.95c-0.061.39-.127,0.72-0.2,1.01a4.922,4.922,0,0,0-.025.68c0,0.15.012,0.36,0.034,0.61,0.022,0.27.051,0.53,0.086,0.79s0.069,0.51.1,0.74,0.058,0.37.081,0.46c0.187,0.98.4,1.92,0.645,2.81,0.244,0.91.493,1.79,0.749,2.66s0.5,1.76.737,2.66a26.177,26.177,0,0,1,.567,2.84c0.048,0.36.09,0.78,0.126,1.28s0.053,0.98.053,1.46a1.541,1.541,0,0,1-.5,1.17,1.948,1.948,0,0,1-2.069.31,8.915,8.915,0,0,1-1.532-.69,10.888,10.888,0,0,1-1.447-.99,10.771,10.771,0,0,1-1.23-1.17,7.489,7.489,0,0,1-.918-1.29c-0.062-.14-0.105-0.24-0.148-0.32a0.92,0.92,0,0,1-.106-0.4,2.065,2.065,0,0,1,.165-0.96,0.862,0.862,0,0,0,.08-0.42c0,0.01-.049-0.07-0.27-0.3a4.325,4.325,0,0,0-.792-0.64,3.287,3.287,0,0,0-1.592-.43,0.387,0.387,0,0,0-.225.22,0.889,0.889,0,0,0-.189.44v0.52a1.89,1.89,0,0,0,.058.44,5.43,5.43,0,0,0,.364,1.21,5.906,5.906,0,0,0,.493.88,4.5,4.5,0,0,0,.519.63q0.291,0.3.508,0.54a13.066,13.066,0,0,0,3.769,3.26,8.766,8.766,0,0,0,4.353,1.19c0.386,0,.67-0.01.852-0.02a1.5,1.5,0,0,0,.4-0.07,3.157,3.157,0,0,0,1.4-1.07,2.81,2.81,0,0,0,.526-1.7c0-.31-0.01-0.6-0.034-0.87S702.69,3821.21,702.575,3820.57Zm13.491,1.72a2.253,2.253,0,0,0-1.557.07c-0.329.14-.65,0.29-0.966,0.46a10.375,10.375,0,0,1-1.027.48,3.071,3.071,0,0,1-1.2.24,3.117,3.117,0,0,0-1.071.19,2.784,2.784,0,0,1-2.4-.08,1.971,1.971,0,0,1-.485-0.32,0.714,0.714,0,0,1-.208-0.53,1.838,1.838,0,0,1,.122-0.54,1.4,1.4,0,0,1,.424-0.67c0.2-.17.434-0.4,0.706-0.68s0.557-.6.844-0.93,0.594-.68.9-1c0.31-.34.608-0.63,0.895-0.9a3.719,3.719,0,0,1,.647-0.48,5.753,5.753,0,0,1,.994-0.36c0.512-.16,1.072-0.31,1.656-0.43s1.137-.21,1.678-0.3,1.044-.14,1.5-0.19a11.238,11.238,0,0,1,1.173-.07,0.627,0.627,0,0,0,.325-0.05,0.342,0.342,0,0,0,.111-0.16,1.329,1.329,0,0,0-.184-0.26,2.045,2.045,0,0,0-1.088-.63,6,6,0,0,0-1.4-.18c-0.49,0-.738-0.16-0.738-0.46a0.759,0.759,0,0,1,.336-0.55c0.4-.33.765-0.61,1.083-0.85a9.082,9.082,0,0,0,.754-0.61,2.048,2.048,0,0,0,.4-0.5,1.172,1.172,0,0,0,.117-0.55,1.855,1.855,0,0,0-.119-0.62,0.958,0.958,0,0,0-.309-0.39,3.636,3.636,0,0,1-.518-0.42,1.954,1.954,0,0,0-.972-0.47,8.223,8.223,0,0,0-4.57.14c-0.951.28-1.88,0.53-2.759,0.74a0.581,0.581,0,0,0-.429.7,2.615,2.615,0,0,0,.156.73,1.376,1.376,0,0,0,.391.54,1.082,1.082,0,0,0,.312.23,0.168,0.168,0,0,0,.069-0.01,5.467,5.467,0,0,1,1.462-1.18,4.842,4.842,0,0,1,1.974-.62,3.034,3.034,0,0,0,.928-0.18,1.849,1.849,0,0,1,1.317-.11,0.553,0.553,0,0,1,.454.53,1.7,1.7,0,0,1-.564,1.07,4.576,4.576,0,0,1-1.263.98,4.1,4.1,0,0,0-1.014.79c-0.342.37-.7,0.72-1.065,1.06a6.829,6.829,0,0,1-1.256.92,3.443,3.443,0,0,1-1.695.41,4.036,4.036,0,0,1-1.579-.27,2.6,2.6,0,0,0-1.023-.21,0.665,0.665,0,0,0-.428.14,0.286,0.286,0,0,0-.139.16,1.051,1.051,0,0,0,.065.38,4.661,4.661,0,0,0,.311.6,0.694,0.694,0,0,0,.321.34,4.1,4.1,0,0,0,.583.23,1.22,1.22,0,0,1,.539.24,0.528,0.528,0,0,1,.165.41,0.916,0.916,0,0,1-.233.53,5.029,5.029,0,0,1-.476.52c-0.368.39-.736,0.79-1.1,1.19a5.355,5.355,0,0,0-.847,1.26,0.669,0.669,0,0,0-.054.28c-0.011.18-.017,0.33-0.017,0.44a3.117,3.117,0,0,0,.191,1.06,1.505,1.505,0,0,0,.7.79,5.75,5.75,0,0,0,1.644.62,8.2,8.2,0,0,0,3.749.04,18.822,18.822,0,0,0,1.866-.51c0.612-.21,1.217-0.43,1.817-0.68s1.187-.48,1.744-0.71c0.057-.02.1-0.04,0.125-0.05a0.477,0.477,0,0,0-.113-0.37A1.916,1.916,0,0,0,716.066,3822.29Zm16.437-11.88c-0.415-.26-0.882-0.53-1.37-0.78a3.083,3.083,0,0,0-1.359-.34,2.914,2.914,0,0,0-.4.17,10.25,10.25,0,0,0-2.376,1.77c-0.817.79-1.615,1.63-2.374,2.5l-0.1.12h-0.162a0.413,0.413,0,0,1-.425-0.42c0.222-.92.472-1.78,0.754-2.62a7.211,7.211,0,0,0,.4-2.26,0.372,0.372,0,0,0-.189-0.18,1.335,1.335,0,0,0-1.167-.05,5.777,5.777,0,0,1-.66.25,0.822,0.822,0,0,0-.133.07,1.925,1.925,0,0,1-.048.35,44.1,44.1,0,0,1-1.447,5.98c-0.656,2.1-1.376,4.22-2.137,6.3q-1.155,3.15-2.291,6.17c-0.754,2-1.393,3.85-1.9,5.5q-0.1.33-.133,0.48a0.955,0.955,0,0,0-.026.18,0.556,0.556,0,0,0,.062.25c0.09,0.08.2,0.19,0.325,0.31a1.6,1.6,0,0,0,.414.31,2.121,2.121,0,0,0,.955.04,2.336,2.336,0,0,0,.556-0.15c0.126-.05.123-0.08,0.113-0.15a2.828,2.828,0,0,1,.093-1.07c0.3-1.27.615-2.46,0.931-3.52s0.662-2.09,1.024-3.04,0.763-1.9,1.2-2.83c0.43-.91.92-1.89,1.459-2.92a0.535,0.535,0,0,1,.524-0.36,0.56,0.56,0,0,1,.537.39,10.873,10.873,0,0,0,.7,1.25,5.844,5.844,0,0,0,1.023,1.16,2.009,2.009,0,0,0,.362.29,5.409,5.409,0,0,0,.562.3,4.248,4.248,0,0,0,.655.24,2.306,2.306,0,0,0,1.043.06,0.39,0.39,0,0,0,.248-0.11,10.37,10.37,0,0,0,1.739-2,18.524,18.524,0,0,0,1.321-2.32c0.377-.8.713-1.62,1-2.43s0.577-1.61.858-2.35a1.154,1.154,0,0,0,.121-0.51,1.294,1.294,0,0,1,.05-0.6c0.058-.28.114-0.61,0.159-0.96a10.933,10.933,0,0,0,.067-1.36,1.138,1.138,0,0,0-.148-0.72A2.192,2.192,0,0,0,732.5,3810.41Zm-1.643,1.53c-0.025.21-.078,0.55-0.161,1s-0.222,1.03-.408,1.73c-0.193.72-.454,1.57-0.777,2.53a5.678,5.678,0,0,1-.284.82c-0.166.42-.373,0.9-0.621,1.43a17.873,17.873,0,0,1-.839,1.58,6.2,6.2,0,0,1-.928,1.26,0.74,0.74,0,0,1-.529.24,1.275,1.275,0,0,1-.962-0.61,5.393,5.393,0,0,1-.691-1.17,10.976,10.976,0,0,1-.487-1.29,3.9,3.9,0,0,1-.207-1.01,3.574,3.574,0,0,1,.041-0.61,1.73,1.73,0,0,1,.258-0.59,25.706,25.706,0,0,1,2.428-3.25,15.256,15.256,0,0,1,3.274-2.78c0.62-.32.93,0.02,0.93,0.33C730.9,3811.58,730.885,3811.7,730.86,3811.94Zm18.421-1.23a0.635,0.635,0,0,0-.227-0.19,1.146,1.146,0,0,0-.5-0.08,1.476,1.476,0,0,1-.8-0.18,0.56,0.56,0,0,0-.28-0.06,0.762,0.762,0,0,0-.253.26,2.523,2.523,0,0,0-.322.54,19.233,19.233,0,0,1-1.287,2.83,16.825,16.825,0,0,1-1.232,1.89,14.138,14.138,0,0,1-1.114,1.29c-0.332.33-.635,0.65-0.909,0.97a8.174,8.174,0,0,1-.776.86,6.118,6.118,0,0,0-.516.54,11.432,11.432,0,0,1-1.687,1.64,8.289,8.289,0,0,1-1.187.74,2.134,2.134,0,0,1-.927.25c-0.529,0-.529-0.69-0.529-0.91a3.341,3.341,0,0,1,.058-0.62c0.037-.2.079-0.39,0.128-0.58s0.084-.36.118-0.53a5.455,5.455,0,0,1,.169-0.62q0.346-1.035.59-1.89c0.164-.59.333-1.16,0.511-1.71s0.369-1.11.58-1.68,0.473-1.2.781-1.86a1.517,1.517,0,0,1,.248-0.38c0.036-.04.082-0.09,0.133-0.15s0.125-.16.214-0.28a5.022,5.022,0,0,0,.324-0.53,2.421,2.421,0,0,0,.245-0.61,3.188,3.188,0,0,0,.062-0.69,0.284,0.284,0,0,0-.158-0.26,0.745,0.745,0,0,0-.4-0.15,2.551,2.551,0,0,1-.665-0.1,1.328,1.328,0,0,0-.315-0.08,2.634,2.634,0,0,0-.439.2,0.982,0.982,0,0,0-.448.57c-0.346,1.13-.732,2.22-1.144,3.25-0.406,1-.8,2.01-1.168,3a25.5,25.5,0,0,0-.913,3.02,14.565,14.565,0,0,0-.358,3.3,2.586,2.586,0,0,0,.021.45,0.833,0.833,0,0,0,.111.17,3.69,3.69,0,0,0,3.045,1.26,2.8,2.8,0,0,0,.405-0.2c0.282-.16.613-0.37,0.983-0.62q0.57-.405,1.176-0.87a9.429,9.429,0,0,0,1.032-.89,1.192,1.192,0,0,1,.739-0.48,0.455,0.455,0,0,1,.46.49,1.049,1.049,0,0,1-.025.19c-0.013.06-.036,0.17-0.073,0.32s-0.1.39-.2,0.68c-0.093.27-.208,0.64-0.345,1.1l-0.72,2.22c-0.244.76-.465,1.46-0.662,2.12s-0.36,1.22-.486,1.7a9.425,9.425,0,0,0-.22.92l-0.048.13c-0.594.98-1.147,1.99-1.643,3.02s-0.948,1.99-1.341,2.89a7.383,7.383,0,0,0-.7,2.62,1.24,1.24,0,0,0,.1.58,0.651,0.651,0,0,0,.211.25,0.716,0.716,0,0,0,.283.11,2.418,2.418,0,0,0,.82-0.01c0.151-.04.3-0.07,0.45-0.1a1.5,1.5,0,0,0,.885-0.4,2.509,2.509,0,0,0,.52-0.82,4.941,4.941,0,0,0,.277-1.08c0.058-.41.125-0.79,0.2-1.15a32.236,32.236,0,0,1,1.5-5.04,20.579,20.579,0,0,1,2.792-4.92c0-.01.041-0.08,0.09-0.21a1.351,1.351,0,0,0,.049-0.45,0.968,0.968,0,0,0-.364-0.02c-0.489.1-.72-0.16-0.72-0.4a1.79,1.79,0,0,1,.1-0.49c0.06-.19.171-0.53,0.336-1.02q0.1-.315.369-1.05t0.58-1.56c0.21-.54.406-1.06,0.593-1.56s0.311-.85.381-1.05a24.8,24.8,0,0,1,.959-2.39,16.4,16.4,0,0,1,1.213-2.19c0.179-.29.312-0.51,0.393-0.65a3.939,3.939,0,0,1,.29-0.42c0.166-.25.343-0.53,0.515-0.82a1.375,1.375,0,0,0,.213-0.74,2.52,2.52,0,0,0-.031-0.35A0.739,0.739,0,0,0,749.281,3810.71Zm12.871,0.2a0.58,0.58,0,0,1-.061.03,13.16,13.16,0,0,1-2.268,1.05,17.707,17.707,0,0,1-2.532.74,3.771,3.771,0,0,1-.57.11,2.966,2.966,0,0,1-.377.04,0.461,0.461,0,0,1-.494-0.46,1.448,1.448,0,0,1,.085-0.38c0.047-.16.114-0.36,0.2-0.59s0.171-.46.265-0.69,0.2-.46.291-0.66c0.28-.58.586-1.17,0.915-1.78s0.644-1.21.958-1.83a18.58,18.58,0,0,0,.824-1.84,10.387,10.387,0,0,0,.522-1.9,1.754,1.754,0,0,0,.031-0.19v-0.01c-0.025-.01-0.059-0.03-0.105-0.05a2.745,2.745,0,0,0-.618-0.18,2.209,2.209,0,0,0-.8-0.04,1.213,1.213,0,0,1-.684.14c-0.029.06-.074,0.15-0.133,0.26-0.6,1.26-1.138,2.54-1.611,3.82s-0.927,2.47-1.347,3.54c-0.251.66-.436,1.2-0.549,1.6a0.9,0.9,0,0,1-.935.75,2.9,2.9,0,0,1-1.234-.31,2.5,2.5,0,0,0-1.039-.25,0.745,0.745,0,0,0-.259.03l-0.293.12a0.784,0.784,0,0,0-.237.14,0.235,0.235,0,0,1,.038.13,2.523,2.523,0,0,1,.621.61c0.135,0.19.276,0.38,0.422,0.56a5.485,5.485,0,0,0,.493.52,2.844,2.844,0,0,0,.7.46,0.625,0.625,0,0,1,.37.53,1.085,1.085,0,0,1-.087.35,31.588,31.588,0,0,0-1.393,4.16c-0.368,1.43-.783,2.82-1.23,4.14a3.037,3.037,0,0,0-.089.47,3.837,3.837,0,0,0-.033.46,0.6,0.6,0,0,0,.239.55,1.282,1.282,0,0,0,.467.23,2.16,2.16,0,0,0,.584.09c0.06,0,.136-0.01.226-0.02a0.216,0.216,0,0,0,.1-0.03,0.972,0.972,0,0,0,.486-0.54,3.045,3.045,0,0,0,.236-0.68,9.811,9.811,0,0,1,.306-1.54c0.152-.56.318-1.12,0.494-1.67s0.344-1.06.509-1.55a7.882,7.882,0,0,0,.3-1.1,4.05,4.05,0,0,1,.218-0.64,3.085,3.085,0,0,0,.172-0.5c0.074-.27.156-0.55,0.25-0.86a4.813,4.813,0,0,1,.379-0.9,1.448,1.448,0,0,1,.87-0.69c0.174-.06.489-0.15,0.927-0.26,0.418-.11.888-0.23,1.411-0.37s1.061-.29,1.617-0.45,1.035-.32,1.439-0.48c0.029-.01.049-0.02,0.075-0.03,0.207-.48.409-0.97,0.622-1.45C761.945,3811.38,762.049,3811.14,762.152,3810.91Zm1.895-.11a0.8,0.8,0,0,1,.308.58,1.5,1.5,0,0,1-.351.92,2.426,2.426,0,0,1-1.023.73,6.147,6.147,0,0,0-.845.38,2.564,2.564,0,0,1-.376.2c-1.243,2.94-2.377,5.94-3.366,8.96a0.378,0.378,0,0,0-.037.14,1.194,1.194,0,0,1-.123.39,5.02,5.02,0,0,0-.147.5,1.785,1.785,0,0,0-.06.39,0.625,0.625,0,0,0,.1.39,0.711,0.711,0,0,0,.261.23,1.375,1.375,0,0,0,.509.14,1.321,1.321,0,0,0,.376-0.04,2.026,2.026,0,0,1,.5-0.06,0.2,0.2,0,0,0,.178-0.13,2.577,2.577,0,0,0,.293-0.58,6.086,6.086,0,0,0,.215-0.74c0.057-.27.111-0.5,0.159-0.69a19.4,19.4,0,0,1,.831-3.2c0.363-1.03.748-2.02,1.144-2.95a0.462,0.462,0,0,1,.466-0.35,0.585,0.585,0,0,1,.349.12,0.863,0.863,0,0,1,.258.37c0.234,0.54.568,1.45,0.987,2.69a28.652,28.652,0,0,0,2.108,4.52,1.516,1.516,0,0,0,.256.33c0.1,0.09.206,0.18,0.317,0.27a5.981,5.981,0,0,1,.66.61,3.371,3.371,0,0,0,.95.65,3.636,3.636,0,0,0,1.492.26,0.57,0.57,0,0,0,.541-0.22,1.468,1.468,0,0,1,.546-0.47,0.207,0.207,0,0,0,.133-0.21c0-.04,0-0.07,0-0.1a1.342,1.342,0,0,1-.538-0.11,9.352,9.352,0,0,1-.988-0.46,3.831,3.831,0,0,1-.747-0.51,4.5,4.5,0,0,1-.608-0.66c-0.175-.24-0.392-0.53-0.649-0.88a6.521,6.521,0,0,1-.429-0.74c-0.2-.37-0.406-0.78-0.617-1.21s-0.406-.85-0.584-1.25a7.453,7.453,0,0,1-.348-0.88c-0.275-.89-0.465-1.49-0.57-1.77a2.4,2.4,0,0,1-.178-0.73,0.878,0.878,0,0,1,.392-0.74c0.942-.61,1.884-1.24,2.837-1.9,0.936-.65,1.857-1.36,2.735-2.09a2.345,2.345,0,0,0,.368-0.39,3.491,3.491,0,0,1,.6-0.65,3.919,3.919,0,0,0,.494-0.51c0.181-.21.351-0.42,0.51-0.64a3.065,3.065,0,0,0,.348-0.57,0.869,0.869,0,0,0,.107-0.35,1.931,1.931,0,0,0-.459-0.33,1.867,1.867,0,0,0-.443-0.22,0.959,0.959,0,0,0-.317-0.04,1.414,1.414,0,0,0-.843.28c-0.1.08-.208,0.17-0.321,0.27a2.151,2.151,0,0,0-.284.36,12.275,12.275,0,0,1-2.756,3.06,31.541,31.541,0,0,1-3.306,2.28c-0.638.4-1.06,0.21-1.06-.23a1.061,1.061,0,0,1,.142-0.47c0.6-1.41,1.181-2.84,1.716-4.23a26.276,26.276,0,0,1,2.073-4.23,3.759,3.759,0,0,0,.255-0.42c0.087-.16.289-0.46,0.633-0.95,0.275-.39.514-0.76,0.72-1.1a2.186,2.186,0,0,0,.264-1.14c0-.12,0-0.49-0.987-0.63a6.28,6.28,0,0,1-.816-0.11,2.252,2.252,0,0,0-.288-0.02,1.127,1.127,0,0,0-.229.43c-0.052.13-.094,0.23-0.13,0.31l-0.261.61c-1.287,3.04-2.6,6.07-3.91,9.05a3.42,3.42,0,0,1,.324.13A1.97,1.97,0,0,1,764.047,3810.8Zm-0.606,1.08a0.918,0.918,0,0,0,.206-0.49h0a0.293,0.293,0,0,1-.076-0.07,1.633,1.633,0,0,0-.366-0.24c-0.095-.04-0.2-0.07-0.307-0.11q-0.2.465-.407,0.93c-0.1.23-.2,0.46-0.3,0.69,0.135-.06.3-0.13,0.522-0.22A1.7,1.7,0,0,0,763.441,3811.88Zm0.368-.82a0.477,0.477,0,0,1,.192.32,1.17,1.17,0,0,1-.279.71,2.07,2.07,0,0,1-.874.61,6.86,6.86,0,0,0-.868.39c-0.074.18-.148,0.35-0.22,0.52a2.564,2.564,0,0,0,.376-0.2,6.147,6.147,0,0,1,.845-0.38,2.426,2.426,0,0,0,1.023-.73,1.5,1.5,0,0,0,.351-0.92,0.8,0.8,0,0,0-.308-0.58,1.97,1.97,0,0,0-.544-0.35,3.42,3.42,0,0,0-.324-0.13l-0.141.33a3.22,3.22,0,0,1,.316.12A1.927,1.927,0,0,1,763.809,3811.06Zm-0.605.02a1.633,1.633,0,0,1,.366.24,0.293,0.293,0,0,0,.076.07h0a0.918,0.918,0,0,1-.206.49,1.7,1.7,0,0,1-.725.49c-0.227.09-.387,0.16-0.522,0.22-0.072.17-.143,0.34-0.214,0.5a6.86,6.86,0,0,1,.868-0.39,2.07,2.07,0,0,0,.874-0.61,1.17,1.17,0,0,0,.279-0.71,0.477,0.477,0,0,0-.192-0.32,1.927,1.927,0,0,0-.455-0.29,3.22,3.22,0,0,0-.316-0.12c-0.047.1-.094,0.21-0.141,0.32C763,3811.01,763.109,3811.04,763.2,3811.08Zm25.15,0.78a1.733,1.733,0,0,0,.26-0.16,0.716,0.716,0,0,0-.435-0.31,6.451,6.451,0,0,0-2.631-.17c-0.461.04-1.053,0.06-1.758,0.06a1.618,1.618,0,0,1-1.456-.81,7.878,7.878,0,0,1-.66-1.36,0.46,0.46,0,0,0-.093-0.19c-0.066-.07-0.162-0.15-0.291-0.26a2.174,2.174,0,0,0-.815-0.46,2.783,2.783,0,0,0-.81-0.13,2.219,2.219,0,0,0-1,.24,5.144,5.144,0,0,0-1.01.68,8.477,8.477,0,0,0-.955.99c-0.309.38-.6,0.76-0.875,1.15l-0.222.27c-0.058.07-.118,0.14-0.185,0.21a1.707,1.707,0,0,0-.174.19,2.671,2.671,0,0,0-.249.36,28.683,28.683,0,0,0-2.113,3.67,8.984,8.984,0,0,0-.874,3.91,8.448,8.448,0,0,0,.118,1.35,7.013,7.013,0,0,0,.383,1.41,2.635,2.635,0,0,0,.821,1.01,8.176,8.176,0,0,0,1.625,1,1.555,1.555,0,0,0,.685.14,2.16,2.16,0,0,0,1.433-.55,15.1,15.1,0,0,0,4.079-5.44,33.7,33.7,0,0,0,1.7-5.14,0.718,0.718,0,0,1,.763-0.55c0.112,0,.274,0,0.487-0.01s0.491-.04.829-0.09a9.407,9.407,0,0,0,1.345-.29,8.152,8.152,0,0,1,1.278-.29,0.3,0.3,0,0,0,.113-0.03l0.024-.02a0.688,0.688,0,0,1,.374-0.26A2.163,2.163,0,0,0,788.354,3811.86Zm-7.531.5a9.782,9.782,0,0,1-.363,2.69,14.61,14.61,0,0,1-.932,2.43,23.491,23.491,0,0,1-1.278,2.26c-0.469.72-.935,1.44-1.4,2.14a4.147,4.147,0,0,1-.322.45,1.151,1.151,0,0,1-.407.3c-0.029.02-.105,0.08-0.191,0.14a1.015,1.015,0,0,1-.633.18,0.877,0.877,0,0,1-.511-0.13,2.491,2.491,0,0,1-.6-0.66,2.86,2.86,0,0,1-.374-0.68,1.516,1.516,0,0,1-.1-0.36,1.821,1.821,0,0,1-.021-0.24,9.34,9.34,0,0,1,.327-2.42,15.846,15.846,0,0,1,.8-2.3,20.938,20.938,0,0,1,1.052-2.05c0.378-.64.736-1.2,1.062-1.67s0.609-.85.835-1.13c0.237-.3.369-0.47,0.394-0.49a1.617,1.617,0,0,1,.4-0.36,0.921,0.921,0,0,0,.228-0.2,1.074,1.074,0,0,1,.809-0.49,0.567,0.567,0,0,1,.546.45c0.045,0.13.088,0.26,0.132,0.37l0.091,0.25a0.393,0.393,0,0,0,.111.15,1.552,1.552,0,0,1,.155.18,0.978,0.978,0,0,1,.152.39,1.958,1.958,0,0,1,.042.45v0.35Zm16.008,2.02q-0.479,0-1.245.06c-0.533.05-1,.08-1.377,0.08-1.051,0-2.045-.03-2.956-0.07s-1.88-.07-2.918-0.07a2.981,2.981,0,0,0-.614.08,0.483,0.483,0,0,0-.337.16,0.618,0.618,0,0,0-.059.27,1.232,1.232,0,0,0,.055.37c0.045,0.15.091,0.29,0.137,0.43a2.819,2.819,0,0,0,.317.62,0.244,0.244,0,0,0,.151.11q0.255,0,.838.06c0.37,0.03.8,0.07,1.286,0.1s1,0.07,1.545.09,1.079,0.03,1.61.03h0.665c0.25,0,.489,0,0.717-0.01l0.624-.04a2.224,2.224,0,0,0,.356-0.04,5.9,5.9,0,0,1,1.253-.22,1.019,1.019,0,0,0,.506-0.11,1.076,1.076,0,0,0,.322-0.53,6.663,6.663,0,0,0,.063-1.1A0.986,0.986,0,0,0,796.831,3814.38Zm27.024-9.73a8.349,8.349,0,0,0-.119-0.91,3.4,3.4,0,0,0-.306-0.85,1,1,0,0,0-.476-0.55,7.111,7.111,0,0,0-1.438-.16,0.481,0.481,0,0,0-.486.83,1.429,1.429,0,0,0,.079.52,3.481,3.481,0,0,0,.223.46,4.8,4.8,0,0,1,.266.55,2.153,2.153,0,0,1,.131.81c0,0.26-.008.48-0.019,0.63s-0.016.28-.016,0.41c0,0.15-.007.3-0.019,0.45-0.011.13-.016,0.3-0.016,0.49s-0.013.42-.037,0.67a6.842,6.842,0,0,1-.184.95,58.328,58.328,0,0,1-2.2,7.25,26.413,26.413,0,0,1-3.526,6.54c-0.132.15-.232,0.27-0.316,0.37a0.663,0.663,0,0,1-.493.26,0.623,0.623,0,0,1-.59-0.59,22.86,22.86,0,0,1-.463-4.47,19.452,19.452,0,0,1,.267-3.27,23.034,23.034,0,0,1,.764-3.11,1.038,1.038,0,0,0,.072-0.26,4.2,4.2,0,0,0,.016-0.43,1.725,1.725,0,0,0-.511-1.06,0.714,0.714,0,0,0-.493-0.3c-0.16-.03-0.314-0.06-0.5-0.11a2.134,2.134,0,0,0-.309-0.06,0.327,0.327,0,0,0-.021.05,6.789,6.789,0,0,0-.308.8c-0.089.28-.168,0.58-0.236,0.89-0.051.2-.092,0.36-0.127,0.49s-0.074.26-.111,0.37-0.077.22-.125,0.35a4.766,4.766,0,0,1-.225.51,23.377,23.377,0,0,1-2.389,4.04,35.863,35.863,0,0,1-3.266,3.92,3.987,3.987,0,0,1-.737.65,0.863,0.863,0,0,1-.428.16,0.473,0.473,0,0,1-.459-0.53c0-.05.011-0.18,0.038-0.39s0.072-.46.144-0.8c0.578-2.76,1.244-5.55,1.98-8.29a62.846,62.846,0,0,1,2.725-7.97,1.358,1.358,0,0,0,.062-0.15,0.086,0.086,0,0,1,.015.02s-0.015-.02-0.033-0.05a2.467,2.467,0,0,0-.228-0.25l-0.3-.3a0.241,0.241,0,0,0-.065-0.06c-0.218-.05-0.376-0.09-0.529-0.13a1.666,1.666,0,0,0-.449-0.06,1.574,1.574,0,0,0-.624.07,0.707,0.707,0,0,0-.116.26c-0.65,2.38-1.356,4.82-2.1,7.26-0.741,2.42-1.386,4.88-1.916,7.29-0.07.28-.114,0.48-0.136,0.63s-0.039.26-.05,0.37l-0.087.85c-0.074.48-.149,0.95-0.231,1.43a9.018,9.018,0,0,0-.117,1.53v0.8a0.849,0.849,0,0,0,.051.27,0.6,0.6,0,0,0,.264.14l0.386,0.1a1.143,1.143,0,0,1,.488.28,2.443,2.443,0,0,0,1.011.7,1.477,1.477,0,0,0,.93-0.37,8.824,8.824,0,0,0,1.091-1.08q0.572-.645,1.158-1.41a9.874,9.874,0,0,1,1.3-1.4,5.621,5.621,0,0,0,.64-0.68q0.254-.315.525-0.72a0.808,0.808,0,0,1,.609-0.44,0.508,0.508,0,0,1,.425.26,1.84,1.84,0,0,1,.17.67l0.316,2.57a6.857,6.857,0,0,0,.6,2.07,0.6,0.6,0,0,0,.47.33,1.831,1.831,0,0,1,.859.41,1.3,1.3,0,0,0,.368.27,1.349,1.349,0,0,0,.5.11,2.3,2.3,0,0,1,.818.18,0.361,0.361,0,0,0,.164.07,1.207,1.207,0,0,0,.834-0.27,4.025,4.025,0,0,0,.658-0.73,34.582,34.582,0,0,0,3.643-6.57,42.419,42.419,0,0,0,2.238-7.07c0.232-1.07.409-2,.525-2.75a15.559,15.559,0,0,0,.173-2.4q0-.345-0.017-0.66C823.894,3805.13,823.876,3804.9,823.855,3804.65Zm13.084,18.84a5.641,5.641,0,0,1-.186-1.45,8.548,8.548,0,0,1,.164-1.65c0.106-.52.217-1.03,0.335-1.52a11.082,11.082,0,0,1,.723-2.05c0.308-.66.648-1.31,1.011-1.94s0.761-1.25,1.171-1.83,0.813-1.14,1.21-1.68a0.323,0.323,0,0,0,.071-0.17,0.562,0.562,0,0,0-.318-0.25,2.622,2.622,0,0,0-.377-0.06,1.085,1.085,0,0,1-.738-0.28,1.461,1.461,0,0,1-.433-0.62,1.053,1.053,0,0,0-.172-0.27,3,3,0,0,0-.273-0.31,3.44,3.44,0,0,0-.922-0.69,2.318,2.318,0,0,0-1.625-.14,17.591,17.591,0,0,0-5.487,2.7c-0.527.39-1.236,0.97-2.108,1.74a18.33,18.33,0,0,0-2.843,3.4,13.952,13.952,0,0,0-1.653,3.01,6.263,6.263,0,0,0-.384,1.95,2.156,2.156,0,0,0,.627,1.77l1.039,0.81c0.258,0.2.473,0.35,0.641,0.47a1.437,1.437,0,0,0,.343.18,0.476,0.476,0,0,0,.371.01,1.937,1.937,0,0,0,.27-0.09,8.293,8.293,0,0,0,.9-0.33,6.223,6.223,0,0,0,.9-0.46,10.119,10.119,0,0,0,1.016-.71q0.55-.42,1.239-1.05l1.884-1.73a1.757,1.757,0,0,1,1.08-.72,0.484,0.484,0,0,1,.494.52,5.532,5.532,0,0,1-.075.56,8.116,8.116,0,0,0-.065,1.18,8.936,8.936,0,0,0,.118,1.43,5.6,5.6,0,0,0,.445,1.42,0.747,0.747,0,0,0,.447.34,1.534,1.534,0,0,0,.952.12c0.121-.04.245-0.07,0.377-0.1a0.782,0.782,0,0,0,.388-0.12c0.017-.02.03-0.04,0.039-0.05s-0.007-.01-0.01-0.02A4.557,4.557,0,0,1,836.939,3823.49Zm-1.057-8.06c-0.665.72-1.4,1.44-2.175,2.13s-1.589,1.38-2.424,2.06-1.658,1.4-2.464,2.15a4.52,4.52,0,0,1-1.076.77,2.1,2.1,0,0,1-.88.3,0.931,0.931,0,0,1-.953-0.52,1.864,1.864,0,0,1-.171-0.77,3,3,0,0,1,.234-1.06,10.119,10.119,0,0,1,.579-1.24c0.234-.43.517-0.89,0.839-1.37a16.894,16.894,0,0,1,1.054-1.38,20.5,20.5,0,0,1,3.5-3.32,33.553,33.553,0,0,1,4.468-2.81,3.883,3.883,0,0,1,.76-0.29,1.853,1.853,0,0,1,.492-0.1,1.01,1.01,0,0,1,.923.42,1.138,1.138,0,0,1,.235.63,1.063,1.063,0,0,1-.28.77,6.286,6.286,0,0,0-.533.59,3.61,3.61,0,0,0-.414.64A11.373,11.373,0,0,1,835.882,3815.43Zm14.671-1.65a5.618,5.618,0,0,0,.666-1.12,3.78,3.78,0,0,0,.287-1.56,5.783,5.783,0,0,0-.133-1.14,1.719,1.719,0,0,0-.428-0.88,4.529,4.529,0,0,0-1.182-.84,4.956,4.956,0,0,0-1.994-.31,2.962,2.962,0,0,0-1.245.46,4.551,4.551,0,0,0-1.567,1.61,6.528,6.528,0,0,0-.531,1.02,9.776,9.776,0,0,0-.387,1.14,8.3,8.3,0,0,0-.218,1.07,6.385,6.385,0,0,0-.068.83c0,0.12.018,0.43,0.1,1.23,0.069,0.66.156,1.41,0.26,2.24s0.226,1.68.366,2.53,0.265,1.58.382,2.15c0.1,0.46.15,0.74,0.162,0.85a2.894,2.894,0,0,1,.02.3,0.626,0.626,0,0,1-.7.63,0.979,0.979,0,0,1-.44-0.1,2.614,2.614,0,0,1-.492-0.37,5.417,5.417,0,0,1-.738-0.82,10.09,10.09,0,0,1-.562-0.89l-0.489-.87a8.023,8.023,0,0,0-.534-0.82,0.735,0.735,0,0,0-.347-0.27,2.58,2.58,0,0,0-.7-0.07,0.749,0.749,0,0,0-.628.31,1.118,1.118,0,0,0-.277.62s0.013,0.03.04,0.09c0.044,0.1.089,0.19,0.133,0.28a14.288,14.288,0,0,0,2.05,2.63,8.52,8.52,0,0,0,2.869,1.87,2.2,2.2,0,0,0,.746.11,1.619,1.619,0,0,0,1.008-.31,9.475,9.475,0,0,0,.974-0.84,0.516,0.516,0,0,0,.177-0.38,12.128,12.128,0,0,0-.119-1.42q-0.122-.93-0.313-2.04t-0.384-2.28c-0.133-.81-0.23-1.51-0.3-2.16-0.02-.09-0.045-0.27-0.07-0.51l-0.07-.7q-0.036-.36-0.069-0.66c-0.027-.21-0.037-0.35-0.037-0.4,0-.22,0-0.41.019-0.56a3.411,3.411,0,0,1,.057-0.42,5.191,5.191,0,0,1,.448-1.32,11.7,11.7,0,0,1,.684-1.21,8.969,8.969,0,0,1,.658-0.88,0.935,0.935,0,0,1,.653-0.46,1.125,1.125,0,0,1,.626.22,1.53,1.53,0,0,1,.417.45,1.959,1.959,0,0,1,.211.54,2.392,2.392,0,0,1,.081.57,2.422,2.422,0,0,1-.206.99,6.448,6.448,0,0,1-.444.8,0.726,0.726,0,0,0-.052.11,0.988,0.988,0,0,0,.4.82,1.144,1.144,0,0,0,.464.26,1.7,1.7,0,0,0,.554.12A0.975,0.975,0,0,0,850.553,3813.78Zm4.483,6.2c0.3-.34.594-0.68,0.9-1,0.31-.34.608-0.63,0.895-0.9a3.719,3.719,0,0,1,.647-0.48,5.753,5.753,0,0,1,.994-0.36c0.512-.16,1.072-0.31,1.656-0.43s1.137-.21,1.678-0.3,1.044-.14,1.5-0.19a11.238,11.238,0,0,1,1.173-.07,0.627,0.627,0,0,0,.325-0.05,0.342,0.342,0,0,0,.111-0.16,1.287,1.287,0,0,0-.184-0.26,2.041,2.041,0,0,0-1.088-.63,6,6,0,0,0-1.4-.18c-0.49,0-.738-0.16-0.738-0.46a0.759,0.759,0,0,1,.336-0.55c0.4-.33.765-0.61,1.083-0.85a8.918,8.918,0,0,0,.754-0.61,2.048,2.048,0,0,0,.4-0.5,1.172,1.172,0,0,0,.117-0.55,1.855,1.855,0,0,0-.119-0.62,0.958,0.958,0,0,0-.309-0.39,3.636,3.636,0,0,1-.518-0.42,1.954,1.954,0,0,0-.972-0.47,8.223,8.223,0,0,0-4.57.14c-0.951.28-1.88,0.53-2.759,0.74a0.582,0.582,0,0,0-.429.7,2.615,2.615,0,0,0,.156.73,1.376,1.376,0,0,0,.391.54,1.1,1.1,0,0,0,.312.23,0.168,0.168,0,0,0,.069-0.01,5.467,5.467,0,0,1,1.462-1.18,4.842,4.842,0,0,1,1.975-.62,3.031,3.031,0,0,0,.927-0.18,1.85,1.85,0,0,1,1.317-.11,0.553,0.553,0,0,1,.454.53,1.7,1.7,0,0,1-.564,1.07,4.576,4.576,0,0,1-1.263.98,4.1,4.1,0,0,0-1.014.79c-0.342.37-.7,0.72-1.065,1.06a6.829,6.829,0,0,1-1.256.92,3.443,3.443,0,0,1-1.7.41,4.036,4.036,0,0,1-1.579-.27,2.6,2.6,0,0,0-1.023-.21,0.665,0.665,0,0,0-.428.14,0.286,0.286,0,0,0-.139.16,1.051,1.051,0,0,0,.065.38,4.661,4.661,0,0,0,.311.6,0.694,0.694,0,0,0,.321.34,4.1,4.1,0,0,0,.583.23,1.213,1.213,0,0,1,.539.24,0.528,0.528,0,0,1,.165.41,0.916,0.916,0,0,1-.233.53,5.029,5.029,0,0,1-.476.52c-0.367.39-.736,0.79-1.1,1.19a5.385,5.385,0,0,0-.847,1.26,0.669,0.669,0,0,0-.054.28c-0.011.18-.017,0.33-0.017,0.44a3.117,3.117,0,0,0,.191,1.06,1.509,1.509,0,0,0,.7.79,5.75,5.75,0,0,0,1.644.62,8.2,8.2,0,0,0,3.749.04,18.747,18.747,0,0,0,1.866-.51c0.612-.21,1.217-0.43,1.817-0.68s1.187-.48,1.744-0.71c0.057-.02.1-0.04,0.125-0.05a0.477,0.477,0,0,0-.113-0.37,1.916,1.916,0,0,0-.682-0.43,2.253,2.253,0,0,0-1.557.07c-0.329.14-.65,0.29-0.966,0.46a10.375,10.375,0,0,1-1.027.48,3.067,3.067,0,0,1-1.2.24,3.117,3.117,0,0,0-1.071.19,2.784,2.784,0,0,1-2.4-.08,1.971,1.971,0,0,1-.485-0.32,0.714,0.714,0,0,1-.208-0.53,1.838,1.838,0,0,1,.122-0.54,1.4,1.4,0,0,1,.424-0.67c0.2-.17.434-0.4,0.706-0.68S854.749,3820.31,855.036,3819.98Zm22.332-.73a1.3,1.3,0,0,0-.221-0.24,1.9,1.9,0,0,0-.328-0.24,0.462,0.462,0,0,0-.2-0.07,1.9,1.9,0,0,0-.734.18,7.392,7.392,0,0,0-1.009.52,13.54,13.54,0,0,0-1.146.75c-0.406.29-.794,0.57-1.165,0.85a16.507,16.507,0,0,1-2.571,1.61,5.821,5.821,0,0,1-2.606.65,0.91,0.91,0,0,1-.682-0.31,1.1,1.1,0,0,1-.266-0.77,7.573,7.573,0,0,1,.58-2.3,23.731,23.731,0,0,1,1.493-3.21,29.209,29.209,0,0,1,2.054-3.07,25.8,25.8,0,0,1,2.269-2.61c0.153-.15.261-0.25,0.324-0.31a0.713,0.713,0,0,1,1,.15,0.832,0.832,0,0,1,.119.41,1.5,1.5,0,0,1-.155.62c-0.085.18-.175,0.35-0.27,0.53s-0.172.35-.249,0.53a1.1,1.1,0,0,0-.094.41,0.545,0.545,0,0,0,.238.48l0.91,0.66a0.681,0.681,0,0,0,.49.18,0.328,0.328,0,0,0,.256-0.06,0.14,0.14,0,0,0,.055-0.11,3.272,3.272,0,0,1,.194-1.08c0.119-.34.251-0.68,0.395-1s0.284-.61.415-0.84a1.745,1.745,0,0,0,.191-0.43,0.66,0.66,0,0,0,.028-0.17,1.369,1.369,0,0,1-.07-0.52,1.362,1.362,0,0,0-.011-0.23,4.52,4.52,0,0,0-1.614-1.01,5.082,5.082,0,0,0-1.8-.36,1.3,1.3,0,0,0-.228.01,1.064,1.064,0,0,0-.2.07,7.77,7.77,0,0,0-2.011,1.49,17,17,0,0,0-1.885,2.23c-0.6.83-1.171,1.73-1.712,2.67s-1.037,1.87-1.476,2.77a3.757,3.757,0,0,0-.233.7,4.207,4.207,0,0,1-.177.64c-0.1.4-.226,0.84-0.354,1.29a4.173,4.173,0,0,0-.178,1.19,3.317,3.317,0,0,0,.382,1.48,1.745,1.745,0,0,0,.283.32,3.682,3.682,0,0,0,.69.53,4.948,4.948,0,0,0,1.01.47,4.319,4.319,0,0,0,3.475-.46,18.781,18.781,0,0,0,2.708-1.85c0.77-.62,1.456-1.15,2.1-1.61a10.031,10.031,0,0,1,1.6-.97c0.115-.12.232-0.25,0.348-0.37a0.588,0.588,0,0,1,.053-0.18S877.37,3819.26,877.368,3819.25Zm-0.959,2.56a0.678,0.678,0,0,0-.055.28c-0.011.18-.016,0.33-0.016,0.44a3.117,3.117,0,0,0,.191,1.06,1.507,1.507,0,0,0,.7.79,5.746,5.746,0,0,0,1.645.62,8.2,8.2,0,0,0,3.749.04,18.822,18.822,0,0,0,1.866-.51c0.612-.21,1.216-0.43,1.816-0.68s1.188-.48,1.745-0.71c0.056-.02.1-0.04,0.124-0.05a0.477,0.477,0,0,0-.113-0.37,1.907,1.907,0,0,0-.682-0.43,2.254,2.254,0,0,0-1.557.07c-0.328.14-.649,0.29-0.965,0.46a10.391,10.391,0,0,1-1.028.48,3.066,3.066,0,0,1-1.2.24,3.117,3.117,0,0,0-1.071.19,2.784,2.784,0,0,1-2.4-.08,1.952,1.952,0,0,1-.485-0.32,0.71,0.71,0,0,1-.209-0.53,1.876,1.876,0,0,1,.122-0.54,1.4,1.4,0,0,1,.424-0.67c0.2-.17.435-0.4,0.707-0.68s0.557-.6.844-0.93,0.594-.68.9-1c0.309-.34.608-0.63,0.895-0.9a3.719,3.719,0,0,1,.646-0.48,5.821,5.821,0,0,1,.994-0.36c0.512-.16,1.072-0.31,1.657-0.43s1.136-.21,1.678-0.3,1.044-.14,1.5-0.19a11.206,11.206,0,0,1,1.172-.07,0.627,0.627,0,0,0,.325-0.05,0.333,0.333,0,0,0,.112-0.16,1.341,1.341,0,0,0-.185-0.26,2.041,2.041,0,0,0-1.088-.63,5.983,5.983,0,0,0-1.4-.18c-0.49,0-.739-0.16-0.739-0.46a0.761,0.761,0,0,1,.337-0.55c0.4-.33.765-0.61,1.083-0.85a9.082,9.082,0,0,0,.754-0.61,2.072,2.072,0,0,0,.4-0.5,1.172,1.172,0,0,0,.117-0.55,1.855,1.855,0,0,0-.119-0.62,0.961,0.961,0,0,0-.31-0.39,3.693,3.693,0,0,1-.518-0.42,1.939,1.939,0,0,0-.971-0.47,8.227,8.227,0,0,0-4.571.14c-0.951.28-1.879,0.53-2.758,0.74a0.581,0.581,0,0,0-.43.7,2.588,2.588,0,0,0,.157.73,1.376,1.376,0,0,0,.391.54,1.065,1.065,0,0,0,.312.23,0.163,0.163,0,0,0,.068-0.01,5.483,5.483,0,0,1,1.462-1.18,4.847,4.847,0,0,1,1.975-.62,3.034,3.034,0,0,0,.928-0.18,1.848,1.848,0,0,1,1.317-.11,0.553,0.553,0,0,1,.453.53,1.693,1.693,0,0,1-.564,1.07,4.546,4.546,0,0,1-1.263.98,4.1,4.1,0,0,0-1.013.79c-0.343.37-.7,0.72-1.066,1.06a6.822,6.822,0,0,1-1.255.92,3.447,3.447,0,0,1-1.7.41,4.027,4.027,0,0,1-1.578-.27,2.6,2.6,0,0,0-1.023-.21,0.668,0.668,0,0,0-.429.14,0.283,0.283,0,0,0-.138.16,1.052,1.052,0,0,0,.064.38,4.8,4.8,0,0,0,.311.6,0.7,0.7,0,0,0,.321.34,4.164,4.164,0,0,0,.584.23,1.206,1.206,0,0,1,.538.24,0.528,0.528,0,0,1,.165.41,0.913,0.913,0,0,1-.232.53,5.029,5.029,0,0,1-.476.52c-0.135.14-.27,0.29-0.4,0.44a0.577,0.577,0,0,1-.07.24,0.733,0.733,0,0,1-.4.3c-0.021.01-.046,0.03-0.068,0.04-0.052.06-.105,0.11-0.158,0.17A5.351,5.351,0,0,0,876.409,3821.81Zm1.472-1.77a0.577,0.577,0,0,0,.07-0.24c-0.18.19-.359,0.38-0.538,0.58,0.022-.01.047-0.03,0.068-0.04A0.733,0.733,0,0,0,877.881,3820.04Zm26.739-7.14c0.166-.25.343-0.53,0.515-0.82a1.383,1.383,0,0,0,.212-0.74,2.375,2.375,0,0,0-.031-0.35,0.721,0.721,0,0,0-.106-0.28,0.635,0.635,0,0,0-.227-0.19,1.152,1.152,0,0,0-.506-0.08,1.481,1.481,0,0,1-.8-0.18,0.555,0.555,0,0,0-.28-0.06,0.768,0.768,0,0,0-.252.26,2.474,2.474,0,0,0-.322.54,19.338,19.338,0,0,1-1.287,2.83,16.966,16.966,0,0,1-1.232,1.89,14.3,14.3,0,0,1-1.114,1.29c-0.333.33-.635,0.65-0.909,0.97a8.171,8.171,0,0,1-.777.86,6.427,6.427,0,0,0-.516.54,11.435,11.435,0,0,1-1.686,1.64,8.237,8.237,0,0,1-1.188.74,2.13,2.13,0,0,1-.926.25c-0.529,0-.529-0.69-0.529-0.91a3.341,3.341,0,0,1,.057-0.62c0.038-.2.079-0.39,0.128-0.58s0.085-.36.118-0.53a5.475,5.475,0,0,1,.17-0.62q0.345-1.035.589-1.89,0.246-.885.511-1.71t0.581-1.68q0.318-.87.78-1.86a1.542,1.542,0,0,1,.249-0.38c0.035-.04.082-0.09,0.133-0.15s0.125-.16.213-0.28a4.858,4.858,0,0,0,.324-0.53,2.428,2.428,0,0,0,.246-0.61,3.188,3.188,0,0,0,.062-0.69,0.284,0.284,0,0,0-.158-0.26,0.747,0.747,0,0,0-.4-0.15,2.55,2.55,0,0,1-.664-0.1,1.328,1.328,0,0,0-.315-0.08,2.634,2.634,0,0,0-.439.2,0.983,0.983,0,0,0-.449.57c-0.345,1.13-.731,2.22-1.143,3.25-0.407,1-.8,2.01-1.169,3a25.683,25.683,0,0,0-.913,3.02,14.565,14.565,0,0,0-.358,3.3,2.483,2.483,0,0,0,.022.45,0.775,0.775,0,0,0,.111.17,3.688,3.688,0,0,0,3.045,1.26,2.852,2.852,0,0,0,.4-0.2c0.282-.16.614-0.37,0.984-0.62q0.57-.405,1.176-0.87a9.412,9.412,0,0,0,1.031-.89,1.191,1.191,0,0,1,.74-0.48,0.454,0.454,0,0,1,.459.49,1.115,1.115,0,0,1-.024.19c-0.013.06-.036,0.17-0.073,0.32s-0.1.39-.2,0.68c-0.093.27-.208,0.64-0.346,1.1l-0.72,2.22c-0.244.76-.464,1.46-0.661,2.12s-0.36,1.22-.487,1.7a9.03,9.03,0,0,0-.219.92l-0.048.13c-0.594.98-1.147,1.99-1.644,3.02s-0.947,1.99-1.34,2.89a7.383,7.383,0,0,0-.7,2.62,1.24,1.24,0,0,0,.1.58,0.643,0.643,0,0,0,.211.25,0.71,0.71,0,0,0,.283.11,2.418,2.418,0,0,0,.82-0.01c0.15-.04.3-0.07,0.45-0.1a1.5,1.5,0,0,0,.885-0.4,2.509,2.509,0,0,0,.52-0.82,5,5,0,0,0,.277-1.08c0.058-.41.124-0.79,0.195-1.15a32.236,32.236,0,0,1,1.5-5.04,20.579,20.579,0,0,1,2.792-4.92c0-.01.041-0.08,0.09-0.21a1.4,1.4,0,0,0,.048-0.45,0.962,0.962,0,0,0-.363-0.02,0.509,0.509,0,0,1-.72-0.4,1.79,1.79,0,0,1,.1-0.49c0.06-.19.171-0.53,0.336-1.02q0.105-.315.368-1.05t0.581-1.56q0.313-.81.593-1.56t0.38-1.05a25.063,25.063,0,0,1,.959-2.39,16.4,16.4,0,0,1,1.214-2.19c0.178-.29.312-0.51,0.393-0.65A3.8,3.8,0,0,1,904.62,3812.9Zm10.472,0.88a5.571,5.571,0,0,0,.666-1.12,3.78,3.78,0,0,0,.287-1.56,5.783,5.783,0,0,0-.133-1.14,1.719,1.719,0,0,0-.428-0.88,4.508,4.508,0,0,0-1.181-.84,4.963,4.963,0,0,0-1.994-.31,2.959,2.959,0,0,0-1.246.46A4.551,4.551,0,0,0,909.5,3810a6.441,6.441,0,0,0-.53,1.02,9.787,9.787,0,0,0-.388,1.14,8.3,8.3,0,0,0-.218,1.07,6.385,6.385,0,0,0-.068.83c0,0.12.018,0.43,0.1,1.23,0.069,0.66.156,1.41,0.26,2.24s0.227,1.68.366,2.53,0.266,1.58.383,2.15c0.1,0.46.149,0.74,0.162,0.85s0.019,0.22.019,0.3a0.625,0.625,0,0,1-.7.63,0.976,0.976,0,0,1-.44-0.1,2.645,2.645,0,0,1-.493-0.37,5.357,5.357,0,0,1-.737-0.82,9.863,9.863,0,0,1-.562-0.89l-0.49-.87a8.023,8.023,0,0,0-.534-0.82,0.735,0.735,0,0,0-.347-0.27,2.57,2.57,0,0,0-.7-0.07,0.75,0.75,0,0,0-.629.31,1.118,1.118,0,0,0-.277.62s0.013,0.03.04,0.09c0.044,0.1.089,0.19,0.133,0.28a14.294,14.294,0,0,0,2.051,2.63,8.51,8.51,0,0,0,2.869,1.87,2.194,2.194,0,0,0,.745.11,1.617,1.617,0,0,0,1.008-.31,9.475,9.475,0,0,0,.974-0.84,0.518,0.518,0,0,0,.178-0.38,12.128,12.128,0,0,0-.119-1.42c-0.081-.62-0.187-1.3-0.313-2.04s-0.257-1.5-.385-2.28c-0.133-.81-0.23-1.51-0.3-2.16a5.04,5.04,0,0,1-.071-0.51l-0.07-.7c-0.023-.24-0.047-0.46-0.069-0.66s-0.037-.35-0.037-0.4c0-.22.006-0.41,0.019-0.56a3.615,3.615,0,0,1,.057-0.42,5.157,5.157,0,0,1,.449-1.32,11.341,11.341,0,0,1,.684-1.21,8.976,8.976,0,0,1,.657-0.88,0.937,0.937,0,0,1,.654-0.46,1.125,1.125,0,0,1,.625.22,1.517,1.517,0,0,1,.417.45,1.928,1.928,0,0,1,.211.54,2.392,2.392,0,0,1,.081.57,2.422,2.422,0,0,1-.206.99,6.448,6.448,0,0,1-.444.8,0.759,0.759,0,0,0-.051.11,0.99,0.99,0,0,0,.394.82,1.159,1.159,0,0,0,.464.26,1.7,1.7,0,0,0,.554.12A0.954,0.954,0,0,0,915.092,3813.78Zm13.093,1.37a5.984,5.984,0,0,0-1.4-.18c-0.489,0-.738-0.16-0.738-0.46a0.758,0.758,0,0,1,.337-0.55c0.4-.33.764-0.61,1.082-0.85a8.918,8.918,0,0,0,.754-0.61,2.025,2.025,0,0,0,.4-0.5,1.172,1.172,0,0,0,.117-0.55,1.855,1.855,0,0,0-.119-0.62,0.95,0.95,0,0,0-.309-0.39,3.693,3.693,0,0,1-.518-0.42,1.946,1.946,0,0,0-.971-0.47,8.227,8.227,0,0,0-4.571.14c-0.951.28-1.88,0.53-2.759,0.74a0.582,0.582,0,0,0-.429.7,2.615,2.615,0,0,0,.156.73,1.379,1.379,0,0,0,.392.54,1.065,1.065,0,0,0,.312.23,0.163,0.163,0,0,0,.068-0.01,5.483,5.483,0,0,1,1.462-1.18,4.847,4.847,0,0,1,1.975-.62,3.022,3.022,0,0,0,.927-0.18,1.85,1.85,0,0,1,1.317-.11,0.553,0.553,0,0,1,.454.53,1.7,1.7,0,0,1-.564,1.07,4.561,4.561,0,0,1-1.263.98,4.1,4.1,0,0,0-1.014.79c-0.342.37-.7,0.72-1.065,1.06a6.856,6.856,0,0,1-1.255.92,3.447,3.447,0,0,1-1.7.41,4.027,4.027,0,0,1-1.578-.27,2.6,2.6,0,0,0-1.024-.21,0.665,0.665,0,0,0-.428.14,0.283,0.283,0,0,0-.138.16,1.052,1.052,0,0,0,.064.38,4.8,4.8,0,0,0,.311.6,0.694,0.694,0,0,0,.321.34,4.1,4.1,0,0,0,.583.23,1.206,1.206,0,0,1,.539.24,0.528,0.528,0,0,1,.165.41,0.913,0.913,0,0,1-.232.53,5.029,5.029,0,0,1-.476.52c-0.368.39-.737,0.79-1.1,1.19a5.385,5.385,0,0,0-.847,1.26,0.709,0.709,0,0,0-.054.28c-0.011.18-.017,0.33-0.017,0.44a3.118,3.118,0,0,0,.192,1.06,1.507,1.507,0,0,0,.7.79,5.746,5.746,0,0,0,1.645.62,8.2,8.2,0,0,0,3.749.04,18.822,18.822,0,0,0,1.866-.51c0.611-.21,1.216-0.43,1.816-0.68s1.187-.48,1.744-0.71c0.057-.02.1-0.04,0.125-0.05a0.477,0.477,0,0,0-.113-0.37,1.916,1.916,0,0,0-.682-0.43,2.253,2.253,0,0,0-1.557.07c-0.328.14-.649,0.29-0.966,0.46a10.27,10.27,0,0,1-1.027.48,3.067,3.067,0,0,1-1.2.24,3.117,3.117,0,0,0-1.071.19,2.782,2.782,0,0,1-2.4-.08,1.933,1.933,0,0,1-.485-0.32,0.71,0.71,0,0,1-.209-0.53,1.876,1.876,0,0,1,.122-0.54,1.4,1.4,0,0,1,.424-0.67c0.2-.17.434-0.4,0.707-0.68s0.557-.6.843-0.93,0.594-.68.9-1c0.309-.34.607-0.63,0.894-0.9a3.757,3.757,0,0,1,.647-0.48,5.821,5.821,0,0,1,.994-0.36c0.512-.16,1.072-0.31,1.657-0.43s1.136-.21,1.677-0.3,1.044-.14,1.5-0.19a11.206,11.206,0,0,1,1.172-.07,0.627,0.627,0,0,0,.325-0.05,0.327,0.327,0,0,0,.111-0.16,1.287,1.287,0,0,0-.184-0.26A2.041,2.041,0,0,0,928.185,3815.15Zm16.18-3.81a2.52,2.52,0,0,0-.031-0.35,0.754,0.754,0,0,0-.106-0.28,0.631,0.631,0,0,0-.228-0.19,1.146,1.146,0,0,0-.5-0.08,1.481,1.481,0,0,1-.8-0.18,0.557,0.557,0,0,0-.28-0.06,0.756,0.756,0,0,0-.252.26,2.426,2.426,0,0,0-.322.54,19.444,19.444,0,0,1-1.287,2.83,16.966,16.966,0,0,1-1.232,1.89,14.3,14.3,0,0,1-1.114,1.29c-0.333.33-.635,0.65-0.909,0.97a8.171,8.171,0,0,1-.777.86,6.269,6.269,0,0,0-.516.54,11.383,11.383,0,0,1-1.687,1.64,8.18,8.18,0,0,1-1.187.74,2.134,2.134,0,0,1-.927.25c-0.528,0-.528-0.69-0.528-0.91a3.341,3.341,0,0,1,.057-0.62c0.037-.2.079-0.39,0.128-0.58s0.085-.36.118-0.53a5.475,5.475,0,0,1,.17-0.62q0.345-1.035.589-1.89,0.246-.885.511-1.71t0.581-1.68c0.211-.58.473-1.2,0.78-1.86a1.542,1.542,0,0,1,.249-0.38c0.035-.04.082-0.09,0.132-0.15s0.125-.16.214-0.28a5.022,5.022,0,0,0,.324-0.53,2.428,2.428,0,0,0,.246-0.61,3.2,3.2,0,0,0,.061-0.69,0.282,0.282,0,0,0-.158-0.26,0.745,0.745,0,0,0-.4-0.15,2.544,2.544,0,0,1-.664-0.1,1.352,1.352,0,0,0-.315-0.08,2.634,2.634,0,0,0-.439.2,0.983,0.983,0,0,0-.449.57c-0.345,1.13-.732,2.22-1.143,3.25-0.407,1-.8,2.01-1.169,3a25.5,25.5,0,0,0-.913,3.02,14.565,14.565,0,0,0-.358,3.3,2.586,2.586,0,0,0,.021.45,0.822,0.822,0,0,0,.112.17,3.687,3.687,0,0,0,3.044,1.26,2.727,2.727,0,0,0,.4-0.2c0.282-.16.614-0.37,0.983-0.62q0.572-.405,1.177-0.87a9.412,9.412,0,0,0,1.031-.89,1.192,1.192,0,0,1,.739-0.48,0.455,0.455,0,0,1,.46.49,1.115,1.115,0,0,1-.024.19c-0.013.06-.037,0.17-0.074,0.32s-0.1.39-.2,0.68c-0.092.27-.207,0.64-0.345,1.1l-0.72,2.22c-0.244.76-.464,1.46-0.661,2.12s-0.36,1.22-.487,1.7a9.03,9.03,0,0,0-.219.92l-0.048.13c-0.594.98-1.148,1.99-1.644,3.02s-0.947,1.99-1.34,2.89a7.368,7.368,0,0,0-.705,2.62,1.236,1.236,0,0,0,.1.58,0.635,0.635,0,0,0,.211.25,0.705,0.705,0,0,0,.282.11,2.424,2.424,0,0,0,.821-0.01c0.15-.04.3-0.07,0.45-0.1a1.5,1.5,0,0,0,.884-0.4,2.492,2.492,0,0,0,.52-0.82,4.885,4.885,0,0,0,.277-1.08c0.059-.41.125-0.79,0.2-1.15a32.236,32.236,0,0,1,1.5-5.04,20.545,20.545,0,0,1,2.792-4.92,2.264,2.264,0,0,0,.089-0.21,1.351,1.351,0,0,0,.049-0.45,0.967,0.967,0,0,0-.364-0.02,0.509,0.509,0,0,1-.72-0.4,1.8,1.8,0,0,1,.1-0.49q0.088-.285.335-1.02,0.106-.315.369-1.05t0.581-1.56c0.209-.54.405-1.06,0.593-1.56s0.311-.85.38-1.05a25.063,25.063,0,0,1,.959-2.39,16.51,16.51,0,0,1,1.213-2.19c0.179-.29.313-0.51,0.394-0.65a3.933,3.933,0,0,1,.289-0.42c0.166-.25.344-0.53,0.516-0.82A1.383,1.383,0,0,0,944.365,3811.34Zm13.246,0.11a1.676,1.676,0,0,1-.8-0.25,0.915,0.915,0,0,0-.615-0.08s-0.025.02-.073,0.07a2.04,2.04,0,0,0-.231.37c-0.1.19-.238,0.45-0.4,0.77a4.678,4.678,0,0,1-.993,1.37q-0.646.645-1.638,1.68c-0.654.69-1.443,1.57-2.346,2.64-0.9,1.05-1.949,2.42-3.128,4.08a1.113,1.113,0,0,1-.883.6,0.446,0.446,0,0,1-.439-0.42,1.85,1.85,0,0,1-.021-0.28,1.909,1.909,0,0,1,.08-0.41c0.048-.2.106-0.43,0.178-0.7s0.148-.54.232-0.81,0.166-.49.24-0.66c0.576-1.43,1.08-2.59,1.49-3.46,0.4-.85.743-1.52,1.006-2a12.339,12.339,0,0,1,1.421-2.19c0.454-.53.739-0.86,0.855-1a3.252,3.252,0,0,0,.569-0.87,1.705,1.705,0,0,0,.118-0.54,0.78,0.78,0,0,0-.034-0.23,2.251,2.251,0,0,0-.1-0.24,1.186,1.186,0,0,0-1.082-.33,1.425,1.425,0,0,0-.986.26,1.316,1.316,0,0,0-.212.21,3.775,3.775,0,0,1-.29.49c-0.391.57-.74,1.12-1.037,1.63s-0.578,1.03-.831,1.52-0.5,1-.748,1.52-0.5,1.08-.753,1.68c-0.141.34-.307,0.74-0.5,1.18s-0.369.88-.546,1.32-0.324.85-.452,1.23a4.571,4.571,0,0,0-.214.9,2.88,2.88,0,0,1-.123.57c-0.046.14-.092,0.28-0.138,0.43a3.884,3.884,0,0,0-.115.45,3.115,3.115,0,0,0-.047.61,2.117,2.117,0,0,0,.06.49,0.9,0.9,0,0,0,.116.31,3.79,3.79,0,0,0,.469.42,6.875,6.875,0,0,0,.723.5c0.265,0.16.506,0.29,0.723,0.41a0.958,0.958,0,0,0,.351.13,4.126,4.126,0,0,0,.607-0.06,0.714,0.714,0,0,0,.418-0.2,2.191,2.191,0,0,1,.406-0.38c0.1-.06.2-0.14,0.307-0.22a2.465,2.465,0,0,0,.318-0.32c0.124-.15.275-0.34,0.456-0.59,0.422-.61.89-1.24,1.388-1.87s1.111-1.44,1.833-2.39a0.61,0.61,0,0,1,.491-0.28,0.461,0.461,0,0,1,.459.5,3.213,3.213,0,0,1-.17.73,8.811,8.811,0,0,0-.144,2.02,3.231,3.231,0,0,0,.525,1.95,2.139,2.139,0,0,0,.563.59,4.728,4.728,0,0,1,.753.58,1.575,1.575,0,0,0,.781.29,5.034,5.034,0,0,0,.8.1,0.423,0.423,0,0,0,.4-0.16,0.9,0.9,0,0,0,.155-0.32,0.3,0.3,0,0,0-.067-0.22,3.1,3.1,0,0,0-.329-0.31c-0.107-.08-0.318-0.23-0.629-0.43a1.459,1.459,0,0,1-.719-1.05c-0.039-.14-0.1-0.35-0.165-0.59a3.559,3.559,0,0,1-.118-0.95c0-.17.01-0.41,0.036-0.71s0.052-.6.089-0.9c0.036-.32.084-0.62,0.145-0.91s0.112-.52.16-0.7a16.045,16.045,0,0,1,.968-2.55c0.376-.77.888-1.68,1.521-2.71a1.954,1.954,0,0,0,.212-0.44,1.567,1.567,0,0,0,.085-0.29,0.7,0.7,0,0,0-.145-0.4A0.321,0.321,0,0,0,957.611,3811.45Z" transform="translate(-630 -3799.91)"/>
</svg>
