<?xml version="1.0" encoding="utf-8"?>
<!-- Generator: Adobe Illustrator 22.0.1, SVG Export Plug-In . SVG Version: 6.00 Build 0)  -->
<svg version="1.1" id="Warstwa_1" xmlns="http://www.w3.org/2000/svg" width="150" xmlns:xlink="http://www.w3.org/1999/xlink" x="0px" y="0px"
	 viewBox="0 0 182 65" style="enable-background:new 0 0 182 65;" xml:space="preserve">
<style type="text/css">
	.st0{fill:#495A70;}
</style>
<g>
	<path id="_-" class="st0" d="M13.6,5c-0.5,1.2-0.8,1.8-1.1,1.8c-0.4,2.6-1,5.1-1.8,7.5C7.1,26.1,4.3,38.1,2.2,50.2
		c0,0.2,0.1,0.4,0.3,0.5c0,0,0.1,0,0.1,0h0.2c0.7,0,1.4-0.5,1.6-1.1c0-0.4,1.2-6.3,3.7-17.6l6.4-22.6c0-2.3,4.4-4.1,13.2-5.5H31
		c2.5,0,4.3,0.7,5.5,2c0,5.6-6.6,14-19.9,25.1c-6.2,4.7-9.4,7.7-9.4,8.9c0.3,1.5,1.3,2.8,2.7,3.4h1.8c0.5,0,0.7,0.1,0.7,0.2
		c3.5,0.5,5.2,1.4,5.2,2.5c-1.2,2.1-2.7,4.1-4.3,5.9C5.3,59.2,1.3,62.9,1.3,63.2c0,0.5,0.2,0.7,0.5,0.7h0.2C2.7,63.7,3.4,63.4,4,63
		c11.1-8.6,16.7-14.4,16.7-17.4c-0.3-1.1-1.3-2.1-3-3c-5.2-1.2-7.8-2.1-7.8-2.5v-0.3c0-0.2,1.5-1.7,4.6-4.3
		c2.1-1.1,6.5-5.1,13.4-12.1c7.2-7,10.8-12.4,10.8-16V6.3c-1.2-3.5-4.1-5.2-8.9-5.2C26.3,1.1,20.9,2.4,13.6,5L13.6,5L13.6,5z
		 M33.4,32.9h-0.2V32c0-0.9-1.3-1.4-3.8-1.6h-0.8c-1.6,0.8-2.7,2.4-2.6,4.3l1.6,1.4h0.4c0.7,0,1.6-0.6,2.8-1.8H31
		c0.6,0.6,1.4,1.1,2.2,1.2h1.2C34,33.7,33.7,32.9,33.4,32.9L33.4,32.9z M35.9,33.1h-0.2v-0.5c-0.4-0.1-0.8-0.1-1.2-0.1h-0.5
		c-0.3,0.2-0.5,0.4-0.6,0.8c0,0.5,0.1,0.9,0.2,1.4l-0.2,0.8c0.3,1.2,0.7,1.8,1.1,1.8c0.9,0,2.3-1.1,4.2-3.3c1-0.6,1.9-1.2,2.7-2
		v-0.5c-0.2-0.4-0.6-0.7-1.1-0.8C39.9,30.8,38.4,31.5,35.9,33.1L35.9,33.1L35.9,33.1z M47.5,17.3c-1.3,3.4-3.2,7.9-5.9,13.4
		c0.1,1.1-0.5,2.1-1.5,2.6c0,0.3,0.1,0.5,0.3,0.8c-0.6,1.8-1,3.6-1.4,5.4v0.5c0.4,0.1,0.6,0.2,0.6,0.5H40c0.6,0,1.2-1.9,2-5.6
		c2.4-0.6,3.6-1,3.6-1.2v-0.3c-0.3-0.5-0.8-0.8-1.4-0.8l-1.1,0.2l-0.3-0.2c0.4-1.4,1-2.8,1.8-4.1c2.9-6.3,4.4-9.9,4.5-10.6
		c-0.2-0.4-0.6-0.7-1.1-0.6L47.5,17.3L47.5,17.3z M45.8,36.6c0.8,0,1.5-0.7,2.2-2c0.6-0.7,1-1.4,1.4-2.2h0.3c0,0.1-0.1,0.3-0.2,0.4
		c0.4,2.9,1.3,4.3,2.6,4.3H53c0.2-0.4,0.2-0.8,0.2-1.2c0-0.3-0.2-0.6-0.5-0.6c0,0-0.1,0-0.1,0c-0.2,0-0.4,0-0.6,0.1
		c-0.4-0.6-0.6-1.3-0.7-2.1v-0.3l0.1-0.9c-0.1,0-0.1-0.1-0.1-0.2c0.1-0.2,0.1-0.4,0.1-0.7c0.6-3.2,1.2-5.1,2-5.7
		c0.1-0.8-0.5-1.5-1.3-1.6c-0.1,0-0.3,0-0.4,0c-0.3,0.2-0.6,0.6-0.6,1c-2.1,4.8-3.9,8-5.4,9.6h-0.3L45.8,36.6z M53.4,38.6
		c1.2-0.7,1.8-1.2,1.8-1.5c0.4,0.4,1,0.6,1.5,0.8c1.7-0.8,2.6-1.9,2.6-3.3l1.1,0.6l0.8-2c-1.2-0.1-2.3-0.7-3.2-1.5
		c-0.6,0-1.1,0.3-1.4,0.8c-1.2,0.2-1.8,0.4-1.8,0.6l0.2,0.3c-0.2,0.1-0.3,0.4-0.3,0.6l0.2,0.3C54.1,35.6,53.6,37.1,53.4,38.6
		L53.4,38.6L53.4,38.6z M61.9,32.8c-1.4,0.8-2.1,1.5-2.1,2c0.1,0.5,0.4,1,0.9,1.2h0.6c0.6-0.8,1.3-1.4,2.1-2h0.2
		c0,1.5,0.6,2.3,1.8,2.3c0.7-0.6,1.5-1.1,2.4-1.4c0.4,0.3,0.8,0.6,1.2,0.8c0.4-0.1,0.8-0.5,0.8-0.9c0.1-1-0.6-2-1.7-2.1
		c-0.9,0.3-1.8,0.7-2.6,1.2h-0.2l0.3-2.9c0-0.3-0.3-0.6-0.6-0.6c-0.1,0-0.1,0-0.2,0C64.5,30.3,63.5,31.2,61.9,32.8L61.9,32.8
		L61.9,32.8z M69.5,29.6c0.3,0.8,0.5,1.2,0.8,1.2h0.2c0.5,0,0.9-0.3,1.1-0.8c0-0.6-0.4-1.1-0.9-1.2C70,28.8,69.6,29.1,69.5,29.6
		L69.5,29.6L69.5,29.6z M69.8,32.5c-0.6,0-1,1-1.2,3v0.3c-0.1,0.4,0.1,0.7,0.5,0.9h0.5c0.7-0.9,1.2-1.9,1.5-3
		c-0.1-0.5-0.4-1-0.9-1.2L69.8,32.5L69.8,32.5z M70.7,35.3c0.5,1.5,2,2.5,3.6,2.4h0.6c3.6-0.7,6.1-1.6,7.4-2.7v-0.6
		c-0.2,0-0.3-0.1-0.5-0.2c-2.4,0.8-4.9,1.4-7.4,1.8h-1.1c-0.3-0.2-0.5-0.4-0.8-0.6c0.1-0.4,0.4-0.7,0.8-0.8c0.4,0,0.7,0.1,1.1,0.2
		c3.5-0.6,5.3-1.5,5.3-2.6c-0.4-0.8-1.2-1.3-2.1-1.2H77C72.8,32.5,70.7,33.9,70.7,35.3L70.7,35.3L70.7,35.3z M81.8,29.6
		c0.3,0.8,0.5,1.2,0.8,1.2h0.2c0.5,0,0.9-0.3,1.1-0.8c0-0.6-0.4-1.1-0.9-1.2C82.4,28.8,82,29.1,81.8,29.6L81.8,29.6z M82.1,32.5
		c-0.6,0-1.8,9.9-3.4,29.7v0.3c-0.1,0.4,0.1,0.7,0.5,0.9h0.5c0.3-0.2,1.5-10.1,3.7-29.7c-0.1-0.5-0.4-1-0.9-1.2L82.1,32.5L82.1,32.5
		z M107.8,18c-2.8,5.5-6.2,14.1-10,25.8c-2.6,7.1-3.9,11.1-3.9,12.2c0,0.6,0.3,1.2,0.9,1.4h0.2c0.7-0.1,1.4-0.4,1.9-0.9
		c8.7-7.7,15.5-11.5,20.6-11.5c0.5,0,1,0,1.5,0.1h1.4l0.7-0.5c-0.1-1-0.8-1.4-2-1.4h-0.7c-1,0-2,0.2-3,0.4c-2.8,0.6-5.4,1.5-7.8,2.9
		c-2,1.1-3.9,2.4-5.7,3.8c-1.9,1.3-3.7,2.8-5.4,4.3h-0.2c0.1-0.6,0.3-1.2,0.5-1.8c4.4-14.3,8-24.3,10.9-29.9
		c4.3-9.3,6.8-14.2,7.4-14.8V7.8c0-0.4-0.6-0.6-1.8-0.9h-0.2C111.6,10.8,109.8,14.5,107.8,18L107.8,18L107.8,18z M119.4,32.9h-0.2
		V32c0-0.9-1.3-1.4-3.8-1.6h-0.8c-1.6,0.8-2.7,2.4-2.6,4.3l1.6,1.4h0.4c0.7,0,1.6-0.6,2.8-1.8h0.2c0.6,0.6,1.4,1.1,2.2,1.2h1.2
		C119.9,33.7,119.6,32.9,119.4,32.9L119.4,32.9L119.4,32.9z M119.5,31.6c-0.4,0-0.9,0.2-1.1,0.6v0.3c0.2,0.6,0.6,1.1,1.2,1.4
		c0.4-0.2,0.9-0.3,1.4-0.3h0.2v0.3c-0.2,0.3-0.4,0.5-0.6,0.8v0.3c0,1.2,0.5,1.8,1.4,1.8c1,0,3-0.2,6-0.5h0.6l1.1,0.1
		c1.2-0.2,1.8-0.7,1.8-1.4c-0.6-0.3-1.3-0.4-2-0.5h-0.9l-0.3-0.2v0.2c-0.9,0-2.5,0.1-4.8,0.2v-0.3c0.8-0.4,1.4-1.2,1.5-2.1v-0.3
		c-0.2-0.3-0.6-0.6-1.1-0.6C121.7,31.6,120.2,31.6,119.5,31.6L119.5,31.6L119.5,31.6z M137.1,32.9h-0.2V32c0-0.9-1.3-1.4-3.8-1.6
		h-0.8c-1.6,0.8-2.7,2.4-2.6,4.3l1.6,1.4h0.4c0.7,0,1.6-0.6,2.8-1.8h0.2c0.6,0.6,1.4,1.1,2.2,1.2h1.2
		C137.7,33.7,137.3,32.9,137.1,32.9L137.1,32.9z M139.6,33.1h-0.2v-0.5c-0.4-0.1-0.8-0.1-1.2-0.1h-0.5c-0.3,0.2-0.5,0.4-0.6,0.8
		c0,0.5,0.1,0.9,0.2,1.4l-0.2,0.8c0.3,1.2,0.7,1.8,1.1,1.8c0.9,0,2.3-1.1,4.2-3.3c1-0.6,1.9-1.2,2.7-2v-0.5
		c-0.2-0.4-0.6-0.7-1.1-0.8C143.6,30.8,142,31.5,139.6,33.1L139.6,33.1L139.6,33.1z M144.3,38.6c1.2-0.7,1.8-1.2,1.8-1.5
		c0.4,0.4,1,0.6,1.5,0.8c1.7-0.8,2.6-1.9,2.6-3.3l1.1,0.6l0.8-2c-1.2-0.1-2.3-0.7-3.2-1.5c-0.6,0-1.1,0.3-1.4,0.8
		c-1.2,0.2-1.8,0.4-1.8,0.6l0.2,0.3c-0.2,0.1-0.3,0.4-0.3,0.6l0.2,0.3C144.9,35.6,144.5,37.1,144.3,38.6L144.3,38.6L144.3,38.6z
		 M151.6,34.3c-0.1,1.1,0.3,2.1,1.2,2.7h0.3c0.6,0,1.2-0.2,1.7-0.6c0.2,0.5,0.7,0.9,1.2,1.1l1.1-0.3c2.7-2.1,4.1-3.3,4.1-3.8
		l-0.3-1.1h-0.2c-0.6,0-1.8,0.8-3.6,2.3c0-0.1,0-0.1-0.1-0.2c0,0,0,0,0,0c0-0.2,0-0.4,0.2-0.6c-0.1-0.7-0.7-1.2-1.4-1.2h-0.2
		c-0.9,1-1.5,1.5-1.8,1.5h-0.2c0.2-0.7,0.4-1.4,0.8-2.1c-0.2-0.4-0.5-0.7-0.9-0.9h-1.1C152.1,31.1,151.8,32.2,151.6,34.3L151.6,34.3
		L151.6,34.3z M160.5,29.6c0.3,0.8,0.5,1.2,0.8,1.2h0.2c0.5,0,0.9-0.3,1.1-0.8c0-0.6-0.4-1.1-0.9-1.2
		C161.1,28.8,160.6,29.1,160.5,29.6L160.5,29.6L160.5,29.6z M160.8,32.5c-0.6,0-1,1-1.2,3v0.3c-0.1,0.4,0.1,0.7,0.5,0.9h0.5
		c0.7-0.9,1.2-1.9,1.5-3c-0.1-0.5-0.4-1-0.9-1.2L160.8,32.5L160.8,32.5z M165.5,32.1c-1.8,1.1-2.7,2-2.7,2.7V35c1,1.3,1.9,2,2.9,2
		c3.1-0.3,4.7-0.9,4.7-1.7c0-0.2-0.1-0.3-0.3-0.3c0,0,0,0,0,0h-0.5c-2.4,0.3-3.8,0.5-4.1,0.5c-0.3,0-0.5-0.1-0.8-0.3
		c0-0.6,0.7-1.4,2.1-2.4c2.1-0.7,3.2-1.2,3.2-1.5c-0.1-0.3-0.2-0.6-0.5-0.8C168.1,30.5,166.6,31.1,165.5,32.1L165.5,32.1L165.5,32.1
		z M168.9,31.6c-0.4,0-0.9,0.2-1.1,0.6v0.3c0.2,0.6,0.6,1.1,1.2,1.4c0.4-0.2,0.9-0.3,1.4-0.3h0.2v0.3c-0.2,0.3-0.4,0.5-0.6,0.8v0.3
		c0,1.2,0.5,1.8,1.4,1.8c1,0,3-0.2,6-0.5h0.6l1.1,0.1c1.2-0.2,1.8-0.7,1.8-1.4c-0.6-0.3-1.3-0.4-2-0.5H178l-0.3-0.2v0.2
		c-0.9,0-2.5,0.1-4.8,0.2v-0.3c0.8-0.4,1.4-1.2,1.5-2.1v-0.3c-0.2-0.3-0.6-0.6-1.1-0.6C171.1,31.6,169.6,31.6,168.9,31.6L168.9,31.6
		L168.9,31.6z M51.9,29.5c-2.1,0.8-4,1.9-5.7,3.4l0,0.4c0.2,0.3,0.4,0.6,0.8,0.7c1.5-1.4,3.3-2.5,5.2-3.3c0.2-0.1,0.5-0.1,0.7-0.1
		l1.3,0c0.1-0.2,0.1-0.5,0.1-0.7c-0.2-0.4-0.6-0.6-1.1-0.5C52.9,29.3,52.4,29.4,51.9,29.5L51.9,29.5L51.9,29.5z"/>
</g>
</svg>
