<svg xmlns="http://www.w3.org/2000/svg" width="111" height="27.969" viewBox="0 0 111 27.969">
  <metadata><?xpacket begin="﻿" id="W5M0MpCehiHzreSzNTczkc9d"?>
<x:xmpmeta xmlns:x="adobe:ns:meta/" x:xmptk="Adobe XMP Core 5.6-c138 79.159824, 2016/09/14-01:09:01        ">
   <rdf:RDF xmlns:rdf="http://www.w3.org/1999/02/22-rdf-syntax-ns#">
      <rdf:Description rdf:about=""/>
   </rdf:RDF>
</x:xmpmeta>
                                                                                                    
                                                                                                    
                                                                                                    
                                                                                                    
                                                                                                    
                                                                                                    
                                                                                                    
                                                                                                    
                                                                                                    
                                                                                                    
                                                                                                    
                                                                                                    
                                                                                                    
                                                                                                    
                                                                                                    
                                                                                                    
                                                                                                    
                                                                                                    
                                                                                                    
                                                                                                    
                           
<?xpacket end="w"?></metadata>
<defs>
    <style>
      .cls-1 {
        fill: #C3C7D2;
        fill-rule: evenodd;
      }
    </style>
  </defs>
  <path id="business" class="cls-1" d="M868.873,325.573a0.479,0.479,0,0,0-.106-0.057A0.479,0.479,0,0,1,868.873,325.573Zm0.383-.156,0.034,0.019-0.034-.019c-0.548-.347-1.14-0.147-1.175.377h0C868.117,325.271,868.709,325.071,869.256,325.417Zm-0.127.384a1.687,1.687,0,0,0-.254-0.227A1.687,1.687,0,0,1,869.129,325.8Zm0.3,18.985c0,0.016.006,0.031,0.009,0.046a0.165,0.165,0,0,0,.014-0.026A0.083,0.083,0,0,0,869.428,344.786Zm0.738-19.174a0.023,0.023,0,0,1-.007-0.007,0.07,0.07,0,0,1-.006.009Zm-3.418,2.087a1.906,1.906,0,0,1,.16-0.12,13.688,13.688,0,0,1,3.117-1.354c0.484-.151.5-0.274,0.142-0.611-0.335.561-.617,0.615-1.027,0.2l-0.01-.009a0,0,0,0,1,0,0,1.687,1.687,0,0,0-.254-0.227s0,0,0,0a0.479,0.479,0,0,0-.106-0.057,0.78,0.78,0,0,0-.685.278h0c0.035-.524.627-0.724,1.175-0.377l0.034,0.019a1.087,1.087,0,0,0,.865.166,1.656,1.656,0,0,0-1.212-.578,1.018,1.018,0,0,0-1.381.783,3.107,3.107,0,0,1-.991,1.578,0.4,0.4,0,0,0-.156.238,0.652,0.652,0,0,1,.072.228C866.578,327.8,866.666,327.746,866.748,327.7Zm12.022,0.126a2.206,2.206,0,0,1,.3-0.111,0.782,0.782,0,0,1,.246,0,5.772,5.772,0,0,1,2.863,1.28c0.12,0.111.259,0.285,0.412,0.149,0.131-.117-0.02-0.286-0.111-0.4a10.719,10.719,0,0,0-4.671-3.247,8.4,8.4,0,0,0-5.978.338c-1.182.435-2.339,0.934-3.5,1.424l-3.109,1.395c-0.225.107-.45,0.214-0.669,0.332a1.442,1.442,0,0,0-1.026,1.253,0.8,0.8,0,0,1-.605.905,10.548,10.548,0,0,1-1.027.415,7.342,7.342,0,0,0-2.432,1.549,1.154,1.154,0,0,0-.446.77,0.849,0.849,0,0,0,.05.579c0.216,0.167.31-.164,0.477-0.25,0.2-.1.392-0.221,0.582-0.341,0.146-.092.339-0.195,0.444-0.047,0.126,0.176-.1.268-0.222,0.359s-0.282.171-.408,0.273c-0.281.231-.706,0.35-0.5,0.9a1.647,1.647,0,0,0,1.154,1.282,1.862,1.862,0,0,1,.928.4,2.708,2.708,0,0,0,2,.667,1.284,1.284,0,0,0,.279-0.092,0.725,0.725,0,0,0-.12-0.26,2.361,2.361,0,0,1-.589-0.772,1.657,1.657,0,0,1,.17-1.656,1.182,1.182,0,0,1,1.424-.185,5.6,5.6,0,0,1,2.6,1.924,1.212,1.212,0,0,1-.934,2.026,8.758,8.758,0,0,1-.986.007c-0.174,0-.4-0.161-0.509.027a0.485,0.485,0,0,0,.206.471,1.411,1.411,0,0,0,.249.269c0.238,0.2.691,0.369,0.056,0.645a0.141,0.141,0,0,0-.022.25c0.439,0.366.757,0.93,1.507,0.751a0.752,0.752,0,0,1,.97.692,1.457,1.457,0,0,1-.442,1.217,3.909,3.909,0,0,1-1.7.963,13.982,13.982,0,0,0-3.447,1.7,4.1,4.1,0,0,0-1.412,1.985,0.811,0.811,0,0,0,.264-0.049,1.071,1.071,0,0,0,.2-0.219,3.671,3.671,0,0,1,2.553-1.519c1.062-.146,2.132-0.223,3.19-0.417a16.932,16.932,0,0,1,2.392-.6l0.006-.01c0-.006.008-0.011,0.011-0.017s0-.03-0.009-0.046a0.083,0.083,0,0,1,.023.02,0.165,0.165,0,0,1-.014.026c0,0.008,0,.017,0,0.026H869.42a1.171,1.171,0,0,1-.2.279,20.72,20.72,0,0,0-3.969,4.04c-0.086.116-.265,0.218-0.114,0.425,0.66-.35,1.125-0.951,1.835-1.247,1.716-.715,1.7-0.745,2.014-0.632A16.118,16.118,0,0,0,864.217,353c0.548-.394,1.006-0.878,1.567-1.247,1.7-1.122,3.577-1.942,5.355-2.933a46.2,46.2,0,0,0,5.854-3.633,8.538,8.538,0,0,0,2.759-3.114,0.667,0.667,0,0,1,.489-0.443,1.78,1.78,0,0,1-.308,1.083,10.062,10.062,0,0,1-3.465,3.8,4.871,4.871,0,0,1-1.422.887,0.364,0.364,0,0,0-.3.4c0.069,0.174.256,0.063,0.416,0,0.688-.259,1.36-0.562,2.038-0.84a14.2,14.2,0,0,0,6.748-5.442,7.309,7.309,0,0,0,.9-6.657c-0.227-.677-0.541-1.317-0.856-2.1,1.212,0.523,1.556,1.68,2.409,2.343A13.842,13.842,0,0,0,878.77,327.825Zm-13.757,3.531c0.6-.78,1.6-0.908,2.421-1.352A3.076,3.076,0,0,1,865.013,331.356Zm10.909,0.4a0.725,0.725,0,0,1,.638-0.161c0.113-.017.259,0.035,0.276-0.149,0.015-.154-0.076-0.182-0.213-0.225-0.9-.282-1.732-0.752-2.659-0.981-0.335-.084-0.271-0.3-0.036-0.477a4.907,4.907,0,0,1,1.364-.748,6.653,6.653,0,0,0-2.922.058,2.047,2.047,0,0,1,1.385-.6,6.539,6.539,0,0,1,3.924.751,0.192,0.192,0,0,1,.146.233,0.294,0.294,0,0,1-.286.189c-0.37.018-.741,0.031-1.11,0.062a0.294,0.294,0,0,0-.295.259c0,0.126.162,0.147,0.289,0.176a7.465,7.465,0,0,1,3.781,2.6,0.243,0.243,0,0,1,.088.32c-0.1.129-.231,0.016-0.327-0.037a1.973,1.973,0,0,0-1.112-.427c3.238,2.742,3.263,6.053,1.953,9.613C881.944,337.478,880.031,334.12,875.922,331.752Zm8.242,6.257a7.831,7.831,0,0,1-1.426,3.819q-0.572.852-1.162,1.691a1.5,1.5,0,0,1-.5.447c3.418-5.782,1.721-10.287-3.478-14.015a3.122,3.122,0,0,1,1.551.081c0.125,0.037.293,0.162,0.379-.019,0.077-.162-0.09-0.261-0.212-0.322a16.757,16.757,0,0,0-3.075-1.529c-0.456-.123-0.539-0.511-0.156-0.746a2.322,2.322,0,0,1,1.259-.578c0.17,0,.449.081,0.474-0.15s-0.267-.274-0.454-0.31a8.65,8.65,0,0,0-3.374-.076,2.418,2.418,0,0,1-.364,0c1.283-.987,4.537-0.472,6.336.925a0.646,0.646,0,0,1-.575.038,3.759,3.759,0,0,0-1.942.19,0.272,0.272,0,0,0-.248.233,0.258,0.258,0,0,0,.232.24,23.373,23.373,0,0,1,4.414,2.6,7.376,7.376,0,0,1,.851.683c0.1,0.088.262,0.231,0.117,0.4s-0.244.01-.357-0.066c-0.367-.245-0.759-0.459-1.1-0.734a1.03,1.03,0,0,0-.734-0.21,0.4,0.4,0,0,0,.257.447A7.991,7.991,0,0,1,884.164,338.009Zm-14-12.408h-0.006l0,0A0.005,0.005,0,0,0,870.161,325.6Zm-1.286-.027s0,0,0,0S868.875,325.573,868.875,325.574Zm0.254,0.227a0,0,0,0,0,0,0l0.01,0.009-0.011-.01h0Zm-1.047-.008h0a0.78,0.78,0,0,1,.685-0.278A0.782,0.782,0,0,0,868.082,325.793Zm1.208-.357a1.1,1.1,0,0,0,.863.178,0.07,0.07,0,0,0,.006-0.009l0,0A1.087,1.087,0,0,1,869.29,325.436Zm100.7,23.071a0.66,0.66,0,0,0-.139-0.009,0.826,0.826,0,0,1-.106.376,0.357,0.357,0,0,1-.3.108h-0.8v-1.209l0.758,0.019h0.139v-0.226h-0.139l-0.758.033v-1.172h0.74a0.351,0.351,0,0,1,.3.108,0.785,0.785,0,0,1,.1.372,0.475,0.475,0,0,0,.129-0.01,3.319,3.319,0,0,0,.023-0.364c0-.108,0-0.195,0-0.261H968a0.465,0.465,0,0,0-.014.132,0.781,0.781,0,0,1,.319.07v2.311a0.18,0.18,0,0,1-.063.157,0.554,0.554,0,0,1-.228.068,0.269,0.269,0,0,0-.014.137h2c0-.076,0-0.166,0-0.271S970,348.648,969.986,348.507Zm-75.539-1.882a0.178,0.178,0,0,1,.065-0.156,0.492,0.492,0,0,1,.222-0.065,0.449,0.449,0,0,0,.013-0.132h-0.938a0.465,0.465,0,0,0-.014.132,1,1,0,0,1,.319.075v2.306a0.185,0.185,0,0,1-.062.158,0.576,0.576,0,0,1-.229.068,0.288,0.288,0,0,0-.014.136h0.934a0.551,0.551,0,0,0,.014-0.1v-0.039a0.861,0.861,0,0,1-.31-0.071v-2.315Zm70.073-.217a0.7,0.7,0,0,1,.259.08l-0.629,2.146h-0.01a1.393,1.393,0,0,0-.06-0.283l-0.67-1.934H963.3l-0.823,2.2h-0.013a1.988,1.988,0,0,0-.069-0.31l-0.486-1.666a0.387,0.387,0,0,1-.013-0.1,0.1,0.1,0,0,1,.039-0.08,0.514,0.514,0,0,1,.238-0.054,0.374,0.374,0,0,0-.023-0.137h-0.916v0.045a0.73,0.73,0,0,0,.01.092,0.847,0.847,0,0,1,.254.061l0.809,2.706h0.115l0.841-2.193,0.762,2.193h0.121l0.762-2.508a0.378,0.378,0,0,1,.1-0.184,0.5,0.5,0,0,1,.2-0.075,0.555,0.555,0,0,0,.014-0.137h-0.67A0.659,0.659,0,0,0,964.52,346.408Zm-74.3,1.238a0.719,0.719,0,0,0,.319-0.242,0.638,0.638,0,0,0,.12-0.389,0.679,0.679,0,0,0-.238-0.533,1.133,1.133,0,0,0-.76-0.21h-1.017a0.472,0.472,0,0,0-.013.132,0.908,0.908,0,0,1,.314.065v2.316a0.178,0.178,0,0,1-.065.157,0.564,0.564,0,0,1-.226.068,0.43,0.43,0,0,0-.014.137h1.141a1.113,1.113,0,0,0,.754-0.224,0.708,0.708,0,0,0,.254-0.553,0.75,0.75,0,0,0-.151-0.461A0.686,0.686,0,0,0,890.219,347.646Zm-0.947-1.219h0.388a0.644,0.644,0,0,1,.483.16,0.589,0.589,0,0,1,.155.428,0.562,0.562,0,0,1-.421.579l-0.6,0v-1.162Zm0.991,2.386a0.646,0.646,0,0,1-.492.169h-0.5v-1.228h0.5a0.638,0.638,0,0,1,.492.172,0.63,0.63,0,0,1,.159.445A0.619,0.619,0,0,1,890.263,348.813Zm9.151-2.541a0.315,0.315,0,0,0-.019.132,1.168,1.168,0,0,1,.314.07v1.732a0.852,0.852,0,0,1-.185.6,0.649,0.649,0,0,1-.5.2,0.674,0.674,0,0,1-.509-0.2,0.841,0.841,0,0,1-.189-0.6v-1.581a0.181,0.181,0,0,1,.065-0.156,0.5,0.5,0,0,1,.227-0.065,0.659,0.659,0,0,0,.009-0.132h-0.933a0.209,0.209,0,0,0-.018.08,0.243,0.243,0,0,0,0,.052,1,1,0,0,1,.319.075v1.694a1,1,0,0,0,.28.779,1.23,1.23,0,0,0,1.492,0,1,1,0,0,0,.28-0.779v-1.548a0.183,0.183,0,0,1,.062-0.158,0.543,0.543,0,0,1,.229-0.063,0.27,0.27,0,0,0,.014-0.081,0.227,0.227,0,0,0,0-.051h-0.935Zm20.473,2.48-0.374-.725a0.6,0.6,0,0,0-.227-0.264,0.705,0.705,0,0,0,.569-0.762,0.67,0.67,0,0,0-.234-0.52,0.993,0.993,0,0,0-.681-0.21h-1.091a0.472,0.472,0,0,0-.013.132,0.8,0.8,0,0,1,.318.075v2.307a0.179,0.179,0,0,1-.062.157,0.56,0.56,0,0,1-.229.068,0.292,0.292,0,0,0-.014.137h1a0.518,0.518,0,0,0,.009-0.137,1.2,1.2,0,0,1-.374-0.094v-1.111h0.3a0.388,0.388,0,0,1,.229.054,0.542,0.542,0,0,1,.136.181l0.55,1.106h0.536a0.722,0.722,0,0,0,.014-0.136,0.36,0.36,0,0,1-.211-0.054A0.571,0.571,0,0,1,919.887,348.752Zm-1.026-1.111h-0.374v-1.209h0.374A0.6,0.6,0,1,1,918.861,347.641Zm27.722-1.237a1.127,1.127,0,0,1,.351.07v2.052l-0.369-.565-1.188-1.69h-0.633a0.505,0.505,0,0,0-.014.132,0.85,0.85,0,0,1,.315.066v2.292a0.286,0.286,0,0,1-.319.249,0.23,0.23,0,0,0-.014.078,0.469,0.469,0,0,0,0,.059h0.869a0.441,0.441,0,0,0,.014-0.137,0.954,0.954,0,0,1-.346-0.07v-2.311l0.23,0.358,1.511,2.16h0.148v-2.49a0.283,0.283,0,0,1,.319-0.253,0.41,0.41,0,0,0,.014-0.132H946.6A0.3,0.3,0,0,0,946.583,346.4Zm10.517-.194a1.123,1.123,0,0,0-.92.422,1.664,1.664,0,0,0-.342,1.085,1.636,1.636,0,0,0,.342,1.077,1.134,1.134,0,0,0,.922.415,1.146,1.146,0,0,0,.927-0.417,1.852,1.852,0,0,0,0-2.16A1.143,1.143,0,0,0,957.1,346.21Zm0.669,2.476a0.72,0.72,0,0,1-.64.334,0.788,0.788,0,0,1-.66-0.315,1.661,1.661,0,0,1-.252-0.988v-0.09a1.611,1.611,0,0,1,.221-0.882,0.709,0.709,0,0,1,.633-0.346,0.793,0.793,0,0,1,.666.339,1.746,1.746,0,0,1,.254,1.045A1.613,1.613,0,0,1,957.769,348.686Zm-32.6.061-0.814-2.537a0.863,0.863,0,0,0-.3.043l-0.822,2.5a0.379,0.379,0,0,1-.116.172,0.486,0.486,0,0,1-.231.087,0.586,0.586,0,0,0-.018.136h0.85a0.687,0.687,0,0,0,.018-0.136,0.94,0.94,0,0,1-.346-0.076l0.245-.758h1.007l0.236,0.73a0.9,0.9,0,0,1-.324.1,0.448,0.448,0,0,0-.018.136h0.989a0.786,0.786,0,0,0,.023-0.136,0.525,0.525,0,0,1-.25-0.068A0.343,0.343,0,0,1,925.173,348.747Zm-1.484-.739,0.4-1.242,0.046-.2,0.463,1.445h-0.907Zm6.073,0.946a0.921,0.921,0,0,1-.715-0.332,1.331,1.331,0,0,1-.293-0.915,1.4,1.4,0,0,1,.293-0.932,0.966,0.966,0,0,1,.778-0.348,0.571,0.571,0,0,1,.393.136,0.494,0.494,0,0,1,.157.377,0.563,0.563,0,0,0,.1,0,3.2,3.2,0,0,0,.074-0.593,1.649,1.649,0,0,0-.721-0.141,1.39,1.39,0,0,0-1.03.428,1.5,1.5,0,0,0-.421,1.1,1.479,1.479,0,0,0,.384,1.068,1.277,1.277,0,0,0,1.853,0l-0.079-.084A1.386,1.386,0,0,1,929.762,348.954Zm11.092-2.682a0.337,0.337,0,0,0-.018.132,1.16,1.16,0,0,1,.313.07v1.732a0.857,0.857,0,0,1-.184.6,0.65,0.65,0,0,1-.5.2,0.67,0.67,0,0,1-.508-0.2,0.841,0.841,0,0,1-.19-0.6v-1.581a0.179,0.179,0,0,1,.066-0.156,0.5,0.5,0,0,1,.226-0.065,0.639,0.639,0,0,0,.01-0.132h-0.934a0.205,0.205,0,0,0-.014.132,1,1,0,0,1,.319.075v1.694a1,1,0,0,0,.279.779,1.232,1.232,0,0,0,1.493,0,1,1,0,0,0,.28-0.779v-1.548a0.18,0.18,0,0,1,.062-0.158,0.543,0.543,0,0,1,.229-0.063,0.306,0.306,0,0,0,.014-0.081,0.217,0.217,0,0,0,0-.051h-0.934Zm-35.545,2.48-0.374-.725a0.594,0.594,0,0,0-.226-0.264,0.7,0.7,0,0,0,.568-0.762,0.669,0.669,0,0,0-.233-0.52,0.994,0.994,0,0,0-.682-0.21h-1.09a0.465,0.465,0,0,0-.014.132,0.8,0.8,0,0,1,.319.075v2.307a0.182,0.182,0,0,1-.062.157,0.56,0.56,0,0,1-.229.068,0.28,0.28,0,0,0-.014.137h1a0.518,0.518,0,0,0,.009-0.137,1.189,1.189,0,0,1-.374-0.094v-1.111h0.3a0.381,0.381,0,0,1,.228.054,0.53,0.53,0,0,1,.137.181l0.55,1.106h0.535a0.651,0.651,0,0,0,.015-0.136,0.36,0.36,0,0,1-.211-0.054A0.583,0.583,0,0,1,905.309,348.752Zm-1.025-1.111H903.91v-1.209h0.374A0.6,0.6,0,1,1,904.284,347.641Zm48.005,1.1-0.707-1a0.384,0.384,0,0,0-.245-0.174l0.943-.979a0.6,0.6,0,0,1,.448-0.183,0.435,0.435,0,0,0,.014-0.132h-0.915a0.211,0.211,0,0,0-.019.132,0.69,0.69,0,0,1,.3.075l-1.118,1.186v-1.04a0.181,0.181,0,0,1,.065-0.156,0.492,0.492,0,0,1,.222-0.065,0.441,0.441,0,0,0,.014-0.132h-0.938a0.43,0.43,0,0,0-.014.132,1,1,0,0,1,.319.075v2.306a0.183,0.183,0,0,1-.063.158,0.57,0.57,0,0,1-.228.068,0.276,0.276,0,0,0-.014.136h0.933a0.435,0.435,0,0,0,.014-0.136,0.866,0.866,0,0,1-.31-0.071v-1.011l0.13-.137a0.211,0.211,0,0,1,.143.094l0.91,1.261h0.555a0.4,0.4,0,0,0,.023-0.141,0.609,0.609,0,0,1-.256-0.061A0.694,0.694,0,0,1,952.289,348.737Zm-16.4-2.112h0a0.18,0.18,0,0,1,.063-0.158,0.532,0.532,0,0,1,.228-0.063,0.357,0.357,0,0,0,.01-0.132h-0.934a0.337,0.337,0,0,0-.018.132,1.177,1.177,0,0,1,.314.07v1.143H934.2v-0.992a0.18,0.18,0,0,1,.064-0.156,0.492,0.492,0,0,1,.222-0.065,0.449,0.449,0,0,0,.013-0.132h-0.937a0.43,0.43,0,0,0-.014.132,1,1,0,0,1,.319.075v2.306a0.183,0.183,0,0,1-.063.158,0.57,0.57,0,0,1-.228.068,0.265,0.265,0,0,0-.014.136h0.933a0.467,0.467,0,0,0,.014-0.136,0.856,0.856,0,0,1-.309-0.071V347.8h1.358v0.988a0.183,0.183,0,0,1-.063.158,0.571,0.571,0,0,1-.229.068,0.679,0.679,0,0,0-.009.136H936.2l0-.136a0.837,0.837,0,0,1-.31-0.071v-2.315Zm-26.063-.415a1.122,1.122,0,0,0-.919.422,1.658,1.658,0,0,0-.342,1.085,1.63,1.63,0,0,0,.342,1.077,1.233,1.233,0,0,0,1.847,0,1.85,1.85,0,0,0,0-2.16A1.141,1.141,0,0,0,909.828,346.21Zm0.67,2.476a0.721,0.721,0,0,1-.64.334,0.79,0.79,0,0,1-.661-0.315,1.668,1.668,0,0,1-.252-0.988v-0.09a1.6,1.6,0,0,1,.223-0.882,0.706,0.706,0,0,1,.632-0.346,0.794,0.794,0,0,1,.666.339,1.746,1.746,0,0,1,.254,1.045A1.613,1.613,0,0,1,910.5,348.686Zm7.849-16.755a1.037,1.037,0,0,0,.778-0.338,1.137,1.137,0,0,0,.321-0.813,1.1,1.1,0,0,0-.321-0.8,1.052,1.052,0,0,0-.778-0.327,1.069,1.069,0,0,0-.787.337,1.138,1.138,0,0,0,0,1.605A1.066,1.066,0,0,0,918.347,331.931Zm28.21,9.055a2.115,2.115,0,0,0-.508-1.4,3.774,3.774,0,0,0-1.244-.959q-0.736-.358-1.472-0.676a4.423,4.423,0,0,1-1.243-.781,1.472,1.472,0,0,1-.508-1.13,1.421,1.421,0,0,1,.529-1.119,2.01,2.01,0,0,1,1.357-.454q1.886,0,1.886,1.584c0,0.127-.007.261-0.021,0.4a2.616,2.616,0,0,0,.477.063,9.337,9.337,0,0,0,.124-1.414q0-.612-0.021-0.971a7.525,7.525,0,0,0-2.518-.423,3.686,3.686,0,0,0-2.249.687,2.344,2.344,0,0,0-.933,2.016,2.278,2.278,0,0,0,.5,1.467,3.708,3.708,0,0,0,1.213.992q0.714,0.369,1.44.707a5.011,5.011,0,0,1,1.223.781,1.416,1.416,0,0,1,.5,1.1,1.348,1.348,0,0,1-.6,1.108,2.635,2.635,0,0,1-1.627.455,2.874,2.874,0,0,1-1.678-.455,1.636,1.636,0,0,1-.653-1.446V340.86a3.46,3.46,0,0,0-.477-0.042,9.116,9.116,0,0,0-.124,1.424c0,0.43.013,0.807,0.042,1.13a9.212,9.212,0,0,0,2.9.443,4.453,4.453,0,0,0,2.622-.749A2.4,2.4,0,0,0,946.557,340.986Zm-27.443-7.156a15.024,15.024,0,0,0-2.86.782,3.009,3.009,0,0,0-.084.591c0.263-.014.515-0.022,0.757-0.022s0.474,0.008.694,0.022V341.9a0.839,0.839,0,0,1-.3.738,2.41,2.41,0,0,1-1.068.3,1.658,1.658,0,0,0-.041.634h4.249a2.692,2.692,0,0,0,.062-0.634,4.32,4.32,0,0,1-1.409-.317V333.83Zm-21.566,4.181a3.1,3.1,0,0,0-1.875-1.183,3.237,3.237,0,0,0,1.43-1.087,2.846,2.846,0,0,0,.539-1.741,3.051,3.051,0,0,0-1.068-2.4,5.1,5.1,0,0,0-3.41-.939h-4.559a2.031,2.031,0,0,0-.063.591,4.056,4.056,0,0,1,1.41.3v10.386a0.8,0.8,0,0,1-.291.708,2.526,2.526,0,0,1-1.015.306,2.046,2.046,0,0,0-.062.612H893.7a4.979,4.979,0,0,0,3.379-1,3.174,3.174,0,0,0,1.14-2.481A3.385,3.385,0,0,0,897.548,338.011Zm-6.125-6.65h1.741a2.9,2.9,0,0,1,2.166.717,2.647,2.647,0,0,1,.695,1.921,2.521,2.521,0,0,1-1.886,2.6l-2.716-.021v-5.214Zm4.446,10.7a2.9,2.9,0,0,1-2.207.76h-2.239v-5.51h2.239a2.875,2.875,0,0,1,2.207.77,2.817,2.817,0,0,1,.716,2A2.781,2.781,0,0,1,895.869,342.064Zm40.014,0.632a2.732,2.732,0,0,1-2.332-1.067,4.978,4.978,0,0,1-.8-3.029,3.9,3.9,0,0,1,.021-0.486h6.217v0a3.748,3.748,0,0,0,.228-0.38,4.141,4.141,0,0,0-1-2.988,3.477,3.477,0,0,0-2.622-1.045,4.276,4.276,0,0,0-3.026,1.383,5.15,5.15,0,0,0-1.409,3.853,5.791,5.791,0,0,0,.383,2.164,4.161,4.161,0,0,0,1.026,1.551,4.071,4.071,0,0,0,2.819,1.161,4.719,4.719,0,0,0,3.71-1.752l-0.186-.381A5.334,5.334,0,0,1,935.883,342.7Zm-2.032-7.43a2.379,2.379,0,0,1,1.648-.718,2,2,0,0,1,1.5.655,2.922,2.922,0,0,1,.643,2.027l-2.384.021-2.4.169A3.637,3.637,0,0,1,933.851,335.266Zm18.354,3.357q-0.736-.358-1.472-0.676a4.414,4.414,0,0,1-1.244-.781,1.474,1.474,0,0,1-.507-1.13,1.42,1.42,0,0,1,.528-1.119,2.013,2.013,0,0,1,1.358-.454q1.885,0,1.886,1.584c0,0.127-.007.261-0.021,0.4a2.605,2.605,0,0,0,.477.063,9.337,9.337,0,0,0,.124-1.414q0-.612-0.02-0.971a7.54,7.54,0,0,0-2.519-.423,3.686,3.686,0,0,0-2.249.687,2.346,2.346,0,0,0-.933,2.016,2.278,2.278,0,0,0,.5,1.467,3.715,3.715,0,0,0,1.212.992q0.715,0.369,1.441.707a5.05,5.05,0,0,1,1.223.781,1.415,1.415,0,0,1,.5,1.1,1.347,1.347,0,0,1-.6,1.108,2.637,2.637,0,0,1-1.627.455,2.877,2.877,0,0,1-1.679-.455,1.636,1.636,0,0,1-.652-1.446V340.86a3.46,3.46,0,0,0-.477-0.042,9.126,9.126,0,0,0-.125,1.424q0,0.645.042,1.13a9.214,9.214,0,0,0,2.9.443,4.455,4.455,0,0,0,2.622-.749,2.4,2.4,0,0,0,1.067-2.08,2.111,2.111,0,0,0-.508-1.4A3.759,3.759,0,0,0,952.205,338.623Zm-22.6-1.773h0a3.239,3.239,0,0,0-.777-2.344,2.664,2.664,0,0,0-2-.8,3.411,3.411,0,0,0-3.212,2.2,17.815,17.815,0,0,0-.166-2.069,13.488,13.488,0,0,0-2.694.781,2.056,2.056,0,0,0-.084.549h0.519q0.332,0,.933.021V341.9a0.843,0.843,0,0,1-.3.739,2.421,2.421,0,0,1-1.068.295,1.641,1.641,0,0,0-.041.634h4.248a2.687,2.687,0,0,0,.062-0.634,4.353,4.353,0,0,1-1.409-.316v-5.574q0.893-2.194,2.7-2.195a1.666,1.666,0,0,1,1.326.548,2.346,2.346,0,0,1,.477,1.584V341.9a0.868,0.868,0,0,1-.279.738,2.206,2.206,0,0,1-1.027.3,3.383,3.383,0,0,0-.02.634h4.228a5.134,5.134,0,0,0,.041-0.634,5.166,5.166,0,0,1-1.45-.317V336.85Zm-20.976,5.868c0-.084-0.007-0.2-0.021-0.359-0.318,0-.767-0.014-1.347-0.042v-6.65a17.644,17.644,0,0,1,.082-1.858h-0.227a4.5,4.5,0,0,0-1.824.338,0.815,0.815,0,0,0-.1.317,1.516,1.516,0,0,1,.581,1.372V340.5a4.608,4.608,0,0,1-1.234,1.594,2.4,2.4,0,0,1-1.5.559,1.571,1.571,0,0,1-1.275-.591,2.482,2.482,0,0,1-.488-1.626V333.81a9.493,9.493,0,0,0-2.632.781,2.424,2.424,0,0,0-.083.57q0.353-.021.653-0.021t0.57,0.021v5.4a3.347,3.347,0,0,0,.808,2.407,2.646,2.646,0,0,0,1.99.844q1.928,0,3.193-2.3a14.784,14.784,0,0,0,.186,2.154,7.911,7.911,0,0,0,2.674-.761v-0.19Zm10.487-8.888h0Zm-4.943,4.793c-0.49-.239-0.982-0.465-1.472-0.676a4.428,4.428,0,0,1-1.244-.781,1.475,1.475,0,0,1-.508-1.13,1.421,1.421,0,0,1,.529-1.119,2.015,2.015,0,0,1,1.358-.454q1.886,0,1.886,1.584c0,0.127-.007.261-0.021,0.4a2.6,2.6,0,0,0,.478.063,9.455,9.455,0,0,0,.123-1.414q0-.612-0.02-0.971a7.54,7.54,0,0,0-2.519-.423,3.686,3.686,0,0,0-2.249.687,2.346,2.346,0,0,0-.932,2.016,2.282,2.282,0,0,0,.5,1.467,3.718,3.718,0,0,0,1.213.992q0.716,0.369,1.44.707a5.011,5.011,0,0,1,1.223.781,1.413,1.413,0,0,1,.5,1.1,1.348,1.348,0,0,1-.6,1.108,2.637,2.637,0,0,1-1.627.455,2.872,2.872,0,0,1-1.678-.455,1.634,1.634,0,0,1-.653-1.446V340.86a3.46,3.46,0,0,0-.477-0.042,9.116,9.116,0,0,0-.124,1.424q0,0.645.041,1.13a9.219,9.219,0,0,0,2.9.443,4.453,4.453,0,0,0,2.622-.749,2.4,2.4,0,0,0,1.068-2.08,2.115,2.115,0,0,0-.508-1.4A3.784,3.784,0,0,0,914.171,338.623Zm55.627-1.492a2.143,2.143,0,0,0-.062-0.451,1.04,1.04,0,0,1-.336-0.051c-0.05-.016-0.092-0.031-0.125-0.044a0.443,0.443,0,0,1-.112-0.07c-0.042-.034-0.075-0.059-0.1-0.076a0.564,0.564,0,0,1-.1-0.1l-0.149-.191c-0.067-.076-0.125-0.148-0.175-0.216l-1.3-1.638,1.272-1.474a1.349,1.349,0,0,1,1-.571,1.042,1.042,0,0,0,.124-0.445v-0.253h-2.394a2.134,2.134,0,0,0-.012.266,2.027,2.027,0,0,0,.062.432,3.559,3.559,0,0,1,.574.077l-1.123,1.346-1.1-1.372a3.283,3.283,0,0,1,.673-0.051,3.17,3.17,0,0,0-.05-0.7h-3.542v0.272a1.708,1.708,0,0,0,.063.426,0.973,0.973,0,0,1,.723.292,2.972,2.972,0,0,1,.237.292l1.4,1.754-1.272,1.536a2.339,2.339,0,0,1-.266.256l-0.021-.053c-0.266.051-.42,0.077-0.461,0.077-0.259,0-.387-0.208-0.387-0.622V333.53a2.253,2.253,0,0,0-.518-1.588,2.018,2.018,0,0,0-1.553-.558,3.768,3.768,0,0,0-2.631,1.016l0.4,0.6a4.441,4.441,0,0,1,1.434-.254,0.788,0.788,0,0,1,.948.826v0.38l-1.458.292q-1.746.356-1.747,1.677c0,0.059.01,0.112,0.015,0.168l-0.1-.13a1.4,1.4,0,0,1-.755.305,0.549,0.549,0,0,1-.436-0.14,0.775,0.775,0,0,1-.119-0.5l-0.012-3.163h1.347a3.489,3.489,0,0,0,.125-1.028,12.778,12.778,0,0,1-1.472.126v-1.867l-0.4-.114-1.546,2.02a4.31,4.31,0,0,0-.736.253,1.849,1.849,0,0,0-.037.356,2.764,2.764,0,0,0,.012.28,5.215,5.215,0,0,1,.773.05v3.125a1.928,1.928,0,0,0,.467,1.4,1.664,1.664,0,0,0,1.241.476,2.2,2.2,0,0,0,1.749-.981,1.532,1.532,0,0,0,.365.542,1.858,1.858,0,0,0,1.347.464,1.756,1.756,0,0,0,1.44-.737,1.091,1.091,0,0,0,.555.54,1.988,1.988,0,0,0,.88.2,1.483,1.483,0,0,0,.719-0.165h2.1a2.321,2.321,0,0,0,.013-0.286,1.91,1.91,0,0,0-.063-0.438,5.058,5.058,0,0,1-.6-0.064l1.159-1.41,1.135,1.436a3.715,3.715,0,0,1-.672.038,3.59,3.59,0,0,0,.049.724h3.529A2.437,2.437,0,0,0,969.8,337.131Zm-8.878-1.06h0a0.716,0.716,0,0,1-.556.3,0.547,0.547,0,0,1-.448-0.172,0.678,0.678,0,0,1-.144-0.451,0.976,0.976,0,0,1,.8-0.965l0.349-.115v1.4Z" transform="translate(-859 -325.031)"/>
</svg>
