<svg width="211" height="55" viewBox="0 0 211 55" fill="none" xmlns="http://www.w3.org/2000/svg">
<rect y="2" width="61" height="52" fill="#365EBC"/>
<path d="M19.744 48.96L6.208 11.328L2.992 10.656V9.6H16.336V10.656L11.968 11.328L22.288 39.744L29.296 21.408L25.696 11.328L21.28 10.656V9.6H35.536V10.656L31.408 11.232L41.824 39.696L52.144 12.816L46.72 10.656V9.6H57.04V10.656L53.392 12.768L39.664 48.96H39.28L29.92 23.088L20.128 48.96H19.744Z" fill="white"/>
<path d="M87.3135 28.5518H76.4404V40H71.7461V12.9844H88.9092V16.7695H76.4404V24.8037H87.3135V28.5518ZM96.999 40H92.4902V19.9238H96.999V40ZM92.2119 14.71C92.2119 14.0173 92.4284 13.4421 92.8613 12.9844C93.3066 12.5267 93.9375 12.2979 94.7539 12.2979C95.5703 12.2979 96.2012 12.5267 96.6465 12.9844C97.0918 13.4421 97.3145 14.0173 97.3145 14.71C97.3145 15.3903 97.0918 15.9593 96.6465 16.417C96.2012 16.8623 95.5703 17.085 94.7539 17.085C93.9375 17.085 93.3066 16.8623 92.8613 16.417C92.4284 15.9593 92.2119 15.3903 92.2119 14.71ZM112.437 24.043C111.843 23.944 111.23 23.8945 110.6 23.8945C108.534 23.8945 107.142 24.6862 106.425 26.2695V40H101.916V19.9238H106.221L106.332 22.1689C107.421 20.4248 108.93 19.5527 110.859 19.5527C111.503 19.5527 112.035 19.6393 112.455 19.8125L112.437 24.043ZM119.524 19.9238L119.654 22.0205C121.064 20.3753 122.994 19.5527 125.443 19.5527C128.128 19.5527 129.965 20.5794 130.954 22.6328C132.414 20.5794 134.467 19.5527 137.114 19.5527C139.328 19.5527 140.974 20.165 142.05 21.3896C143.138 22.6143 143.695 24.4202 143.72 26.8076V40H139.211V26.9375C139.211 25.6634 138.933 24.7295 138.376 24.1357C137.819 23.542 136.898 23.2451 135.611 23.2451C134.585 23.2451 133.743 23.5234 133.088 24.0801C132.445 24.6243 131.993 25.3418 131.733 26.2324L131.752 40H127.243V26.7891C127.181 24.4264 125.975 23.2451 123.625 23.2451C121.819 23.2451 120.539 23.9811 119.784 25.4531V40H115.275V19.9238H119.524ZM160.345 40C160.147 39.6165 159.974 38.9919 159.825 38.126C158.39 39.6227 156.634 40.3711 154.556 40.3711C152.539 40.3711 150.894 39.7959 149.62 38.6455C148.346 37.4951 147.709 36.0726 147.709 34.3779C147.709 32.238 148.501 30.599 150.084 29.4609C151.68 28.3105 153.956 27.7354 156.912 27.7354H159.677V26.418C159.677 25.3789 159.386 24.5501 158.805 23.9316C158.223 23.3008 157.339 22.9854 156.151 22.9854C155.125 22.9854 154.284 23.2451 153.628 23.7646C152.972 24.2718 152.645 24.9212 152.645 25.7129H148.136C148.136 24.612 148.501 23.5853 149.23 22.6328C149.96 21.668 150.95 20.9134 152.199 20.3691C153.461 19.8249 154.865 19.5527 156.411 19.5527C158.761 19.5527 160.635 20.1465 162.033 21.334C163.431 22.5091 164.148 24.1667 164.186 26.3066V35.3613C164.186 37.1673 164.439 38.6084 164.946 39.6846V40H160.345ZM155.391 36.7529C156.281 36.7529 157.116 36.5365 157.896 36.1035C158.687 35.6706 159.281 35.0892 159.677 34.3594V30.5742H157.246C155.576 30.5742 154.321 30.8649 153.479 31.4463C152.638 32.0277 152.218 32.8503 152.218 33.9141C152.218 34.7799 152.502 35.4727 153.071 35.9922C153.653 36.4993 154.426 36.7529 155.391 36.7529ZM171.719 35.25C172.56 35.25 173.209 35.4912 173.667 35.9736C174.125 36.4437 174.354 37.0374 174.354 37.7549C174.354 38.46 174.125 39.0475 173.667 39.5176C173.209 39.9753 172.56 40.2041 171.719 40.2041C170.915 40.2041 170.278 39.9753 169.808 39.5176C169.338 39.0599 169.103 38.4723 169.103 37.7549C169.103 37.0374 169.331 36.4437 169.789 35.9736C170.247 35.4912 170.89 35.25 171.719 35.25ZM197.102 30.166C197.102 33.2708 196.396 35.751 194.986 37.6064C193.576 39.4495 191.684 40.3711 189.309 40.3711C187.107 40.3711 185.344 39.6475 184.021 38.2002V47.7188H179.512V19.9238H183.668L183.854 21.9648C185.177 20.3568 186.977 19.5527 189.253 19.5527C191.702 19.5527 193.619 20.4681 195.005 22.2988C196.403 24.1172 197.102 26.6468 197.102 29.8877V30.166ZM192.611 29.7764C192.611 27.7725 192.209 26.1829 191.405 25.0078C190.614 23.8327 189.476 23.2451 187.991 23.2451C186.148 23.2451 184.825 24.0059 184.021 25.5273V34.4336C184.837 35.9922 186.173 36.7715 188.028 36.7715C189.463 36.7715 190.583 36.1963 191.387 35.0459C192.203 33.8831 192.611 32.1266 192.611 29.7764ZM205.729 40H201.221V11.5H205.729V40Z" fill="black"/>
<path d="M71.8252 54V44.7578H75.0625C76.1839 44.7578 77.0345 44.9736 77.6143 45.4053C78.194 45.8327 78.4839 46.4611 78.4839 47.2905C78.4839 47.7433 78.3675 48.1432 78.1348 48.4902C77.902 48.833 77.5783 49.0848 77.1636 49.2456C77.6375 49.3641 78.0099 49.6032 78.2808 49.9629C78.5558 50.3226 78.6934 50.7627 78.6934 51.2832C78.6934 52.1719 78.4098 52.8447 77.8428 53.3018C77.2757 53.7588 76.4674 53.9915 75.418 54H71.8252ZM73.7295 49.9756V52.4702H75.3608C75.8094 52.4702 76.1585 52.3644 76.4082 52.1528C76.6621 51.937 76.7891 51.6408 76.7891 51.2642C76.7891 50.4178 76.3511 49.9883 75.4751 49.9756H73.7295ZM73.7295 48.6299H75.1387C76.0993 48.613 76.5796 48.23 76.5796 47.481C76.5796 47.062 76.4569 46.7616 76.2114 46.5796C75.9702 46.3934 75.5872 46.3003 75.0625 46.3003H73.7295V48.6299ZM82.959 48.9219L84.8823 44.7578H86.9644L83.9302 50.6484V54H81.9941V50.6484L78.96 44.7578H81.0483L82.959 48.9219ZM93.5342 44.7578L95.9082 51.4609L98.2695 44.7578H100.771V54H98.8599V51.4736L99.0503 47.1128L96.5557 54H95.248L92.7598 47.1191L92.9502 51.4736V54H91.0459V44.7578H93.5342ZM110.025 49.5884C110.025 50.4982 109.865 51.2959 109.543 51.9814C109.221 52.667 108.76 53.196 108.159 53.5684C107.562 53.9408 106.877 54.127 106.103 54.127C105.337 54.127 104.653 53.9429 104.052 53.5747C103.451 53.2065 102.986 52.6818 102.656 52.0005C102.326 51.3149 102.159 50.5278 102.154 49.6392V49.1821C102.154 48.2723 102.317 47.4725 102.643 46.7827C102.973 46.0887 103.437 45.5576 104.033 45.1895C104.634 44.8171 105.32 44.6309 106.09 44.6309C106.86 44.6309 107.543 44.8171 108.14 45.1895C108.741 45.5576 109.204 46.0887 109.53 46.7827C109.86 47.4725 110.025 48.2702 110.025 49.1758V49.5884ZM108.096 49.1694C108.096 48.2004 107.922 47.464 107.575 46.9604C107.228 46.4569 106.733 46.2051 106.09 46.2051C105.451 46.2051 104.958 46.4548 104.611 46.9541C104.264 47.4492 104.088 48.1771 104.084 49.1377V49.5884C104.084 50.5321 104.257 51.2642 104.604 51.7847C104.951 52.3052 105.451 52.5654 106.103 52.5654C106.742 52.5654 107.232 52.3158 107.575 51.8164C107.918 51.3128 108.091 50.5807 108.096 49.6201V49.1694ZM115.135 44.7578H117.04V51.1562C117.04 51.7445 116.908 52.265 116.646 52.7178C116.388 53.1663 116.022 53.5133 115.548 53.7588C115.074 54.0042 114.539 54.127 113.942 54.127C112.964 54.127 112.203 53.8794 111.657 53.3843C111.111 52.8849 110.838 52.1803 110.838 51.2705H112.755C112.755 51.7233 112.85 52.0576 113.041 52.2734C113.231 52.4893 113.531 52.5972 113.942 52.5972C114.306 52.5972 114.596 52.4723 114.812 52.2227C115.027 51.973 115.135 51.6175 115.135 51.1562V44.7578ZM126.263 49.5884C126.263 50.4982 126.102 51.2959 125.78 51.9814C125.459 52.667 124.997 53.196 124.396 53.5684C123.8 53.9408 123.114 54.127 122.34 54.127C121.574 54.127 120.89 53.9429 120.29 53.5747C119.689 53.2065 119.223 52.6818 118.893 52.0005C118.563 51.3149 118.396 50.5278 118.392 49.6392V49.1821C118.392 48.2723 118.555 47.4725 118.88 46.7827C119.21 46.0887 119.674 45.5576 120.271 45.1895C120.871 44.8171 121.557 44.6309 122.327 44.6309C123.097 44.6309 123.781 44.8171 124.377 45.1895C124.978 45.5576 125.442 46.0887 125.768 46.7827C126.098 47.4725 126.263 48.2702 126.263 49.1758V49.5884ZM124.333 49.1694C124.333 48.2004 124.16 47.464 123.812 46.9604C123.465 46.4569 122.97 46.2051 122.327 46.2051C121.688 46.2051 121.195 46.4548 120.848 46.9541C120.501 47.4492 120.326 48.1771 120.321 49.1377V49.5884C120.321 50.5321 120.495 51.2642 120.842 51.7847C121.189 52.3052 121.688 52.5654 122.34 52.5654C122.979 52.5654 123.47 52.3158 123.812 51.8164C124.155 51.3128 124.329 50.5807 124.333 49.6201V49.1694Z" fill="#858585"/>
</svg>
