<?xml version="1.0" encoding="utf-8"?>
<!-- Generator: Adobe Illustrator 21.1.0, SVG Export Plug-In . SVG Version: 6.00 Build 0)  -->
<svg version="1.1" id="Warstwa_1" xmlns="http://www.w3.org/2000/svg" xmlns:xlink="http://www.w3.org/1999/xlink" x="0px" y="0px"
	 viewBox="0 0 148.6 39.7" enable-background="new 0 0 148.6 39.7" xml:space="preserve">
<g>
	<polygon fill="#C3C7D2" points="11.9,22.9 7.6,14.2 4.8,22.7 2.1,22.7 7.3,7.9 7.5,7.9 12,17.4 16.5,7.9 16.7,7.9 22,22.7
		19.2,22.7 16.4,14.2 12.1,22.9 	"/>
	<path fill="#C3C7D2" d="M33.3,17.4c0,2.3-1.2,5.4-5.2,5.4c-4,0-5.2-3.1-5.2-5.4c0-2.2,1.2-5.4,5.2-5.4C32.1,12,33.3,15.2,33.3,17.4
		 M30.8,17.4c0-0.8-0.4-3.3-2.8-3.3c-2.4,0-2.8,2.5-2.8,3.3c0,0.8,0.3,3.3,2.8,3.3C30.5,20.7,30.8,18.2,30.8,17.4"/>
	<path fill="#C3C7D2" d="M34.4,24.6c0.7,0,1.3-0.5,1.3-1.9V12.2h2.5v10.5c0,0.3,0.3,4.2-3.6,4.2c-1.4,0-2.5-0.7-3-1.1l1.1-1.8
		C33.3,24.4,33.9,24.6,34.4,24.6 M36.9,7.4c0.8,0,1.4,0.6,1.4,1.4c0,0.8-0.6,1.4-1.4,1.4c-0.8,0-1.4-0.6-1.4-1.4
		C35.5,8.1,36.1,7.4,36.9,7.4"/>
	<path fill="#C3C7D2" d="M49.7,21.3c-1.2,1-2.3,1.5-3.9,1.5c-4,0-5.2-3.1-5.2-5.4c0-2.2,1.2-5.4,5.2-5.4c2.8,0,4.3,1.8,4.3,4.5
		c0,0.4,0,1-0.1,1.6h-6.8c0.2,1,0.8,2.5,2.7,2.5c0.9,0,1.9-0.3,2.7-0.9L49.7,21.3z M43.3,16.2h4.5c0-0.9-0.4-1.9-1.9-2
		C44.2,14.2,43.5,15.1,43.3,16.2"/>
	<path fill="#C3C7D2" d="M61.8,15.3c1.2,0.5,1.8,2,1.8,3.1c0,1.8-1.2,4.3-5.2,4.3H53V8h5.5c4,0,5.2,2.5,5.2,4.3
		C63.6,13.4,63,14.8,61.8,15.3 M61,12.3c0-0.5-0.3-2-2.4-2h-3.2v4h3.3C60.7,14.2,61,12.8,61,12.3 M61,18.4c0-0.7-0.3-1.8-2.3-1.8
		h-3.3v3.8h3.2C60.7,20.4,61,18.9,61,18.4"/>
	<path fill="#C3C7D2" d="M67.3,7.4c0.8,0,1.4,0.6,1.4,1.4c0,0.8-0.6,1.4-1.4,1.4c-0.8,0-1.4-0.6-1.4-1.4C65.8,8.1,66.4,7.4,67.3,7.4
		 M68.5,22.7H66V12.2h2.5V22.7z"/>
	<path fill="#C3C7D2" d="M78.1,12.1h2.5v10.5h-1.6l-0.3-0.8c-0.8,0.6-1.9,1-2.9,1c-3.9,0-4.5-2.8-4.5-5.2v-5.4h2.5v5.4
		c0,1.3,0.2,3.1,2.1,3.1c1,0,1.9-0.6,2.2-1.1V12.1z"/>
	<path fill="#C3C7D2" d="M89.2,14.4c-0.5-0.1-0.8-0.1-1-0.1c-1,0-1.9,0.4-2.2,1.1v7.3h-2.5V12.2h1.6l0.3,0.8c0.8-0.7,1.9-1,2.9-1
		c0.3,0,0.5,0,1.2,0.1L89.2,14.4z"/>
	<path fill="#C3C7D2" d="M101.3,17.4c0,2.3-1.2,5.4-5.2,5.4c-4,0-5.2-3.1-5.2-5.4c0-2.2,1.2-5.4,5.2-5.4
		C100.1,12,101.3,15.2,101.3,17.4 M98.8,17.4c0-0.8-0.4-3.3-2.8-3.3c-2.4,0-2.8,2.5-2.8,3.3c0,0.8,0.3,3.3,2.8,3.3
		C98.5,20.7,98.8,18.2,98.8,17.4"/>
	<path fill="#C3C7D2" d="M75.3,28.3c0.9,0,1.5,0.4,1.5,1.1c0,0.5-0.3,0.8-0.7,0.9c0.5,0.1,0.9,0.5,0.9,1.1c0,0.7-0.6,1.2-1.6,1.2h-2
		v-4.2H75.3z M74.3,30h0.9c0.4,0,0.6-0.2,0.6-0.5c0-0.3-0.2-0.5-0.6-0.5h-0.9V30z M74.3,31.7h0.9c0.5,0,0.7-0.2,0.7-0.5
		c0-0.3-0.3-0.5-0.7-0.5h-0.9V31.7z"/>
	<polygon fill="#C3C7D2" points="79.6,32.5 78.7,32.5 78.7,31.2 77.1,28.3 78.1,28.3 79.1,30.2 80.2,28.3 81.2,28.3 79.6,31.1 	"/>
	<polygon fill="#C3C7D2" points="87,32.5 87,29.7 85.9,32.1 85.3,32.1 84.2,29.7 84.2,32.5 83.3,32.5 83.3,28.3 84.4,28.3
		85.6,30.9 86.8,28.3 87.9,28.3 87.9,32.5 	"/>
	<path fill="#C3C7D2" d="M93.2,30.4c0,1.2-1,2.1-2.3,2.1c-1.3,0-2.3-0.9-2.3-2.1c0-1.2,1-2.1,2.3-2.1C92.2,28.3,93.2,29.2,93.2,30.4
		 M89.6,30.4c0,0.7,0.6,1.3,1.3,1.3c0.7,0,1.3-0.6,1.3-1.3c0-0.7-0.6-1.3-1.3-1.3C90.2,29.1,89.6,29.7,89.6,30.4"/>
	<path fill="#C3C7D2" d="M96.1,31.2c0,0.9-0.5,1.4-1.4,1.4c-0.6,0-1-0.2-1.4-0.7l0.4-0.7c0.3,0.3,0.6,0.5,0.9,0.5
		c0.3,0,0.5-0.2,0.5-0.6v-2h-1.5v-0.8h2.4V31.2z"/>
	<path fill="#C3C7D2" d="M101.3,30.4c0,1.2-1,2.1-2.3,2.1c-1.3,0-2.3-0.9-2.3-2.1c0-1.2,1-2.1,2.3-2.1
		C100.3,28.3,101.3,29.2,101.3,30.4 M97.8,30.4c0,0.7,0.6,1.3,1.3,1.3c0.7,0,1.3-0.6,1.3-1.3c0-0.7-0.6-1.3-1.3-1.3
		C98.4,29.1,97.8,29.7,97.8,30.4"/>
	<path fill="#C3C7D2" d="M146.6,37.1h-34.5V2.6h34.5V37.1z M113.8,35.3h31v-31h-31V35.3z"/>
	<path fill="#C3C7D2" d="M121.3,16.3c1.3-1.4,2.6-2,3.8-2c1.9,0,3.4,1,3.4,3c0,0.6-0.2,1.3-0.6,2.1c-0.2,0.4-0.4,0.7-2.4,3.6h2.7
		v2.3h-6.9l0-0.1c4.3-6.3,4.4-6.5,4.5-6.7c0.3-0.5,0.3-0.8,0.3-1c0-0.4-0.2-0.9-1-0.9c-0.6,0-1.4,0.4-2.3,1.3L121.3,16.3z"/>
	<path fill="#C3C7D2" d="M135.9,25.3h-2.5v-2h-4.1v-1.4l4.7-7.4h1.9V21h1.3v2.3h-1.3V25.3z M132.3,21h1.2v-1.8L132.3,21z"/>
</g>
</svg>
