<?xml version="1.0" encoding="UTF-8"?>
<svg width="606px" height="148px" viewBox="0 0 606 148" version="1.1" xmlns="http://www.w3.org/2000/svg" xmlns:xlink="http://www.w3.org/1999/xlink">
    <!-- Generator: Sketch 47.1 (45422) - http://www.bohemiancoding.com/sketch -->
    <title>pasejo</title>
    <desc>Created with Sketch.</desc>
    <defs>
        <polygon id="path-1" points="0 34.4538336 0 0.523563631 33.9307527 0.523563631 33.9307527 34.4538336"></polygon>
        <polygon id="path-3" points="0 34.1580218 0 0.227751788 33.9307527 0.227751788 33.9307527 34.1580218 7.80778805e-16 34.1580218"></polygon>
    </defs>
    <g id="Page-1" stroke="none" stroke-width="1" fill="none" fill-rule="evenodd">
        <g id="Home" transform="translate(-599.000000, -2384.000000)">
            <g id="pasejo" transform="translate(599.000000, 2384.000000)">
                <g id="Page-1">
                    <path d="M147.923137,73.9692113 C147.923137,83.3383294 140.327925,90.9343463 130.958002,90.9343463 C121.58808,90.9343463 113.992867,83.3383294 113.992867,73.9692113 C113.992867,64.5992888 121.58808,57.0040764 130.958002,57.0040764 C140.327925,57.0040764 147.923137,64.5992888 147.923137,73.9692113" id="Fill-1" fill="#E4E8F2"></path>
                    <path d="M147.804475,70.2574445 C147.804475,79.6265626 140.208458,87.2225795 130.83934,87.2225795 C121.469417,87.2225795 113.8734,79.6265626 113.8734,70.2574445 C113.8734,60.8875219 121.469417,53.2923095 130.83934,53.2923095 C140.208458,53.2923095 147.804475,60.8875219 147.804475,70.2574445" id="Fill-3" fill="#E4E8F2"></path>
                    <path d="M147.452509,66.6089912 C147.452509,75.9789137 139.857297,83.5741261 130.487374,83.5741261 C121.117452,83.5741261 113.522239,75.9789137 113.522239,66.6089912 C113.522239,57.2398731 121.117452,49.6438562 130.487374,49.6438562 C139.857297,49.6438562 147.452509,57.2398731 147.452509,66.6089912" id="Fill-5" fill="#E3E7F1"></path>
                    <path d="M146.875045,63.0315745 C146.875045,72.4006926 139.279832,79.9967095 129.90991,79.9967095 C120.539987,79.9967095 112.944775,72.4006926 112.944775,63.0315745 C112.944775,53.6616519 120.539987,46.0664395 129.90991,46.0664395 C139.279832,46.0664395 146.875045,53.6616519 146.875045,63.0315745" id="Fill-7" fill="#E3E7F1"></path>
                    <path d="M146.079241,59.5319523 C146.079241,68.9010703 138.484028,76.4970873 129.114106,76.4970873 C119.744183,76.4970873 112.148971,68.9010703 112.148971,59.5319523 C112.148971,50.1620297 119.744183,42.5668173 129.114106,42.5668173 C138.484028,42.5668173 146.079241,50.1620297 146.079241,59.5319523" id="Fill-9" fill="#E3E7F1"></path>
                    <path d="M145.072821,56.1175258 C145.072821,65.4866439 137.476804,73.0826608 128.107686,73.0826608 C118.737763,73.0826608 111.141746,65.4866439 111.141746,56.1175258 C111.141746,46.7476032 118.737763,39.1523908 128.107686,39.1523908 C137.476804,39.1523908 145.072821,46.7476032 145.072821,56.1175258" id="Fill-11" fill="#E2E6F0"></path>
                    <path d="M143.861738,52.7955355 C143.861738,62.165458 136.266526,69.7606704 126.896603,69.7606704 C117.526681,69.7606704 109.931468,62.165458 109.931468,52.7955355 C109.931468,43.4264174 117.526681,35.8304005 126.896603,35.8304005 C136.266526,35.8304005 143.861738,43.4264174 143.861738,52.7955355" id="Fill-13" fill="#E2E6F0"></path>
                    <path d="M142.455083,49.573624 C142.455083,58.9435466 134.859066,66.538759 125.489948,66.538759 C116.120026,66.538759 108.524009,58.9435466 108.524009,49.573624 C108.524009,40.2045059 116.120026,32.608489 125.489948,32.608489 C134.859066,32.608489 142.455083,40.2045059 142.455083,49.573624" id="Fill-15" fill="#E2E6F0"></path>
                    <path d="M140.858649,46.4589513 C140.858649,55.8280694 133.263436,63.4240863 123.893514,63.4240863 C114.523591,63.4240863 106.928379,55.8280694 106.928379,46.4589513 C106.928379,37.0890288 114.523591,29.4938164 123.893514,29.4938164 C133.263436,29.4938164 140.858649,37.0890288 140.858649,46.4589513" id="Fill-17" fill="#E1E5EF"></path>
                    <path d="M139.080801,43.4585971 C139.080801,52.8277152 131.484784,60.4237321 122.115666,60.4237321 C112.745743,60.4237321 105.149726,52.8277152 105.149726,43.4585971 C105.149726,34.0886745 112.745743,26.4934621 122.115666,26.4934621 C131.484784,26.4934621 139.080801,34.0886745 139.080801,43.4585971" id="Fill-19" fill="#E1E5EF"></path>
                    <path d="M137.128057,40.5796407 C137.128057,49.9495633 129.532844,57.5447757 120.162922,57.5447757 C110.792999,57.5447757 103.196982,49.9495633 103.196982,40.5796407 C103.196982,31.2105226 110.792999,23.6145057 120.162922,23.6145057 C129.532844,23.6145057 137.128057,31.2105226 137.128057,40.5796407" id="Fill-21" fill="#E1E5EF"></path>
                    <path d="M135.008058,37.830288 C135.008058,47.1994061 127.412846,54.795423 118.042923,54.795423 C108.673001,54.795423 101.077788,47.1994061 101.077788,37.830288 C101.077788,28.4603655 108.673001,20.8651531 118.042923,20.8651531 C127.412846,20.8651531 135.008058,28.4603655 135.008058,37.830288" id="Fill-23" fill="#E0E4EF"></path>
                    <path d="M132.728127,35.2168946 C132.728127,44.5860127 125.132914,52.1820296 115.762992,52.1820296 C106.393069,52.1820296 98.7978569,44.5860127 98.7978569,35.2168946 C98.7978569,25.846972 106.393069,18.2517596 115.762992,18.2517596 C125.132914,18.2517596 132.728127,25.846972 132.728127,35.2168946" id="Fill-25" fill="#E0E4EE"></path>
                    <path d="M130.295422,32.7471835 C130.295422,42.1163016 122.70021,49.7123185 113.330287,49.7123185 C103.960365,49.7123185 96.3651525,42.1163016 96.3651525,32.7471835 C96.3651525,23.3772609 103.960365,15.7820485 113.330287,15.7820485 C122.70021,15.7820485 130.295422,23.3772609 130.295422,32.7471835" id="Fill-27" fill="#E0E4EE"></path>
                    <path d="M127.717346,30.4283951 C127.717346,39.7975132 120.122134,47.3935301 110.752211,47.3935301 C101.382289,47.3935301 93.7870763,39.7975132 93.7870763,30.4283951 C93.7870763,21.0584726 101.382289,13.4632602 110.752211,13.4632602 C120.122134,13.4632602 127.717346,21.0584726 127.717346,30.4283951" id="Fill-29" fill="#DFE3EE"></path>
                    <path d="M125.000978,28.2675287 C125.000978,37.6374512 117.405765,45.2326636 108.035843,45.2326636 C98.6659202,45.2326636 91.0707078,37.6374512 91.0707078,28.2675287 C91.0707078,18.8984106 98.6659202,11.3023937 108.035843,11.3023937 C117.405765,11.3023937 125.000978,18.8984106 125.000978,28.2675287" id="Fill-31" fill="#DFE3ED"></path>
                    <path d="M122.153799,26.2723876 C122.153799,35.6423102 114.558586,43.2375226 105.188664,43.2375226 C95.8187413,43.2375226 88.2235289,35.6423102 88.2235289,26.2723876 C88.2235289,16.9032695 95.8187413,9.30725261 105.188664,9.30725261 C114.558586,9.30725261 122.153799,16.9032695 122.153799,26.2723876" id="Fill-33" fill="#DFE3ED"></path>
                    <path d="M119.183372,24.4501319 C119.183372,33.81925 111.588159,41.4152669 102.218237,41.4152669 C92.8483141,41.4152669 85.2531017,33.81925 85.2531017,24.4501319 C85.2531017,15.0802094 92.8483141,7.48499696 102.218237,7.48499696 C111.588159,7.48499696 119.183372,15.0802094 119.183372,24.4501319" id="Fill-35" fill="#DEE2ED"></path>
                    <path d="M116.096534,22.8077608 C116.096534,32.1768789 108.500518,39.7728958 99.1313995,39.7728958 C89.7614769,39.7728958 82.16546,32.1768789 82.16546,22.8077608 C82.16546,13.4378382 89.7614769,5.8426258 99.1313995,5.8426258 C108.500518,5.8426258 116.096534,13.4378382 116.096534,22.8077608" id="Fill-37" fill="#DEE2EC"></path>
                    <path d="M112.900608,21.3527559 C112.900608,30.721874 105.305396,38.3178909 95.9354731,38.3178909 C86.5655505,38.3178909 78.9703381,30.721874 78.9703381,21.3527559 C78.9703381,11.9828333 86.5655505,4.38762091 95.9354731,4.38762091 C105.305396,4.38762091 112.900608,11.9828333 112.900608,21.3527559" id="Fill-39" fill="#DEE2EC"></path>
                    <path d="M109.602913,20.0921968 C109.602913,29.4621194 102.007701,37.0573318 92.6377785,37.0573318 C83.2678559,37.0573318 75.6726435,29.4621194 75.6726435,20.0921968 C75.6726435,10.7230787 83.2678559,3.12706182 92.6377785,3.12706182 C102.007701,3.12706182 109.602913,10.7230787 109.602913,20.0921968" id="Fill-41" fill="#DDE1EC"></path>
                    <path d="M106.211335,19.0338871 C106.211335,28.4030052 98.6153176,35.9990221 89.2461995,35.9990221 C79.876277,35.9990221 72.2802601,28.4030052 72.2802601,19.0338871 C72.2802601,9.66396453 79.876277,2.06875212 89.2461995,2.06875212 C98.6153176,2.06875212 106.211335,9.66396453 106.211335,19.0338871" id="Fill-43" fill="#DDE1EB"></path>
                    <path d="M102.732066,18.184665 C102.732066,27.553783 95.1368535,35.1497999 85.766931,35.1497999 C76.3970084,35.1497999 68.801796,27.553783 68.801796,18.184665 C68.801796,8.81554688 76.3970084,1.21952998 85.766931,1.21952998 C95.1368535,1.21952998 102.732066,8.81554688 102.732066,18.184665" id="Fill-45" fill="#DDE1EB"></path>
                    <path d="M99.1731526,17.5518513 C99.1731526,26.9217738 91.5779402,34.5169862 82.2080176,34.5169862 C72.8380951,34.5169862 65.2428827,26.9217738 65.2428827,17.5518513 C65.2428827,8.18273319 72.8380951,0.586716281 82.2080176,0.586716281 C91.5779402,0.586716281 99.1731526,8.18273319 99.1731526,17.5518513" id="Fill-47" fill="#DCE0EB"></path>
                    <path d="M95.5419154,17.1429278 C95.5419154,26.5128504 87.946703,34.1080628 78.5767805,34.1080628 C69.2068579,34.1080628 61.6116455,26.5128504 61.6116455,17.1429278 C61.6116455,7.77380972 69.2068579,0.177792813 78.5767805,0.177792813 C87.946703,0.177792813 95.5419154,7.77380972 95.5419154,17.1429278" id="Fill-49" fill="#DCE0EA"></path>
                    <path d="M91.8455144,16.9653763 C91.8455144,26.3344944 84.250302,33.9305113 74.8803794,33.9305113 C65.5104568,33.9305113 57.9152444,26.3344944 57.9152444,16.9653763 C57.9152444,7.59545376 65.5104568,0.000241347709 74.8803794,0.000241347709 C84.250302,0.000241347709 91.8455144,7.59545376 91.8455144,16.9653763" id="Fill-51" fill="#DCE0EA"></path>
                    <path d="M88.1224042,17.0246674 C88.1224042,26.39459 80.5271918,33.9898024 71.1572692,33.9898024 C61.7873466,33.9898024 54.1921342,26.39459 54.1921342,17.0246674 C54.1921342,7.65554934 61.7873466,0.059532435 71.1572692,0.059532435 C80.5271918,0.059532435 88.1224042,7.65554934 88.1224042,17.0246674" id="Fill-53" fill="#DCE0EA"></path>
                    <path d="M84.4577805,17.3188703 C84.4577805,26.6887928 76.8625681,34.2840053 67.4926456,34.2840053 C58.122723,34.2840053 50.5275106,26.6887928 50.5275106,17.3188703 C50.5275106,7.9497522 58.122723,0.353735293 67.4926456,0.353735293 C76.8625681,0.353735293 84.4577805,7.9497522 84.4577805,17.3188703" id="Fill-55" fill="#DBDFE9"></path>
                    <path d="M80.861941,17.8409054 C80.861941,27.2100234 73.2659241,34.8060403 63.896806,34.8060403 C54.5268835,34.8060403 46.9308666,27.2100234 46.9308666,17.8409054 C46.9308666,8.4709828 54.5268835,0.875770388 63.896806,0.875770388 C73.2659241,0.875770388 80.861941,8.4709828 80.861941,17.8409054" id="Fill-57" fill="#DBDFE9"></path>
                    <path d="M77.3418847,18.5825669 C77.3418847,27.9524894 69.7466723,35.5477019 60.3767497,35.5477019 C51.0068271,35.5477019 43.4116147,27.9524894 43.4116147,18.5825669 C43.4116147,9.2134488 51.0068271,1.6174319 60.3767497,1.6174319 C69.7466723,1.6174319 77.3418847,9.2134488 77.3418847,18.5825669" id="Fill-59" fill="#DBDFE9"></path>
                    <path d="M73.9054955,19.5374993 C73.9054955,28.9066174 66.3102831,36.5026343 56.9403606,36.5026343 C47.570438,36.5026343 39.9752256,28.9066174 39.9752256,19.5374993 C39.9752256,10.1675767 47.570438,2.57236434 56.9403606,2.57236434 C66.3102831,2.57236434 73.9054955,10.1675767 73.9054955,19.5374993" id="Fill-61" fill="#DADEE8"></path>
                    <path d="M70.5598532,20.6974969 C70.5598532,30.0674194 62.9646407,37.6626318 53.5947182,37.6626318 C44.2247956,37.6626318 36.6295832,30.0674194 36.6295832,20.6974969 C36.6295832,11.3283788 44.2247956,3.73236188 53.5947182,3.73236188 C62.9646407,3.73236188 70.5598532,11.3283788 70.5598532,20.6974969" id="Fill-63" fill="#DADEE8"></path>
                    <path d="M67.3124393,22.0562845 C67.3124393,31.4254025 59.7164224,39.0214194 50.3473043,39.0214194 C40.9773817,39.0214194 33.3813648,31.4254025 33.3813648,22.0562845 C33.3813648,12.6871664 40.9773817,5.09114948 50.3473043,5.09114948 C59.7164224,5.09114948 67.3124393,12.6871664 67.3124393,22.0562845" id="Fill-65" fill="#DADEE8"></path>
                    <path d="M64.1699312,23.6059781 C64.1699312,32.9750962 56.5747188,40.5711131 47.2047962,40.5711131 C37.8348737,40.5711131 30.2396612,32.9750962 30.2396612,23.6059781 C30.2396612,14.2360555 37.8348737,6.64084312 47.2047962,6.64084312 C56.5747188,6.64084312 64.1699312,14.2360555 64.1699312,23.6059781" id="Fill-67" fill="#D9DDE8"></path>
                    <path d="M61.1404543,25.3390156 C61.1404543,34.7089381 53.5452419,42.3041505 44.1753193,42.3041505 C34.8053968,42.3041505 27.2093799,34.7089381 27.2093799,25.3390156 C27.2093799,15.9698975 34.8053968,8.37388057 44.1753193,8.37388057 C53.5452419,8.37388057 61.1404543,15.9698975 61.1404543,25.3390156" id="Fill-69" fill="#D9DDE7"></path>
                    <path d="M58.2304445,27.2489609 C58.2304445,36.618079 50.6352321,44.2140959 41.2653095,44.2140959 C31.895387,44.2140959 24.3001746,36.618079 24.3001746,27.2489609 C24.3001746,17.8790383 31.895387,10.2838259 41.2653095,10.2838259 C50.6352321,10.2838259 58.2304445,17.8790383 58.2304445,27.2489609" id="Fill-71" fill="#D9DDE7"></path>
                    <path d="M55.4481077,29.3277691 C55.4481077,38.6968872 47.8528953,46.2929041 38.4829727,46.2929041 C29.1130501,46.2929041 21.5170332,38.6968872 21.5170332,29.3277691 C21.5170332,19.9586511 29.1130501,12.3626342 38.4829727,12.3626342 C47.8528953,12.3626342 55.4481077,19.9586511 55.4481077,29.3277691" id="Fill-73" fill="#D8DCE7"></path>
                    <path d="M52.7997188,31.5683608 C52.7997188,40.9374789 45.2045064,48.5334958 35.8345838,48.5334958 C26.4646613,48.5334958 18.8694489,40.9374789 18.8694489,31.5683608 C18.8694489,22.1992428 26.4646613,14.6032258 35.8345838,14.6032258 C45.2045064,14.6032258 52.7997188,22.1992428 52.7997188,31.5683608" id="Fill-75" fill="#D8DCE6"></path>
                    <path d="M50.2935642,33.963415 C50.2935642,43.3333376 42.6983518,50.92855 33.3284292,50.92855 C23.9585067,50.92855 16.3632942,43.3333376 16.3632942,33.963415 C16.3632942,24.594297 23.9585067,16.9982801 33.3284292,16.9982801 C42.6983518,16.9982801 50.2935642,24.594297 50.2935642,33.963415" id="Fill-77" fill="#D8DCE6"></path>
                    <path d="M47.9362407,36.5060936 C47.9362407,45.8752117 40.3410283,53.4712286 30.9711057,53.4712286 C21.6011831,53.4712286 14.0059707,45.8752117 14.0059707,36.5060936 C14.0059707,27.136171 21.6011831,19.5409586 30.9711057,19.5409586 C40.3410283,19.5409586 47.9362407,27.136171 47.9362407,36.5060936" id="Fill-79" fill="#D7DBE6"></path>
                    <path d="M45.7357127,39.1882712 C45.7357127,48.5581937 38.1396958,56.1534061 28.7705777,56.1534061 C19.4006552,56.1534061 11.8046383,48.5581937 11.8046383,39.1882712 C11.8046383,29.8191531 19.4006552,22.2231362 28.7705777,22.2231362 C38.1396958,22.2231362 45.7357127,29.8191531 45.7357127,39.1882712" id="Fill-81" fill="#D7DBE5"></path>
                    <path d="M43.6981749,42.0035922 C43.6981749,51.3727103 36.1029625,58.9687272 26.7330399,58.9687272 C17.3631174,58.9687272 9.76790494,51.3727103 9.76790494,42.0035922 C9.76790494,32.6336696 17.3631174,25.0384572 26.7330399,25.0384572 C36.1029625,25.0384572 43.6981749,32.6336696 43.6981749,42.0035922" id="Fill-83" fill="#D7DBE5"></path>
                    <path d="M41.8318331,44.9438509 C41.8318331,54.3137734 34.2366207,61.9089859 24.8666981,61.9089859 C15.4967755,61.9089859 7.9015631,54.3137734 7.9015631,44.9438509 C7.9015631,35.5747328 15.4967755,27.9787159 24.8666981,27.9787159 C34.2366207,27.9787159 41.8318331,35.5747328 41.8318331,44.9438509" id="Fill-85" fill="#D6DAE5"></path>
                    <path d="M40.1439276,48.0022895 C40.1439276,57.3722121 32.5487152,64.9674245 23.1787927,64.9674245 C13.8088701,64.9674245 6.21365768,57.3722121 6.21365768,48.0022895 C6.21365768,38.6331714 13.8088701,31.0371545 23.1787927,31.0371545 C32.5487152,31.0371545 40.1439276,38.6331714 40.1439276,48.0022895" id="Fill-87" fill="#D6DAE4"></path>
                    <path d="M38.6413772,51.1715872 C38.6413772,60.5415097 31.0461648,68.1367222 21.6762423,68.1367222 C12.3063197,68.1367222 4.71110729,60.5415097 4.71110729,51.1715872 C4.71110729,41.8024691 12.3063197,34.2064522 21.6762423,34.2064522 C31.0461648,34.2064522 38.6413772,41.8024691 38.6413772,51.1715872" id="Fill-89" fill="#D6DAE4"></path>
                    <path d="M37.3317441,54.4445839 C37.3317441,63.813702 29.7365317,71.4097189 20.3666091,71.4097189 C10.9966866,71.4097189 3.40147417,63.813702 3.40147417,54.4445839 C3.40147417,45.0746613 10.9966866,37.4794489 20.3666091,37.4794489 C29.7365317,37.4794489 37.3317441,45.0746613 37.3317441,54.4445839" id="Fill-91" fill="#D5D9E4"></path>
                    <path d="M36.2220274,57.8133957 C36.2220274,67.1833183 28.6268149,74.7785307 19.2568924,74.7785307 C9.88696981,74.7785307 2.2917574,67.1833183 2.2917574,57.8133957 C2.2917574,48.4442776 9.88696981,40.8482607 19.2568924,40.8482607 C28.6268149,40.8482607 36.2220274,48.4442776 36.2220274,57.8133957" id="Fill-93" fill="#D5D9E3"></path>
                    <path d="M35.3197087,61.2713452 C35.3197087,70.6412678 27.7244963,78.2364802 18.3545737,78.2364802 C8.98465118,78.2364802 1.38943876,70.6412678 1.38943876,61.2713452 C1.38943876,51.9022271 8.98465118,44.3062102 18.3545737,44.3062102 C27.7244963,44.3062102 35.3197087,51.9022271 35.3197087,61.2713452" id="Fill-95" fill="#D5D9E3"></path>
                    <path d="M34.63227,64.8110312 C34.63227,74.1801492 27.0370576,81.7761661 17.667135,81.7761661 C8.29721245,81.7761661 0.702000037,74.1801492 0.702000037,64.8110312 C0.702000037,55.4411086 8.29721245,47.8458962 17.667135,47.8458962 C27.0370576,47.8458962 34.63227,55.4411086 34.63227,64.8110312" id="Fill-97" fill="#D4D8E3"></path>
                    <path d="M34.1667907,68.4249718 C34.1667907,77.7940898 26.5715783,85.3901067 17.2016557,85.3901067 C7.83173317,85.3901067 0.236520755,77.7940898 0.236520755,68.4249718 C0.236520755,59.0550492 7.83173317,51.4598368 17.2016557,51.4598368 C26.5715783,51.4598368 34.1667907,59.0550492 34.1667907,68.4249718" id="Fill-99" fill="#D4D8E2"></path>
                    <g id="Group-103" transform="translate(0.000000, 54.616987)">
                        <mask id="mask-2" fill="white">
                            <use xlink:href="#path-1"></use>
                        </mask>
                        <g id="Clip-102"></g>
                        <path d="M33.9307527,17.4886986 C33.9307527,26.8578167 26.3347358,34.4538336 16.9656177,34.4538336 C7.59569511,34.4538336 -0.000321796946,26.8578167 -0.000321796946,17.4886986 C-0.000321796946,8.11958054 7.59569511,0.523563631 16.9656177,0.523563631 C26.3347358,0.523563631 33.9307527,8.11958054 33.9307527,17.4886986" id="Fill-101" fill="#D4D8E2" mask="url(#mask-2)"></path>
                    </g>
                    <g id="Group-106" transform="translate(0.000000, 58.639448)">
                        <mask id="mask-4" fill="white">
                            <use xlink:href="#path-3"></use>
                        </mask>
                        <g id="Clip-105"></g>
                        <path d="M33.9307527,17.1928868 C33.9307527,26.5620048 26.3347358,34.1580218 16.9656177,34.1580218 C7.59569511,34.1580218 -0.000321796946,26.5620048 -0.000321796946,17.1928868 C-0.000321796946,7.82376869 7.59569511,0.227751788 16.9656177,0.227751788 C26.3347358,0.227751788 33.9307527,7.82376869 33.9307527,17.1928868" id="Fill-104" fill="#D3D7E2" mask="url(#mask-4)"></path>
                    </g>
                    <path d="M34.1667907,79.5134509 C34.1667907,88.882569 26.5715783,96.4785859 17.2016557,96.4785859 C7.83173317,96.4785859 0.236520755,88.882569 0.236520755,79.5134509 C0.236520755,70.1435284 7.83173317,62.5483159 17.2016557,62.5483159 C26.5715783,62.5483159 34.1667907,70.1435284 34.1667907,79.5134509" id="Fill-107" fill="#D3D7E2"></path>
                    <path d="M34.63227,83.1269893 C34.63227,92.4969118 27.0370576,100.092124 17.667135,100.092124 C8.29721245,100.092124 0.702000037,92.4969118 0.702000037,83.1269893 C0.702000037,73.7578712 8.29721245,66.1618543 17.667135,66.1618543 C27.0370576,66.1618543 34.63227,73.7578712 34.63227,83.1269893" id="Fill-109" fill="#D3D7E1"></path>
                    <path d="M35.3197087,86.6666752 C35.3197087,96.0357933 27.7244963,103.63181 18.3545737,103.63181 C8.98465118,103.63181 1.38943876,96.0357933 1.38943876,86.6666752 C1.38943876,77.2975572 8.98465118,69.7015403 18.3545737,69.7015403 C27.7244963,69.7015403 35.3197087,77.2975572 35.3197087,86.6666752" id="Fill-111" fill="#D2D6E1"></path>
                    <path d="M36.2220274,90.1246248 C36.2220274,99.4937428 28.6268149,107.08976 19.2568924,107.08976 C9.88696981,107.08976 2.2917574,99.4937428 2.2917574,90.1246248 C2.2917574,80.7547022 9.88696981,73.1594898 19.2568924,73.1594898 C28.6268149,73.1594898 36.2220274,80.7547022 36.2220274,90.1246248" id="Fill-113" fill="#D2D6E1"></path>
                    <path d="M37.3317441,93.4934365 C37.3317441,102.863359 29.7365317,110.458572 20.3666091,110.458572 C10.9966866,110.458572 3.40147417,102.863359 3.40147417,93.4934365 C3.40147417,84.1243185 10.9966866,76.5283016 20.3666091,76.5283016 C29.7365317,76.5283016 37.3317441,84.1243185 37.3317441,93.4934365" id="Fill-115" fill="#D2D6E0"></path>
                    <path d="M38.6413772,96.7664333 C38.6413772,106.135551 31.0461648,113.731568 21.6762423,113.731568 C12.3063197,113.731568 4.71110729,106.135551 4.71110729,96.7664333 C4.71110729,87.3965107 12.3063197,79.8012983 21.6762423,79.8012983 C31.0461648,79.8012983 38.6413772,87.3965107 38.6413772,96.7664333" id="Fill-117" fill="#D1D5E0"></path>
                    <path d="M40.1439276,99.9356505 C40.1439276,109.304769 32.5487152,116.900785 23.1787927,116.900785 C13.8088701,116.900785 6.21365768,109.304769 6.21365768,99.9356505 C6.21365768,90.5665324 13.8088701,82.9705155 23.1787927,82.9705155 C32.5487152,82.9705155 40.1439276,90.5665324 40.1439276,99.9356505" id="Fill-119" fill="#D1D5E0"></path>
                    <path d="M41.8318331,102.99417 C41.8318331,112.363288 34.2366207,119.959305 24.8666981,119.959305 C15.4967755,119.959305 7.9015631,112.363288 7.9015631,102.99417 C7.9015631,93.6250515 15.4967755,86.0290346 24.8666981,86.0290346 C34.2366207,86.0290346 41.8318331,93.6250515 41.8318331,102.99417" id="Fill-121" fill="#D1D5DF"></path>
                    <path d="M43.6981749,105.934428 C43.6981749,115.304351 36.1029625,122.899563 26.7330399,122.899563 C17.3631174,122.899563 9.76790494,115.304351 9.76790494,105.934428 C9.76790494,96.5653102 17.3631174,88.9692933 26.7330399,88.9692933 C36.1029625,88.9692933 43.6981749,96.5653102 43.6981749,105.934428" id="Fill-123" fill="#D0D4DF"></path>
                    <path d="M45.7357127,108.749749 C45.7357127,118.118867 38.1396958,125.714884 28.7705777,125.714884 C19.4006552,125.714884 11.8046383,118.118867 11.8046383,108.749749 C11.8046383,99.3798267 19.4006552,91.7846143 28.7705777,91.7846143 C38.1396958,91.7846143 45.7357127,99.3798267 45.7357127,108.749749" id="Fill-125" fill="#D0D4DF"></path>
                    <path d="M47.9362407,111.431927 C47.9362407,120.801849 40.3410283,128.397062 30.9711057,128.397062 C21.6011831,128.397062 14.0059707,120.801849 14.0059707,111.431927 C14.0059707,102.062809 21.6011831,94.4667918 30.9711057,94.4667918 C40.3410283,94.4667918 47.9362407,102.062809 47.9362407,111.431927" id="Fill-127" fill="#D0D4DE"></path>
                    <path d="M50.2935642,113.974605 C50.2935642,123.343723 42.6983518,130.93974 33.3284292,130.93974 C23.9585067,130.93974 16.3632942,123.343723 16.3632942,113.974605 C16.3632942,104.604683 23.9585067,97.0094704 33.3284292,97.0094704 C42.6983518,97.0094704 50.2935642,104.604683 50.2935642,113.974605" id="Fill-129" fill="#CFD3DE"></path>
                    <path d="M52.7997188,116.36966 C52.7997188,125.738778 45.2045064,133.334795 35.8345838,133.334795 C26.4646613,133.334795 18.8694489,125.738778 18.8694489,116.36966 C18.8694489,107.000542 26.4646613,99.4045246 35.8345838,99.4045246 C45.2045064,99.4045246 52.7997188,107.000542 52.7997188,116.36966" id="Fill-131" fill="#CFD3DE"></path>
                    <path d="M55.4481077,118.610251 C55.4481077,127.980174 47.8528953,135.575386 38.4829727,135.575386 C29.1130501,135.575386 21.5170332,127.980174 21.5170332,118.610251 C21.5170332,109.241133 29.1130501,101.645116 38.4829727,101.645116 C47.8528953,101.645116 55.4481077,109.241133 55.4481077,118.610251" id="Fill-133" fill="#CFD3DD"></path>
                    <path d="M58.2304445,120.68906 C58.2304445,130.058982 50.6352321,137.654195 41.2653095,137.654195 C31.895387,137.654195 24.3001746,130.058982 24.3001746,120.68906 C24.3001746,111.319941 31.895387,103.723925 41.2653095,103.723925 C50.6352321,103.723925 58.2304445,111.319941 58.2304445,120.68906" id="Fill-135" fill="#CED2DD"></path>
                    <path d="M61.1404543,122.598924 C61.1404543,131.968043 53.5452419,139.564059 44.1753193,139.564059 C34.8053968,139.564059 27.2093799,131.968043 27.2093799,122.598924 C27.2093799,113.229002 34.8053968,105.633789 44.1753193,105.633789 C53.5452419,105.633789 61.1404543,113.229002 61.1404543,122.598924" id="Fill-137" fill="#CED2DD"></path>
                    <path d="M64.1699312,124.332042 C64.1699312,133.701965 56.5747188,141.297177 47.2047962,141.297177 C37.8348737,141.297177 30.2396612,133.701965 30.2396612,124.332042 C30.2396612,114.962924 37.8348737,107.366907 47.2047962,107.366907 C56.5747188,107.366907 64.1699312,114.962924 64.1699312,124.332042" id="Fill-139" fill="#CED2DC"></path>
                    <path d="M67.3124393,125.881736 C67.3124393,135.250854 59.7164224,142.846871 50.3473043,142.846871 C40.9773817,142.846871 33.3813648,135.250854 33.3813648,125.881736 C33.3813648,116.512618 40.9773817,108.916601 50.3473043,108.916601 C59.7164224,108.916601 67.3124393,116.512618 67.3124393,125.881736" id="Fill-141" fill="#CDD1DC"></path>
                    <path d="M70.5598532,127.240524 C70.5598532,136.609642 62.9646407,144.205659 53.5947182,144.205659 C44.2247956,144.205659 36.6295832,136.609642 36.6295832,127.240524 C36.6295832,117.870601 44.2247956,110.275389 53.5947182,110.275389 C62.9646407,110.275389 70.5598532,117.870601 70.5598532,127.240524" id="Fill-143" fill="#CDD1DC"></path>
                    <path d="M73.9054955,128.400521 C73.9054955,137.770444 66.3102831,145.365656 56.9403606,145.365656 C47.570438,145.365656 39.9752256,137.770444 39.9752256,128.400521 C39.9752256,119.031403 47.570438,111.435386 56.9403606,111.435386 C66.3102831,111.435386 73.9054955,119.031403 73.9054955,128.400521" id="Fill-145" fill="#CDD1DC"></path>
                    <path d="M77.3418847,129.355454 C77.3418847,138.724572 69.7466723,146.320589 60.3767497,146.320589 C51.0068271,146.320589 43.4116147,138.724572 43.4116147,129.355454 C43.4116147,119.985531 51.0068271,112.390319 60.3767497,112.390319 C69.7466723,112.390319 77.3418847,119.985531 77.3418847,129.355454" id="Fill-147" fill="#CCD0DB"></path>
                    <path d="M80.861941,130.097115 C80.861941,139.467038 73.2659241,147.06225 63.896806,147.06225 C54.5268835,147.06225 46.9308666,139.467038 46.9308666,130.097115 C46.9308666,120.727997 54.5268835,113.13198 63.896806,113.13198 C73.2659241,113.13198 80.861941,120.727997 80.861941,130.097115" id="Fill-149" fill="#CCD0DB"></path>
                    <path d="M84.4577805,130.61915 C84.4577805,139.988268 76.8625681,147.584285 67.4926456,147.584285 C58.122723,147.584285 50.5275106,139.988268 50.5275106,130.61915 C50.5275106,121.249228 58.122723,113.654015 67.4926456,113.654015 C76.8625681,113.654015 84.4577805,121.249228 84.4577805,130.61915" id="Fill-151" fill="#CCD0DB"></path>
                    <path d="M88.1224042,130.913353 C88.1224042,140.282471 80.5271918,147.878488 71.1572692,147.878488 C61.7873466,147.878488 54.1921342,140.282471 54.1921342,130.913353 C54.1921342,121.54343 61.7873466,113.948218 71.1572692,113.948218 C80.5271918,113.948218 88.1224042,121.54343 88.1224042,130.913353" id="Fill-153" fill="#CBCFDA"></path>
                    <path d="M91.8455144,130.972644 C91.8455144,140.342567 84.250302,147.937779 74.8803794,147.937779 C65.5104568,147.937779 57.9152444,140.342567 57.9152444,130.972644 C57.9152444,121.603526 65.5104568,114.007509 74.8803794,114.007509 C84.250302,114.007509 91.8455144,121.603526 91.8455144,130.972644" id="Fill-155" fill="#CBCFDA"></path>
                    <path d="M95.5419154,130.795093 C95.5419154,140.164211 87.946703,147.760228 78.5767805,147.760228 C69.2068579,147.760228 61.6116455,140.164211 61.6116455,130.795093 C61.6116455,121.42517 69.2068579,113.829958 78.5767805,113.829958 C87.946703,113.829958 95.5419154,121.42517 95.5419154,130.795093" id="Fill-157" fill="#CBCFDA"></path>
                    <path d="M99.1731526,130.386169 C99.1731526,139.755287 91.5779402,147.351304 82.2080176,147.351304 C72.8380951,147.351304 65.2428827,139.755287 65.2428827,130.386169 C65.2428827,121.016247 72.8380951,113.421034 82.2080176,113.421034 C91.5779402,113.421034 99.1731526,121.016247 99.1731526,130.386169" id="Fill-159" fill="#CBCFD9"></path>
                    <path d="M102.732066,129.753355 C102.732066,139.123278 95.1368535,146.71849 85.766931,146.71849 C76.3970084,146.71849 68.801796,139.123278 68.801796,129.753355 C68.801796,120.384237 76.3970084,112.788221 85.766931,112.788221 C95.1368535,112.788221 102.732066,120.384237 102.732066,129.753355" id="Fill-161" fill="#CACED9"></path>
                    <path d="M106.211335,128.904053 C106.211335,138.273975 98.6153176,145.869188 89.2461995,145.869188 C79.876277,145.869188 72.2802601,138.273975 72.2802601,128.904053 C72.2802601,119.534935 79.876277,111.938918 89.2461995,111.938918 C98.6153176,111.938918 106.211335,119.534935 106.211335,128.904053" id="Fill-163" fill="#CACED9"></path>
                    <path d="M109.602913,127.845824 C109.602913,137.214942 102.007701,144.810959 92.6377785,144.810959 C83.2678559,144.810959 75.6726435,137.214942 75.6726435,127.845824 C75.6726435,118.475901 83.2678559,110.880689 92.6377785,110.880689 C102.007701,110.880689 109.602913,118.475901 109.602913,127.845824" id="Fill-165" fill="#CACED8"></path>
                    <path d="M112.900608,126.585265 C112.900608,135.955187 105.305396,143.5504 95.9354731,143.5504 C86.5655505,143.5504 78.9703381,135.955187 78.9703381,126.585265 C78.9703381,117.216146 86.5655505,109.62013 95.9354731,109.62013 C105.305396,109.62013 112.900608,117.216146 112.900608,126.585265" id="Fill-167" fill="#C9CDD8"></path>
                    <path d="M116.096534,125.13026 C116.096534,134.500182 108.500518,142.095395 99.1313995,142.095395 C89.7614769,142.095395 82.16546,134.500182 82.16546,125.13026 C82.16546,115.761142 89.7614769,108.165125 99.1313995,108.165125 C108.500518,108.165125 116.096534,115.761142 116.096534,125.13026" id="Fill-169" fill="#C9CDD8"></path>
                    <path d="M119.183372,123.487889 C119.183372,132.857811 111.588159,140.453023 102.218237,140.453023 C92.8483141,140.453023 85.2531017,132.857811 85.2531017,123.487889 C85.2531017,114.11877 92.8483141,106.522754 102.218237,106.522754 C111.588159,106.522754 119.183372,114.11877 119.183372,123.487889" id="Fill-171" fill="#C9CDD7"></path>
                    <path d="M122.153799,121.665633 C122.153799,131.034751 114.558586,138.630768 105.188664,138.630768 C95.8187413,138.630768 88.2235289,131.034751 88.2235289,121.665633 C88.2235289,112.296515 95.8187413,104.700498 105.188664,104.700498 C114.558586,104.700498 122.153799,112.296515 122.153799,121.665633" id="Fill-173" fill="#C8CCD7"></path>
                    <path d="M125.000978,119.670492 C125.000978,129.03961 117.405765,136.635627 108.035843,136.635627 C98.6659202,136.635627 91.0707078,129.03961 91.0707078,119.670492 C91.0707078,110.300569 98.6659202,102.705357 108.035843,102.705357 C117.405765,102.705357 125.000978,110.300569 125.000978,119.670492" id="Fill-175" fill="#C8CCD7"></path>
                    <path d="M127.717346,117.509625 C127.717346,126.879548 120.122134,134.47476 110.752211,134.47476 C101.382289,134.47476 93.7870763,126.879548 93.7870763,117.509625 C93.7870763,108.140507 101.382289,100.54449 110.752211,100.54449 C120.122134,100.54449 127.717346,108.140507 127.717346,117.509625" id="Fill-177" fill="#C8CCD6"></path>
                    <path d="M130.295422,115.190757 C130.295422,124.560679 122.70021,132.155891 113.330287,132.155891 C103.960365,132.155891 96.3651525,124.560679 96.3651525,115.190757 C96.3651525,105.821638 103.960365,98.2256215 113.330287,98.2256215 C122.70021,98.2256215 130.295422,105.821638 130.295422,115.190757" id="Fill-179" fill="#C7CBD6"></path>
                    <path d="M132.728127,112.721126 C132.728127,122.091048 125.132914,129.686261 115.762992,129.686261 C106.393069,129.686261 98.7978569,122.091048 98.7978569,112.721126 C98.7978569,103.352008 106.393069,95.7559909 115.762992,95.7559909 C125.132914,95.7559909 132.728127,103.352008 132.728127,112.721126" id="Fill-181" fill="#C7CBD6"></path>
                    <path d="M135.008058,110.107732 C135.008058,119.477655 127.412846,127.072867 118.042923,127.072867 C108.673001,127.072867 101.077788,119.477655 101.077788,110.107732 C101.077788,100.738614 108.673001,93.1425974 118.042923,93.1425974 C127.412846,93.1425974 135.008058,100.738614 135.008058,110.107732" id="Fill-183" fill="#C7CBD5"></path>
                    <path d="M137.128057,107.35838 C137.128057,116.727498 129.532844,124.323515 120.162922,124.323515 C110.792999,124.323515 103.196982,116.727498 103.196982,107.35838 C103.196982,97.9884572 110.792999,90.3932448 120.162922,90.3932448 C129.532844,90.3932448 137.128057,97.9884572 137.128057,107.35838" id="Fill-185" fill="#C6CAD5"></path>
                    <path d="M139.080801,104.479423 C139.080801,113.849346 131.484784,121.444558 122.115666,121.444558 C112.745743,121.444558 105.149726,113.849346 105.149726,104.479423 C105.149726,95.1103053 112.745743,87.5142884 122.115666,87.5142884 C131.484784,87.5142884 139.080801,95.1103053 139.080801,104.479423" id="Fill-187" fill="#C6CAD5"></path>
                    <path d="M140.858649,101.479069 C140.858649,110.848992 133.263436,118.444204 123.893514,118.444204 C114.523591,118.444204 106.928379,110.848992 106.928379,101.479069 C106.928379,92.109951 114.523591,84.5139341 123.893514,84.5139341 C133.263436,84.5139341 140.858649,92.109951 140.858649,101.479069" id="Fill-189" fill="#C6CAD5"></path>
                    <path d="M142.455083,98.3643965 C142.455083,107.733515 134.859066,115.329531 125.489948,115.329531 C116.120026,115.329531 108.524009,107.733515 108.524009,98.3643965 C108.524009,88.9952784 116.120026,81.3992615 125.489948,81.3992615 C134.859066,81.3992615 142.455083,88.9952784 142.455083,98.3643965" id="Fill-191" fill="#C5C9D4"></path>
                    <path d="M143.861738,95.142485 C143.861738,104.511603 136.266526,112.10762 126.896603,112.10762 C117.526681,112.10762 109.931468,104.511603 109.931468,95.142485 C109.931468,85.7725624 117.526681,78.17735 126.896603,78.17735 C136.266526,78.17735 143.861738,85.7725624 143.861738,95.142485" id="Fill-193" fill="#C5C9D4"></path>
                    <path d="M145.072821,91.8204142 C145.072821,101.190337 137.476804,108.785549 128.107686,108.785549 C118.737763,108.785549 111.141746,101.190337 111.141746,91.8204142 C111.141746,82.4512961 118.737763,74.8552792 128.107686,74.8552792 C137.476804,74.8552792 145.072821,82.4512961 145.072821,91.8204142" id="Fill-195" fill="#C5C9D4"></path>
                    <path d="M146.079241,88.4064704 C146.079241,97.7755885 138.484028,105.371605 129.114106,105.371605 C119.744183,105.371605 112.148971,97.7755885 112.148971,88.4064704 C112.148971,79.0365479 119.744183,71.4413354 129.114106,71.4413354 C138.484028,71.4413354 146.079241,79.0365479 146.079241,88.4064704" id="Fill-197" fill="#C4C8D3"></path>
                    <path d="M146.875045,84.9064459 C146.875045,94.2763685 139.279832,101.871581 129.90991,101.871581 C120.539987,101.871581 112.944775,94.2763685 112.944775,84.9064459 C112.944775,75.5373279 120.539987,67.941311 129.90991,67.941311 C139.279832,67.941311 146.875045,75.5373279 146.875045,84.9064459" id="Fill-199" fill="#C4C8D3"></path>
                    <path d="M147.452509,81.3290293 C147.452509,90.6981474 139.857297,98.2941643 130.487374,98.2941643 C121.117452,98.2941643 113.522239,90.6981474 113.522239,81.3290293 C113.522239,71.9599112 121.117452,64.3638943 130.487374,64.3638943 C139.857297,64.3638943 147.452509,71.9599112 147.452509,81.3290293" id="Fill-201" fill="#C4C8D3"></path>
                    <path d="M147.804475,77.680576 C147.804475,87.0504985 140.208458,94.645711 130.83934,94.645711 C121.469417,94.645711 113.8734,87.0504985 113.8734,77.680576 C113.8734,68.3114579 121.469417,60.715441 130.83934,60.715441 C140.208458,60.715441 147.804475,68.3114579 147.804475,77.680576" id="Fill-203" fill="#C3C7D2"></path>
                    <path d="M147.923137,73.9692113 C147.923137,83.3383294 140.327925,90.9343463 130.958002,90.9343463 C121.58808,90.9343463 113.992867,83.3383294 113.992867,73.9692113 C113.992867,64.5992888 121.58808,57.0040764 130.958002,57.0040764 C140.327925,57.0040764 147.923137,64.5992888 147.923137,73.9692113" id="Fill-205" fill="#C3C7D2"></path>
                </g>
                <path d="M199.3992,136.2706 L205.0142,136.2706 C207.7122,136.2706 209.3332,135.1476 209.3332,133.2056 C209.3332,131.3746 207.7122,130.2576 205.0142,130.2576 L199.3992,130.2576 L199.3992,136.2706 Z M199.3992,125.8676 L205.0142,125.8676 C207.1372,125.8676 208.4692,124.8176 208.4692,123.0576 C208.4692,121.3256 207.1372,120.3536 205.0142,120.3536 L199.3992,120.3536 L199.3992,125.8676 Z M205.3032,115.7136 C210.8452,115.7136 214.3012,118.1226 214.3012,122.0146 C214.3012,124.7506 212.6442,126.8716 209.9432,127.5536 C213.1852,128.1706 215.2002,130.6126 215.2002,133.9266 C215.2002,138.2466 211.5642,140.9106 205.6962,140.9106 L193.7122,140.9106 L193.7122,115.7136 L205.3032,115.7136 Z" id="Fill-7" fill="#C3C7D2"></path>
                <polygon id="Fill-9" fill="#C3C7D2" points="231.4514 140.9103 225.7644 140.9103 225.7644 132.9163 216.4404 115.7143 222.1644 115.7143 228.6094 127.0153 234.9074 115.7143 240.6304 115.7143 231.4514 132.7783"></polygon>
                <polygon id="Fill-11" fill="#C3C7D2" points="275.846 140.9103 275.846 123.9183 269.152 138.3573 265.443 138.3573 258.748 123.9183 258.748 140.9103 253.603 140.9103 253.603 115.7143 259.972 115.7143 267.317 131.1183 274.622 115.7143 280.959 115.7143 280.959 140.9103"></polygon>
                <path d="M291.3719,128.3087 C291.3719,132.7397 294.9359,136.1987 299.1459,136.1987 C303.3599,136.1987 306.7789,132.7397 306.7789,128.3087 C306.7789,123.8847 303.3599,120.4977 299.1459,120.4977 C294.8999,120.4977 291.3719,123.8847 291.3719,128.3087 M312.6109,128.3087 C312.6109,135.5807 306.7789,141.1607 299.0739,141.1607 C291.3719,141.1607 285.5399,135.6207 285.5399,128.3087 C285.5399,120.9707 291.3719,115.5367 299.0739,115.5367 C306.7789,115.5367 312.6109,121.0037 312.6109,128.3087" id="Fill-13" fill="#C3C7D2"></path>
                <path d="M330.0135,132.8507 C330.0135,138.1407 326.7715,141.1607 321.5535,141.1607 C318.1695,141.1607 315.4335,139.7227 313.3105,137.2417 L315.9385,133.2047 C317.7005,135.0817 319.7195,136.0137 321.2645,136.0137 C323.1385,136.0137 324.2905,134.8657 324.2905,132.7057 L324.2905,120.5377 L315.6145,120.5377 L315.6145,115.7137 L330.0135,115.7137 L330.0135,132.8507 Z" id="Fill-15" fill="#C3C7D2"></path>
                <path d="M339.9344,128.3087 C339.9344,132.7397 343.4974,136.1987 347.7084,136.1987 C351.9224,136.1987 355.3414,132.7397 355.3414,128.3087 C355.3414,123.8847 351.9224,120.4977 347.7084,120.4977 C343.4614,120.4977 339.9344,123.8847 339.9344,128.3087 M361.1734,128.3087 C361.1734,135.5807 355.3414,141.1607 347.6364,141.1607 C339.9344,141.1607 334.1024,135.6207 334.1024,128.3087 C334.1024,120.9707 339.9344,115.5367 347.6364,115.5367 C355.3414,115.5367 361.1734,121.0037 361.1734,128.3087" id="Fill-17" fill="#C3C7D2"></path>
                <path d="M234.0535,32.1974 C234.0535,28.9814 232.2785,22.9914 224.2935,22.9914 L211.6485,22.9914 L211.6485,41.5144 L224.6265,41.5144 C232.2785,41.2924 234.0535,35.0824 234.0535,32.1974 L234.0535,32.1974 Z M211.6485,84.2164 L193.7935,84.2164 L193.7935,6.5784 L223.7395,6.5784 C245.2565,6.5784 251.7995,21.6614 251.7995,32.1974 C251.7995,47.7264 238.1575,58.1524 225.0695,58.1524 L211.6485,58.1524 L211.6485,84.2164 Z" id="Fill-19" fill="#C3C7D2"></path>
                <path d="M278.6761,54.048 L288.9901,54.048 L283.8881,41.626 L278.6761,54.048 Z M321.4871,84.216 L301.6341,84.216 L294.8681,68.023 L272.9081,68.023 L266.1431,84.216 L246.2891,84.216 L283.1121,5.912 L284.6651,5.912 L321.4871,84.216 Z" id="Fill-21" fill="#C3C7D2"></path>
                <path d="M363.3318,37.7433 C374.0908,41.5143 385.9568,46.8383 385.9568,61.0353 C385.9568,74.5653 374.2008,85.1043 357.2318,85.1043 C345.8088,85.1043 336.6028,82.1073 326.5098,76.6733 L334.3848,61.8123 C342.0368,65.4723 349.5788,68.4663 356.5658,68.4663 C362.3338,68.4663 367.2138,65.6923 367.2138,61.8123 C367.2138,56.9303 361.2248,54.8253 353.9048,52.4953 C342.7018,48.8353 328.6158,44.5083 328.6158,28.5373 C328.6158,14.0103 339.3748,5.3563 354.2368,5.3563 C359.3388,5.3563 370.2078,6.0233 384.0728,12.8993 L377.5278,27.9843 C373.6458,26.4313 362.4438,22.1053 355.3468,22.1053 C350.6868,22.1053 346.3618,23.5473 346.4738,27.7623 C346.9158,32.5313 354.6808,34.6383 363.3318,37.7433" id="Fill-23" fill="#C3C7D2"></path>
                <polygon id="Fill-25" fill="#C3C7D2" points="416.7703 54.1588 416.7703 67.6888 452.7053 67.6888 452.7053 84.2158 399.0243 84.2158 399.0243 6.5778 452.7053 6.5778 452.7053 23.1028 416.7703 23.1028 416.7703 37.6328 444.8313 37.6328 444.8313 54.1588"></polygon>
                <path d="M476.8172,54.2702 C479.1462,61.4792 482.9172,67.9112 489.6822,67.9112 C500.4412,67.9112 500.8842,57.3752 500.8842,53.6032 L500.8842,6.5782 L518.8512,6.5782 L518.8512,53.6032 C518.8512,66.4702 513.4172,84.8822 490.0152,84.8822 C472.2692,84.8822 464.0622,73.4572 461.0682,60.0382 L476.8172,54.2702 Z" id="Fill-27" fill="#C3C7D2"></path>
                <path d="M587.7185,45.2858 C587.7185,39.5178 585.1675,21.9938 567.3105,21.9938 C549.3425,21.9938 546.7915,39.5178 546.7915,45.2858 C546.7915,51.0538 549.3425,68.7998 567.3105,68.7998 C585.1675,68.7998 587.7185,51.0538 587.7185,45.2858 M605.7965,45.2858 C605.7965,61.9238 596.7015,85.4348 567.3105,85.4348 C537.8075,85.4348 528.7125,61.9238 528.7125,45.2858 C528.7125,29.0928 537.8075,5.2458 567.3105,5.2458 C596.7015,5.2458 605.7965,29.0928 605.7965,45.2858" id="Fill-29" fill="#C3C7D2"></path>
            </g>
        </g>
    </g>
</svg>