<svg xmlns="http://www.w3.org/2000/svg" width="105" height="31" viewBox="0 0 105 31">
  <metadata><?xpacket begin="﻿" id="W5M0MpCehiHzreSzNTczkc9d"?>
<x:xmpmeta xmlns:x="adobe:ns:meta/" x:xmptk="Adobe XMP Core 5.6-c138 79.159824, 2016/09/14-01:09:01        ">
   <rdf:RDF xmlns:rdf="http://www.w3.org/1999/02/22-rdf-syntax-ns#">
      <rdf:Description rdf:about=""/>
   </rdf:RDF>
</x:xmpmeta>
                                                                                                    
                                                                                                    
                                                                                                    
                                                                                                    
                                                                                                    
                                                                                                    
                                                                                                    
                                                                                                    
                                                                                                    
                                                                                                    
                                                                                                    
                                                                                                    
                                                                                                    
                                                                                                    
                                                                                                    
                                                                                                    
                                                                                                    
                                                                                                    
                                                                                                    
                                                                                                    
                           
<?xpacket end="w"?></metadata>
<defs>
    <style>
      .cls-1 {
        fill-rule: evenodd;
        opacity: 0.32;
      }
    </style>
  </defs>
  <path id="Kształt_46" data-name="Kształt 46" class="cls-1" d="M377.394,3334.01s-20.605-.01-30.444-0.01H346s0,0.46,0,.47v19.85s0.006,0.01.009,0.01V3365h31.385v-23.54l0-1.57v-5.88Zm-11.246,8.39c0.569-1.07,1.2-2.12,1.827-3.16A0.7,0.7,0,0,1,369,3339a0.676,0.676,0,0,1,.276,1q-0.882,1.545-1.79,3.09a0.665,0.665,0,0,1-.587.38A0.726,0.726,0,0,1,366.148,3342.4Zm-5.209-4.3a0.819,0.819,0,0,1,.757-0.98,0.787,0.787,0,0,1,.785.94c0.014,0.99.007,1.97,0,2.95a0.764,0.764,0,0,1-.748.9,0.785,0.785,0,0,1-.792-0.94c-0.016-.49,0-0.98,0-1.47C360.939,3339.04,360.941,3338.57,360.939,3338.1Zm-7.444,8.7c-1.1-.59-2.161-1.23-3.216-1.88a0.65,0.65,0,0,1-.2-0.95,0.687,0.687,0,0,1,.938-0.32c1.09,0.6,2.152,1.24,3.217,1.88a0.617,0.617,0,0,1,.283.6A0.7,0.7,0,0,1,353.5,3346.8Zm0.634-6.63a0.742,0.742,0,0,1,1.232-.82c0.691,1.03,1.344,2.08,2.007,3.12a1.215,1.215,0,0,1,.083.27,0.822,0.822,0,0,1-.576.7,0.689,0.689,0,0,1-.823-0.28c-0.349-.51-0.687-1.03-1.022-1.54C354.723,3341.14,354.41,3340.66,354.129,3340.17ZM365,3361.39a0.8,0.8,0,0,1-1.006.71h-2.261c-0.78,0-1.56.01-2.339,0a0.793,0.793,0,0,1-.967-0.76,0.833,0.833,0,0,1,.978-0.77q2.3-.015,4.6,0C364.678,3360.58,365.042,3360.89,365,3361.39Zm-6.567-2.31a0.753,0.753,0,0,1,.876-0.78q2.427-.03,4.852,0a0.757,0.757,0,1,1-.035,1.5h-4.774A0.75,0.75,0,0,1,358.428,3359.08Zm8.743-6.71a11.978,11.978,0,0,1-1.152,1.56,3.862,3.862,0,0,0-1.114,2.17,0.766,0.766,0,0,1-.884.7h-2.429c-0.757,0-1.514-.01-2.271,0a0.815,0.815,0,0,1-.973-0.77,3.552,3.552,0,0,0-1.007-1.98,8.151,8.151,0,0,1-1.9-3.25,5.857,5.857,0,0,1,5.059-7.48,6.861,6.861,0,0,1,5.632,1.52A6,6,0,0,1,367.171,3352.37Zm5.892-7.41c-0.989.61-2,1.2-3,1.79a1.659,1.659,0,0,1-.3.12,0.753,0.753,0,0,1-.8-0.47,0.677,0.677,0,0,1,.27-0.88c0.43-.29.88-0.55,1.323-0.81,0.578-.35,1.144-0.72,1.741-1.03a0.713,0.713,0,0,1,1.013.28A0.67,0.67,0,0,1,373.063,3344.96Zm12.622,1.89h2.487a1.485,1.485,0,0,0-.03-0.73c-0.186-.07-0.37-0.15-0.57-0.24a7.685,7.685,0,0,1,.091-1.79c0.5,0,.962.01,1.428,0a2.059,2.059,0,0,0,2.353-2.26c0.009-.12.02-0.25,0.029-0.38q-0.174-.615-0.349-1.23a2.049,2.049,0,0,0-1.485-.75c-1.32-.04-2.641-0.01-3.962-0.01a0.777,0.777,0,0,0,.193.88,4.214,4.214,0,0,0-.008.77,16.95,16.95,0,0,1,.125,4.84C385.508,3346.13,385.633,3346.49,385.685,3346.85Zm1.9-6.34c0.733,0.12,1.568-.31,2.162.39a1.388,1.388,0,0,1,.071,1.54c-0.492.95-1.418,0.41-2.233,0.61v-2.54Zm8.851,3.89c-0.031-.3-0.051-0.59-0.092-0.86a1.727,1.727,0,0,0-1.726-1.67c-1.788-.21-2.641.53-2.678,2.32,0,0.13,0,.26,0,0.39,0.023,1.87.908,2.61,2.789,2.33a1.7,1.7,0,0,0,1.6-1.53C396.379,3345.05,396.4,3344.71,396.433,3344.4Zm-1.458.95a0.728,0.728,0,0,1-.867.6,0.737,0.737,0,0,1-.765-0.72c-0.026-.29-0.043-0.57-0.062-0.83,0.023-.31.031-0.59,0.07-0.87a0.719,0.719,0,0,1,.728-0.68,0.762,0.762,0,0,1,.889.58A4.193,4.193,0,0,1,394.975,3345.35Zm-5.27,6.55c-1.342-.05-2.686-0.01-4.03-0.01a0.783,0.783,0,0,0,.195.88,3.961,3.961,0,0,0-.007,1.06,15.128,15.128,0,0,1,.124,4.54c-0.479.18-.355,0.54-0.3,0.93,0.794,0,1.57,0,2.347-.01a0.442,0.442,0,0,0,.14-0.06,1.362,1.362,0,0,0-.028-0.67,2.217,2.217,0,0,1-.572-0.31,7.3,7.3,0,0,1,.085-1.73h1.118c1.89-.01,2.418-0.47,2.7-2.34l-0.183-1.2A1.834,1.834,0,0,0,389.705,3351.9Zm0.13,3.06c-0.558.83-1.428,0.31-2.232,0.51v-2.52c0.72,0.06,1.474-.25,2.12.31A1.953,1.953,0,0,1,389.835,3354.96Zm4.025-.15a0.58,0.58,0,0,0-.714-0.48c-0.332.04-.671,0.02-1.007,0.03a0.805,0.805,0,0,0,.328.93,7.053,7.053,0,0,1-.035,3.12c-0.414.22-.284,0.52-0.277,0.9,0.436,0,.823.01,1.208-0.01a3.939,3.939,0,0,0,1.14-.05c0.244-.57-0.124-0.79-0.553-0.93v-1.44c0-1.38,0-1.38,1.426-1.47a1.027,1.027,0,0,0,.171-0.12v-0.96A1.887,1.887,0,0,0,393.86,3354.81Zm23.52-7.94h2.269a0.855,0.855,0,0,0-.032-0.72c-0.583-.26-0.374-0.74-0.383-1.13-0.023-1.02-.007-2.05-0.007-3.07h-1.873A5.44,5.44,0,0,1,417.38,3346.87Zm-0.988,6.07a0.865,0.865,0,0,0,1.426,0c-0.021-.35-0.042-0.7-0.062-1.04h-1.283C416.443,3352.28,416.417,3352.61,416.392,3352.94Zm2.8-13.5a6.369,6.369,0,0,0-1.241.04v1.34h1.241v-1.38Zm11.208,13.85c0.374,0,.749.04,0.721-0.5a3.638,3.638,0,0,0-.13-0.92,3.3,3.3,0,0,0-1.251.06c-0.019.3-.037,0.58-0.055,0.86C429.648,3353.34,430.027,3353.29,430.4,3353.29Zm-67.379-8.37c-0.277-.06-0.561-0.11-0.845-0.15a4.72,4.72,0,0,0-5.247,3.2,4.92,4.92,0,0,0,1.086,4.49,8.23,8.23,0,0,1,1.787,2.78h3.683a6.255,6.255,0,0,1,1.224-2.12,13.914,13.914,0,0,0,1.106-1.5A4.355,4.355,0,0,0,363.02,3344.92Zm36.385,12.93a1.2,1.2,0,0,1-1.515.29c0.634-.8,1.236-1.61,1.891-2.38a1.645,1.645,0,0,0,.457-1.4h-4.127a7.747,7.747,0,0,0,.088,1.52,1.084,1.084,0,0,0,.809-0.13c0.332-.71.867-0.28,1.357-0.31-0.622.9-1.273,1.76-1.96,2.59a1.218,1.218,0,0,0-.324,1.2,0.708,0.708,0,0,0,.452.07c1.221,0.01,2.443.01,3.72,0.01a5.785,5.785,0,0,0-.055-1.49A1.123,1.123,0,0,0,399.405,3357.85Zm14.985-1.32c-0.41-.16-0.845-0.26-1.262-0.4a0.427,0.427,0,0,1-.266-0.72,1.024,1.024,0,0,1,1.145-.05c0.228,0.68.667,0.34,1.1,0.35a2.2,2.2,0,0,0-.131-1.24,5.014,5.014,0,0,0-2.821.01,1.452,1.452,0,0,0-.749,1.57,1.52,1.52,0,0,0,1.261,1.13,6.176,6.176,0,0,1,1.035.34,0.4,0.4,0,0,1,.172.69,1.337,1.337,0,0,1-1.372.07c-0.236-.68-0.669-0.34-1.063-0.36a3.657,3.657,0,0,0-.014,1.18,4.612,4.612,0,0,0,2.891.1,1.307,1.307,0,0,0,1.015-1.31A1.281,1.281,0,0,0,414.39,3356.53Zm11.442-2.17c-0.384.24-.3-0.09-0.3-0.26-0.011-.73,0-1.46,0-2.21h-1.749a1.949,1.949,0,0,0,.025.87c0.527-.04.392,0.35,0.394,0.63q0.018,2.88.024,5.76a7.724,7.724,0,0,0,2.624.18,1.71,1.71,0,0,0,1.242-.71,3.949,3.949,0,0,0-.423-4.16A3.183,3.183,0,0,0,425.832,3354.36Zm1.29,2.88c-0.1,1.12-.354,1.29-1.557,1.06v-2.81c1.033-.42,1.428-0.21,1.547.83A4.571,4.571,0,0,1,427.122,3357.24Zm-2.04-10.38a0.555,0.555,0,0,0,.135-0.06c-0.066-.25.182-0.63-0.212-0.77a1.139,1.139,0,0,1-.6-0.67,10.2,10.2,0,0,0-.835-1.33c0.464-.49.618-1.23,1.375-1.41a0.863,0.863,0,0,0-.046-0.65,1.367,1.367,0,0,0-1.832.84,6.464,6.464,0,0,1-.5.79,0.3,0.3,0,0,1-.391.15,0.709,0.709,0,0,1-.135-0.77c-0.026-1.17-.012-2.35-0.012-3.54a10.852,10.852,0,0,0-1.738.04,1.407,1.407,0,0,0,.062.86,4.111,4.111,0,0,0,.112.76,16.866,16.866,0,0,1,.142,4.8,0.7,0.7,0,0,0-.309.94h2.156a0.848,0.848,0,0,0-.028-0.7c-0.653-.35-0.331-0.86-0.36-1.35a1.051,1.051,0,0,1,1.031,1.01A1.512,1.512,0,0,0,425.082,3346.86Zm6.009,10.21c-0.033-.91-0.015-1.81-0.018-2.72l-1.824.03c0.066,0.3-.142.7,0.326,0.85a0.292,0.292,0,0,1,.14.33c0,0.83,0,1.66,0,2.48a0.358,0.358,0,0,1-.175.4c-0.44.19-.262,0.52-0.236,0.81h2.206a1.219,1.219,0,0,0-.012-0.58C430.855,3358.25,431.112,3357.62,431.091,3357.07Zm-8.753-2.6a3.644,3.644,0,0,0-2.352-.02c-1.269.93-1.182,2.23-.907,3.51,0.283,1.32,1.409,1.43,2.594,1.43-0.537.54-1.075,1.03-.669,1.74a1.265,1.265,0,0,0,1.413.38c0.42-.05.42-0.29,0.343-0.6-0.8-.15-0.906-0.38-0.476-1.06a1.28,1.28,0,0,1,.291-0.36,0.837,0.837,0,0,0,.207-1.25c-2.123.26-2.445,0.12-2.424-1.12h2.747C423.143,3356.11,423.243,3355.15,422.338,3354.47Zm-0.484,1.7a4.42,4.42,0,0,1-1.545.05,0.779,0.779,0,0,1,.836-0.96A0.7,0.7,0,0,1,421.854,3356.17Zm22.977,2.06c-1.571.39-2.217,0.19-2.041-1.93,0-.03.01-0.05,0.012-0.08a0.877,0.877,0,0,1,.727-0.95,0.688,0.688,0,0,1,.833.61H445.2a5.488,5.488,0,0,0,.037-1.41,4.823,4.823,0,0,0-2.84.01c-1.243.92-1.052,2.22-.856,3.46a1.568,1.568,0,0,0,1.611,1.41,4.5,4.5,0,0,0,2.207-.28,1.51,1.51,0,0,0-.246-0.86C444.986,3358.22,444.906,3358.22,444.831,3358.23Zm3.86-3.87c0.792,1.25-.1,2.19-0.324,3.24-0.419-1.05-.941-2.06-0.4-3.26-0.5,0-.841-0.01-1.175,0a3.993,3.993,0,0,0-1.09.05,0.774,0.774,0,0,0,.2.85c0.374,0,.35.32,0.428,0.55,0.387,1.12.723,2.26,1.167,3.35a0.92,0.92,0,0,1-.806,1.41,1.146,1.146,0,0,0-.7.06c-0.035.26-.072,0.53-0.108,0.79,1.666,0.37,2.339.03,2.9-1.45,0.492-1.3.966-2.61,1.432-3.92a1.227,1.227,0,0,1,.79-0.99v-0.68h-2.309Zm-15.543.13a3.594,3.594,0,0,0-.507,4.14,2.572,2.572,0,0,0,3.661,0,3.574,3.574,0,0,0-.492-4.13A3.987,3.987,0,0,0,433.148,3354.49Zm2.161,3.21a0.847,0.847,0,0,1-1.654.03,5.565,5.565,0,0,1-.006-1.78,0.745,0.745,0,0,1,.811-0.68,0.774,0.774,0,0,1,.842.65,6.725,6.725,0,0,1,.07.89A7.222,7.222,0,0,1,435.309,3357.7Zm5.522-3.39a1.869,1.869,0,0,0-1.612.5c-0.444-.83-1.127-0.35-1.727-0.46a0.837,0.837,0,0,0,.22.91,7.57,7.57,0,0,1,.126,3.07,0.173,0.173,0,0,1-.109.1c-0.385.19-.251,0.51-0.217,0.84h2.322a1.194,1.194,0,0,0-.008-0.7,1.591,1.591,0,0,1-.57-0.31v-1.6c0-1.07.116-1.19,1.256-1.21C441.181,3355.2,440.713,3354.7,440.831,3354.31Zm-30.088-8.39a0.737,0.737,0,0,1-.12-0.71c-0.013-1.62,0-3.24-.012-4.85a1.548,1.548,0,0,0-.09-0.9H408.9a1.79,1.79,0,0,0-.015.85c0.139,0.05.373,0,.377,0.19a2.632,2.632,0,0,1-.086,1.42c-0.2-.02-0.41-0.02-0.614-0.05a1.727,1.727,0,0,0-2.125,1.43,5.467,5.467,0,0,0-.088,1.77c0.107,1.53.982,2.15,2.488,1.79a0.753,0.753,0,0,1,.591-0.08,4.072,4.072,0,0,0,1.64.08C411.025,3346.49,411.236,3346.1,410.743,3345.92Zm-1.476-.21c-1.063.47-1.47,0.26-1.579-.83a9.562,9.562,0,0,1,.011-1c0.008-.85.581-1.34,1.568-0.82v2.65Zm-3.695.49c-0.57-.5-0.288-1.14-0.341-1.72a10.9,10.9,0,0,0-.091-1.54,1.137,1.137,0,0,0-.694-0.87,4.9,4.9,0,0,0-2.983,0,1.457,1.457,0,0,0,.274.9,4.5,4.5,0,0,1,1.28-.12c0.783,0.03.913,0.2,0.751,1.03a6.017,6.017,0,0,0-1.468.05,1.353,1.353,0,0,0-1.133.94,1.523,1.523,0,0,0,1.691,2.08,3.09,3.09,0,0,1,1.094-.25,4.562,4.562,0,0,0,1.666.2A1.462,1.462,0,0,0,405.572,3346.2Zm-2.422-.23a0.572,0.572,0,0,1-.72-0.66c0.027-.52.327-0.64,1.406-0.55C403.956,3345.79,403.929,3345.91,403.15,3345.97Zm14.97,12.56a0.7,0.7,0,0,1-.326-0.85c-0.01-1.11-.007-2.21-0.009-3.32a9.161,9.161,0,0,0-1.738.03,0.708,0.708,0,0,0,.222.87,9.441,9.441,0,0,1,.134,3.01,0.27,0.27,0,0,1-.148.16c-0.377.2-.241,0.51-0.208,0.85a13.172,13.172,0,0,0,2.175-.02C418.229,3358.98,418.385,3358.65,418.12,3358.53Zm-16.307-4.03a3.537,3.537,0,0,0-.576,4,1.532,1.532,0,0,0,1.026.77,4.666,4.666,0,0,0,2.667-.18,2.029,2.029,0,0,0-.188-0.84c-2.229.2-2.475,0.1-2.387-1.03h2.683c0.127-1.46-.016-1.98-0.72-2.73A3.543,3.543,0,0,0,401.813,3354.5Zm0.468,1.83c-0.043-.57.046-1.01,0.709-1.06,0.573-.05.748,0.18,0.821,1.06h-1.53Zm-3.324-13.97c-0.476-.77-1.154-0.31-1.889-0.47a5.568,5.568,0,0,1,.053,4.96h2.448a1.227,1.227,0,0,0-.016-0.72c-0.171-.06-0.341-0.12-0.564-0.21,0-.62,0-1.19,0-1.76,0-.93.134-1.07,1.1-1.16a0.518,0.518,0,0,0,.465-0.11,2.3,2.3,0,0,0-.051-1.01A1.987,1.987,0,0,0,398.957,3342.36Zm17.861,3.84c-0.672-.33-0.4-0.92-0.427-1.41-0.035-.54.012-1.08-0.019-1.62a1.274,1.274,0,0,0-1.482-1.32,3.559,3.559,0,0,0-1.066.21c-0.135.05-.293,0.22-0.428,0.09-0.5-.47-1.069-0.13-1.725-0.16a5.474,5.474,0,0,1-.029,4.87,17.542,17.542,0,0,0,2.507-.04c-0.85-1.2-.613-2.45-0.58-3.67,1.25-.52,1.453-0.39,1.458.89,0,0.93,0,1.85,0,2.81a7.143,7.143,0,0,0,1.852-.03A1.347,1.347,0,0,0,416.818,3346.2Zm-6.534,7.98a4.855,4.855,0,0,1,0-1.24,5.22,5.22,0,0,0-.12-1.07,7.141,7.141,0,0,0-1.727.05,1.265,1.265,0,0,0,.119.85,0.257,0.257,0,0,1,.324.3c-0.007.44,0,.89,0,1.37a2.943,2.943,0,0,0-2.052.03,3.272,3.272,0,0,0-.845,3.21c0.2,1.43,1.03,1.94,2.438,1.61a0.737,0.737,0,0,1,.579-0.11,3.905,3.905,0,0,0,1.825.08C409.9,3357.59,410.329,3355.87,410.284,3354.18Zm-1.433,3.97c-1.076.44-1.5,0.19-1.558-.9a7.783,7.783,0,0,1,0-.85c0.064-1.06.524-1.34,1.555-.92v2.67Z" transform="translate(-346 -3334)"/>
</svg>
