<svg xmlns="http://www.w3.org/2000/svg" width="101" height="27.969" viewBox="0 0 101 27.969">
  <metadata><?xpacket begin="﻿" id="W5M0MpCehiHzreSzNTczkc9d"?>
<x:xmpmeta xmlns:x="adobe:ns:meta/" x:xmptk="Adobe XMP Core 5.6-c138 79.159824, 2016/09/14-01:09:01        ">
   <rdf:RDF xmlns:rdf="http://www.w3.org/1999/02/22-rdf-syntax-ns#">
      <rdf:Description rdf:about=""/>
   </rdf:RDF>
</x:xmpmeta>
                                                                                                    
                                                                                                    
                                                                                                    
                                                                                                    
                                                                                                    
                                                                                                    
                                                                                                    
                                                                                                    
                                                                                                    
                                                                                                    
                                                                                                    
                                                                                                    
                                                                                                    
                                                                                                    
                                                                                                    
                                                                                                    
                                                                                                    
                                                                                                    
                                                                                                    
                                                                                                    
                           
<?xpacket end="w"?></metadata>
<defs>
    <style>
      .cls-1 {
        fill: #C3C7D2;
        fill-rule: evenodd;
      }
    </style>
  </defs>
  <path id="poradnik_pracownika" data-name="poradnik pracownika" class="cls-1" d="M1451,336.971q0.675,0.063,1.77.064a7.2,7.2,0,0,0,2.17-.288,3.042,3.042,0,0,0,2.1-2,4.559,4.559,0,0,0,.22-1.491,3.371,3.371,0,0,0-.57-2.007,3.18,3.18,0,0,0-1.56-1.155,6.93,6.93,0,0,0-2.36-.356h-3.9v11.746H1451v-4.51h0Zm0-5.621h1.78a2.718,2.718,0,0,1,1.76.5,1.765,1.765,0,0,1,.62,1.471,2.966,2.966,0,0,1-.05.62,1.762,1.762,0,0,1-.21.572,1.559,1.559,0,0,1-.44.5,2.333,2.333,0,0,1-.77.328,4.57,4.57,0,0,1-1.15.128c-0.96,0-1.48,0-1.54-.016v-4.1Zm10.77,1.128a4.067,4.067,0,0,0-3.16,1.227,4.771,4.771,0,0,0-1.12,3.354,4.86,4.86,0,0,0,1.12,3.326,3.9,3.9,0,0,0,3.07,1.264,4.053,4.053,0,0,0,3.16-1.244,5.554,5.554,0,0,0,.01-6.676A3.909,3.909,0,0,0,1461.77,332.478Zm1.56,6.8a1.8,1.8,0,0,1-1.59.775,1.843,1.843,0,0,1-1.62-.775,4.854,4.854,0,0,1,0-4.45,2.059,2.059,0,0,1,3.21,0A4.862,4.862,0,0,1,1463.33,339.282Zm5.79-2.567a2.424,2.424,0,0,1,.57-1.711,2.253,2.253,0,0,1,1.73-.615,4.615,4.615,0,0,1,.67.048l0.03-1.751a3.967,3.967,0,0,0-.56-0.032,2.769,2.769,0,0,0-2.5,1.383l-0.27-1.343h-1.76v8.788h2.09v-4.767h0Zm5.89,4.934a3.522,3.522,0,0,0,1.52-.3,4.914,4.914,0,0,0,1.28-.939c0,0.022.06,0.2,0.17,0.536s0.17,0.514.18,0.535h1.55v-5.732a3.327,3.327,0,0,0-.81-2.5,3.647,3.647,0,0,0-2.58-.771,8.43,8.43,0,0,0-3.36.663c0,0.011.09,0.251,0.26,0.72s0.26,0.712.27,0.728a7.719,7.719,0,0,1,2.64-.6,1.526,1.526,0,0,1,1.12.364,1.562,1.562,0,0,1,.37,1.163v0.464q-0.21.024-.57,0.056c-0.24.021-.45,0.043-0.65,0.064s-0.37.043-.53,0.064a5.425,5.425,0,0,0-2.7.836,2.347,2.347,0,0,0-.9,2.027,2.455,2.455,0,0,0,.76,1.946A2.843,2.843,0,0,0,1475.01,341.649Zm-0.11-3.83a4.433,4.433,0,0,1,1.86-.48c0.03,0,.17-0.011.43-0.032l0.42-.032v1.7a2,2,0,0,1-.77.844,2.285,2.285,0,0,1-1.27.348,1.333,1.333,0,0,1-.93-0.3,1.1,1.1,0,0,1-.33-0.859A1.3,1.3,0,0,1,1474.9,337.819Zm9.53,3.83a3.814,3.814,0,0,0,.87-0.092,3.073,3.073,0,0,0,.66-0.216,2.057,2.057,0,0,0,.48-0.328,2.234,2.234,0,0,0,.34-0.36c0.08-.1.16-0.228,0.26-0.372l0.23,1.2h1.81V329.319l-2.09.137v2.838a13.173,13.173,0,0,0,.08,1.511,2.821,2.821,0,0,0-2.65-1.327,3.266,3.266,0,0,0-2.7,1.244,5.182,5.182,0,0,0-.97,3.29,5.321,5.321,0,0,0,.98,3.374A3.22,3.22,0,0,0,1484.43,341.649Zm-1.04-6.817a1.794,1.794,0,0,1,1.51-.755,1.873,1.873,0,0,1,1.62.743,4,4,0,0,1,.55,2.367c-0.02,1.914-.74,2.87-2.14,2.87a1.783,1.783,0,0,1-1.53-.767A4.679,4.679,0,0,1,1483.39,334.832Zm12.08-2.354a4.147,4.147,0,0,0-2.98,1.327l-0.23-1.112h-1.69v8.788h2.09V337.2a8.187,8.187,0,0,1,.16-1.918,2.119,2.119,0,0,1,.81-0.876,2.337,2.337,0,0,1,1.25-.348,1.3,1.3,0,0,1,1.2.528,3.03,3.03,0,0,1,.35,1.591v5.3h2.1v-5.557a3.806,3.806,0,0,0-.76-2.563A2.883,2.883,0,0,0,1495.47,332.478Zm6.62-2.855h-2.1v1.791h2.1v-1.791Zm-0.01,3.07h-2.09v8.788h2.09v-8.788Zm3.62,5.485,0.87-.687,2.9,3.99H1512l-3.84-5.045,3.61-3.742h-2.5l-1.02,1.047c-0.53.533-.96,0.984-1.31,1.352s-0.66.725-.95,1.071c-0.01.011-.07,0.067-0.17,0.168s-0.16.155-.17,0.16l0.05-1.775v-5.4l-2.09.137v12.026h2.09v-3.3Zm-52.3,5.953a5.4,5.4,0,0,0-1.82-.273h-2.99v9.015h1.63v-3.462c0.35,0.033.8,0.05,1.36,0.05a5.475,5.475,0,0,0,1.66-.221,2.535,2.535,0,0,0,1.08-.63,2.483,2.483,0,0,0,.54-0.908,3.641,3.641,0,0,0,.17-1.144,2.6,2.6,0,0,0-.44-1.541A2.443,2.443,0,0,0,1453.4,344.131Zm-0.02,2.957a1.408,1.408,0,0,1-.17.439,1.1,1.1,0,0,1-.33.38,1.773,1.773,0,0,1-.59.252,3.536,3.536,0,0,1-.89.1c-0.73,0-1.13,0-1.18-.013V345.1h1.37a2.1,2.1,0,0,1,1.35.386,1.368,1.368,0,0,1,.48,1.13A2.307,2.307,0,0,1,1453.38,347.088Zm3.8,0.071-0.21-1.031h-1.35v6.744h1.6v-3.657a1.871,1.871,0,0,1,.44-1.314,1.747,1.747,0,0,1,1.33-.472,3.44,3.44,0,0,1,.51.036l0.02-1.344a3.011,3.011,0,0,0-.42-0.024A2.128,2.128,0,0,0,1457.18,347.159Zm5.57-1.2a6.474,6.474,0,0,0-2.58.509c0,0.009.07,0.193,0.2,0.553s0.2,0.546.2,0.559a5.988,5.988,0,0,1,2.04-.461,1.148,1.148,0,0,1,.85.279,1.212,1.212,0,0,1,.29.894v0.355c-0.11.013-.26,0.028-0.44,0.043s-0.35.033-.5,0.05-0.28.032-.41,0.049a4.191,4.191,0,0,0-2.07.641,1.8,1.8,0,0,0-.69,1.555,1.924,1.924,0,0,0,.58,1.5,2.2,2.2,0,0,0,1.52.518,2.7,2.7,0,0,0,1.17-.23,3.684,3.684,0,0,0,.98-0.721c0,0.016.05,0.153,0.13,0.411s0.13,0.395.14,0.411h1.19v-4.4a2.566,2.566,0,0,0-.62-1.917A2.815,2.815,0,0,0,1462.75,345.962Zm0.99,4.983a1.614,1.614,0,0,1-.59.648,1.761,1.761,0,0,1-.97.267,1.022,1.022,0,0,1-.72-0.23,0.842,0.842,0,0,1-.25-0.66,0.99,0.99,0,0,1,.45-0.908,3.355,3.355,0,0,1,1.43-.368c0.02,0,.13-0.009.33-0.025l0.32-.024v1.3Zm5.76-3.761a3.343,3.343,0,0,1,1.55.436l0.38-1.148a3.691,3.691,0,0,0-2-.509,3.2,3.2,0,0,0-2.38.914,3.515,3.515,0,0,0-.91,2.571,3.688,3.688,0,0,0,.87,2.633,3.113,3.113,0,0,0,2.4.921,4.138,4.138,0,0,0,1.08-.123,2.894,2.894,0,0,0,.88-0.405l-0.15-1.221a3.132,3.132,0,0,1-1.7.522,1.565,1.565,0,0,1-1.31-.59,2.727,2.727,0,0,1-.46-1.718,2.678,2.678,0,0,1,.46-1.7A1.584,1.584,0,0,1,1469.5,347.184Zm5.56-1.222a3.106,3.106,0,0,0-2.42.942,4.252,4.252,0,0,0,0,5.128,2.964,2.964,0,0,0,2.35.969,3.123,3.123,0,0,0,2.43-.954,3.707,3.707,0,0,0,.86-2.568,3.656,3.656,0,0,0-.86-2.556A2.989,2.989,0,0,0,1475.06,345.962Zm1.2,5.223a1.569,1.569,0,0,1-2.46,0,2.926,2.926,0,0,1-.42-1.7,3.032,3.032,0,0,1,.41-1.716,1.587,1.587,0,0,1,2.47,0A3.769,3.769,0,0,1,1476.26,351.185Zm9.43-.129c-0.03-.11-0.26-0.917-0.67-2.418s-0.66-2.338-.71-2.51h-1.65c-0.06.176-.3,1.021-0.74,2.535s-0.67,2.318-.7,2.411l-1.29-4.946h-1.64l2.04,6.744h1.58c0.07-.208.33-1.063,0.77-2.565s0.7-2.4.78-2.7q0.06,0.19.72,2.6c0.44,1.6.69,2.494,0.74,2.67h1.61l2.11-6.745h-1.62Zm7.1-5.094a3.2,3.2,0,0,0-2.29,1.019l-0.18-.853h-1.29v6.744h1.61v-3.283a7.412,7.412,0,0,1,.11-1.472,1.6,1.6,0,0,1,.63-0.672,1.791,1.791,0,0,1,.96-0.267,1,1,0,0,1,.92.405,2.415,2.415,0,0,1,.27,1.221v4.069h1.61v-4.265a2.935,2.935,0,0,0-.59-1.968A2.206,2.206,0,0,0,1492.79,345.962Zm3.47-.816h1.61v-1.374h-1.61v1.374Zm0,7.726h1.6v-6.744h-1.6v6.744Zm9.04-6.744h-1.91c-0.13.127-.39,0.4-0.79,0.8s-0.74.755-1,1.037-0.51.556-.74,0.823a1.363,1.363,0,0,1-.13.129,1.1,1.1,0,0,0-.12.123l0.03-1.363v-4.142l-1.6.1v9.23h1.6v-2.534l0.67-.528,2.22,3.062h1.95L1502.53,349Zm3.21-.166a6.46,6.46,0,0,0-2.57.509c0,0.009.07,0.193,0.2,0.553s0.2,0.546.2,0.559a5.94,5.94,0,0,1,2.03-.461,1.174,1.174,0,0,1,.86.279,1.211,1.211,0,0,1,.28.894v0.355c-0.1.013-.25,0.028-0.43,0.043s-0.35.033-.5,0.05-0.28.032-.41,0.049a4.191,4.191,0,0,0-2.07.641,1.8,1.8,0,0,0-.69,1.555,1.89,1.89,0,0,0,.58,1.5,2.2,2.2,0,0,0,1.52.518,2.7,2.7,0,0,0,1.17-.23,3.684,3.684,0,0,0,.98-0.721,3.86,3.86,0,0,0,.13.411c0.09,0.258.13,0.395,0.14,0.411h1.19v-4.4a2.566,2.566,0,0,0-.62-1.917A2.826,2.826,0,0,0,1508.51,345.962Zm1,4.983a1.614,1.614,0,0,1-.59.648,1.772,1.772,0,0,1-.98.267,1,1,0,0,1-.71-0.23,0.848,0.848,0,0,1-.26-0.66,1,1,0,0,1,.46-0.908,3.355,3.355,0,0,1,1.43-.368l0.33-.025,0.32-.024v1.3h0Zm-74.66-23.911a18.056,18.056,0,0,0-11.15-1.826,16.112,16.112,0,0,0-9.23,4.321,10.5,10.5,0,0,0,.2,15.757,15.841,15.841,0,0,0,7.77,3.911,8.769,8.769,0,0,1,2.6.777c1.16,0.653,1.4,1.305.84,2.623,3.38-1.758,6.64-3.49,9.76-5.478a14.067,14.067,0,0,0,3.86-3.347,10.05,10.05,0,0,0,1.7-9.783A12.373,12.373,0,0,0,1434.85,327.034Zm-0.21,9.391a2.585,2.585,0,0,1-.01,5.153A2.583,2.583,0,0,1,1434.64,336.425Zm-8.24-2.476a3.149,3.149,0,0,1-.06,6.287A3.157,3.157,0,0,1,1426.4,333.949Zm-8.19,2.477a2.583,2.583,0,1,1-2.42,2.557A2.533,2.533,0,0,1,1418.21,336.426Zm-3.36,7.681c-0.24-.24-0.18-0.367.04-0.574a4.81,4.81,0,0,1,5.43-.752c0.16,0.083.4,0.117,0.2,0.383a9.132,9.132,0,0,0-1.62,3.813A16.407,16.407,0,0,1,1414.85,344.107Zm17.52,3.543a18.453,18.453,0,0,1-6.58,1.088,17.308,17.308,0,0,1-5.46-1.119,0.47,0.47,0,0,1-.35-0.657,7.433,7.433,0,0,1,3.1-4.847,6.016,6.016,0,0,1,8.36,1.672,8.562,8.562,0,0,1,1.36,3.087A0.556,0.556,0,0,1,1432.37,347.65Zm5.69-3.65a14.672,14.672,0,0,1-4.2,2.917,9.063,9.063,0,0,0-1.72-3.934,4.769,4.769,0,0,1,5.88.65A0.227,0.227,0,0,1,1438.06,344Z" transform="translate(-1411 -325.031)"/>
</svg>
