<svg xmlns="http://www.w3.org/2000/svg" width="217" height="28" viewBox="0 0 217 28">
  <metadata><?xpacket begin="﻿" id="W5M0MpCehiHzreSzNTczkc9d"?>
<x:xmpmeta xmlns:x="adobe:ns:meta/" x:xmptk="Adobe XMP Core 5.6-c138 79.159824, 2016/09/14-01:09:01        ">
   <rdf:RDF xmlns:rdf="http://www.w3.org/1999/02/22-rdf-syntax-ns#">
      <rdf:Description rdf:about=""/>
   </rdf:RDF>
</x:xmpmeta>
                                                                                                    
                                                                                                    
                                                                                                    
                                                                                                    
                                                                                                    
                                                                                                    
                                                                                                    
                                                                                                    
                                                                                                    
                                                                                                    
                                                                                                    
                                                                                                    
                                                                                                    
                                                                                                    
                                                                                                    
                                                                                                    
                                                                                                    
                                                                                                    
                                                                                                    
                                                                                                    
                           
<?xpacket end="w"?></metadata>
<defs>
    <style>
      .cls-1 {
        fill: #C3C7D2;
        fill-rule: evenodd;
      }
    </style>
  </defs>
  <path id="poradnik_przedsiebiorcy" data-name="poradnik przedsiebiorcy" class="cls-1" d="M1081,325v28h28.1V325H1081Zm16.77,9.059,1.24-2.059a0.449,0.449,0,0,1,.66-0.165,0.441,0.441,0,0,1,.17.659h0l-1.24,2.059a0.452,0.452,0,0,1-.41.247,0.535,0.535,0,0,1-.5-0.494A0.308,0.308,0,0,0,1097.77,334.059Zm-3.47-.824v-2.223a0.5,0.5,0,0,1,1,0v2.223a0.535,0.535,0,0,1-.5.494,0.436,0.436,0,0,1-.5-0.494h0Zm-4.38-1.317a0.547,0.547,0,0,1,.75.164l1.24,1.977a0.539,0.539,0,0,1-.17.741,0.3,0.3,0,0,1-.25.082,0.452,0.452,0,0,1-.41-0.247l-1.24-1.976A0.531,0.531,0,0,1,1089.92,331.918Zm0.09,4.941a0.467,0.467,0,0,1-.42.247h0a0.289,0.289,0,0,1-.24-0.082l-2.07-1.236a0.448,0.448,0,0,1-.17-0.659,0.457,0.457,0,0,1,.67-0.164h0l2.06,1.235A0.434,0.434,0,0,1,1090.01,336.859Zm6.52,10.459h-3.38a0.495,0.495,0,1,1,0-.989h3.38a0.535,0.535,0,0,1,.5.5A0.473,0.473,0,0,1,1096.53,347.318Zm0-1.565h-3.38a0.494,0.494,0,1,1,0-.988h3.38a0.535,0.535,0,0,1,.5.494A0.437,0.437,0,0,1,1096.53,345.753Zm1.24-3.953a2.356,2.356,0,0,0-.74,1.4,0.535,0.535,0,0,1-.5.494h-3.38a0.535,0.535,0,0,1-.5-0.494,2.154,2.154,0,0,0-.74-1.4,4.656,4.656,0,0,1-1.33-3.212,4.315,4.315,0,0,1,8.6,0A5.059,5.059,0,0,1,1097.77,341.8Zm4.63-6.012h0l-1.98,1.236a0.309,0.309,0,0,1-.25.082,0.535,0.535,0,0,1-.5-0.494,0.464,0.464,0,0,1,.25-0.412l1.99-1.235A0.479,0.479,0,1,1,1102.4,335.788Zm-4.38,2.8a3.88,3.88,0,0,1-1.07,2.553,3.608,3.608,0,0,0-.91,1.565h-2.48a3.816,3.816,0,0,0-.91-1.565,3.49,3.49,0,0,1-1.07-2.553,3.058,3.058,0,0,1,3.22-2.964A3.011,3.011,0,0,1,1098.02,338.588Zm26.28-6.506h-5.54V333.4l0.83,0.165v9.306l-0.83.164v1.318h4.3v-1.318l-1.07-.164v-3.13h2.31c2.81,0,4.13-1.153,4.13-3.953C1128.43,332.824,1126.78,332.082,1124.3,332.082Zm-0.08,5.93h-2.23v-4.118h2.14c1.24,0,1.82.412,1.82,2.059S1125.37,338.012,1124.22,338.012Zm8.76-2.141c-2.98,0-3.72,1.564-3.72,4.364,0,2.718.74,4.283,3.72,4.283s3.71-1.565,3.71-4.365C1136.69,337.518,1135.87,335.871,1132.98,335.871Zm0,7.082c-1.41,0-1.49-.988-1.49-2.635,0-1.73.16-2.718,1.49-2.718,1.4,0,1.48.988,1.48,2.635C1134.46,341.965,1134.3,342.953,1132.98,342.953Zm7.76-5.929-0.16-.906h-2.56v1.317l0.74,0.165v5.271l-0.74.164v1.318h3.96v-1.318l-0.99-.164v-4.447a3.624,3.624,0,0,1,2.07-.659,1.086,1.086,0,0,1,.58.082v-1.894h-0.58A3.227,3.227,0,0,0,1140.74,337.024Zm10.58,1.647c0-2.142-1.24-2.8-3.39-2.8a16.311,16.311,0,0,0-2.81.329l0.17,1.565a10.262,10.262,0,0,1,2.23-.247c1.24,0,1.57.329,1.57,1.235v0.659c-0.33,0-.99-0.083-1.49-0.083-2.06,0-3.14.824-3.14,2.636a2.41,2.41,0,0,0,2.65,2.553,3.864,3.864,0,0,0,2.31-.742l0.08,0.5h2.48v-1.318l-0.66-.082v-4.2Zm-2.23,3.953a2.783,2.783,0,0,1-1.4.411,0.96,0.96,0,0,1-1.08-1.07c0-.741.41-1.071,1.49-1.071h0.99v1.73Zm11.24-10.542h-2.98V333.4l0.75,0.165v2.717a4.247,4.247,0,0,0-1.82-.411c-2.31,0-3.14,1.811-3.14,4.447,0,1.976.41,4.2,2.89,4.2a4.949,4.949,0,0,0,2.23-.577l0.08,0.412h2.73v-1.318l-0.74-.164V332.082Zm-2.23,10.459a3.107,3.107,0,0,1-1.33.33c-1.07,0-1.4-.824-1.4-2.636,0-2.059.33-2.717,1.4-2.717a4,4,0,0,1,1.24.247v4.776h0.09Zm11.73-4.117c0-1.4-.58-2.553-2.31-2.553a6.451,6.451,0,0,0-2.73.741l-0.08-.577h-2.56v1.318l0.74,0.247v5.271l-0.74.164v1.318h3.71v-1.318l-0.74-.164v-4.859a4.086,4.086,0,0,1,1.57-.412c0.74,0,.99.412,0.99,1.318v5.517h3.06v-1.317l-0.83-.165v-4.529h-0.08Zm4.79-2.306h-2.97v1.317l0.74,0.165v5.271l-0.74.164v1.318h3.72v-1.318l-0.75-.164v-6.753Zm0-4.036h-2.23v2.389h2.23v-2.389Zm7.85,8.565a1.91,1.91,0,0,0-.66-0.741l1.57-2.306,0.83-.165v-1.317h-2.15l-1.98,3.211h-0.66v-7.247h-2.98V333.4l0.75,0.165v9.306l-0.75.164v1.318h3.72v-1.318l-0.74-.164v-1.895h0.41a0.824,0.824,0,0,1,.83.577l1.57,2.882h2.48v-1.317l-0.83-.165Zm12.48-8.565h-5.53V333.4l0.82,0.165v9.306l-0.82.164v1.318h4.29v-1.318l-1.07-.164v-3.13h2.31c2.81,0,4.13-1.153,4.13-3.953C1199,332.824,1197.43,332.082,1194.95,332.082Zm-0.08,5.93h-2.23v-4.118h2.15c1.24,0,1.81.412,1.81,2.059S1196.03,338.012,1194.87,338.012Zm8.1-.988-0.17-.989h-2.56v1.318l0.74,0.165v5.27l-0.74.165v1.318h3.97v-1.318l-0.99-.165v-4.447a3.593,3.593,0,0,1,2.06-.659,1.055,1.055,0,0,1,.58.083v-1.894c-0.17,0-.33-0.083-0.58-0.083A4.237,4.237,0,0,0,1202.97,337.024Zm9.09,5.682h-2.48l4.13-5.271v-1.317h-6.86v2.47h1.57l0.17-.823h2.31l-4.13,5.27v1.318h7.02v-2.471h-1.57Zm6.36-6.835c-2.81,0-3.64,1.729-3.64,4.447,0,2.47.75,4.282,3.81,4.282a9.012,9.012,0,0,0,2.97-.494l-0.33-1.565a9.257,9.257,0,0,1-2.4.33c-1.48,0-1.81-.659-1.81-1.977h4.71v-1.318C1221.73,337.353,1221.06,335.871,1218.42,335.871Zm-1.4,3.623c0-1.4.33-1.976,1.4-1.976,1.16,0,1.24.741,1.24,1.976h-2.64Zm13.3-7.412h-2.98V333.4l0.75,0.165v2.717a4.247,4.247,0,0,0-1.82-.411c-2.31,0-3.14,1.811-3.14,4.447,0,1.976.41,4.2,2.89,4.2a4.949,4.949,0,0,0,2.23-.577l0.09,0.412h2.72v-1.318l-0.74-.164V332.082Zm-2.23,10.459a3.1,3.1,0,0,1-1.32.33c-1.08,0-1.41-.824-1.41-2.636,0-2.059.33-2.717,1.41-2.717a4.11,4.11,0,0,1,1.24.247v4.776h0.08Zm7.77-3.212c-1.08-.329-1.41-0.411-1.41-0.988,0-.494.41-0.823,1.41-0.823a2.823,2.823,0,0,1,.82.082l0.17,0.906h1.57l0.08-2.059a10.055,10.055,0,0,0-2.81-.494c-1.73,0-3.39.659-3.39,2.553,0,1.812,1.41,2.223,2.89,2.635,1,0.247,1.41.494,1.41,1.071,0,0.659-.58.906-1.41,0.906a4.87,4.87,0,0,1-1.15-.165l-0.17-.906h-1.57l-0.08,2.059a9.7,9.7,0,0,0,2.97.494c1.99,0,3.56-.741,3.56-2.635S1237.34,339.741,1235.86,339.329Zm7.02-7.247h-2.23v2.389h2.23v-2.389Zm0,4.036h-2.98v1.317l0.75,0.165v5.271l-0.75.164v1.318h3.72v-1.318l-0.74-.164v-6.753Zm5.54-.247c-2.81,0-3.64,1.729-3.64,4.364,0,2.553.74,4.283,3.8,4.283,0.33,0,.66-0.083.99-0.083v0.083a2.944,2.944,0,0,0-1.57,2.306c0,0.741.58,1.4,1.82,1.4a3.737,3.737,0,0,0,1.32-.248v-1.07a2.024,2.024,0,0,1-.66.082,0.491,0.491,0,0,1-.58-0.576,3.347,3.347,0,0,1,1.66-2.388l-0.33-1.483a9.156,9.156,0,0,1-2.32.33c-1.49,0-1.82-.659-1.9-1.977h4.71v-1.318C1251.72,337.353,1250.98,335.871,1248.42,335.871Zm-1.41,3.623c0-1.4.33-1.976,1.41-1.976,1.15,0,1.24.741,1.24,1.976h-2.65Zm10.66-3.623a3.848,3.848,0,0,0-1.9.494v-4.283h-2.97V333.4l0.74,0.165v10.623a18.051,18.051,0,0,0,3.39.412c3.14,0,3.72-1.812,3.72-4.447C1260.65,338.094,1260.23,335.871,1257.67,335.871Zm-0.74,7.082a6.445,6.445,0,0,1-1.16-.165v-4.941a3.468,3.468,0,0,1,1.24-.329c1.16,0,1.41.823,1.41,2.635C1258.42,342.294,1258.08,342.953,1256.93,342.953Zm8.01-10.871h-2.23v2.389h2.23v-2.389Zm0,4.036h-2.97v1.317l0.74,0.165v5.271l-0.74.164v1.318h3.72v-1.318l-0.75-.164v-6.753Zm5.62-.247c-2.97,0-3.72,1.564-3.72,4.364,0,2.718.75,4.283,3.72,4.283s3.72-1.565,3.72-4.365C1274.28,337.518,1273.54,335.871,1270.56,335.871Zm0,7.082c-1.4,0-1.49-.988-1.49-2.635,0-1.73.17-2.718,1.49-2.718,1.41,0,1.49.988,1.49,2.635C1272.05,341.965,1271.97,342.953,1270.56,342.953Zm7.85-5.929-0.16-.989h-2.56v1.318l0.74,0.165v5.27l-0.74.165v1.318h3.96v-1.318l-0.99-.165v-4.447a3.624,3.624,0,0,1,2.07-.659,1.034,1.034,0,0,1,.57.083v-1.894c-0.16,0-.33-0.083-0.57-0.083A4.265,4.265,0,0,0,1278.41,337.024Zm7.69,5.929c-1.49,0-1.74-.906-1.74-2.8,0-1.812.25-2.553,1.57-2.553a2.11,2.11,0,0,1,.75.082l0.16,0.989h1.57l0.08-2.389a13.6,13.6,0,0,0-2.64-.329c-3.06,0-3.72,1.812-3.72,4.365,0,2.635.74,4.282,3.64,4.282a10.152,10.152,0,0,0,2.97-.494l-0.41-1.565A7.6,7.6,0,0,1,1286.1,342.953Zm8.51-6.835v1.317l0.58,0.165-0.75,2.059a13.858,13.858,0,0,0-.74,3.212h-0.17a12.437,12.437,0,0,0-.66-3.459l-0.57-1.812,0.57-.165v-1.317h-3.72v1.317l0.83,0.165,2.32,6.835h0.49l-0.33.989a1.444,1.444,0,0,1-1.57,1.152,5.966,5.966,0,0,1-1.16-.082l-0.24,1.565a10.073,10.073,0,0,0,1.57.165c1.73,0,2.56-.824,3.14-2.553l2.97-8.071,0.83-.165v-1.317h-3.39Z" transform="translate(-1081 -325)"/>
</svg>
