<?xml version="1.0" encoding="utf-8"?>
<!-- Generator: Adobe Illustrator 22.1.0, SVG Export Plug-In . SVG Version: 6.00 Build 0)  -->
<svg version="1.1" id="Warstwa_1" xmlns="http://www.w3.org/2000/svg" xmlns:xlink="http://www.w3.org/1999/xlink" x="0px" y="0px"
	 viewBox="0 0 533.3 149.9" style="enable-background:new 0 0 533.3 149.9;" xml:space="preserve">
<style type="text/css">
	.st0{fill:#C1C5D0;}
	.st1{fill:#FFFFFF;}
	.st2{fill:#FEFFFC;}
	.st3{fill:#F8F8F8;}
	.st4{fill:#F7F7F7;}
	.st5{fill:#F6F7F7;}
	.st6{fill:#F6F6F7;}
	.st7{fill:#F5F5F6;}
	.st8{fill:#F4F4F5;}
	.st9{fill:#F2F3F4;}
	.st10{fill:#F1F2F3;}
	.st11{fill:#F1F1F3;}
	.st12{fill:#F0F0F2;}
	.st13{fill:#EEEFF1;}
	.st14{fill:#EDEEF0;}
	.st15{fill:#ECEDEF;}
	.st16{fill:#EBECEF;}
	.st17{fill:#EAEBEE;}
	.st18{fill:#E9EAED;}
	.st19{fill:#E8E9EC;}
	.st20{fill:#E7E9EC;}
	.st21{fill:#E6E7EB;}
	.st22{fill:#E5E6EA;}
	.st23{fill:#E4E6EA;}
	.st24{fill:#E3E5E9;}
	.st25{fill:#E2E4E8;}
	.st26{fill:#E2E3E8;}
	.st27{fill:#E1E2E7;}
	.st28{fill:#E0E2E7;}
	.st29{fill:#DFE1E6;}
	.st30{fill:#DEE0E5;}
	.st31{fill:#DDDFE4;}
	.st32{fill:#DCDEE4;}
	.st33{fill:#DBDDE3;}
	.st34{fill:#DADCE2;}
	.st35{fill:#D9DBE1;}
	.st36{fill:#D8DBE1;}
	.st37{fill:#D8DAE1;}
	.st38{fill:#D7D9E0;}
	.st39{fill:#D6D8DF;}
	.st40{fill:#D5D8DF;}
	.st41{fill:#D4D7DE;}
	.st42{fill:#D3D6DD;}
	.st43{fill:#D3D5DD;}
	.st44{fill:#D2D4DC;}
	.st45{fill:#D1D4DC;}
	.st46{fill:#D0D3DB;}
	.st47{fill:#CFD2DA;}
	.st48{fill:#CDD1D9;}
	.st49{fill:#CDD0D9;}
	.st50{fill:#CCCFD8;}
	.st51{fill:#CBCED7;}
	.st52{fill:#C9CDD6;}
	.st53{fill:#C8CBD5;}
	.st54{fill:#C7CAD4;}
	.st55{fill:#C6CAD4;}
	.st56{fill:#C5C9D3;}
	.st57{fill:#C4C8D2;}
	.st58{fill:#C4C7D2;}
	.st59{fill:#C2C6D1;}
</style>
<title>Taelo_RGB</title>
<path class="st0" d="M205.6,117c5.5,0,9,2.4,9,6.3c0.1,2.7-1.8,5-4.4,5.5c3.1,0.5,5.4,3.2,5.3,6.4c0,4.3-3.6,7-9.5,7h-12V117
	L205.6,117z M199.7,127.1h5.6c2.1,0,3.5-1,3.5-2.8s-1.3-2.7-3.5-2.7h-5.6V127.1z M199.7,137.5h5.6c2.7,0,4.3-1.1,4.3-3.1
	s-1.6-3-4.3-3h-5.6V137.5z"/>
<path class="st0" d="M231.8,142.2h-5.7v-8l-9.3-17.2h5.7l6.5,11.3l6.3-11.3h5.7l-9.2,17.1V142.2z"/>
<path class="st0" d="M276.2,142.2v-17l-6.7,14.4h-3.7l-6.7-14.4v17h-5.1V117h6.4l7.3,15.4l7.3-15.4h6.3v25.2H276.2z"/>
<path class="st0" d="M312.9,129.6c0,7.3-5.8,12.9-13.5,12.9s-13.5-5.5-13.5-12.9s5.8-12.8,13.5-12.8S312.9,122.3,312.9,129.6z
	 M291.7,129.6c0,4.3,3.4,7.9,7.8,7.9c4.3,0,7.9-3.4,7.9-7.8c0-4.3-3.4-7.9-7.8-7.9S291.7,125.2,291.7,129.6
	C291.7,129.5,291.7,129.5,291.7,129.6L291.7,129.6z"/>
<path class="st0" d="M330.3,134.1c0,5.3-3.2,8.3-8.5,8.3c-3.2,0-6.3-1.4-8.3-3.9l2.6-4c1.3,1.6,3.3,2.6,5.3,2.8c1.9,0,3-1.1,3-3.3
	v-12.2h-8.7V117h14.4L330.3,134.1z"/>
<path class="st0" d="M361.5,129.6c0,7.3-5.8,12.9-13.5,12.9s-13.5-5.5-13.5-12.9s5.8-12.8,13.5-12.8S361.5,122.3,361.5,129.6z
	 M340.2,129.6c0,4.3,3.4,7.9,7.8,7.9c4.3,0,7.9-3.4,7.9-7.8s-3.4-7.9-7.8-7.9S340.3,125.2,340.2,129.6
	C340.2,129.5,340.2,129.5,340.2,129.6z"/>
<path class="st0" d="M214.4,24.3h-20.3V7.7h58.7v16.5h-20.5v61.1h-17.9V24.3z"/>
<path class="st0" d="M323,85.4h-19.9l-6.8-16.2h-22l-6.8,16.2h-19.8l36.8-78.3h1.5L323,85.4z M280.2,55.2h10.3l-5.1-12.4L280.2,55.2
	z"/>
<path class="st0" d="M351,55.3v13.5H387v16.5h-53.7V7.7H387v16.5H351v14.5h28.1v16.5H351z"/>
<path class="st0" d="M420.9,68.9H449v16.5H403V7.7h17.9V68.9z"/>
<path class="st0" d="M533.3,46.5c0,16.6-9.1,40.1-38.5,40.1s-38.6-23.5-38.6-40.1c0-16.2,9.1-40,38.6-40S533.3,30.3,533.3,46.5z
	 M515.2,46.5c0-5.8-2.5-23.3-20.4-23.3s-20.5,17.5-20.5,23.3S476.8,70,494.8,70S515.2,52.2,515.2,46.5z"/>
<circle class="st1" cx="132.7" cy="74.9" r="17.2"/>
<circle class="st2" cx="132.6" cy="71.2" r="17.2"/>
<circle class="st3" cx="132.2" cy="67.5" r="17.2"/>
<circle class="st3" cx="131.6" cy="63.9" r="17.2"/>
<circle class="st4" cx="130.8" cy="60.3" r="17.2"/>
<circle class="st5" cx="129.8" cy="56.9" r="17.2"/>
<circle class="st6" cx="128.6" cy="53.5" r="17.2"/>
<circle class="st7" cx="127.2" cy="50.2" r="17.2"/>
<circle class="st7" cx="125.5" cy="47.1" r="17.2"/>
<circle class="st8" cx="123.7" cy="44" r="17.2"/>
<circle class="st8" cx="121.8" cy="41.1" r="17.2"/>
<circle class="st8" cx="119.6" cy="38.3" r="17.2"/>
<circle class="st9" cx="117.3" cy="35.7" r="17.2"/>
<circle class="st9" cx="114.8" cy="33.2" r="17.2"/>
<circle class="st10" cx="112.2" cy="30.8" r="17.2"/>
<circle class="st10" cx="109.5" cy="28.6" r="17.2"/>
<circle class="st11" cx="106.6" cy="26.6" r="17.2"/>
<circle class="st12" cx="103.6" cy="24.8" r="17.2"/>
<circle class="st12" cx="100.4" cy="23.1" r="17.2"/>
<circle class="st13" cx="97.2" cy="21.6" r="17.2"/>
<circle class="st13" cx="93.9" cy="20.4" r="17.2"/>
<circle class="st14" cx="90.4" cy="19.3" r="17.2"/>
<circle class="st14" cx="86.9" cy="18.4" r="17.2"/>
<circle class="st14" cx="83.3" cy="17.8" r="17.2"/>
<circle class="st15" cx="79.6" cy="17.4" r="17.2"/>
<circle class="st16" cx="75.9" cy="17.2" r="17.2"/>
<circle class="st17" cx="72.1" cy="17.2" r="17.2"/>
<circle class="st17" cx="68.4" cy="17.5" r="17.2"/>
<circle class="st17" cx="64.7" cy="18.1" r="17.2"/>
<circle class="st18" cx="61.2" cy="18.8" r="17.2"/>
<circle class="st18" cx="57.7" cy="19.8" r="17.2"/>
<circle class="st19" cx="54.3" cy="21" r="17.2"/>
<circle class="st20" cx="51" cy="22.4" r="17.2"/>
<circle class="st20" cx="47.8" cy="23.9" r="17.2"/>
<circle class="st21" cx="44.8" cy="25.7" r="17.2"/>
<circle class="st21" cx="41.8" cy="27.6" r="17.2"/>
<circle class="st22" cx="39" cy="29.7" r="17.2"/>
<circle class="st22" cx="36.3" cy="32" r="17.2"/>
<circle class="st23" cx="33.8" cy="34.4" r="17.2"/>
<circle class="st24" cx="31.4" cy="37" r="17.2"/>
<circle class="st24" cx="29.1" cy="39.7" r="17.2"/>
<circle class="st25" cx="27.1" cy="42.6" r="17.2"/>
<circle class="st26" cx="25.2" cy="45.5" r="17.2"/>
<circle class="st26" cx="23.5" cy="48.6" r="17.2"/>
<circle class="st27" cx="22" cy="51.8" r="17.2"/>
<circle class="st28" cx="20.6" cy="55.2" r="17.2"/>
<circle class="st29" cx="19.5" cy="58.6" r="17.2"/>
<circle class="st29" cx="18.6" cy="62.1" r="17.2"/>
<circle class="st29" cx="17.9" cy="65.7" r="17.2"/>
<circle class="st30" cx="17.4" cy="69.3" r="17.2"/>
<circle class="st30" cx="17.2" cy="73.1" r="17.2"/>
<circle class="st31" cx="17.2" cy="76.8" r="17.2"/>
<circle class="st32" cx="17.4" cy="80.6" r="17.2"/>
<circle class="st33" cx="17.9" cy="84.2" r="17.2"/>
<circle class="st33" cx="18.6" cy="87.8" r="17.2"/>
<circle class="st33" cx="19.5" cy="91.3" r="17.2"/>
<circle class="st34" cx="20.6" cy="94.7" r="17.2"/>
<circle class="st34" cx="22" cy="98.1" r="17.2"/>
<circle class="st35" cx="23.5" cy="101.3" r="17.2"/>
<circle class="st36" cx="25.2" cy="104.4" r="17.2"/>
<circle class="st37" cx="27.1" cy="107.3" r="17.2"/>
<circle class="st38" cx="29.1" cy="110.2" r="17.2"/>
<circle class="st38" cx="31.4" cy="112.9" r="17.2"/>
<circle class="st39" cx="33.8" cy="115.5" r="17.2"/>
<circle class="st39" cx="36.3" cy="117.9" r="17.2"/>
<circle class="st40" cx="39" cy="120.2" r="17.2"/>
<circle class="st41" cx="41.8" cy="122.3" r="17.2"/>
<circle class="st41" cx="44.8" cy="124.2" r="17.2"/>
<circle class="st42" cx="47.8" cy="126" r="17.2"/>
<circle class="st42" cx="51" cy="127.6" r="17.2"/>
<circle class="st43" cx="54.3" cy="128.9" r="17.2"/>
<circle class="st44" cx="57.7" cy="130.1" r="17.2"/>
<circle class="st45" cx="61.2" cy="131.1" r="17.2"/>
<circle class="st46" cx="64.7" cy="131.8" r="17.2"/>
<circle class="st46" cx="68.4" cy="132.4" r="17.2"/>
<circle class="st46" cx="72.1" cy="132.6" r="17.2"/>
<circle class="st47" cx="75.9" cy="132.7" r="17.2"/>
<circle class="st47" cx="79.6" cy="132.5" r="17.2"/>
<circle class="st48" cx="83.3" cy="132.1" r="17.2"/>
<circle class="st49" cx="86.9" cy="131.5" r="17.2"/>
<circle class="st49" cx="90.4" cy="130.6" r="17.2"/>
<circle class="st50" cx="93.9" cy="129.5" r="17.2"/>
<circle class="st50" cx="97.2" cy="128.3" r="17.2"/>
<circle class="st51" cx="100.4" cy="126.8" r="17.2"/>
<circle class="st51" cx="103.6" cy="125.1" r="17.2"/>
<circle class="st52" cx="106.6" cy="123.3" r="17.2"/>
<circle class="st52" cx="109.5" cy="121.2" r="17.2"/>
<circle class="st52" cx="112.2" cy="119.1" r="17.2"/>
<circle class="st53" cx="114.8" cy="116.7" r="17.2"/>
<circle class="st53" cx="117.3" cy="114.2" r="17.2"/>
<circle class="st54" cx="119.6" cy="111.6" r="17.2"/>
<circle class="st55" cx="121.8" cy="108.8" r="17.2"/>
<circle class="st55" cx="123.7" cy="105.9" r="17.2"/>
<circle class="st56" cx="125.5" cy="102.8" r="17.2"/>
<circle class="st56" cx="127.2" cy="99.7" r="17.2"/>
<circle class="st57" cx="128.6" cy="96.4" r="17.2"/>
<circle class="st57" cx="129.8" cy="93" r="17.2"/>
<circle class="st58" cx="130.8" cy="89.6" r="17.2"/>
<circle class="st59" cx="131.6" cy="86" r="17.2"/>
<circle class="st59" cx="132.2" cy="82.4" r="17.2"/>
<circle class="st0" cx="132.6" cy="78.7" r="17.2"/>
<circle class="st0" cx="132.7" cy="74.9" r="17.2"/>
</svg>
