<svg xmlns="http://www.w3.org/2000/svg" xmlns:xlink="http://www.w3.org/1999/xlink" width="19.03" height="11" viewBox="0 0 19.03 11">
  <defs>
    <style>
      .cls-1 {
        fill: #fff;
        fill-rule: evenodd;
        filter: url(#filter);
      }
    </style>
    <filter id="filter" x="1346" y="1637" width="19.03" height="11" filterUnits="userSpaceOnUse">
      <feFlood result="flood" flood-color="#FF3942"/>
      <feComposite result="composite" operator="in" in2="SourceGraphic"/>
      <feBlend result="blend" in2="SourceGraphic"/>
    </filter>
  </defs>
  <path id="Kształt_5_kopia_4" data-name="Kształt 5 kopia 4" class="cls-1" d="M1346.82,1643.27h15.37l-3.66,3.42a0.724,0.724,0,0,0,0,1.09,0.86,0.86,0,0,0,1.16,0l5.07-4.74a0.727,0.727,0,0,0,0-1.08l-5.07-4.74a0.875,0.875,0,0,0-1.16,0,0.724,0.724,0,0,0,0,1.09l3.66,3.42h-15.37A0.772,0.772,0,1,0,1346.82,1643.27Z" transform="translate(-1346 -1637)"/>
</svg>
